<?xml version="1.0" encoding="UTF-8" standalone="no"?>
<!DOCTYPE svg PUBLIC "-//W3C//DTD SVG 1.1//EN"
 "http://www.w3.org/Graphics/SVG/1.1/DTD/svg11.dtd">
<!-- Generated by graphviz version 2.30.1 (20180420.1509)
 -->
<!-- Title: %3 Pages: 1 -->
<svg width="280pt" height="761pt"
 viewBox="0.00 0.00 280.00 761.00" xmlns="http://www.w3.org/2000/svg" xmlns:xlink="http://www.w3.org/1999/xlink">
<g id="graph0" class="graph" transform="scale(1 1) rotate(0) translate(4 757)">
<title>%3</title>
<polygon fill="white" stroke="white" points="-4,5 -4,-757 277,-757 277,5 -4,5"/>
<text text-anchor="middle" x="136" y="-7.8" font-family="Times,serif" font-size="14.00">教师工作时间安排流程</text>
<!-- 安排上课时间 -->
<g id="node1" class="node"><title>安排上课时间</title>
<path fill="bisque" stroke="black" d="M107,-665C107,-665 29,-665 29,-665 23,-665 17,-659 17,-653 17,-653 17,-641 17,-641 17,-635 23,-629 29,-629 29,-629 107,-629 107,-629 113,-629 119,-635 119,-641 119,-641 119,-653 119,-653 119,-659 113,-665 107,-665"/>
<text text-anchor="middle" x="68" y="-643.3" font-family="Times,serif" font-size="14.00">安排上课时间</text>
</g>
<!-- 安排完整2天休息日 -->
<g id="node2" class="node"><title>安排完整2天休息日</title>
<path fill="bisque" stroke="black" d="M124.25,-591C124.25,-591 11.75,-591 11.75,-591 5.75,-591 -0.25,-585 -0.25,-579 -0.25,-579 -0.25,-567 -0.25,-567 -0.25,-561 5.75,-555 11.75,-555 11.75,-555 124.25,-555 124.25,-555 130.25,-555 136.25,-561 136.25,-567 136.25,-567 136.25,-579 136.25,-579 136.25,-585 130.25,-591 124.25,-591"/>
<text text-anchor="middle" x="68" y="-569.3" font-family="Times,serif" font-size="14.00">安排完整2天休息日</text>
</g>
<!-- 安排上课时间&#45;&gt;安排完整2天休息日 -->
<g id="edge1" class="edge"><title>安排上课时间&#45;&gt;安排完整2天休息日</title>
<path fill="none" stroke="black" d="M68,-628.937C68,-620.807 68,-610.876 68,-601.705"/>
<polygon fill="black" stroke="black" points="71.5001,-601.441 68,-591.441 64.5001,-601.441 71.5001,-601.441"/>
</g>
<!-- 安排教研时间 -->
<g id="node3" class="node"><title>安排教研时间</title>
<path fill="bisque" stroke="black" d="M107,-517C107,-517 29,-517 29,-517 23,-517 17,-511 17,-505 17,-505 17,-493 17,-493 17,-487 23,-481 29,-481 29,-481 107,-481 107,-481 113,-481 119,-487 119,-493 119,-493 119,-505 119,-505 119,-511 113,-517 107,-517"/>
<text text-anchor="middle" x="68" y="-495.3" font-family="Times,serif" font-size="14.00">安排教研时间</text>
</g>
<!-- 安排完整2天休息日&#45;&gt;安排教研时间 -->
<g id="edge2" class="edge"><title>安排完整2天休息日&#45;&gt;安排教研时间</title>
<path fill="none" stroke="black" d="M68,-554.937C68,-546.807 68,-536.876 68,-527.705"/>
<polygon fill="black" stroke="black" points="71.5001,-527.441 68,-517.441 64.5001,-527.441 71.5001,-527.441"/>
</g>
<!-- 安排执勤时间 -->
<g id="node4" class="node"><title>安排执勤时间</title>
<path fill="bisque" stroke="black" d="M107,-443C107,-443 29,-443 29,-443 23,-443 17,-437 17,-431 17,-431 17,-419 17,-419 17,-413 23,-407 29,-407 29,-407 107,-407 107,-407 113,-407 119,-413 119,-419 119,-419 119,-431 119,-431 119,-437 113,-443 107,-443"/>
<text text-anchor="middle" x="68" y="-421.3" font-family="Times,serif" font-size="14.00">安排执勤时间</text>
</g>
<!-- 安排教研时间&#45;&gt;安排执勤时间 -->
<g id="edge3" class="edge"><title>安排教研时间&#45;&gt;安排执勤时间</title>
<path fill="none" stroke="black" d="M68,-480.937C68,-472.807 68,-462.876 68,-453.705"/>
<polygon fill="black" stroke="black" points="71.5001,-453.441 68,-443.441 64.5001,-453.441 71.5001,-453.441"/>
</g>
<!-- 安排听课时间 -->
<g id="node5" class="node"><title>安排听课时间</title>
<path fill="bisque" stroke="black" d="M107,-369C107,-369 29,-369 29,-369 23,-369 17,-363 17,-357 17,-357 17,-345 17,-345 17,-339 23,-333 29,-333 29,-333 107,-333 107,-333 113,-333 119,-339 119,-345 119,-345 119,-357 119,-357 119,-363 113,-369 107,-369"/>
<text text-anchor="middle" x="68" y="-347.3" font-family="Times,serif" font-size="14.00">安排听课时间</text>
</g>
<!-- 安排执勤时间&#45;&gt;安排听课时间 -->
<g id="edge4" class="edge"><title>安排执勤时间&#45;&gt;安排听课时间</title>
<path fill="none" stroke="black" d="M68,-406.937C68,-398.807 68,-388.876 68,-379.705"/>
<polygon fill="black" stroke="black" points="71.5001,-379.441 68,-369.441 64.5001,-379.441 71.5001,-379.441"/>
</g>
<!-- 安排接待家长时间 -->
<g id="node6" class="node"><title>安排接待家长时间</title>
<path fill="bisque" stroke="black" d="M121.25,-295C121.25,-295 14.75,-295 14.75,-295 8.75,-295 2.75,-289 2.75,-283 2.75,-283 2.75,-271 2.75,-271 2.75,-265 8.75,-259 14.75,-259 14.75,-259 121.25,-259 121.25,-259 127.25,-259 133.25,-265 133.25,-271 133.25,-271 133.25,-283 133.25,-283 133.25,-289 127.25,-295 121.25,-295"/>
<text text-anchor="middle" x="68" y="-273.3" font-family="Times,serif" font-size="14.00">安排接待家长时间</text>
</g>
<!-- 安排听课时间&#45;&gt;安排接待家长时间 -->
<g id="edge5" class="edge"><title>安排听课时间&#45;&gt;安排接待家长时间</title>
<path fill="none" stroke="black" d="M68,-332.937C68,-324.807 68,-314.876 68,-305.705"/>
<polygon fill="black" stroke="black" points="71.5001,-305.441 68,-295.441 64.5001,-305.441 71.5001,-305.441"/>
</g>
<!-- 安排市场工作时间 -->
<g id="node7" class="node"><title>安排市场工作时间</title>
<path fill="bisque" stroke="black" d="M121.25,-221C121.25,-221 14.75,-221 14.75,-221 8.75,-221 2.75,-215 2.75,-209 2.75,-209 2.75,-197 2.75,-197 2.75,-191 8.75,-185 14.75,-185 14.75,-185 121.25,-185 121.25,-185 127.25,-185 133.25,-191 133.25,-197 133.25,-197 133.25,-209 133.25,-209 133.25,-215 127.25,-221 121.25,-221"/>
<text text-anchor="middle" x="68" y="-199.3" font-family="Times,serif" font-size="14.00">安排市场工作时间</text>
</g>
<!-- 安排接待家长时间&#45;&gt;安排市场工作时间 -->
<g id="edge6" class="edge"><title>安排接待家长时间&#45;&gt;安排市场工作时间</title>
<path fill="none" stroke="black" d="M68,-258.937C68,-250.807 68,-240.876 68,-231.705"/>
<polygon fill="black" stroke="black" points="71.5001,-231.441 68,-221.441 64.5001,-231.441 71.5001,-231.441"/>
</g>
<!-- 安排备课时间 -->
<g id="node9" class="node"><title>安排备课时间</title>
<path fill="bisque" stroke="black" d="M107,-133C107,-133 29,-133 29,-133 23,-133 17,-127 17,-121 17,-121 17,-109 17,-109 17,-103 23,-97 29,-97 29,-97 107,-97 107,-97 113,-97 119,-103 119,-109 119,-109 119,-121 119,-121 119,-127 113,-133 107,-133"/>
<text text-anchor="middle" x="68" y="-111.3" font-family="Times,serif" font-size="14.00">安排备课时间</text>
</g>
<!-- 安排市场工作时间&#45;&gt;安排备课时间 -->
<g id="edge8" class="edge"><title>安排市场工作时间&#45;&gt;安排备课时间</title>
<path fill="none" stroke="black" d="M68,-184.597C68,-172.746 68,-156.817 68,-143.292"/>
<polygon fill="black" stroke="black" points="71.5001,-143.084 68,-133.084 64.5001,-143.084 71.5001,-143.084"/>
<text text-anchor="middle" x="154" y="-155.3" font-family="Times,serif" font-size="14.00">剩余的每周工作时间小时数</text>
</g>
<!-- 开始 -->
<g id="node8" class="node"><title>开始</title>
<path fill="bisque" stroke="black" d="M83,-753C83,-753 53,-753 53,-753 47,-753 41,-747 41,-741 41,-741 41,-729 41,-729 41,-723 47,-717 53,-717 53,-717 83,-717 83,-717 89,-717 95,-723 95,-729 95,-729 95,-741 95,-741 95,-747 89,-753 83,-753"/>
<text text-anchor="middle" x="68" y="-731.3" font-family="Times,serif" font-size="14.00">开始</text>
</g>
<!-- 开始&#45;&gt;安排上课时间 -->
<g id="edge7" class="edge"><title>开始&#45;&gt;安排上课时间</title>
<path fill="none" stroke="black" d="M68,-716.597C68,-704.746 68,-688.817 68,-675.292"/>
<polygon fill="black" stroke="black" points="71.5001,-675.084 68,-665.084 64.5001,-675.084 71.5001,-675.084"/>
<text text-anchor="middle" x="170" y="-687.3" font-family="Times,serif" font-size="14.00">通过设置班级上课时间,任课教师</text>
</g>
<!-- 结束 -->
<g id="node10" class="node"><title>结束</title>
<path fill="bisque" stroke="black" d="M83,-59C83,-59 53,-59 53,-59 47,-59 41,-53 41,-47 41,-47 41,-35 41,-35 41,-29 47,-23 53,-23 53,-23 83,-23 83,-23 89,-23 95,-29 95,-35 95,-35 95,-47 95,-47 95,-53 89,-59 83,-59"/>
<text text-anchor="middle" x="68" y="-37.3" font-family="Times,serif" font-size="14.00">结束</text>
</g>
<!-- 安排备课时间&#45;&gt;结束 -->
<g id="edge9" class="edge"><title>安排备课时间&#45;&gt;结束</title>
<path fill="none" stroke="black" d="M68,-96.937C68,-88.8072 68,-78.8761 68,-69.7047"/>
<polygon fill="black" stroke="black" points="71.5001,-69.4406 68,-59.4407 64.5001,-69.4407 71.5001,-69.4406"/>
</g>
</g>
</svg>
