<?xml version="1.0" encoding="UTF-8" standalone="no"?>
<!DOCTYPE svg PUBLIC "-//W3C//DTD SVG 1.1//EN"
 "http://www.w3.org/Graphics/SVG/1.1/DTD/svg11.dtd">
<!-- Generated by graphviz version 2.30.1 (20180420.1509)
 -->
<!-- Title: %3 Pages: 1 -->
<svg width="575pt" height="1008pt"
 viewBox="0.00 0.00 575.00 1008.00" xmlns="http://www.w3.org/2000/svg" xmlns:xlink="http://www.w3.org/1999/xlink">
<g id="graph0" class="graph" transform="scale(1 1) rotate(0) translate(4 1004)">
<title>%3</title>
<polygon fill="white" stroke="white" points="-4,5 -4,-1004 572,-1004 572,5 -4,5"/>
<!-- start -->
<g id="node1" class="node"><title>start</title>
<path fill="aquamarine" stroke="black" d="M355,-1000C355,-1000 325,-1000 325,-1000 319,-1000 313,-994 313,-988 313,-988 313,-976 313,-976 313,-970 319,-964 325,-964 325,-964 355,-964 355,-964 361,-964 367,-970 367,-976 367,-976 367,-988 367,-988 367,-994 361,-1000 355,-1000"/>
<text text-anchor="middle" x="340" y="-978.3" font-family="Times,serif" font-size="14.00">开始</text>
</g>
<!-- c1 -->
<g id="node13" class="node"><title>c1</title>
<path fill="beige" stroke="black" d="M328.194,-923.851C328.194,-923.851 252.902,-910.149 252.902,-910.149 246.999,-909.074 246.999,-906.926 252.902,-905.851 252.902,-905.851 328.194,-892.149 328.194,-892.149 334.097,-891.074 345.903,-891.074 351.806,-892.149 351.806,-892.149 427.098,-905.851 427.098,-905.851 433.001,-906.926 433.001,-909.074 427.098,-910.149 427.098,-910.149 351.806,-923.851 351.806,-923.851 345.903,-924.926 334.097,-924.926 328.194,-923.851"/>
<text text-anchor="middle" x="340" y="-904.3" font-family="Times,serif" font-size="14.00">是高中冲刺班?</text>
</g>
<!-- start&#45;&gt;c1 -->
<g id="edge1" class="edge"><title>start&#45;&gt;c1</title>
<path fill="none" stroke="black" d="M340,-963.937C340,-955.807 340,-945.876 340,-936.705"/>
<polygon fill="black" stroke="black" points="343.5,-936.441 340,-926.441 336.5,-936.441 343.5,-936.441"/>
</g>
<!-- end -->
<g id="node2" class="node"><title>end</title>
<path fill="aquamarine" stroke="black" d="M537,-37C537,-37 507,-37 507,-37 501,-37 495,-31 495,-25 495,-25 495,-13 495,-13 495,-7 501,-1 507,-1 507,-1 537,-1 537,-1 543,-1 549,-7 549,-13 549,-13 549,-25 549,-25 549,-31 543,-37 537,-37"/>
<text text-anchor="middle" x="522" y="-15.3" font-family="Times,serif" font-size="14.00">结束</text>
</g>
<!-- s1_a -->
<g id="node3" class="node"><title>s1_a</title>
<path fill="bisque" stroke="black" d="M313,-838C313,-838 141,-838 141,-838 135,-838 129,-832 129,-826 129,-826 129,-814 129,-814 129,-808 135,-802 141,-802 141,-802 313,-802 313,-802 319,-802 325,-808 325,-814 325,-814 325,-826 325,-826 325,-832 319,-838 313,-838"/>
<text text-anchor="middle" x="227" y="-816.3" font-family="Times,serif" font-size="14.00">提成比例=高中冲刺提成比例</text>
</g>
<!-- s2 -->
<g id="node5" class="node"><title>s2</title>
<path fill="bisque" stroke="black" d="M481,-764C481,-764 251,-764 251,-764 245,-764 239,-758 239,-752 239,-752 239,-740 239,-740 239,-734 245,-728 251,-728 251,-728 481,-728 481,-728 487,-728 493,-734 493,-740 493,-740 493,-752 493,-752 493,-758 487,-764 481,-764"/>
<text text-anchor="middle" x="366" y="-742.3" font-family="Times,serif" font-size="14.00">列出所有该教师授课的上课情况(按次)</text>
</g>
<!-- s1_a&#45;&gt;s2 -->
<g id="edge4" class="edge"><title>s1_a&#45;&gt;s2</title>
<path fill="none" stroke="black" d="M259.941,-801.937C279.017,-792.056 303.229,-779.514 323.702,-768.91"/>
<polygon fill="black" stroke="black" points="325.544,-771.897 332.814,-764.19 322.324,-765.682 325.544,-771.897"/>
</g>
<!-- s1_b -->
<g id="node4" class="node"><title>s1_b</title>
<path fill="bisque" stroke="black" d="M555,-838C555,-838 355,-838 355,-838 349,-838 343,-832 343,-826 343,-826 343,-814 343,-814 343,-808 349,-802 355,-802 355,-802 555,-802 555,-802 561,-802 567,-808 567,-814 567,-814 567,-826 567,-826 567,-832 561,-838 555,-838"/>
<text text-anchor="middle" x="455" y="-816.3" font-family="Times,serif" font-size="14.00">提成比例=普通高中课程提成比例</text>
</g>
<!-- s1_b&#45;&gt;s2 -->
<g id="edge5" class="edge"><title>s1_b&#45;&gt;s2</title>
<path fill="none" stroke="black" d="M433.908,-801.937C422.355,-792.59 407.858,-780.863 395.229,-770.646"/>
<polygon fill="black" stroke="black" points="397.225,-767.758 387.249,-764.19 392.822,-773.201 397.225,-767.758"/>
</g>
<!-- s3 -->
<g id="node6" class="node"><title>s3</title>
<path fill="bisque" stroke="black" d="M462,-690C462,-690 270,-690 270,-690 264,-690 258,-684 258,-678 258,-678 258,-664 258,-664 258,-658 264,-652 270,-652 270,-652 462,-652 462,-652 468,-652 474,-658 474,-664 474,-664 474,-678 474,-678 474,-684 468,-690 462,-690"/>
<text text-anchor="middle" x="366" y="-674.8" font-family="Times,serif" font-size="14.00">选择需要计算课时费的上课情况</text>
<text text-anchor="middle" x="366" y="-659.8" font-family="Times,serif" font-size="14.00">生成上课情况列表(按次)</text>
</g>
<!-- s2&#45;&gt;s3 -->
<g id="edge6" class="edge"><title>s2&#45;&gt;s3</title>
<path fill="none" stroke="black" d="M366,-727.7C366,-719.49 366,-709.469 366,-700.201"/>
<polygon fill="black" stroke="black" points="369.5,-700.194 366,-690.194 362.5,-700.195 369.5,-700.194"/>
</g>
<!-- c2 -->
<g id="node14" class="node"><title>c2</title>
<path fill="beige" stroke="black" d="M354.076,-612.653C354.076,-612.653 218.524,-597.347 218.524,-597.347 212.562,-596.673 212.562,-595.327 218.524,-594.653 218.524,-594.653 354.076,-579.347 354.076,-579.347 360.038,-578.673 371.962,-578.673 377.924,-579.347 377.924,-579.347 513.476,-594.653 513.476,-594.653 519.438,-595.327 519.438,-596.673 513.476,-597.347 513.476,-597.347 377.924,-612.653 377.924,-612.653 371.962,-613.327 360.038,-613.327 354.076,-612.653"/>
<text text-anchor="middle" x="366" y="-592.3" font-family="Times,serif" font-size="14.00">上课情况列表(按次)为空?</text>
</g>
<!-- s3&#45;&gt;c2 -->
<g id="edge7" class="edge"><title>s3&#45;&gt;c2</title>
<path fill="none" stroke="black" d="M366,-651.955C366,-643.701 366,-633.738 366,-624.574"/>
<polygon fill="black" stroke="black" points="369.5,-624.335 366,-614.335 362.5,-624.335 369.5,-624.335"/>
</g>
<!-- s4 -->
<g id="node7" class="node"><title>s4</title>
<path fill="bisque" stroke="black" d="M325.25,-526C325.25,-526 104.75,-526 104.75,-526 98.75,-526 92.75,-520 92.75,-514 92.75,-514 92.75,-502 92.75,-502 92.75,-496 98.75,-490 104.75,-490 104.75,-490 325.25,-490 325.25,-490 331.25,-490 337.25,-496 337.25,-502 337.25,-502 337.25,-514 337.25,-514 337.25,-520 331.25,-526 325.25,-526"/>
<text text-anchor="middle" x="215" y="-504.3" font-family="Times,serif" font-size="14.00">从上课情况列表中取出一次上课境况</text>
</g>
<!-- s5 -->
<g id="node8" class="node"><title>s5</title>
<path fill="bisque" stroke="black" d="M325.25,-438C325.25,-438 104.75,-438 104.75,-438 98.75,-438 92.75,-432 92.75,-426 92.75,-426 92.75,-414 92.75,-414 92.75,-408 98.75,-402 104.75,-402 104.75,-402 325.25,-402 325.25,-402 331.25,-402 337.25,-408 337.25,-414 337.25,-414 337.25,-426 337.25,-426 337.25,-432 331.25,-438 325.25,-438"/>
<text text-anchor="middle" x="215" y="-416.3" font-family="Times,serif" font-size="14.00">读取这次上课情况中的应到学生列表</text>
</g>
<!-- s4&#45;&gt;s5 -->
<g id="edge10" class="edge"><title>s4&#45;&gt;s5</title>
<path fill="none" stroke="black" d="M215,-489.597C215,-477.746 215,-461.817 215,-448.292"/>
<polygon fill="black" stroke="black" points="218.5,-448.084 215,-438.084 211.5,-448.084 218.5,-448.084"/>
</g>
<!-- c3 -->
<g id="node15" class="node"><title>c3</title>
<path fill="beige" stroke="black" d="M203.084,-362.584C203.084,-362.584 75.4249,-347.416 75.4249,-347.416 69.4668,-346.708 69.4668,-345.292 75.4249,-344.584 75.4249,-344.584 203.084,-329.416 203.084,-329.416 209.042,-328.708 220.958,-328.708 226.916,-329.416 226.916,-329.416 354.575,-344.584 354.575,-344.584 360.533,-345.292 360.533,-346.708 354.575,-347.416 354.575,-347.416 226.916,-362.584 226.916,-362.584 220.958,-363.292 209.042,-363.292 203.084,-362.584"/>
<text text-anchor="middle" x="215" y="-342.3" font-family="Times,serif" font-size="14.00">应到学生列表是否为空?</text>
</g>
<!-- s5&#45;&gt;c3 -->
<g id="edge11" class="edge"><title>s5&#45;&gt;c3</title>
<path fill="none" stroke="black" d="M215,-401.937C215,-393.807 215,-383.876 215,-374.705"/>
<polygon fill="black" stroke="black" points="218.5,-374.441 215,-364.441 211.5,-374.441 218.5,-374.441"/>
</g>
<!-- s6 -->
<g id="node9" class="node"><title>s6</title>
<path fill="bisque" stroke="black" d="M325.25,-276C325.25,-276 104.75,-276 104.75,-276 98.75,-276 92.75,-270 92.75,-264 92.75,-264 92.75,-252 92.75,-252 92.75,-246 98.75,-240 104.75,-240 104.75,-240 325.25,-240 325.25,-240 331.25,-240 337.25,-246 337.25,-252 337.25,-252 337.25,-264 337.25,-264 337.25,-270 331.25,-276 325.25,-276"/>
<text text-anchor="middle" x="215" y="-254.3" font-family="Times,serif" font-size="14.00">从应到学生列表中取出一个学生信息</text>
</g>
<!-- c4 -->
<g id="node16" class="node"><title>c4</title>
<path fill="beige" stroke="black" d="M203.194,-199.851C203.194,-199.851 127.902,-186.149 127.902,-186.149 121.999,-185.074 121.999,-182.926 127.902,-181.851 127.902,-181.851 203.194,-168.149 203.194,-168.149 209.097,-167.074 220.903,-167.074 226.806,-168.149 226.806,-168.149 302.098,-181.851 302.098,-181.851 308.001,-182.926 308.001,-185.074 302.098,-186.149 302.098,-186.149 226.806,-199.851 226.806,-199.851 220.903,-200.926 209.097,-200.926 203.194,-199.851"/>
<text text-anchor="middle" x="215" y="-180.3" font-family="Times,serif" font-size="14.00">学生是高中生?</text>
</g>
<!-- s6&#45;&gt;c4 -->
<g id="edge14" class="edge"><title>s6&#45;&gt;c4</title>
<path fill="none" stroke="black" d="M215,-239.937C215,-231.807 215,-221.876 215,-212.705"/>
<polygon fill="black" stroke="black" points="218.5,-212.441 215,-202.441 211.5,-212.441 218.5,-212.441"/>
</g>
<!-- s7_a -->
<g id="node10" class="node"><title>s7_a</title>
<path fill="bisque" stroke="black" d="M239.25,-114C239.25,-114 40.75,-114 40.75,-114 34.75,-114 28.75,-108 28.75,-102 28.75,-102 28.75,-88 28.75,-88 28.75,-82 34.75,-76 40.75,-76 40.75,-76 239.25,-76 239.25,-76 245.25,-76 251.25,-82 251.25,-88 251.25,-88 251.25,-102 251.25,-102 251.25,-108 245.25,-114 239.25,-114"/>
<text text-anchor="middle" x="140" y="-98.8" font-family="Times,serif" font-size="14.00">从该学生得到的收入=</text>
<text text-anchor="middle" x="140" y="-83.8" font-family="Times,serif" font-size="14.00">该学生这次上课的学费x提成比例</text>
</g>
<!-- s8 -->
<g id="node12" class="node"><title>s8</title>
<path fill="bisque" stroke="black" d="M207.25,-38C207.25,-38 72.75,-38 72.75,-38 66.75,-38 60.75,-32 60.75,-26 60.75,-26 60.75,-12 60.75,-12 60.75,-6 66.75,-0 72.75,-0 72.75,-0 207.25,-0 207.25,-0 213.25,-0 219.25,-6 219.25,-12 219.25,-12 219.25,-26 219.25,-26 219.25,-32 213.25,-38 207.25,-38"/>
<text text-anchor="middle" x="140" y="-22.8" font-family="Times,serif" font-size="14.00">将从该学生得到的收入</text>
<text text-anchor="middle" x="140" y="-7.8" font-family="Times,serif" font-size="14.00">计入当前班级的课时费</text>
</g>
<!-- s7_a&#45;&gt;s8 -->
<g id="edge17" class="edge"><title>s7_a&#45;&gt;s8</title>
<path fill="none" stroke="black" d="M140,-75.7079C140,-67.4635 140,-57.5376 140,-48.3622"/>
<polygon fill="black" stroke="black" points="143.5,-48.0817 140,-38.0817 136.5,-48.0818 143.5,-48.0817"/>
</g>
<!-- s7_b -->
<g id="node11" class="node"><title>s7_b</title>
<path fill="bisque" stroke="black" d="M482,-113C482,-113 282,-113 282,-113 276,-113 270,-107 270,-101 270,-101 270,-89 270,-89 270,-83 276,-77 282,-77 282,-77 482,-77 482,-77 488,-77 494,-83 494,-89 494,-89 494,-101 494,-101 494,-107 488,-113 482,-113"/>
<text text-anchor="middle" x="382" y="-91.3" font-family="Times,serif" font-size="14.00">从该学生得到的收入=一个固定值</text>
</g>
<!-- s7_b&#45;&gt;s8 -->
<g id="edge18" class="edge"><title>s7_b&#45;&gt;s8</title>
<path fill="none" stroke="black" d="M326.176,-76.93C291.195,-66.2333 245.855,-52.3689 208.677,-41.0004"/>
<polygon fill="black" stroke="black" points="209.505,-37.5937 198.919,-38.0165 207.458,-44.2878 209.505,-37.5937"/>
</g>
<!-- s8&#45;&gt;c3 -->
<g id="edge19" class="edge"><title>s8&#45;&gt;c3</title>
<path fill="none" stroke="black" d="M60.5918,-33.4416C28.9935,-43.7692 0,-61.9718 0,-94 0,-259 0,-259 0,-259 0,-291.77 87.1936,-317.68 150.526,-332.177"/>
<polygon fill="black" stroke="black" points="149.945,-335.633 160.468,-334.405 151.476,-328.803 149.945,-335.633"/>
</g>
<!-- c1&#45;&gt;s1_a -->
<g id="edge2" class="edge"><title>c1&#45;&gt;s1_a</title>
<path fill="none" stroke="black" d="M321.845,-893.183C304.517,-879.996 278.08,-859.875 257.515,-844.224"/>
<polygon fill="black" stroke="black" points="259.466,-841.31 249.388,-838.039 255.226,-846.88 259.466,-841.31"/>
<text text-anchor="middle" x="301.5" y="-860.3" font-family="Times,serif" font-size="14.00">是</text>
</g>
<!-- c1&#45;&gt;s1_b -->
<g id="edge3" class="edge"><title>c1&#45;&gt;s1_b</title>
<path fill="none" stroke="black" d="M358.477,-893.183C376.111,-879.996 403.016,-859.875 423.945,-844.224"/>
<polygon fill="black" stroke="black" points="426.303,-846.831 432.215,-838.039 422.111,-841.225 426.303,-846.831"/>
<text text-anchor="middle" x="415.5" y="-860.3" font-family="Times,serif" font-size="14.00">否</text>
</g>
<!-- c2&#45;&gt;s4 -->
<g id="edge8" class="edge"><title>c2&#45;&gt;s4</title>
<path fill="none" stroke="black" d="M341.065,-580.799C317.359,-567.297 281.343,-546.785 253.869,-531.137"/>
<polygon fill="black" stroke="black" points="255.331,-527.942 244.909,-526.034 251.866,-534.025 255.331,-527.942"/>
<text text-anchor="middle" x="312.5" y="-548.3" font-family="Times,serif" font-size="14.00">否</text>
</g>
<!-- c2&#45;&gt;end -->
<g id="edge9" class="edge"><title>c2&#45;&gt;end</title>
<path fill="none" stroke="black" d="M430.803,-585.263C473.664,-574.725 522,-553.07 522,-509 522,-509 522,-509 522,-94 522,-78.5914 522,-61.378 522,-47.4331"/>
<polygon fill="black" stroke="black" points="525.5,-47.0471 522,-37.0472 518.5,-47.0472 525.5,-47.0471"/>
<text text-anchor="middle" x="529.5" y="-298.3" font-family="Times,serif" font-size="14.00">是</text>
</g>
<!-- c3&#45;&gt;s6 -->
<g id="edge12" class="edge"><title>c3&#45;&gt;s6</title>
<path fill="none" stroke="black" d="M215,-327.597C215,-315.746 215,-299.817 215,-286.292"/>
<polygon fill="black" stroke="black" points="218.5,-286.084 215,-276.084 211.5,-286.084 218.5,-286.084"/>
<text text-anchor="middle" x="222.5" y="-298.3" font-family="Times,serif" font-size="14.00">否</text>
</g>
<!-- c3&#45;&gt;c2 -->
<g id="edge13" class="edge"><title>c3&#45;&gt;c2</title>
<path fill="none" stroke="black" d="M272.706,-357.239C299.223,-364.998 328.585,-378.525 346,-402 382.495,-451.193 377.237,-527.87 371.127,-568.173"/>
<polygon fill="black" stroke="black" points="367.632,-567.855 369.456,-578.292 374.538,-568.995 367.632,-567.855"/>
<text text-anchor="middle" x="380.5" y="-460.3" font-family="Times,serif" font-size="14.00">是</text>
</g>
<!-- c4&#45;&gt;s7_a -->
<g id="edge15" class="edge"><title>c4&#45;&gt;s7_a</title>
<path fill="none" stroke="black" d="M202.277,-168.242C191.416,-155.643 175.537,-137.222 162.531,-122.136"/>
<polygon fill="black" stroke="black" points="164.831,-119.444 155.651,-114.155 159.53,-124.015 164.831,-119.444"/>
<text text-anchor="middle" x="192.5" y="-136.3" font-family="Times,serif" font-size="14.00">是</text>
</g>
<!-- c4&#45;&gt;s7_b -->
<g id="edge16" class="edge"><title>c4&#45;&gt;s7_b</title>
<path fill="none" stroke="black" d="M239.283,-170.349C265.713,-156.581 308.45,-134.316 340.278,-117.735"/>
<polygon fill="black" stroke="black" points="342.107,-120.729 349.358,-113.005 338.873,-114.521 342.107,-120.729"/>
<text text-anchor="middle" x="316.5" y="-136.3" font-family="Times,serif" font-size="14.00">否</text>
</g>
</g>
</svg>
