<?xml version="1.0" encoding="UTF-8" standalone="no"?>
<!DOCTYPE svg PUBLIC "-//W3C//DTD SVG 1.1//EN"
 "http://www.w3.org/Graphics/SVG/1.1/DTD/svg11.dtd">
<!-- Generated by graphviz version 2.30.1 (20180420.1509)
 -->
<!-- Title: %3 Pages: 1 -->
<svg width="525pt" height="920pt"
 viewBox="0.00 0.00 525.00 920.00" xmlns="http://www.w3.org/2000/svg" xmlns:xlink="http://www.w3.org/1999/xlink">
<g id="graph0" class="graph" transform="scale(1 1) rotate(0) translate(4 916)">
<title>%3</title>
<polygon fill="white" stroke="white" points="-4,5 -4,-916 522,-916 522,5 -4,5"/>
<!-- start -->
<g id="node1" class="node"><title>start</title>
<path fill="aquamarine" stroke="black" d="M305,-912C305,-912 275,-912 275,-912 269,-912 263,-906 263,-900 263,-900 263,-888 263,-888 263,-882 269,-876 275,-876 275,-876 305,-876 305,-876 311,-876 317,-882 317,-888 317,-888 317,-900 317,-900 317,-906 311,-912 305,-912"/>
<text text-anchor="middle" x="290" y="-890.3" font-family="Times,serif" font-size="14.00">开始</text>
</g>
<!-- c1 -->
<g id="node12" class="node"><title>c1</title>
<path fill="beige" stroke="black" d="M278.194,-835.851C278.194,-835.851 202.902,-822.149 202.902,-822.149 196.999,-821.074 196.999,-818.926 202.902,-817.851 202.902,-817.851 278.194,-804.149 278.194,-804.149 284.097,-803.074 295.903,-803.074 301.806,-804.149 301.806,-804.149 377.098,-817.851 377.098,-817.851 383.001,-818.926 383.001,-821.074 377.098,-822.149 377.098,-822.149 301.806,-835.851 301.806,-835.851 295.903,-836.926 284.097,-836.926 278.194,-835.851"/>
<text text-anchor="middle" x="290" y="-816.3" font-family="Times,serif" font-size="14.00">是高中冲刺班?</text>
</g>
<!-- start&#45;&gt;c1 -->
<g id="edge1" class="edge"><title>start&#45;&gt;c1</title>
<path fill="none" stroke="black" d="M290,-875.937C290,-867.807 290,-857.876 290,-848.705"/>
<polygon fill="black" stroke="black" points="293.5,-848.441 290,-838.441 286.5,-848.441 293.5,-848.441"/>
</g>
<!-- end -->
<g id="node2" class="node"><title>end</title>
<path fill="aquamarine" stroke="black" d="M369,-37C369,-37 339,-37 339,-37 333,-37 327,-31 327,-25 327,-25 327,-13 327,-13 327,-7 333,-1 339,-1 339,-1 369,-1 369,-1 375,-1 381,-7 381,-13 381,-13 381,-25 381,-25 381,-31 375,-37 369,-37"/>
<text text-anchor="middle" x="354" y="-15.3" font-family="Times,serif" font-size="14.00">结束</text>
</g>
<!-- s1_a -->
<g id="node3" class="node"><title>s1_a</title>
<path fill="bisque" stroke="black" d="M263,-750C263,-750 91,-750 91,-750 85,-750 79,-744 79,-738 79,-738 79,-726 79,-726 79,-720 85,-714 91,-714 91,-714 263,-714 263,-714 269,-714 275,-720 275,-726 275,-726 275,-738 275,-738 275,-744 269,-750 263,-750"/>
<text text-anchor="middle" x="177" y="-728.3" font-family="Times,serif" font-size="14.00">提成比例=高中冲刺提成比例</text>
</g>
<!-- s2 -->
<g id="node5" class="node"><title>s2</title>
<path fill="bisque" stroke="black" d="M431,-676C431,-676 201,-676 201,-676 195,-676 189,-670 189,-664 189,-664 189,-652 189,-652 189,-646 195,-640 201,-640 201,-640 431,-640 431,-640 437,-640 443,-646 443,-652 443,-652 443,-664 443,-664 443,-670 437,-676 431,-676"/>
<text text-anchor="middle" x="316" y="-654.3" font-family="Times,serif" font-size="14.00">列出所有该教师授课的上课情况(按次)</text>
</g>
<!-- s1_a&#45;&gt;s2 -->
<g id="edge4" class="edge"><title>s1_a&#45;&gt;s2</title>
<path fill="none" stroke="black" d="M209.941,-713.937C229.017,-704.056 253.229,-691.514 273.702,-680.91"/>
<polygon fill="black" stroke="black" points="275.544,-683.897 282.814,-676.19 272.324,-677.682 275.544,-683.897"/>
</g>
<!-- s1_b -->
<g id="node4" class="node"><title>s1_b</title>
<path fill="bisque" stroke="black" d="M505,-750C505,-750 305,-750 305,-750 299,-750 293,-744 293,-738 293,-738 293,-726 293,-726 293,-720 299,-714 305,-714 305,-714 505,-714 505,-714 511,-714 517,-720 517,-726 517,-726 517,-738 517,-738 517,-744 511,-750 505,-750"/>
<text text-anchor="middle" x="405" y="-728.3" font-family="Times,serif" font-size="14.00">提成比例=普通高中课程提成比例</text>
</g>
<!-- s1_b&#45;&gt;s2 -->
<g id="edge5" class="edge"><title>s1_b&#45;&gt;s2</title>
<path fill="none" stroke="black" d="M383.908,-713.937C372.355,-704.59 357.858,-692.863 345.229,-682.646"/>
<polygon fill="black" stroke="black" points="347.225,-679.758 337.249,-676.19 342.822,-685.201 347.225,-679.758"/>
</g>
<!-- s3 -->
<g id="node6" class="node"><title>s3</title>
<path fill="bisque" stroke="black" d="M412,-602C412,-602 220,-602 220,-602 214,-602 208,-596 208,-590 208,-590 208,-576 208,-576 208,-570 214,-564 220,-564 220,-564 412,-564 412,-564 418,-564 424,-570 424,-576 424,-576 424,-590 424,-590 424,-596 418,-602 412,-602"/>
<text text-anchor="middle" x="316" y="-586.8" font-family="Times,serif" font-size="14.00">选择需要计算课时费的上课情况</text>
<text text-anchor="middle" x="316" y="-571.8" font-family="Times,serif" font-size="14.00">生成上课情况列表(按次)</text>
</g>
<!-- s2&#45;&gt;s3 -->
<g id="edge6" class="edge"><title>s2&#45;&gt;s3</title>
<path fill="none" stroke="black" d="M316,-639.7C316,-631.49 316,-621.469 316,-612.201"/>
<polygon fill="black" stroke="black" points="319.5,-612.194 316,-602.194 312.5,-612.195 319.5,-612.194"/>
</g>
<!-- c2 -->
<g id="node13" class="node"><title>c2</title>
<path fill="beige" stroke="black" d="M304.076,-524.653C304.076,-524.653 168.524,-509.347 168.524,-509.347 162.562,-508.673 162.562,-507.327 168.524,-506.653 168.524,-506.653 304.076,-491.347 304.076,-491.347 310.038,-490.673 321.962,-490.673 327.924,-491.347 327.924,-491.347 463.476,-506.653 463.476,-506.653 469.438,-507.327 469.438,-508.673 463.476,-509.347 463.476,-509.347 327.924,-524.653 327.924,-524.653 321.962,-525.327 310.038,-525.327 304.076,-524.653"/>
<text text-anchor="middle" x="316" y="-504.3" font-family="Times,serif" font-size="14.00">上课情况列表(按次)为空?</text>
</g>
<!-- s3&#45;&gt;c2 -->
<g id="edge7" class="edge"><title>s3&#45;&gt;c2</title>
<path fill="none" stroke="black" d="M316,-563.955C316,-555.701 316,-545.738 316,-536.574"/>
<polygon fill="black" stroke="black" points="319.5,-536.335 316,-526.335 312.5,-536.335 319.5,-536.335"/>
</g>
<!-- s4 -->
<g id="node7" class="node"><title>s4</title>
<path fill="bisque" stroke="black" d="M275.25,-438C275.25,-438 54.75,-438 54.75,-438 48.75,-438 42.75,-432 42.75,-426 42.75,-426 42.75,-414 42.75,-414 42.75,-408 48.75,-402 54.75,-402 54.75,-402 275.25,-402 275.25,-402 281.25,-402 287.25,-408 287.25,-414 287.25,-414 287.25,-426 287.25,-426 287.25,-432 281.25,-438 275.25,-438"/>
<text text-anchor="middle" x="165" y="-416.3" font-family="Times,serif" font-size="14.00">从上课情况列表中取出一次上课境况</text>
</g>
<!-- s5 -->
<g id="node8" class="node"><title>s5</title>
<path fill="bisque" stroke="black" d="M275.25,-350C275.25,-350 54.75,-350 54.75,-350 48.75,-350 42.75,-344 42.75,-338 42.75,-338 42.75,-326 42.75,-326 42.75,-320 48.75,-314 54.75,-314 54.75,-314 275.25,-314 275.25,-314 281.25,-314 287.25,-320 287.25,-326 287.25,-326 287.25,-338 287.25,-338 287.25,-344 281.25,-350 275.25,-350"/>
<text text-anchor="middle" x="165" y="-328.3" font-family="Times,serif" font-size="14.00">读取这次上课情况中的应到学生列表</text>
</g>
<!-- s4&#45;&gt;s5 -->
<g id="edge10" class="edge"><title>s4&#45;&gt;s5</title>
<path fill="none" stroke="black" d="M165,-401.597C165,-389.746 165,-373.817 165,-360.292"/>
<polygon fill="black" stroke="black" points="168.5,-360.084 165,-350.084 161.5,-360.084 168.5,-360.084"/>
</g>
<!-- c3 -->
<g id="node14" class="node"><title>c3</title>
<path fill="beige" stroke="black" d="M153.084,-274.584C153.084,-274.584 25.4249,-259.416 25.4249,-259.416 19.4668,-258.708 19.4668,-257.292 25.4249,-256.584 25.4249,-256.584 153.084,-241.416 153.084,-241.416 159.042,-240.708 170.958,-240.708 176.916,-241.416 176.916,-241.416 304.575,-256.584 304.575,-256.584 310.533,-257.292 310.533,-258.708 304.575,-259.416 304.575,-259.416 176.916,-274.584 176.916,-274.584 170.958,-275.292 159.042,-275.292 153.084,-274.584"/>
<text text-anchor="middle" x="165" y="-254.3" font-family="Times,serif" font-size="14.00">应到学生列表是否为空?</text>
</g>
<!-- s5&#45;&gt;c3 -->
<g id="edge11" class="edge"><title>s5&#45;&gt;c3</title>
<path fill="none" stroke="black" d="M165,-313.937C165,-305.807 165,-295.876 165,-286.705"/>
<polygon fill="black" stroke="black" points="168.5,-286.441 165,-276.441 161.5,-286.441 168.5,-286.441"/>
</g>
<!-- s6 -->
<g id="node9" class="node"><title>s6</title>
<path fill="bisque" stroke="black" d="M304.25,-188C304.25,-188 83.75,-188 83.75,-188 77.75,-188 71.75,-182 71.75,-176 71.75,-176 71.75,-164 71.75,-164 71.75,-158 77.75,-152 83.75,-152 83.75,-152 304.25,-152 304.25,-152 310.25,-152 316.25,-158 316.25,-164 316.25,-164 316.25,-176 316.25,-176 316.25,-182 310.25,-188 304.25,-188"/>
<text text-anchor="middle" x="194" y="-166.3" font-family="Times,serif" font-size="14.00">从应到学生列表中取出一个学生信息</text>
</g>
<!-- s7 -->
<g id="node10" class="node"><title>s7</title>
<path fill="bisque" stroke="black" d="M285.25,-114C285.25,-114 86.75,-114 86.75,-114 80.75,-114 74.75,-108 74.75,-102 74.75,-102 74.75,-88 74.75,-88 74.75,-82 80.75,-76 86.75,-76 86.75,-76 285.25,-76 285.25,-76 291.25,-76 297.25,-82 297.25,-88 297.25,-88 297.25,-102 297.25,-102 297.25,-108 291.25,-114 285.25,-114"/>
<text text-anchor="middle" x="186" y="-98.8" font-family="Times,serif" font-size="14.00">从该学生得到的收入=</text>
<text text-anchor="middle" x="186" y="-83.8" font-family="Times,serif" font-size="14.00">该学生这次上课的学费x提成比例</text>
</g>
<!-- s6&#45;&gt;s7 -->
<g id="edge14" class="edge"><title>s6&#45;&gt;s7</title>
<path fill="none" stroke="black" d="M192.104,-151.7C191.204,-143.49 190.106,-133.469 189.091,-124.201"/>
<polygon fill="black" stroke="black" points="192.563,-123.754 187.994,-114.194 185.604,-124.516 192.563,-123.754"/>
</g>
<!-- s8 -->
<g id="node11" class="node"><title>s8</title>
<path fill="bisque" stroke="black" d="M146.25,-38C146.25,-38 11.75,-38 11.75,-38 5.75,-38 -0.25,-32 -0.25,-26 -0.25,-26 -0.25,-12 -0.25,-12 -0.25,-6 5.75,-0 11.75,-0 11.75,-0 146.25,-0 146.25,-0 152.25,-0 158.25,-6 158.25,-12 158.25,-12 158.25,-26 158.25,-26 158.25,-32 152.25,-38 146.25,-38"/>
<text text-anchor="middle" x="79" y="-22.8" font-family="Times,serif" font-size="14.00">将从该学生得到的收入</text>
<text text-anchor="middle" x="79" y="-7.8" font-family="Times,serif" font-size="14.00">计入当前班级的课时费</text>
</g>
<!-- s7&#45;&gt;s8 -->
<g id="edge15" class="edge"><title>s7&#45;&gt;s8</title>
<path fill="none" stroke="black" d="M159.825,-75.8976C145.964,-66.3117 128.759,-54.4125 113.789,-44.0597"/>
<polygon fill="black" stroke="black" points="115.491,-40.9815 105.276,-38.172 111.51,-46.7388 115.491,-40.9815"/>
</g>
<!-- s8&#45;&gt;c3 -->
<g id="edge16" class="edge"><title>s8&#45;&gt;c3</title>
<path fill="none" stroke="black" d="M70.8592,-38.1983C57.725,-70.4832 35.8416,-138.991 62,-188 74.5482,-211.51 99.0515,-228.419 121.011,-239.612"/>
<polygon fill="black" stroke="black" points="119.697,-242.865 130.224,-244.062 122.741,-236.561 119.697,-242.865"/>
</g>
<!-- c1&#45;&gt;s1_a -->
<g id="edge2" class="edge"><title>c1&#45;&gt;s1_a</title>
<path fill="none" stroke="black" d="M271.845,-805.183C254.517,-791.996 228.08,-771.875 207.515,-756.224"/>
<polygon fill="black" stroke="black" points="209.466,-753.31 199.388,-750.039 205.226,-758.88 209.466,-753.31"/>
<text text-anchor="middle" x="251.5" y="-772.3" font-family="Times,serif" font-size="14.00">是</text>
</g>
<!-- c1&#45;&gt;s1_b -->
<g id="edge3" class="edge"><title>c1&#45;&gt;s1_b</title>
<path fill="none" stroke="black" d="M308.477,-805.183C326.111,-791.996 353.016,-771.875 373.945,-756.224"/>
<polygon fill="black" stroke="black" points="376.303,-758.831 382.215,-750.039 372.111,-753.225 376.303,-758.831"/>
<text text-anchor="middle" x="365.5" y="-772.3" font-family="Times,serif" font-size="14.00">否</text>
</g>
<!-- c2&#45;&gt;s4 -->
<g id="edge8" class="edge"><title>c2&#45;&gt;s4</title>
<path fill="none" stroke="black" d="M291.065,-492.799C267.359,-479.297 231.343,-458.785 203.869,-443.137"/>
<polygon fill="black" stroke="black" points="205.331,-439.942 194.909,-438.034 201.866,-446.025 205.331,-439.942"/>
<text text-anchor="middle" x="262.5" y="-460.3" font-family="Times,serif" font-size="14.00">否</text>
</g>
<!-- c2&#45;&gt;end -->
<g id="edge9" class="edge"><title>c2&#45;&gt;end</title>
<path fill="none" stroke="black" d="M327.815,-491.118C338.97,-474.52 354,-447.28 354,-421 354,-421 354,-421 354,-94 354,-78.5914 354,-61.378 354,-47.4331"/>
<polygon fill="black" stroke="black" points="357.5,-47.0471 354,-37.0472 350.5,-47.0472 357.5,-47.0471"/>
<text text-anchor="middle" x="361.5" y="-254.3" font-family="Times,serif" font-size="14.00">是</text>
</g>
<!-- c3&#45;&gt;s6 -->
<g id="edge12" class="edge"><title>c3&#45;&gt;s6</title>
<path fill="none" stroke="black" d="M170.591,-240.418C174.671,-228.321 180.286,-211.669 184.994,-197.707"/>
<polygon fill="black" stroke="black" points="188.348,-198.714 188.227,-188.119 181.715,-196.477 188.348,-198.714"/>
<text text-anchor="middle" x="190.5" y="-210.3" font-family="Times,serif" font-size="14.00">否</text>
</g>
<!-- c3&#45;&gt;c2 -->
<g id="edge13" class="edge"><title>c3&#45;&gt;c2</title>
<path fill="none" stroke="black" d="M222.706,-269.239C249.223,-276.998 278.585,-290.525 296,-314 332.495,-363.193 327.237,-439.87 321.127,-480.173"/>
<polygon fill="black" stroke="black" points="317.632,-479.855 319.456,-490.292 324.538,-480.995 317.632,-479.855"/>
<text text-anchor="middle" x="330.5" y="-372.3" font-family="Times,serif" font-size="14.00">是</text>
</g>
</g>
</svg>
