<?xml version="1.0" encoding="UTF-8" standalone="no"?>
<!DOCTYPE svg PUBLIC "-//W3C//DTD SVG 1.1//EN"
 "http://www.w3.org/Graphics/SVG/1.1/DTD/svg11.dtd">
<!-- Generated by graphviz version 2.30.1 (20180420.1509)
 -->
<!-- Title: %3 Pages: 1 -->
<svg width="836pt" height="1158pt"
 viewBox="0.00 0.00 836.00 1158.00" xmlns="http://www.w3.org/2000/svg" xmlns:xlink="http://www.w3.org/1999/xlink">
<g id="graph0" class="graph" transform="scale(1 1) rotate(0) translate(4 1154)">
<title>%3</title>
<polygon fill="white" stroke="white" points="-4,5 -4,-1154 833,-1154 833,5 -4,5"/>
<!-- start -->
<g id="node1" class="node"><title>start</title>
<path fill="aquamarine" stroke="black" d="M421,-1150C421,-1150 391,-1150 391,-1150 385,-1150 379,-1144 379,-1138 379,-1138 379,-1126 379,-1126 379,-1120 385,-1114 391,-1114 391,-1114 421,-1114 421,-1114 427,-1114 433,-1120 433,-1126 433,-1126 433,-1138 433,-1138 433,-1144 427,-1150 421,-1150"/>
<text text-anchor="middle" x="406" y="-1128.3" font-family="Times,serif" font-size="14.00">开始</text>
</g>
<!-- s1 -->
<g id="node3" class="node"><title>s1</title>
<path fill="bisque" stroke="black" d="M521,-1076C521,-1076 291,-1076 291,-1076 285,-1076 279,-1070 279,-1064 279,-1064 279,-1052 279,-1052 279,-1046 285,-1040 291,-1040 291,-1040 521,-1040 521,-1040 527,-1040 533,-1046 533,-1052 533,-1052 533,-1064 533,-1064 533,-1070 527,-1076 521,-1076"/>
<text text-anchor="middle" x="406" y="-1054.3" font-family="Times,serif" font-size="14.00">列出所有该教师授课的上课情况(按次)</text>
</g>
<!-- start&#45;&gt;s1 -->
<g id="edge1" class="edge"><title>start&#45;&gt;s1</title>
<path fill="none" stroke="black" d="M406,-1113.94C406,-1105.81 406,-1095.88 406,-1086.7"/>
<polygon fill="black" stroke="black" points="409.5,-1086.44 406,-1076.44 402.5,-1086.44 409.5,-1086.44"/>
</g>
<!-- end -->
<g id="node2" class="node"><title>end</title>
<path fill="aquamarine" stroke="black" d="M682,-528C682,-528 652,-528 652,-528 646,-528 640,-522 640,-516 640,-516 640,-504 640,-504 640,-498 646,-492 652,-492 652,-492 682,-492 682,-492 688,-492 694,-498 694,-504 694,-504 694,-516 694,-516 694,-522 688,-528 682,-528"/>
<text text-anchor="middle" x="667" y="-506.3" font-family="Times,serif" font-size="14.00">结束</text>
</g>
<!-- s2 -->
<g id="node4" class="node"><title>s2</title>
<path fill="bisque" stroke="black" d="M502,-1002C502,-1002 310,-1002 310,-1002 304,-1002 298,-996 298,-990 298,-990 298,-976 298,-976 298,-970 304,-964 310,-964 310,-964 502,-964 502,-964 508,-964 514,-970 514,-976 514,-976 514,-990 514,-990 514,-996 508,-1002 502,-1002"/>
<text text-anchor="middle" x="406" y="-986.8" font-family="Times,serif" font-size="14.00">选择需要计算课时费的上课情况</text>
<text text-anchor="middle" x="406" y="-971.8" font-family="Times,serif" font-size="14.00">生成上课情况列表(按次)</text>
</g>
<!-- s1&#45;&gt;s2 -->
<g id="edge2" class="edge"><title>s1&#45;&gt;s2</title>
<path fill="none" stroke="black" d="M406,-1039.7C406,-1031.49 406,-1021.47 406,-1012.2"/>
<polygon fill="black" stroke="black" points="409.5,-1012.19 406,-1002.19 402.5,-1012.19 409.5,-1012.19"/>
</g>
<!-- s3 -->
<g id="node5" class="node"><title>s3</title>
<path fill="bisque" stroke="black" d="M502.25,-926C502.25,-926 309.75,-926 309.75,-926 303.75,-926 297.75,-920 297.75,-914 297.75,-914 297.75,-902 297.75,-902 297.75,-896 303.75,-890 309.75,-890 309.75,-890 502.25,-890 502.25,-890 508.25,-890 514.25,-896 514.25,-902 514.25,-902 514.25,-914 514.25,-914 514.25,-920 508.25,-926 502.25,-926"/>
<text text-anchor="middle" x="406" y="-904.3" font-family="Times,serif" font-size="14.00">初始化该教师该班级的课时费=0</text>
</g>
<!-- s2&#45;&gt;s3 -->
<g id="edge3" class="edge"><title>s2&#45;&gt;s3</title>
<path fill="none" stroke="black" d="M406,-963.955C406,-955.701 406,-945.738 406,-936.574"/>
<polygon fill="black" stroke="black" points="409.5,-936.335 406,-926.335 402.5,-936.335 409.5,-936.335"/>
</g>
<!-- c1 -->
<g id="node18" class="node"><title>c1</title>
<path fill="beige" stroke="black" d="M394.194,-849.851C394.194,-849.851 318.902,-836.149 318.902,-836.149 312.999,-835.074 312.999,-832.926 318.902,-831.851 318.902,-831.851 394.194,-818.149 394.194,-818.149 400.097,-817.074 411.903,-817.074 417.806,-818.149 417.806,-818.149 493.098,-831.851 493.098,-831.851 499.001,-832.926 499.001,-835.074 493.098,-836.149 493.098,-836.149 417.806,-849.851 417.806,-849.851 411.903,-850.926 400.097,-850.926 394.194,-849.851"/>
<text text-anchor="middle" x="406" y="-830.3" font-family="Times,serif" font-size="14.00">是高中冲刺班?</text>
</g>
<!-- s3&#45;&gt;c1 -->
<g id="edge4" class="edge"><title>s3&#45;&gt;c1</title>
<path fill="none" stroke="black" d="M406,-889.937C406,-881.807 406,-871.876 406,-862.705"/>
<polygon fill="black" stroke="black" points="409.5,-862.441 406,-852.441 402.5,-862.441 409.5,-862.441"/>
</g>
<!-- s4_a -->
<g id="node6" class="node"><title>s4_a</title>
<path fill="bisque" stroke="black" d="M379,-764C379,-764 207,-764 207,-764 201,-764 195,-758 195,-752 195,-752 195,-740 195,-740 195,-734 201,-728 207,-728 207,-728 379,-728 379,-728 385,-728 391,-734 391,-740 391,-740 391,-752 391,-752 391,-758 385,-764 379,-764"/>
<text text-anchor="middle" x="293" y="-742.3" font-family="Times,serif" font-size="14.00">提成比例=高中冲刺提成比例</text>
</g>
<!-- c2 -->
<g id="node19" class="node"><title>c2</title>
<path fill="beige" stroke="black" d="M420.076,-688.653C420.076,-688.653 284.524,-673.347 284.524,-673.347 278.562,-672.673 278.562,-671.327 284.524,-670.653 284.524,-670.653 420.076,-655.347 420.076,-655.347 426.038,-654.673 437.962,-654.673 443.924,-655.347 443.924,-655.347 579.476,-670.653 579.476,-670.653 585.438,-671.327 585.438,-672.673 579.476,-673.347 579.476,-673.347 443.924,-688.653 443.924,-688.653 437.962,-689.327 426.038,-689.327 420.076,-688.653"/>
<text text-anchor="middle" x="432" y="-668.3" font-family="Times,serif" font-size="14.00">上课情况列表(按次)为空?</text>
</g>
<!-- s4_a&#45;&gt;c2 -->
<g id="edge7" class="edge"><title>s4_a&#45;&gt;c2</title>
<path fill="none" stroke="black" d="M325.941,-727.937C347.015,-717.021 374.358,-702.858 396.003,-691.646"/>
<polygon fill="black" stroke="black" points="397.626,-694.747 404.895,-687.04 394.406,-688.532 397.626,-694.747"/>
</g>
<!-- s4_b -->
<g id="node7" class="node"><title>s4_b</title>
<path fill="bisque" stroke="black" d="M621,-764C621,-764 421,-764 421,-764 415,-764 409,-758 409,-752 409,-752 409,-740 409,-740 409,-734 415,-728 421,-728 421,-728 621,-728 621,-728 627,-728 633,-734 633,-740 633,-740 633,-752 633,-752 633,-758 627,-764 621,-764"/>
<text text-anchor="middle" x="521" y="-742.3" font-family="Times,serif" font-size="14.00">提成比例=普通高中课程提成比例</text>
</g>
<!-- s4_b&#45;&gt;c2 -->
<g id="edge8" class="edge"><title>s4_b&#45;&gt;c2</title>
<path fill="none" stroke="black" d="M499.908,-727.937C487.478,-717.881 471.642,-705.07 458.389,-694.349"/>
<polygon fill="black" stroke="black" points="460.501,-691.555 450.525,-687.987 456.098,-696.997 460.501,-691.555"/>
</g>
<!-- s5 -->
<g id="node8" class="node"><title>s5</title>
<path fill="bisque" stroke="black" d="M542.25,-602C542.25,-602 321.75,-602 321.75,-602 315.75,-602 309.75,-596 309.75,-590 309.75,-590 309.75,-578 309.75,-578 309.75,-572 315.75,-566 321.75,-566 321.75,-566 542.25,-566 542.25,-566 548.25,-566 554.25,-572 554.25,-578 554.25,-578 554.25,-590 554.25,-590 554.25,-596 548.25,-602 542.25,-602"/>
<text text-anchor="middle" x="432" y="-580.3" font-family="Times,serif" font-size="14.00">从上课情况列表中取出一次上课境况</text>
</g>
<!-- s6 -->
<g id="node9" class="node"><title>s6</title>
<path fill="bisque" stroke="black" d="M592.25,-528C592.25,-528 371.75,-528 371.75,-528 365.75,-528 359.75,-522 359.75,-516 359.75,-516 359.75,-504 359.75,-504 359.75,-498 365.75,-492 371.75,-492 371.75,-492 592.25,-492 592.25,-492 598.25,-492 604.25,-498 604.25,-504 604.25,-504 604.25,-516 604.25,-516 604.25,-522 598.25,-528 592.25,-528"/>
<text text-anchor="middle" x="482" y="-506.3" font-family="Times,serif" font-size="14.00">读取这次上课情况中的应到学生列表</text>
</g>
<!-- s5&#45;&gt;s6 -->
<g id="edge12" class="edge"><title>s5&#45;&gt;s6</title>
<path fill="none" stroke="black" d="M443.849,-565.937C449.863,-557.277 457.296,-546.573 463.999,-536.921"/>
<polygon fill="black" stroke="black" points="467.059,-538.651 469.888,-528.441 461.31,-534.658 467.059,-538.651"/>
</g>
<!-- s7 -->
<g id="node10" class="node"><title>s7</title>
<path fill="bisque" stroke="black" d="M706.25,-454C706.25,-454 513.75,-454 513.75,-454 507.75,-454 501.75,-448 501.75,-442 501.75,-442 501.75,-430 501.75,-430 501.75,-424 507.75,-418 513.75,-418 513.75,-418 706.25,-418 706.25,-418 712.25,-418 718.25,-424 718.25,-430 718.25,-430 718.25,-442 718.25,-442 718.25,-448 712.25,-454 706.25,-454"/>
<text text-anchor="middle" x="610" y="-432.3" font-family="Times,serif" font-size="14.00">初始化该教师这次上课课时费=0</text>
</g>
<!-- s6&#45;&gt;s7 -->
<g id="edge13" class="edge"><title>s6&#45;&gt;s7</title>
<path fill="none" stroke="black" d="M512.334,-491.937C529.742,-482.145 551.795,-469.74 570.539,-459.197"/>
<polygon fill="black" stroke="black" points="572.44,-462.143 579.44,-454.19 569.008,-456.042 572.44,-462.143"/>
</g>
<!-- c3 -->
<g id="node20" class="node"><title>c3</title>
<path fill="beige" stroke="black" d="M634.084,-378.584C634.084,-378.584 506.425,-363.416 506.425,-363.416 500.467,-362.708 500.467,-361.292 506.425,-360.584 506.425,-360.584 634.084,-345.416 634.084,-345.416 640.042,-344.708 651.958,-344.708 657.916,-345.416 657.916,-345.416 785.575,-360.584 785.575,-360.584 791.533,-361.292 791.533,-362.708 785.575,-363.416 785.575,-363.416 657.916,-378.584 657.916,-378.584 651.958,-379.292 640.042,-379.292 634.084,-378.584"/>
<text text-anchor="middle" x="646" y="-358.3" font-family="Times,serif" font-size="14.00">应到学生列表是否为空?</text>
</g>
<!-- s7&#45;&gt;c3 -->
<g id="edge14" class="edge"><title>s7&#45;&gt;c3</title>
<path fill="none" stroke="black" d="M618.531,-417.937C622.898,-409.204 628.303,-398.393 633.161,-388.678"/>
<polygon fill="black" stroke="black" points="636.436,-389.954 637.778,-379.445 630.175,-386.824 636.436,-389.954"/>
</g>
<!-- s8 -->
<g id="node11" class="node"><title>s8</title>
<path fill="bisque" stroke="black" d="M772.25,-292C772.25,-292 551.75,-292 551.75,-292 545.75,-292 539.75,-286 539.75,-280 539.75,-280 539.75,-268 539.75,-268 539.75,-262 545.75,-256 551.75,-256 551.75,-256 772.25,-256 772.25,-256 778.25,-256 784.25,-262 784.25,-268 784.25,-268 784.25,-280 784.25,-280 784.25,-286 778.25,-292 772.25,-292"/>
<text text-anchor="middle" x="662" y="-270.3" font-family="Times,serif" font-size="14.00">从应到学生列表中取出一个学生信息</text>
</g>
<!-- c4 -->
<g id="node21" class="node"><title>c4</title>
<path fill="beige" stroke="black" d="M650.194,-200.851C650.194,-200.851 574.902,-187.149 574.902,-187.149 568.999,-186.074 568.999,-183.926 574.902,-182.851 574.902,-182.851 650.194,-169.149 650.194,-169.149 656.097,-168.074 667.903,-168.074 673.806,-169.149 673.806,-169.149 749.098,-182.851 749.098,-182.851 755.001,-183.926 755.001,-186.074 749.098,-187.149 749.098,-187.149 673.806,-200.851 673.806,-200.851 667.903,-201.926 656.097,-201.926 650.194,-200.851"/>
<text text-anchor="middle" x="662" y="-181.3" font-family="Times,serif" font-size="14.00">学生是高中生?</text>
</g>
<!-- s8&#45;&gt;c4 -->
<g id="edge16" class="edge"><title>s8&#45;&gt;c4</title>
<path fill="none" stroke="black" d="M662,-255.812C662,-243.657 662,-227.114 662,-213.182"/>
<polygon fill="black" stroke="black" points="665.5,-213.153 662,-203.153 658.5,-213.153 665.5,-213.153"/>
</g>
<!-- s9_a -->
<g id="node12" class="node"><title>s9_a</title>
<path fill="bisque" stroke="black" d="M787.25,-114C787.25,-114 588.75,-114 588.75,-114 582.75,-114 576.75,-108 576.75,-102 576.75,-102 576.75,-88 576.75,-88 576.75,-82 582.75,-76 588.75,-76 588.75,-76 787.25,-76 787.25,-76 793.25,-76 799.25,-82 799.25,-88 799.25,-88 799.25,-102 799.25,-102 799.25,-108 793.25,-114 787.25,-114"/>
<text text-anchor="middle" x="688" y="-98.8" font-family="Times,serif" font-size="14.00">从该学生得到的收入=</text>
<text text-anchor="middle" x="688" y="-83.8" font-family="Times,serif" font-size="14.00">该学生这次上课的学费x提成比例</text>
</g>
<!-- s10 -->
<g id="node14" class="node"><title>s10</title>
<path fill="bisque" stroke="black" d="M755.25,-38C755.25,-38 620.75,-38 620.75,-38 614.75,-38 608.75,-32 608.75,-26 608.75,-26 608.75,-12 608.75,-12 608.75,-6 614.75,-0 620.75,-0 620.75,-0 755.25,-0 755.25,-0 761.25,-0 767.25,-6 767.25,-12 767.25,-12 767.25,-26 767.25,-26 767.25,-32 761.25,-38 755.25,-38"/>
<text text-anchor="middle" x="688" y="-22.8" font-family="Times,serif" font-size="14.00">将从该学生得到的收入</text>
<text text-anchor="middle" x="688" y="-7.8" font-family="Times,serif" font-size="14.00">计入这次上课的课时费</text>
</g>
<!-- s9_a&#45;&gt;s10 -->
<g id="edge19" class="edge"><title>s9_a&#45;&gt;s10</title>
<path fill="none" stroke="black" d="M688,-75.7079C688,-67.4635 688,-57.5376 688,-48.3622"/>
<polygon fill="black" stroke="black" points="691.5,-48.0817 688,-38.0817 684.5,-48.0818 691.5,-48.0817"/>
</g>
<!-- s9_b -->
<g id="node13" class="node"><title>s9_b</title>
<path fill="bisque" stroke="black" d="M546,-113C546,-113 346,-113 346,-113 340,-113 334,-107 334,-101 334,-101 334,-89 334,-89 334,-83 340,-77 346,-77 346,-77 546,-77 546,-77 552,-77 558,-83 558,-89 558,-89 558,-101 558,-101 558,-107 552,-113 546,-113"/>
<text text-anchor="middle" x="446" y="-91.3" font-family="Times,serif" font-size="14.00">从该学生得到的收入=一个固定值</text>
</g>
<!-- s9_b&#45;&gt;s10 -->
<g id="edge20" class="edge"><title>s9_b&#45;&gt;s10</title>
<path fill="none" stroke="black" d="M501.824,-76.93C536.805,-66.2333 582.145,-52.3689 619.323,-41.0004"/>
<polygon fill="black" stroke="black" points="620.542,-44.2878 629.081,-38.0165 618.495,-37.5937 620.542,-44.2878"/>
</g>
<!-- s10&#45;&gt;c3 -->
<g id="edge21" class="edge"><title>s10&#45;&gt;c3</title>
<path fill="none" stroke="black" d="M767.408,-33.4416C799.007,-43.7692 828,-61.9718 828,-94 828,-275 828,-275 828,-275 828,-319.686 782.594,-341.188 737.141,-351.517"/>
<polygon fill="black" stroke="black" points="736.22,-348.134 727.153,-353.615 737.659,-354.985 736.22,-348.134"/>
</g>
<!-- s11 -->
<g id="node15" class="node"><title>s11</title>
<path fill="bisque" stroke="black" d="M486.25,-204C486.25,-204 219.75,-204 219.75,-204 213.75,-204 207.75,-198 207.75,-192 207.75,-192 207.75,-178 207.75,-178 207.75,-172 213.75,-166 219.75,-166 219.75,-166 486.25,-166 486.25,-166 492.25,-166 498.25,-172 498.25,-178 498.25,-178 498.25,-192 498.25,-192 498.25,-198 492.25,-204 486.25,-204"/>
<text text-anchor="middle" x="353" y="-188.8" font-family="Times,serif" font-size="14.00">这次上课的课时费=</text>
<text text-anchor="middle" x="353" y="-173.8" font-family="Times,serif" font-size="14.00">这次上课的课时费/这次上课的授课教师人数</text>
</g>
<!-- s12 -->
<g id="node16" class="node"><title>s12</title>
<path fill="bisque" stroke="black" d="M304,-113C304,-113 12,-113 12,-113 6,-113 0,-107 0,-101 0,-101 0,-89 0,-89 0,-83 6,-77 12,-77 12,-77 304,-77 304,-77 310,-77 316,-83 316,-89 316,-89 316,-101 316,-101 316,-107 310,-113 304,-113"/>
<text text-anchor="middle" x="158" y="-91.3" font-family="Times,serif" font-size="14.00">将这次上课的课时费计入该教师该班级的课时费</text>
</g>
<!-- s11&#45;&gt;s12 -->
<g id="edge25" class="edge"><title>s11&#45;&gt;s12</title>
<path fill="none" stroke="black" d="M313.068,-165.98C281.833,-151.883 238.316,-132.245 205.329,-117.359"/>
<polygon fill="black" stroke="black" points="206.445,-114.023 195.891,-113.099 203.566,-120.403 206.445,-114.023"/>
</g>
<!-- s12&#45;&gt;c2 -->
<g id="edge26" class="edge"><title>s12&#45;&gt;c2</title>
<path fill="none" stroke="black" d="M148.343,-113.274C139.573,-130.605 128,-158.336 128,-184 128,-585 128,-585 128,-585 128,-629.033 247.586,-651.662 336.75,-662.414"/>
<polygon fill="black" stroke="black" points="336.575,-665.917 346.915,-663.605 337.39,-658.965 336.575,-665.917"/>
</g>
<!-- s13 -->
<g id="node17" class="node"><title>s13</title>
<path fill="bisque" stroke="black" d="M749,-602C749,-602 585,-602 585,-602 579,-602 573,-596 573,-590 573,-590 573,-578 573,-578 573,-572 579,-566 585,-566 585,-566 749,-566 749,-566 755,-566 761,-572 761,-578 761,-578 761,-590 761,-590 761,-596 755,-602 749,-602"/>
<text text-anchor="middle" x="667" y="-580.3" font-family="Times,serif" font-size="14.00">输出该教师该班级的课时费</text>
</g>
<!-- s13&#45;&gt;end -->
<g id="edge11" class="edge"><title>s13&#45;&gt;end</title>
<path fill="none" stroke="black" d="M667,-565.937C667,-557.807 667,-547.876 667,-538.705"/>
<polygon fill="black" stroke="black" points="670.5,-538.441 667,-528.441 663.5,-538.441 670.5,-538.441"/>
</g>
<!-- c1&#45;&gt;s4_a -->
<g id="edge5" class="edge"><title>c1&#45;&gt;s4_a</title>
<path fill="none" stroke="black" d="M387.845,-819.183C370.517,-805.996 344.08,-785.875 323.515,-770.224"/>
<polygon fill="black" stroke="black" points="325.466,-767.31 315.388,-764.039 321.226,-772.88 325.466,-767.31"/>
<text text-anchor="middle" x="367.5" y="-786.3" font-family="Times,serif" font-size="14.00">是</text>
</g>
<!-- c1&#45;&gt;s4_b -->
<g id="edge6" class="edge"><title>c1&#45;&gt;s4_b</title>
<path fill="none" stroke="black" d="M424.477,-819.183C442.111,-805.996 469.016,-785.875 489.945,-770.224"/>
<polygon fill="black" stroke="black" points="492.303,-772.831 498.215,-764.039 488.111,-767.225 492.303,-772.831"/>
<text text-anchor="middle" x="481.5" y="-786.3" font-family="Times,serif" font-size="14.00">否</text>
</g>
<!-- c2&#45;&gt;s5 -->
<g id="edge9" class="edge"><title>c2&#45;&gt;s5</title>
<path fill="none" stroke="black" d="M432,-653.597C432,-641.746 432,-625.817 432,-612.292"/>
<polygon fill="black" stroke="black" points="435.5,-612.084 432,-602.084 428.5,-612.084 435.5,-612.084"/>
<text text-anchor="middle" x="439.5" y="-624.3" font-family="Times,serif" font-size="14.00">否</text>
</g>
<!-- c2&#45;&gt;s13 -->
<g id="edge10" class="edge"><title>c2&#45;&gt;s13</title>
<path fill="none" stroke="black" d="M467.691,-657.938C505.731,-644.017 566.481,-621.786 610.923,-605.522"/>
<polygon fill="black" stroke="black" points="612.239,-608.767 620.427,-602.044 609.833,-602.194 612.239,-608.767"/>
<text text-anchor="middle" x="578.5" y="-624.3" font-family="Times,serif" font-size="14.00">是</text>
</g>
<!-- c3&#45;&gt;s8 -->
<g id="edge15" class="edge"><title>c3&#45;&gt;s8</title>
<path fill="none" stroke="black" d="M649.161,-344.009C651.382,-332.073 654.399,-315.853 656.951,-302.138"/>
<polygon fill="black" stroke="black" points="660.403,-302.721 658.791,-292.25 653.521,-301.441 660.403,-302.721"/>
<text text-anchor="middle" x="663.5" y="-314.3" font-family="Times,serif" font-size="14.00">否</text>
</g>
<!-- c5 -->
<g id="node22" class="node"><title>c5</title>
<path fill="beige" stroke="black" d="M331.061,-290.793C331.061,-290.793 176.964,-275.207 176.964,-275.207 170.994,-274.604 170.994,-273.396 176.964,-272.793 176.964,-272.793 331.061,-257.207 331.061,-257.207 337.03,-256.604 348.97,-256.604 354.939,-257.207 354.939,-257.207 509.036,-272.793 509.036,-272.793 515.006,-273.396 515.006,-274.604 509.036,-275.207 509.036,-275.207 354.939,-290.793 354.939,-290.793 348.97,-291.396 337.03,-291.396 331.061,-290.793"/>
<text text-anchor="middle" x="343" y="-270.3" font-family="Times,serif" font-size="14.00">这次上课的授课教师人数&gt;1?</text>
</g>
<!-- c3&#45;&gt;c5 -->
<g id="edge22" class="edge"><title>c3&#45;&gt;c5</title>
<path fill="none" stroke="black" d="M603.55,-348.952C549.663,-333.657 456.618,-307.248 397.527,-290.476"/>
<polygon fill="black" stroke="black" points="398.202,-287.03 387.626,-287.666 396.29,-293.764 398.202,-287.03"/>
<text text-anchor="middle" x="529.5" y="-314.3" font-family="Times,serif" font-size="14.00">是</text>
</g>
<!-- c4&#45;&gt;s9_a -->
<g id="edge17" class="edge"><title>c4&#45;&gt;s9_a</title>
<path fill="none" stroke="black" d="M666.769,-167.859C670.379,-155.642 675.427,-138.555 679.695,-124.109"/>
<polygon fill="black" stroke="black" points="683.157,-124.746 682.633,-114.164 676.443,-122.762 683.157,-124.746"/>
<text text-anchor="middle" x="685.5" y="-136.3" font-family="Times,serif" font-size="14.00">是</text>
</g>
<!-- c4&#45;&gt;s9_b -->
<g id="edge18" class="edge"><title>c4&#45;&gt;s9_b</title>
<path fill="none" stroke="black" d="M632.869,-172.132C598.183,-158 539.631,-134.146 497.3,-116.9"/>
<polygon fill="black" stroke="black" points="498.573,-113.639 487.991,-113.108 495.932,-120.122 498.573,-113.639"/>
<text text-anchor="middle" x="581.5" y="-136.3" font-family="Times,serif" font-size="14.00">否</text>
</g>
<!-- c5&#45;&gt;s11 -->
<g id="edge23" class="edge"><title>c5&#45;&gt;s11</title>
<path fill="none" stroke="black" d="M344.976,-255.812C346.345,-243.894 348.2,-227.756 349.782,-213.999"/>
<polygon fill="black" stroke="black" points="353.26,-214.385 350.925,-204.051 346.306,-213.586 353.26,-214.385"/>
<text text-anchor="middle" x="356.5" y="-226.3" font-family="Times,serif" font-size="14.00">是</text>
</g>
<!-- c5&#45;&gt;s12 -->
<g id="edge24" class="edge"><title>c5&#45;&gt;s12</title>
<path fill="none" stroke="black" d="M285.15,-261.803C250.644,-252.173 208.685,-234.771 183,-204 164.07,-181.322 158.853,-147.013 157.71,-123.173"/>
<polygon fill="black" stroke="black" points="161.205,-122.938 157.436,-113.036 154.207,-123.126 161.205,-122.938"/>
<text text-anchor="middle" x="190.5" y="-181.3" font-family="Times,serif" font-size="14.00">否</text>
</g>
</g>
</svg>
