<?xml version="1.0" encoding="UTF-8" standalone="no"?>
<!DOCTYPE svg PUBLIC "-//W3C//DTD SVG 1.1//EN"
 "http://www.w3.org/Graphics/SVG/1.1/DTD/svg11.dtd">
<!-- Generated by graphviz version 2.30.1 (20180420.1509)
 -->
<!-- Title: %3 Pages: 1 -->
<svg width="2136pt" height="1007pt"
 viewBox="0.00 0.00 2136.00 1007.00" xmlns="http://www.w3.org/2000/svg" xmlns:xlink="http://www.w3.org/1999/xlink">
<g id="graph0" class="graph" transform="scale(1 1) rotate(0) translate(4 1003)">
<title>%3</title>
<polygon fill="white" stroke="white" points="-4,5 -4,-1003 2133,-1003 2133,5 -4,5"/>
<g id="clust1" class="cluster"><title>cluster1</title>
<polygon fill="aliceblue" stroke="aliceblue" points="1331,-393 1331,-991 2120,-991 2120,-393 1331,-393"/>
<text text-anchor="middle" x="1725.5" y="-975.8" font-family="Times,serif" font-size="14.00">计算这次上课的课时费</text>
</g>
<g id="clust4" class="cluster"><title>cluster2</title>
<polygon fill="aliceblue" stroke="aliceblue" points="264,-393 264,-656 1288,-656 1288,-393 264,-393"/>
<text text-anchor="middle" x="776" y="-640.8" font-family="Times,serif" font-size="14.00">计算兼职教师年限系数</text>
</g>
<!-- start -->
<g id="node1" class="node"><title>start</title>
<path fill="aquamarine" stroke="black" d="M142,-625C142,-625 112,-625 112,-625 106,-625 100,-619 100,-613 100,-613 100,-601 100,-601 100,-595 106,-589 112,-589 112,-589 142,-589 142,-589 148,-589 154,-595 154,-601 154,-601 154,-613 154,-613 154,-619 148,-625 142,-625"/>
<text text-anchor="middle" x="127" y="-603.3" font-family="Times,serif" font-size="14.00">开始</text>
</g>
<!-- s1 -->
<g id="node3" class="node"><title>s1</title>
<path fill="bisque" stroke="black" d="M242,-527C242,-527 12,-527 12,-527 6,-527 -1.42109e-14,-521 -1.42109e-14,-515 -1.42109e-14,-515 -1.42109e-14,-503 -1.42109e-14,-503 -1.42109e-14,-497 6,-491 12,-491 12,-491 242,-491 242,-491 248,-491 254,-497 254,-503 254,-503 254,-515 254,-515 254,-521 248,-527 242,-527"/>
<text text-anchor="middle" x="127" y="-505.3" font-family="Times,serif" font-size="14.00">列出所有该教师授课的上课情况(按次)</text>
</g>
<!-- start&#45;&gt;s1 -->
<g id="edge28" class="edge"><title>start&#45;&gt;s1</title>
<path fill="none" stroke="black" d="M127,-588.837C127,-574.503 127,-553.807 127,-537.216"/>
<polygon fill="black" stroke="black" points="130.5,-537.014 127,-527.014 123.5,-537.014 130.5,-537.014"/>
</g>
<!-- end -->
<g id="node2" class="node"><title>end</title>
<path fill="aquamarine" stroke="black" d="M1149,-36C1149,-36 1119,-36 1119,-36 1113,-36 1107,-30 1107,-24 1107,-24 1107,-12 1107,-12 1107,-6 1113,-0 1119,-0 1119,-0 1149,-0 1149,-0 1155,-0 1161,-6 1161,-12 1161,-12 1161,-24 1161,-24 1161,-30 1155,-36 1149,-36"/>
<text text-anchor="middle" x="1134" y="-14.3" font-family="Times,serif" font-size="14.00">结束</text>
</g>
<!-- s2 -->
<g id="node4" class="node"><title>s2</title>
<path fill="bisque" stroke="black" d="M238,-438C238,-438 46,-438 46,-438 40,-438 34,-432 34,-426 34,-426 34,-412 34,-412 34,-406 40,-400 46,-400 46,-400 238,-400 238,-400 244,-400 250,-406 250,-412 250,-412 250,-426 250,-426 250,-432 244,-438 238,-438"/>
<text text-anchor="middle" x="142" y="-422.8" font-family="Times,serif" font-size="14.00">选择需要计算课时费的上课情况</text>
<text text-anchor="middle" x="142" y="-407.8" font-family="Times,serif" font-size="14.00">生成上课情况列表(按次)</text>
</g>
<!-- s1&#45;&gt;s2 -->
<g id="edge29" class="edge"><title>s1&#45;&gt;s2</title>
<path fill="none" stroke="black" d="M129.964,-490.614C132.018,-478.56 134.801,-462.236 137.173,-448.32"/>
<polygon fill="black" stroke="black" points="140.658,-448.705 138.888,-438.259 133.757,-447.528 140.658,-448.705"/>
</g>
<!-- s3 -->
<g id="node5" class="node"><title>s3</title>
<path fill="bisque" stroke="black" d="M732.25,-362C732.25,-362 539.75,-362 539.75,-362 533.75,-362 527.75,-356 527.75,-350 527.75,-350 527.75,-338 527.75,-338 527.75,-332 533.75,-326 539.75,-326 539.75,-326 732.25,-326 732.25,-326 738.25,-326 744.25,-332 744.25,-338 744.25,-338 744.25,-350 744.25,-350 744.25,-356 738.25,-362 732.25,-362"/>
<text text-anchor="middle" x="636" y="-340.3" font-family="Times,serif" font-size="14.00">初始化该教师该班级的课时费=0</text>
</g>
<!-- s2&#45;&gt;s3 -->
<g id="edge30" class="edge"><title>s2&#45;&gt;s3</title>
<path fill="none" stroke="black" d="M222.764,-399.975C235.202,-397.464 247.922,-395.047 260,-393 345.67,-378.481 442.993,-366.17 517.158,-357.652"/>
<polygon fill="black" stroke="black" points="517.927,-361.087 527.466,-356.475 517.133,-354.132 517.927,-361.087"/>
</g>
<!-- s4 -->
<g id="node6" class="node"><title>s4</title>
<path fill="bisque" stroke="black" d="M917.25,-274C917.25,-274 636.75,-274 636.75,-274 630.75,-274 624.75,-268 624.75,-262 624.75,-262 624.75,-248 624.75,-248 624.75,-242 630.75,-236 636.75,-236 636.75,-236 917.25,-236 917.25,-236 923.25,-236 929.25,-242 929.25,-248 929.25,-248 929.25,-262 929.25,-262 929.25,-268 923.25,-274 917.25,-274"/>
<text text-anchor="middle" x="777" y="-258.8" font-family="Times,serif" font-size="14.00">读取课程信息中的学生单价,超过上限学生单价</text>
<text text-anchor="middle" x="777" y="-243.8" font-family="Times,serif" font-size="14.00">起算人数,下限人数,上限人数</text>
</g>
<!-- s3&#45;&gt;s4 -->
<g id="edge31" class="edge"><title>s3&#45;&gt;s4</title>
<path fill="none" stroke="black" d="M663.857,-325.812C685.349,-312.551 715.31,-294.064 739.002,-279.445"/>
<polygon fill="black" stroke="black" points="741.072,-282.281 747.745,-274.051 737.396,-276.324 741.072,-282.281"/>
</g>
<!-- c1 -->
<g id="node11" class="node"><title>c1</title>
<path fill="beige" stroke="black" d="M1122.08,-196.653C1122.08,-196.653 986.524,-181.347 986.524,-181.347 980.562,-180.673 980.562,-179.327 986.524,-178.653 986.524,-178.653 1122.08,-163.347 1122.08,-163.347 1128.04,-162.673 1139.96,-162.673 1145.92,-163.347 1145.92,-163.347 1281.48,-178.653 1281.48,-178.653 1287.44,-179.327 1287.44,-180.673 1281.48,-181.347 1281.48,-181.347 1145.92,-196.653 1145.92,-196.653 1139.96,-197.327 1128.04,-197.327 1122.08,-196.653"/>
<text text-anchor="middle" x="1134" y="-176.3" font-family="Times,serif" font-size="14.00">上课情况列表(按次)为空?</text>
</g>
<!-- s4&#45;&gt;c1 -->
<g id="edge32" class="edge"><title>s4&#45;&gt;c1</title>
<path fill="none" stroke="black" d="M865.247,-235.955C928.845,-222.951 1013.18,-205.705 1070.3,-194.026"/>
<polygon fill="black" stroke="black" points="1071.18,-197.418 1080.28,-191.985 1069.78,-190.56 1071.18,-197.418"/>
</g>
<!-- s5 -->
<g id="node7" class="node"><title>s5</title>
<path fill="bisque" stroke="black" d="M1858.25,-110C1858.25,-110 1637.75,-110 1637.75,-110 1631.75,-110 1625.75,-104 1625.75,-98 1625.75,-98 1625.75,-86 1625.75,-86 1625.75,-80 1631.75,-74 1637.75,-74 1637.75,-74 1858.25,-74 1858.25,-74 1864.25,-74 1870.25,-80 1870.25,-86 1870.25,-86 1870.25,-98 1870.25,-98 1870.25,-104 1864.25,-110 1858.25,-110"/>
<text text-anchor="middle" x="1748" y="-88.3" font-family="Times,serif" font-size="14.00">从上课情况列表中取出一次上课境况</text>
</g>
<!-- sub1_s1 -->
<g id="node13" class="node"><title>sub1_s1</title>
<path fill="bisque" stroke="black" d="M2028.25,-960C2028.25,-960 1807.75,-960 1807.75,-960 1801.75,-960 1795.75,-954 1795.75,-948 1795.75,-948 1795.75,-936 1795.75,-936 1795.75,-930 1801.75,-924 1807.75,-924 1807.75,-924 2028.25,-924 2028.25,-924 2034.25,-924 2040.25,-930 2040.25,-936 2040.25,-936 2040.25,-948 2040.25,-948 2040.25,-954 2034.25,-960 2028.25,-960"/>
<text text-anchor="middle" x="1918" y="-938.3" font-family="Times,serif" font-size="14.00">读取这次上课情况中的应到学生人数</text>
</g>
<!-- s5&#45;&gt;sub1_s1 -->
<g id="edge36" class="edge"><title>s5&#45;&gt;sub1_s1</title>
<path fill="none" stroke="black" d="M1870.27,-97.5991C1981.03,-105.208 2127,-125.402 2127,-179 2127,-869 2127,-869 2127,-869 2127,-892.386 2079.63,-909.824 2030,-921.676"/>
<polygon fill="black" stroke="black" points="2029.01,-918.312 2020.05,-923.973 2030.58,-925.133 2029.01,-918.312"/>
</g>
<!-- s6 -->
<g id="node8" class="node"><title>s6</title>
<path fill="bisque" stroke="black" d="M1139,-362C1139,-362 875,-362 875,-362 869,-362 863,-356 863,-350 863,-350 863,-338 863,-338 863,-332 869,-326 875,-326 875,-326 1139,-326 1139,-326 1145,-326 1151,-332 1151,-338 1151,-338 1151,-350 1151,-350 1151,-356 1145,-362 1139,-362"/>
<text text-anchor="middle" x="1007" y="-340.3" font-family="Times,serif" font-size="14.00">这次上课课时费=这次上课课时费x年限系数</text>
</g>
<!-- s7 -->
<g id="node9" class="node"><title>s7</title>
<path fill="bisque" stroke="black" d="M1280,-273C1280,-273 988,-273 988,-273 982,-273 976,-267 976,-261 976,-261 976,-249 976,-249 976,-243 982,-237 988,-237 988,-237 1280,-237 1280,-237 1286,-237 1292,-243 1292,-249 1292,-249 1292,-261 1292,-261 1292,-267 1286,-273 1280,-273"/>
<text text-anchor="middle" x="1134" y="-251.3" font-family="Times,serif" font-size="14.00">将这次上课的课时费计入该教师该班级的课时费</text>
</g>
<!-- s6&#45;&gt;s7 -->
<g id="edge41" class="edge"><title>s6&#45;&gt;s7</title>
<path fill="none" stroke="black" d="M1032.09,-325.812C1051.66,-312.406 1079.02,-293.661 1100.47,-278.97"/>
<polygon fill="black" stroke="black" points="1102.69,-281.692 1108.96,-273.153 1098.73,-275.917 1102.69,-281.692"/>
</g>
<!-- s7&#45;&gt;c1 -->
<g id="edge42" class="edge"><title>s7&#45;&gt;c1</title>
<path fill="none" stroke="black" d="M1134,-236.7C1134,-228.245 1134,-217.869 1134,-208.373"/>
<polygon fill="black" stroke="black" points="1137.5,-208.176 1134,-198.176 1130.5,-208.176 1137.5,-208.176"/>
</g>
<!-- s8 -->
<g id="node10" class="node"><title>s8</title>
<path fill="bisque" stroke="black" d="M1216,-110C1216,-110 1052,-110 1052,-110 1046,-110 1040,-104 1040,-98 1040,-98 1040,-86 1040,-86 1040,-80 1046,-74 1052,-74 1052,-74 1216,-74 1216,-74 1222,-74 1228,-80 1228,-86 1228,-86 1228,-98 1228,-98 1228,-104 1222,-110 1216,-110"/>
<text text-anchor="middle" x="1134" y="-88.3" font-family="Times,serif" font-size="14.00">输出该教师该班级的课时费</text>
</g>
<!-- s8&#45;&gt;end -->
<g id="edge34" class="edge"><title>s8&#45;&gt;end</title>
<path fill="none" stroke="black" d="M1134,-73.937C1134,-65.8072 1134,-55.8761 1134,-46.7047"/>
<polygon fill="black" stroke="black" points="1137.5,-46.4406 1134,-36.4407 1130.5,-46.4407 1137.5,-46.4406"/>
</g>
<!-- c1&#45;&gt;s8 -->
<g id="edge33" class="edge"><title>c1&#45;&gt;s8</title>
<path fill="none" stroke="black" d="M1134,-161.597C1134,-149.746 1134,-133.817 1134,-120.292"/>
<polygon fill="black" stroke="black" points="1137.5,-120.084 1134,-110.084 1130.5,-120.084 1137.5,-120.084"/>
<text text-anchor="middle" x="1141.5" y="-132.3" font-family="Times,serif" font-size="14.00">是</text>
</g>
<!-- c1&#45;&gt;s5 -->
<g id="edge35" class="edge"><title>c1&#45;&gt;s5</title>
<path fill="none" stroke="black" d="M1201.47,-169.55C1300.95,-155.616 1488.96,-129.283 1616.35,-111.439"/>
<polygon fill="black" stroke="black" points="1617.15,-114.862 1626.57,-110.008 1616.18,-107.93 1617.15,-114.862"/>
<text text-anchor="middle" x="1503.5" y="-132.3" font-family="Times,serif" font-size="14.00">否</text>
</g>
<!-- c2 -->
<g id="node12" class="node"><title>c2</title>
<path fill="beige" stroke="black" d="M1296.35,-359.138C1296.35,-359.138 1246.35,-346.862 1246.35,-346.862 1240.53,-345.431 1240.53,-342.569 1246.35,-341.138 1246.35,-341.138 1296.35,-328.862 1296.35,-328.862 1302.17,-327.431 1313.83,-327.431 1319.65,-328.862 1319.65,-328.862 1369.65,-341.138 1369.65,-341.138 1375.47,-342.569 1375.47,-345.431 1369.65,-346.862 1369.65,-346.862 1319.65,-359.138 1319.65,-359.138 1313.83,-360.569 1302.17,-360.569 1296.35,-359.138"/>
<text text-anchor="middle" x="1308" y="-340.3" font-family="Times,serif" font-size="14.00">全职教师?</text>
</g>
<!-- sub2_s1 -->
<g id="node24" class="node"><title>sub2_s1</title>
<path fill="bisque" stroke="black" d="M912,-625C912,-625 736,-625 736,-625 730,-625 724,-619 724,-613 724,-613 724,-601 724,-601 724,-595 730,-589 736,-589 736,-589 912,-589 912,-589 918,-589 924,-595 924,-601 924,-601 924,-613 924,-613 924,-619 918,-625 912,-625"/>
<text text-anchor="middle" x="824" y="-603.3" font-family="Times,serif" font-size="14.00">工作年数=当前年份&#45;入职年份</text>
</g>
<!-- c2&#45;&gt;sub2_s1 -->
<g id="edge38" class="edge"><title>c2&#45;&gt;sub2_s1</title>
<path fill="none" stroke="black" d="M1308.39,-362.029C1308.98,-402.451 1308.3,-502.694 1288,-528 1244.94,-581.691 1057.52,-598.495 934.447,-603.709"/>
<polygon fill="black" stroke="black" points="934.075,-600.221 924.224,-604.122 934.358,-607.216 934.075,-600.221"/>
<text text-anchor="middle" x="1313.5" y="-460.3" font-family="Times,serif" font-size="14.00">是</text>
</g>
<!-- c2&#45;&gt;s7 -->
<g id="edge39" class="edge"><title>c2&#45;&gt;s7</title>
<path fill="none" stroke="black" d="M1284.89,-331.447C1257.6,-317.8 1211.61,-294.805 1177.56,-277.78"/>
<polygon fill="black" stroke="black" points="1178.81,-274.491 1168.3,-273.149 1175.68,-280.752 1178.81,-274.491"/>
<text text-anchor="middle" x="1244.5" y="-296.3" font-family="Times,serif" font-size="14.00">否</text>
</g>
<!-- sub1_s2 -->
<g id="node14" class="node"><title>sub1_s2</title>
<path fill="bisque" stroke="black" d="M1794,-886C1794,-886 1616,-886 1616,-886 1610,-886 1604,-880 1604,-874 1604,-874 1604,-862 1604,-862 1604,-856 1610,-850 1616,-850 1616,-850 1794,-850 1794,-850 1800,-850 1806,-856 1806,-862 1806,-862 1806,-874 1806,-874 1806,-880 1800,-886 1794,-886"/>
<text text-anchor="middle" x="1705" y="-864.3" font-family="Times,serif" font-size="14.00">读取这次上课的授课教师人数</text>
</g>
<!-- sub1_s1&#45;&gt;sub1_s2 -->
<g id="edge1" class="edge"><title>sub1_s1&#45;&gt;sub1_s2</title>
<path fill="none" stroke="black" d="M1867.52,-923.937C1836.86,-913.573 1797.54,-900.283 1765.26,-889.37"/>
<polygon fill="black" stroke="black" points="1766.08,-885.952 1755.48,-886.065 1763.84,-892.583 1766.08,-885.952"/>
</g>
<!-- sub1_s3_a -->
<g id="node15" class="node"><title>sub1_s3_a</title>
<path fill="bisque" stroke="black" d="M1480.25,-798C1480.25,-798 1351.75,-798 1351.75,-798 1345.75,-798 1339.75,-792 1339.75,-786 1339.75,-786 1339.75,-772 1339.75,-772 1339.75,-766 1345.75,-760 1351.75,-760 1351.75,-760 1480.25,-760 1480.25,-760 1486.25,-760 1492.25,-766 1492.25,-772 1492.25,-772 1492.25,-786 1492.25,-786 1492.25,-792 1486.25,-798 1480.25,-798"/>
<text text-anchor="middle" x="1416" y="-782.8" font-family="Times,serif" font-size="14.00">优化后上课学生人数=</text>
<text text-anchor="middle" x="1416" y="-767.8" font-family="Times,serif" font-size="14.00">起算人数</text>
</g>
<!-- sub1_s2&#45;&gt;sub1_s3_a -->
<g id="edge2" class="edge"><title>sub1_s2&#45;&gt;sub1_s3_a</title>
<path fill="none" stroke="black" d="M1603.75,-862.444C1516.83,-857.465 1403.31,-847.986 1389,-832 1382.32,-824.534 1384.77,-815.114 1390.33,-806.348"/>
<polygon fill="black" stroke="black" points="1393.21,-808.334 1396.41,-798.231 1387.61,-804.139 1393.21,-808.334"/>
<text text-anchor="middle" x="1464.5" y="-820.3" font-family="Times,serif" font-size="14.00">应到学生人数&lt;起算人数</text>
</g>
<!-- sub1_s3_b -->
<g id="node16" class="node"><title>sub1_s3_b</title>
<path fill="bisque" stroke="black" d="M1651.25,-798C1651.25,-798 1522.75,-798 1522.75,-798 1516.75,-798 1510.75,-792 1510.75,-786 1510.75,-786 1510.75,-772 1510.75,-772 1510.75,-766 1516.75,-760 1522.75,-760 1522.75,-760 1651.25,-760 1651.25,-760 1657.25,-760 1663.25,-766 1663.25,-772 1663.25,-772 1663.25,-786 1663.25,-786 1663.25,-792 1657.25,-798 1651.25,-798"/>
<text text-anchor="middle" x="1587" y="-782.8" font-family="Times,serif" font-size="14.00">优化后上课学生人数=</text>
<text text-anchor="middle" x="1587" y="-767.8" font-family="Times,serif" font-size="14.00">下限人数</text>
</g>
<!-- sub1_s2&#45;&gt;sub1_s3_b -->
<g id="edge3" class="edge"><title>sub1_s2&#45;&gt;sub1_s3_b</title>
<path fill="none" stroke="black" d="M1603.93,-854.807C1578.02,-849.513 1555.13,-842.133 1547,-832 1540.04,-823.326 1544.21,-813.703 1552.03,-805.117"/>
<polygon fill="black" stroke="black" points="1554.47,-807.625 1559.3,-798.192 1549.64,-802.558 1554.47,-807.625"/>
<text text-anchor="middle" x="1622.5" y="-820.3" font-family="Times,serif" font-size="14.00">应到学生人数=起算人数</text>
</g>
<!-- sub1_s3_c -->
<g id="node17" class="node"><title>sub1_s3_c</title>
<path fill="bisque" stroke="black" d="M1822.25,-798C1822.25,-798 1693.75,-798 1693.75,-798 1687.75,-798 1681.75,-792 1681.75,-786 1681.75,-786 1681.75,-772 1681.75,-772 1681.75,-766 1687.75,-760 1693.75,-760 1693.75,-760 1822.25,-760 1822.25,-760 1828.25,-760 1834.25,-766 1834.25,-772 1834.25,-772 1834.25,-786 1834.25,-786 1834.25,-792 1828.25,-798 1822.25,-798"/>
<text text-anchor="middle" x="1758" y="-782.8" font-family="Times,serif" font-size="14.00">优化后上课学生人数=</text>
<text text-anchor="middle" x="1758" y="-767.8" font-family="Times,serif" font-size="14.00">应到人数</text>
</g>
<!-- sub1_s2&#45;&gt;sub1_s3_c -->
<g id="edge4" class="edge"><title>sub1_s2&#45;&gt;sub1_s3_c</title>
<path fill="none" stroke="black" d="M1701.59,-849.945C1700.38,-839.538 1700.47,-826.301 1706,-816 1708.19,-811.917 1711.07,-808.201 1714.36,-804.843"/>
<polygon fill="black" stroke="black" points="1716.88,-807.288 1722.08,-798.06 1712.26,-802.028 1716.88,-807.288"/>
<text text-anchor="middle" x="1822.5" y="-820.3" font-family="Times,serif" font-size="14.00">下限人数&lt;=应到学生人数&lt;=上限人数</text>
</g>
<!-- sub1_s3_d -->
<g id="node18" class="node"><title>sub1_s3_d</title>
<path fill="bisque" stroke="black" d="M2009.25,-798C2009.25,-798 1880.75,-798 1880.75,-798 1874.75,-798 1868.75,-792 1868.75,-786 1868.75,-786 1868.75,-772 1868.75,-772 1868.75,-766 1874.75,-760 1880.75,-760 1880.75,-760 2009.25,-760 2009.25,-760 2015.25,-760 2021.25,-766 2021.25,-772 2021.25,-772 2021.25,-786 2021.25,-786 2021.25,-792 2015.25,-798 2009.25,-798"/>
<text text-anchor="middle" x="1945" y="-782.8" font-family="Times,serif" font-size="14.00">优化后上课学生人数=</text>
<text text-anchor="middle" x="1945" y="-767.8" font-family="Times,serif" font-size="14.00">上限人数</text>
</g>
<!-- sub1_s2&#45;&gt;sub1_s3_d -->
<g id="edge5" class="edge"><title>sub1_s2&#45;&gt;sub1_s3_d</title>
<path fill="none" stroke="black" d="M1806.08,-863.837C1860.62,-859.886 1920.48,-851.157 1939,-832 1945.02,-825.776 1947.39,-816.984 1947.99,-808.396"/>
<polygon fill="black" stroke="black" points="1951.49,-808.204 1947.98,-798.209 1944.49,-808.213 1951.49,-808.204"/>
<text text-anchor="middle" x="2022.5" y="-820.3" font-family="Times,serif" font-size="14.00">应到学生人数&gt;上限人数</text>
</g>
<!-- sub1_s5_a -->
<g id="node20" class="node"><title>sub1_s5_a</title>
<path fill="bisque" stroke="black" d="M1679.25,-626C1679.25,-626 1494.75,-626 1494.75,-626 1488.75,-626 1482.75,-620 1482.75,-614 1482.75,-614 1482.75,-600 1482.75,-600 1482.75,-594 1488.75,-588 1494.75,-588 1494.75,-588 1679.25,-588 1679.25,-588 1685.25,-588 1691.25,-594 1691.25,-600 1691.25,-600 1691.25,-614 1691.25,-614 1691.25,-620 1685.25,-626 1679.25,-626"/>
<text text-anchor="middle" x="1587" y="-610.8" font-family="Times,serif" font-size="14.00">这次上课的课时费=</text>
<text text-anchor="middle" x="1587" y="-595.8" font-family="Times,serif" font-size="14.00">学生单价x优化后上课学生人数</text>
</g>
<!-- sub1_s3_a&#45;&gt;sub1_s5_a -->
<g id="edge6" class="edge"><title>sub1_s3_a&#45;&gt;sub1_s5_a</title>
<path fill="none" stroke="black" d="M1434.3,-759.807C1464.9,-729.387 1526.52,-668.129 1561.4,-633.45"/>
<polygon fill="black" stroke="black" points="1564.21,-635.595 1568.83,-626.062 1559.27,-630.63 1564.21,-635.595"/>
</g>
<!-- sub1_s3_b&#45;&gt;sub1_s5_a -->
<g id="edge7" class="edge"><title>sub1_s3_b&#45;&gt;sub1_s5_a</title>
<path fill="none" stroke="black" d="M1587,-759.807C1587,-730.154 1587,-671.198 1587,-636.122"/>
<polygon fill="black" stroke="black" points="1590.5,-636.062 1587,-626.062 1583.5,-636.062 1590.5,-636.062"/>
</g>
<!-- sub1_s3_c&#45;&gt;sub1_s5_a -->
<g id="edge8" class="edge"><title>sub1_s3_c&#45;&gt;sub1_s5_a</title>
<path fill="none" stroke="black" d="M1739.7,-759.807C1709.1,-729.387 1647.48,-668.129 1612.6,-633.45"/>
<polygon fill="black" stroke="black" points="1614.73,-630.63 1605.17,-626.062 1609.79,-635.595 1614.73,-630.63"/>
</g>
<!-- sub1_s4 -->
<g id="node19" class="node"><title>sub1_s4</title>
<path fill="bisque" stroke="black" d="M2002.25,-722C2002.25,-722 1803.75,-722 1803.75,-722 1797.75,-722 1791.75,-716 1791.75,-710 1791.75,-710 1791.75,-696 1791.75,-696 1791.75,-690 1797.75,-684 1803.75,-684 1803.75,-684 2002.25,-684 2002.25,-684 2008.25,-684 2014.25,-690 2014.25,-696 2014.25,-696 2014.25,-710 2014.25,-710 2014.25,-716 2008.25,-722 2002.25,-722"/>
<text text-anchor="middle" x="1903" y="-706.8" font-family="Times,serif" font-size="14.00">超过上限课时费=</text>
<text text-anchor="middle" x="1903" y="-691.8" font-family="Times,serif" font-size="14.00">超过上限学生单价x超过上限人数</text>
</g>
<!-- sub1_s3_d&#45;&gt;sub1_s4 -->
<g id="edge10" class="edge"><title>sub1_s3_d&#45;&gt;sub1_s4</title>
<path fill="none" stroke="black" d="M1934.62,-759.708C1929.68,-751.015 1923.69,-740.454 1918.25,-730.873"/>
<polygon fill="black" stroke="black" points="1921.24,-729.051 1913.26,-722.082 1915.15,-732.506 1921.24,-729.051"/>
</g>
<!-- sub1_s5_b -->
<g id="node21" class="node"><title>sub1_s5_b</title>
<path fill="bisque" stroke="black" d="M1929.25,-633.5C1929.25,-633.5 1744.75,-633.5 1744.75,-633.5 1738.75,-633.5 1732.75,-627.5 1732.75,-621.5 1732.75,-621.5 1732.75,-592.5 1732.75,-592.5 1732.75,-586.5 1738.75,-580.5 1744.75,-580.5 1744.75,-580.5 1929.25,-580.5 1929.25,-580.5 1935.25,-580.5 1941.25,-586.5 1941.25,-592.5 1941.25,-592.5 1941.25,-621.5 1941.25,-621.5 1941.25,-627.5 1935.25,-633.5 1929.25,-633.5"/>
<text text-anchor="middle" x="1837" y="-618.3" font-family="Times,serif" font-size="14.00">这次上课的课时费=</text>
<text text-anchor="middle" x="1837" y="-603.3" font-family="Times,serif" font-size="14.00">学生单价x优化后上课学生人数</text>
<text text-anchor="middle" x="1837" y="-588.3" font-family="Times,serif" font-size="14.00">+超过上限课时费</text>
</g>
<!-- sub1_s4&#45;&gt;sub1_s5_b -->
<g id="edge11" class="edge"><title>sub1_s4&#45;&gt;sub1_s5_b</title>
<path fill="none" stroke="black" d="M1890.27,-683.876C1881.96,-672.035 1870.84,-656.203 1860.92,-642.064"/>
<polygon fill="black" stroke="black" points="1863.54,-639.704 1854.93,-633.531 1857.81,-643.726 1863.54,-639.704"/>
</g>
<!-- sub1_s6 -->
<g id="node22" class="node"><title>sub1_s6</title>
<path fill="bisque" stroke="black" d="M1720.25,-528C1720.25,-528 1453.75,-528 1453.75,-528 1447.75,-528 1441.75,-522 1441.75,-516 1441.75,-516 1441.75,-502 1441.75,-502 1441.75,-496 1447.75,-490 1453.75,-490 1453.75,-490 1720.25,-490 1720.25,-490 1726.25,-490 1732.25,-496 1732.25,-502 1732.25,-502 1732.25,-516 1732.25,-516 1732.25,-522 1726.25,-528 1720.25,-528"/>
<text text-anchor="middle" x="1587" y="-512.8" font-family="Times,serif" font-size="14.00">这次上课的课时费=</text>
<text text-anchor="middle" x="1587" y="-497.8" font-family="Times,serif" font-size="14.00">这次上课的课时费/这次上课的授课教师人数</text>
</g>
<!-- sub1_s5_a&#45;&gt;sub1_s6 -->
<g id="edge9" class="edge"><title>sub1_s5_a&#45;&gt;sub1_s6</title>
<path fill="none" stroke="black" d="M1587,-587.943C1587,-574.086 1587,-554.686 1587,-538.708"/>
<polygon fill="black" stroke="black" points="1590.5,-538.302 1587,-528.302 1583.5,-538.302 1590.5,-538.302"/>
</g>
<!-- sub1_s5_b&#45;&gt;sub1_s6 -->
<g id="edge12" class="edge"><title>sub1_s5_b&#45;&gt;sub1_s6</title>
<path fill="none" stroke="black" d="M1770.33,-580.4C1730.9,-565.256 1681.48,-546.279 1643.89,-531.844"/>
<polygon fill="black" stroke="black" points="1644.7,-528.407 1634.11,-528.089 1642.19,-534.941 1644.7,-528.407"/>
</g>
<!-- sub1_s7 -->
<g id="node23" class="node"><title>sub1_s7</title>
<path fill="bisque" stroke="black" d="M1528.25,-437C1528.25,-437 1393.75,-437 1393.75,-437 1387.75,-437 1381.75,-431 1381.75,-425 1381.75,-425 1381.75,-413 1381.75,-413 1381.75,-407 1387.75,-401 1393.75,-401 1393.75,-401 1528.25,-401 1528.25,-401 1534.25,-401 1540.25,-407 1540.25,-413 1540.25,-413 1540.25,-425 1540.25,-425 1540.25,-431 1534.25,-437 1528.25,-437"/>
<text text-anchor="middle" x="1461" y="-415.3" font-family="Times,serif" font-size="14.00">输出这次上课的课时费</text>
</g>
<!-- sub1_s6&#45;&gt;sub1_s7 -->
<g id="edge13" class="edge"><title>sub1_s6&#45;&gt;sub1_s7</title>
<path fill="none" stroke="black" d="M1561.2,-489.98C1541.71,-476.367 1514.82,-457.587 1493.8,-442.909"/>
<polygon fill="black" stroke="black" points="1495.69,-439.956 1485.48,-437.099 1491.68,-445.695 1495.69,-439.956"/>
</g>
<!-- sub1_s7&#45;&gt;c2 -->
<g id="edge37" class="edge"><title>sub1_s7&#45;&gt;c2</title>
<path fill="none" stroke="black" d="M1425.13,-400.885C1399.71,-388.756 1365.86,-372.606 1341.09,-360.786"/>
<polygon fill="black" stroke="black" points="1342.27,-357.475 1331.74,-356.328 1339.26,-363.793 1342.27,-357.475"/>
</g>
<!-- sub2_s2_a -->
<g id="node25" class="node"><title>sub2_s2_a</title>
<path fill="bisque" stroke="black" d="M349.25,-527C349.25,-527 284.75,-527 284.75,-527 278.75,-527 272.75,-521 272.75,-515 272.75,-515 272.75,-503 272.75,-503 272.75,-497 278.75,-491 284.75,-491 284.75,-491 349.25,-491 349.25,-491 355.25,-491 361.25,-497 361.25,-503 361.25,-503 361.25,-515 361.25,-515 361.25,-521 355.25,-527 349.25,-527"/>
<text text-anchor="middle" x="317" y="-505.3" font-family="Times,serif" font-size="14.00">年限系数=1</text>
</g>
<!-- sub2_s1&#45;&gt;sub2_s2_a -->
<g id="edge14" class="edge"><title>sub2_s1&#45;&gt;sub2_s2_a</title>
<path fill="none" stroke="black" d="M723.878,-602.724C644.842,-598.209 532.381,-587.481 437,-562 409.816,-554.738 380.83,-542.321 358.157,-531.442"/>
<polygon fill="black" stroke="black" points="359.688,-528.294 349.166,-527.05 356.615,-534.584 359.688,-528.294"/>
<text text-anchor="middle" x="473.5" y="-550.3" font-family="Times,serif" font-size="14.00">工作年数&lt;2</text>
</g>
<!-- sub2_s2_b -->
<g id="node26" class="node"><title>sub2_s2_b</title>
<path fill="bisque" stroke="black" d="M508,-528C508,-528 392,-528 392,-528 386,-528 380,-522 380,-516 380,-516 380,-502 380,-502 380,-496 386,-490 392,-490 392,-490 508,-490 508,-490 514,-490 520,-496 520,-502 520,-502 520,-516 520,-516 520,-522 514,-528 508,-528"/>
<text text-anchor="middle" x="450" y="-512.8" font-family="Times,serif" font-size="14.00">年限系数=</text>
<text text-anchor="middle" x="450" y="-497.8" font-family="Times,serif" font-size="14.00">1+0.01x(工作年数&#45;1)</text>
</g>
<!-- sub2_s1&#45;&gt;sub2_s2_b -->
<g id="edge15" class="edge"><title>sub2_s1&#45;&gt;sub2_s2_b</title>
<path fill="none" stroke="black" d="M723.965,-597.528C671.514,-591.187 606.753,-580.329 551,-562 529.103,-554.801 506.148,-543.337 487.665,-533.003"/>
<polygon fill="black" stroke="black" points="489.396,-529.96 478.976,-528.044 485.926,-536.04 489.396,-529.96"/>
<text text-anchor="middle" x="603" y="-550.3" font-family="Times,serif" font-size="14.00">2&lt;=工作年数&lt;=5</text>
</g>
<!-- sub2_s2_c -->
<g id="node27" class="node"><title>sub2_s2_c</title>
<path fill="bisque" stroke="black" d="M650,-528C650,-528 550,-528 550,-528 544,-528 538,-522 538,-516 538,-516 538,-502 538,-502 538,-496 544,-490 550,-490 550,-490 650,-490 650,-490 656,-490 662,-496 662,-502 662,-502 662,-516 662,-516 662,-522 656,-528 650,-528"/>
<text text-anchor="middle" x="600" y="-512.8" font-family="Times,serif" font-size="14.00">年限系数=</text>
<text text-anchor="middle" x="600" y="-497.8" font-family="Times,serif" font-size="14.00">1+6年的年限系数</text>
</g>
<!-- sub2_s1&#45;&gt;sub2_s2_c -->
<g id="edge16" class="edge"><title>sub2_s1&#45;&gt;sub2_s2_c</title>
<path fill="none" stroke="black" d="M761.645,-588.993C738.13,-581.762 711.418,-572.551 688,-562 670.147,-553.956 651.335,-543.186 635.708,-533.534"/>
<polygon fill="black" stroke="black" points="637.236,-530.361 626.906,-528.009 633.515,-536.29 637.236,-530.361"/>
<text text-anchor="middle" x="724.5" y="-550.3" font-family="Times,serif" font-size="14.00">工作年数=6</text>
</g>
<!-- sub2_s2_d -->
<g id="node28" class="node"><title>sub2_s2_d</title>
<path fill="bisque" stroke="black" d="M792,-528C792,-528 692,-528 692,-528 686,-528 680,-522 680,-516 680,-516 680,-502 680,-502 680,-496 686,-490 692,-490 692,-490 792,-490 792,-490 798,-490 804,-496 804,-502 804,-502 804,-516 804,-516 804,-522 798,-528 792,-528"/>
<text text-anchor="middle" x="742" y="-512.8" font-family="Times,serif" font-size="14.00">年限系数=</text>
<text text-anchor="middle" x="742" y="-497.8" font-family="Times,serif" font-size="14.00">1+7年的年限系数</text>
</g>
<!-- sub2_s1&#45;&gt;sub2_s2_d -->
<g id="edge17" class="edge"><title>sub2_s1&#45;&gt;sub2_s2_d</title>
<path fill="none" stroke="black" d="M802.824,-588.639C794.043,-580.936 784.049,-571.479 776,-562 769.438,-554.271 763.11,-545.207 757.73,-536.831"/>
<polygon fill="black" stroke="black" points="760.555,-534.745 752.298,-528.107 754.613,-538.446 760.555,-534.745"/>
<text text-anchor="middle" x="812.5" y="-550.3" font-family="Times,serif" font-size="14.00">工作年数=7</text>
</g>
<!-- sub2_s2_e -->
<g id="node29" class="node"><title>sub2_s2_e</title>
<path fill="bisque" stroke="black" d="M934,-528C934,-528 834,-528 834,-528 828,-528 822,-522 822,-516 822,-516 822,-502 822,-502 822,-496 828,-490 834,-490 834,-490 934,-490 934,-490 940,-490 946,-496 946,-502 946,-502 946,-516 946,-516 946,-522 940,-528 934,-528"/>
<text text-anchor="middle" x="884" y="-512.8" font-family="Times,serif" font-size="14.00">年限系数=</text>
<text text-anchor="middle" x="884" y="-497.8" font-family="Times,serif" font-size="14.00">1+8年的年限系数</text>
</g>
<!-- sub2_s1&#45;&gt;sub2_s2_e -->
<g id="edge18" class="edge"><title>sub2_s1&#45;&gt;sub2_s2_e</title>
<path fill="none" stroke="black" d="M834.727,-588.837C843.714,-574.458 856.703,-553.675 867.089,-537.058"/>
<polygon fill="black" stroke="black" points="870.217,-538.657 872.549,-528.322 864.281,-534.947 870.217,-538.657"/>
<text text-anchor="middle" x="898.5" y="-550.3" font-family="Times,serif" font-size="14.00">工作年数=8</text>
</g>
<!-- sub2_s2_f -->
<g id="node30" class="node"><title>sub2_s2_f</title>
<path fill="bisque" stroke="black" d="M1076,-528C1076,-528 976,-528 976,-528 970,-528 964,-522 964,-516 964,-516 964,-502 964,-502 964,-496 970,-490 976,-490 976,-490 1076,-490 1076,-490 1082,-490 1088,-496 1088,-502 1088,-502 1088,-516 1088,-516 1088,-522 1082,-528 1076,-528"/>
<text text-anchor="middle" x="1026" y="-512.8" font-family="Times,serif" font-size="14.00">年限系数=</text>
<text text-anchor="middle" x="1026" y="-497.8" font-family="Times,serif" font-size="14.00">1+9年的年限系数</text>
</g>
<!-- sub2_s1&#45;&gt;sub2_s2_f -->
<g id="edge19" class="edge"><title>sub2_s1&#45;&gt;sub2_s2_f</title>
<path fill="none" stroke="black" d="M874.043,-588.998C894.52,-581.492 918.232,-572.085 939,-562 956.201,-553.647 974.476,-543.015 989.813,-533.544"/>
<polygon fill="black" stroke="black" points="991.851,-536.398 998.474,-528.128 988.14,-530.463 991.851,-536.398"/>
<text text-anchor="middle" x="1005.5" y="-550.3" font-family="Times,serif" font-size="14.00">工作年数=9</text>
</g>
<!-- sub2_s2_g -->
<g id="node31" class="node"><title>sub2_s2_g</title>
<path fill="bisque" stroke="black" d="M1267.25,-528C1267.25,-528 1118.75,-528 1118.75,-528 1112.75,-528 1106.75,-522 1106.75,-516 1106.75,-516 1106.75,-502 1106.75,-502 1106.75,-496 1112.75,-490 1118.75,-490 1118.75,-490 1267.25,-490 1267.25,-490 1273.25,-490 1279.25,-496 1279.25,-502 1279.25,-502 1279.25,-516 1279.25,-516 1279.25,-522 1273.25,-528 1267.25,-528"/>
<text text-anchor="middle" x="1193" y="-512.8" font-family="Times,serif" font-size="14.00">年限系数=</text>
<text text-anchor="middle" x="1193" y="-497.8" font-family="Times,serif" font-size="14.00">1+10年及以上的年限系数</text>
</g>
<!-- sub2_s1&#45;&gt;sub2_s2_g -->
<g id="edge20" class="edge"><title>sub2_s1&#45;&gt;sub2_s2_g</title>
<path fill="none" stroke="black" d="M924.176,-589.322C962.567,-582.103 1006.59,-572.814 1046,-562 1076.94,-553.509 1110.74,-541.734 1138.12,-531.535"/>
<polygon fill="black" stroke="black" points="1139.4,-534.796 1147.52,-528.002 1136.93,-528.244 1139.4,-534.796"/>
<text text-anchor="middle" x="1140" y="-550.3" font-family="Times,serif" font-size="14.00">工作年数&gt;=10</text>
</g>
<!-- sub2_s3 -->
<g id="node32" class="node"><title>sub2_s3</title>
<path fill="bisque" stroke="black" d="M852,-437C852,-437 774,-437 774,-437 768,-437 762,-431 762,-425 762,-425 762,-413 762,-413 762,-407 768,-401 774,-401 774,-401 852,-401 852,-401 858,-401 864,-407 864,-413 864,-413 864,-425 864,-425 864,-431 858,-437 852,-437"/>
<text text-anchor="middle" x="813" y="-415.3" font-family="Times,serif" font-size="14.00">输出年限系数</text>
</g>
<!-- sub2_s2_a&#45;&gt;sub2_s3 -->
<g id="edge21" class="edge"><title>sub2_s2_a&#45;&gt;sub2_s3</title>
<path fill="none" stroke="black" d="M361.328,-492.581C364.583,-491.646 367.832,-490.773 371,-490 504.996,-457.293 665.712,-436.285 751.646,-426.479"/>
<polygon fill="black" stroke="black" points="752.204,-429.939 761.748,-425.339 751.419,-422.983 752.204,-429.939"/>
</g>
<!-- sub2_s2_b&#45;&gt;sub2_s3 -->
<g id="edge22" class="edge"><title>sub2_s2_b&#45;&gt;sub2_s3</title>
<path fill="none" stroke="black" d="M520.42,-490.928C587.646,-474.631 687.905,-450.326 751.861,-434.822"/>
<polygon fill="black" stroke="black" points="752.909,-438.169 761.803,-432.411 751.26,-431.366 752.909,-438.169"/>
</g>
<!-- sub2_s2_c&#45;&gt;sub2_s3 -->
<g id="edge23" class="edge"><title>sub2_s2_c&#45;&gt;sub2_s3</title>
<path fill="none" stroke="black" d="M643.618,-489.98C678.03,-475.762 726.088,-455.907 762.227,-440.977"/>
<polygon fill="black" stroke="black" points="763.706,-444.153 771.612,-437.099 761.033,-437.683 763.706,-444.153"/>
</g>
<!-- sub2_s2_d&#45;&gt;sub2_s3 -->
<g id="edge24" class="edge"><title>sub2_s2_d&#45;&gt;sub2_s3</title>
<path fill="none" stroke="black" d="M756.711,-489.766C767.169,-476.805 781.343,-459.237 792.851,-444.973"/>
<polygon fill="black" stroke="black" points="795.716,-446.997 799.271,-437.016 790.268,-442.601 795.716,-446.997"/>
</g>
<!-- sub2_s2_e&#45;&gt;sub2_s3 -->
<g id="edge25" class="edge"><title>sub2_s2_e&#45;&gt;sub2_s3</title>
<path fill="none" stroke="black" d="M869.289,-489.766C858.831,-476.805 844.657,-459.237 833.149,-444.973"/>
<polygon fill="black" stroke="black" points="835.732,-442.601 826.729,-437.016 830.284,-446.997 835.732,-442.601"/>
</g>
<!-- sub2_s2_f&#45;&gt;sub2_s3 -->
<g id="edge26" class="edge"><title>sub2_s2_f&#45;&gt;sub2_s3</title>
<path fill="none" stroke="black" d="M982.382,-489.98C947.97,-475.762 899.912,-455.907 863.773,-440.977"/>
<polygon fill="black" stroke="black" points="864.967,-437.683 854.388,-437.099 862.294,-444.153 864.967,-437.683"/>
</g>
<!-- sub2_s2_g&#45;&gt;sub2_s3 -->
<g id="edge27" class="edge"><title>sub2_s2_g&#45;&gt;sub2_s3</title>
<path fill="none" stroke="black" d="M1115.18,-489.98C1043.72,-473.431 939.276,-449.243 873.775,-434.074"/>
<polygon fill="black" stroke="black" points="874.537,-430.658 864.005,-431.812 872.958,-437.478 874.537,-430.658"/>
</g>
<!-- sub2_s3&#45;&gt;s6 -->
<g id="edge40" class="edge"><title>sub2_s3&#45;&gt;s6</title>
<path fill="none" stroke="black" d="M858.484,-400.885C886.578,-390.313 922.794,-376.686 952.429,-365.535"/>
<polygon fill="black" stroke="black" points="953.674,-368.806 961.801,-362.008 951.209,-362.254 953.674,-368.806"/>
</g>
</g>
</svg>
