<?xml version="1.0" encoding="UTF-8" standalone="no"?>
<!DOCTYPE svg PUBLIC "-//W3C//DTD SVG 1.1//EN"
 "http://www.w3.org/Graphics/SVG/1.1/DTD/svg11.dtd">
<!-- Generated by graphviz version 2.30.1 (20180420.1509)
 -->
<!-- Title: %3 Pages: 1 -->
<svg width="1413pt" height="1290pt"
 viewBox="0.00 0.00 1413.00 1290.00" xmlns="http://www.w3.org/2000/svg" xmlns:xlink="http://www.w3.org/1999/xlink">
<g id="graph0" class="graph" transform="scale(1 1) rotate(0) translate(4 1286)">
<title>%3</title>
<polygon fill="white" stroke="white" points="-4,5 -4,-1286 1410,-1286 1410,5 -4,5"/>
<g id="clust1" class="cluster"><title>cluster1</title>
<polygon fill="aliceblue" stroke="aliceblue" points="545,-501 545,-1184 1334,-1184 1334,-501 545,-501"/>
<text text-anchor="middle" x="939.5" y="-1168.8" font-family="Times,serif" font-size="14.00">计算这次上课的课时费</text>
</g>
<g id="clust4" class="cluster"><title>cluster2</title>
<polygon fill="aliceblue" stroke="aliceblue" points="340,-140 340,-393 1364,-393 1364,-140 340,-140"/>
<text text-anchor="middle" x="852" y="-377.8" font-family="Times,serif" font-size="14.00">计算兼职教师年限系数</text>
</g>
<!-- start -->
<g id="node1" class="node"><title>start</title>
<path fill="aquamarine" stroke="black" d="M155,-1228C155,-1228 125,-1228 125,-1228 119,-1228 113,-1222 113,-1216 113,-1216 113,-1204 113,-1204 113,-1198 119,-1192 125,-1192 125,-1192 155,-1192 155,-1192 161,-1192 167,-1198 167,-1204 167,-1204 167,-1216 167,-1216 167,-1222 161,-1228 155,-1228"/>
<text text-anchor="middle" x="140" y="-1206.3" font-family="Times,serif" font-size="14.00">开始</text>
</g>
<!-- s1 -->
<g id="node3" class="node"><title>s1</title>
<path fill="bisque" stroke="black" d="M255,-1099C255,-1099 25,-1099 25,-1099 19,-1099 13,-1093 13,-1087 13,-1087 13,-1075 13,-1075 13,-1069 19,-1063 25,-1063 25,-1063 255,-1063 255,-1063 261,-1063 267,-1069 267,-1075 267,-1075 267,-1087 267,-1087 267,-1093 261,-1099 255,-1099"/>
<text text-anchor="middle" x="140" y="-1077.3" font-family="Times,serif" font-size="14.00">列出所有该教师授课的上课情况(按次)</text>
</g>
<!-- start&#45;&gt;s1 -->
<g id="edge28" class="edge"><title>start&#45;&gt;s1</title>
<path fill="none" stroke="black" d="M140,-1191.87C140,-1170.76 140,-1134.6 140,-1109.56"/>
<polygon fill="black" stroke="black" points="143.5,-1109.26 140,-1099.26 136.5,-1109.26 143.5,-1109.26"/>
</g>
<!-- end -->
<g id="node2" class="node"><title>end</title>
<path fill="aquamarine" stroke="black" d="M457,-1045C457,-1045 427,-1045 427,-1045 421,-1045 415,-1039 415,-1033 415,-1033 415,-1021 415,-1021 415,-1015 421,-1009 427,-1009 427,-1009 457,-1009 457,-1009 463,-1009 469,-1015 469,-1021 469,-1021 469,-1033 469,-1033 469,-1039 463,-1045 457,-1045"/>
<text text-anchor="middle" x="442" y="-1023.3" font-family="Times,serif" font-size="14.00">结束</text>
</g>
<!-- s2 -->
<g id="node4" class="node"><title>s2</title>
<path fill="bisque" stroke="black" d="M243,-991C243,-991 51,-991 51,-991 45,-991 39,-985 39,-979 39,-979 39,-965 39,-965 39,-959 45,-953 51,-953 51,-953 243,-953 243,-953 249,-953 255,-959 255,-965 255,-965 255,-979 255,-979 255,-985 249,-991 243,-991"/>
<text text-anchor="middle" x="147" y="-975.8" font-family="Times,serif" font-size="14.00">选择需要计算课时费的上课情况</text>
<text text-anchor="middle" x="147" y="-960.8" font-family="Times,serif" font-size="14.00">生成上课情况列表(按次)</text>
</g>
<!-- s1&#45;&gt;s2 -->
<g id="edge29" class="edge"><title>s1&#45;&gt;s2</title>
<path fill="none" stroke="black" d="M141.125,-1062.81C142.207,-1046.26 143.864,-1020.94 145.142,-1001.39"/>
<polygon fill="black" stroke="black" points="148.647,-1001.43 145.808,-991.223 141.662,-1000.97 148.647,-1001.43"/>
</g>
<!-- s3 -->
<g id="node5" class="node"><title>s3</title>
<path fill="bisque" stroke="black" d="M247.25,-879C247.25,-879 54.75,-879 54.75,-879 48.75,-879 42.75,-873 42.75,-867 42.75,-867 42.75,-855 42.75,-855 42.75,-849 48.75,-843 54.75,-843 54.75,-843 247.25,-843 247.25,-843 253.25,-843 259.25,-849 259.25,-855 259.25,-855 259.25,-867 259.25,-867 259.25,-873 253.25,-879 247.25,-879"/>
<text text-anchor="middle" x="151" y="-857.3" font-family="Times,serif" font-size="14.00">初始化该教师该班级的课时费=0</text>
</g>
<!-- s2&#45;&gt;s3 -->
<g id="edge30" class="edge"><title>s2&#45;&gt;s3</title>
<path fill="none" stroke="black" d="M147.679,-952.51C148.314,-935.188 149.272,-909.081 149.996,-889.351"/>
<polygon fill="black" stroke="black" points="153.502,-889.263 150.371,-879.142 146.506,-889.007 153.502,-889.263"/>
</g>
<!-- s4 -->
<g id="node6" class="node"><title>s4</title>
<path fill="bisque" stroke="black" d="M292.25,-769C292.25,-769 11.75,-769 11.75,-769 5.75,-769 -0.25,-763 -0.25,-757 -0.25,-757 -0.25,-743 -0.25,-743 -0.25,-737 5.75,-731 11.75,-731 11.75,-731 292.25,-731 292.25,-731 298.25,-731 304.25,-737 304.25,-743 304.25,-743 304.25,-757 304.25,-757 304.25,-763 298.25,-769 292.25,-769"/>
<text text-anchor="middle" x="152" y="-753.8" font-family="Times,serif" font-size="14.00">读取课程信息中的学生单价,超过上限学生单价</text>
<text text-anchor="middle" x="152" y="-738.8" font-family="Times,serif" font-size="14.00">起算人数,下限人数,上限人数</text>
</g>
<!-- s3&#45;&gt;s4 -->
<g id="edge31" class="edge"><title>s3&#45;&gt;s4</title>
<path fill="none" stroke="black" d="M151.156,-842.969C151.312,-826.017 151.553,-799.691 151.738,-779.542"/>
<polygon fill="black" stroke="black" points="155.24,-779.399 151.831,-769.367 148.24,-779.335 155.24,-779.399"/>
</g>
<!-- c1 -->
<g id="node11" class="node"><title>c1</title>
<path fill="beige" stroke="black" d="M308.076,-1280.65C308.076,-1280.65 172.524,-1265.35 172.524,-1265.35 166.562,-1264.67 166.562,-1263.33 172.524,-1262.65 172.524,-1262.65 308.076,-1247.35 308.076,-1247.35 314.038,-1246.67 325.962,-1246.67 331.924,-1247.35 331.924,-1247.35 467.476,-1262.65 467.476,-1262.65 473.438,-1263.33 473.438,-1264.67 467.476,-1265.35 467.476,-1265.35 331.924,-1280.65 331.924,-1280.65 325.962,-1281.33 314.038,-1281.33 308.076,-1280.65"/>
<text text-anchor="middle" x="320" y="-1260.3" font-family="Times,serif" font-size="14.00">上课情况列表(按次)为空?</text>
</g>
<!-- s4&#45;&gt;c1 -->
<g id="edge32" class="edge"><title>s4&#45;&gt;c1</title>
<path fill="none" stroke="black" d="M200.777,-769.036C237.665,-786.191 282,-815.968 282,-860 282,-1136 282,-1136 282,-1136 282,-1172.37 296.479,-1212.23 307.562,-1237.41"/>
<polygon fill="black" stroke="black" points="304.426,-1238.97 311.755,-1246.62 310.797,-1236.07 304.426,-1238.97"/>
</g>
<!-- s5 -->
<g id="node7" class="node"><title>s5</title>
<path fill="bisque" stroke="black" d="M942.25,-1282C942.25,-1282 721.75,-1282 721.75,-1282 715.75,-1282 709.75,-1276 709.75,-1270 709.75,-1270 709.75,-1258 709.75,-1258 709.75,-1252 715.75,-1246 721.75,-1246 721.75,-1246 942.25,-1246 942.25,-1246 948.25,-1246 954.25,-1252 954.25,-1258 954.25,-1258 954.25,-1270 954.25,-1270 954.25,-1276 948.25,-1282 942.25,-1282"/>
<text text-anchor="middle" x="832" y="-1260.3" font-family="Times,serif" font-size="14.00">从上课情况列表中取出一次上课境况</text>
</g>
<!-- sub1_s1 -->
<g id="node13" class="node"><title>sub1_s1</title>
<path fill="bisque" stroke="black" d="M942.25,-1153C942.25,-1153 721.75,-1153 721.75,-1153 715.75,-1153 709.75,-1147 709.75,-1141 709.75,-1141 709.75,-1129 709.75,-1129 709.75,-1123 715.75,-1117 721.75,-1117 721.75,-1117 942.25,-1117 942.25,-1117 948.25,-1117 954.25,-1123 954.25,-1129 954.25,-1129 954.25,-1141 954.25,-1141 954.25,-1147 948.25,-1153 942.25,-1153"/>
<text text-anchor="middle" x="832" y="-1131.3" font-family="Times,serif" font-size="14.00">读取这次上课情况中的应到学生人数</text>
</g>
<!-- s5&#45;&gt;sub1_s1 -->
<g id="edge36" class="edge"><title>s5&#45;&gt;sub1_s1</title>
<path fill="none" stroke="black" d="M832,-1245.87C832,-1224.76 832,-1188.6 832,-1163.56"/>
<polygon fill="black" stroke="black" points="835.5,-1163.26 832,-1153.26 828.5,-1163.26 835.5,-1163.26"/>
</g>
<!-- s6 -->
<g id="node8" class="node"><title>s6</title>
<path fill="bisque" stroke="black" d="M950,-110C950,-110 686,-110 686,-110 680,-110 674,-104 674,-98 674,-98 674,-86 674,-86 674,-80 680,-74 686,-74 686,-74 950,-74 950,-74 956,-74 962,-80 962,-86 962,-86 962,-98 962,-98 962,-104 956,-110 950,-110"/>
<text text-anchor="middle" x="818" y="-88.3" font-family="Times,serif" font-size="14.00">这次上课课时费=这次上课课时费x年限系数</text>
</g>
<!-- s7 -->
<g id="node9" class="node"><title>s7</title>
<path fill="bisque" stroke="black" d="M964,-36C964,-36 672,-36 672,-36 666,-36 660,-30 660,-24 660,-24 660,-12 660,-12 660,-6 666,-0 672,-0 672,-0 964,-0 964,-0 970,-0 976,-6 976,-12 976,-12 976,-24 976,-24 976,-30 970,-36 964,-36"/>
<text text-anchor="middle" x="818" y="-14.3" font-family="Times,serif" font-size="14.00">将这次上课的课时费计入该教师该班级的课时费</text>
</g>
<!-- s6&#45;&gt;s7 -->
<g id="edge41" class="edge"><title>s6&#45;&gt;s7</title>
<path fill="none" stroke="black" d="M818,-73.937C818,-65.8072 818,-55.8761 818,-46.7047"/>
<polygon fill="black" stroke="black" points="821.5,-46.4406 818,-36.4407 814.5,-46.4407 821.5,-46.4406"/>
</g>
<!-- s7&#45;&gt;c1 -->
<g id="edge42" class="edge"><title>s7&#45;&gt;c1</title>
<path fill="none" stroke="black" d="M659.745,-27.0849C513.924,-36.7284 320,-56.1117 320,-91 320,-1136 320,-1136 320,-1136 320,-1170.34 320,-1209.9 320,-1235.63"/>
<polygon fill="black" stroke="black" points="316.5,-1235.74 320,-1245.74 323.5,-1235.74 316.5,-1235.74"/>
</g>
<!-- s8 -->
<g id="node10" class="node"><title>s8</title>
<path fill="bisque" stroke="black" d="M524,-1153C524,-1153 360,-1153 360,-1153 354,-1153 348,-1147 348,-1141 348,-1141 348,-1129 348,-1129 348,-1123 354,-1117 360,-1117 360,-1117 524,-1117 524,-1117 530,-1117 536,-1123 536,-1129 536,-1129 536,-1141 536,-1141 536,-1147 530,-1153 524,-1153"/>
<text text-anchor="middle" x="442" y="-1131.3" font-family="Times,serif" font-size="14.00">输出该教师该班级的课时费</text>
</g>
<!-- s8&#45;&gt;end -->
<g id="edge34" class="edge"><title>s8&#45;&gt;end</title>
<path fill="none" stroke="black" d="M442,-1116.97C442,-1100.38 442,-1074.88 442,-1055.43"/>
<polygon fill="black" stroke="black" points="445.5,-1055.34 442,-1045.34 438.5,-1055.34 445.5,-1055.34"/>
</g>
<!-- c1&#45;&gt;s8 -->
<g id="edge33" class="edge"><title>c1&#45;&gt;s8</title>
<path fill="none" stroke="black" d="M334.96,-1247.43C355.718,-1225.82 393.484,-1186.5 418.154,-1160.82"/>
<polygon fill="black" stroke="black" points="420.952,-1162.96 425.356,-1153.33 415.904,-1158.11 420.952,-1162.96"/>
<text text-anchor="middle" x="392.5" y="-1206.3" font-family="Times,serif" font-size="14.00">是</text>
</g>
<!-- c1&#45;&gt;s5 -->
<g id="edge35" class="edge"><title>c1&#45;&gt;s5</title>
<path fill="none" stroke="black" d="M479.544,-1264C550.169,-1264 632.267,-1264 699.45,-1264"/>
<polygon fill="black" stroke="black" points="699.675,-1267.5 709.675,-1264 699.675,-1260.5 699.675,-1267.5"/>
<text text-anchor="middle" x="594.25" y="-1270.8" font-family="Times,serif" font-size="14.00">否</text>
</g>
<!-- c2 -->
<g id="node12" class="node"><title>c2</title>
<path fill="beige" stroke="black" d="M818.254,-468.544C818.254,-468.544 755.645,-455.456 755.645,-455.456 749.772,-454.228 749.772,-451.772 755.645,-450.544 755.645,-450.544 818.254,-437.456 818.254,-437.456 824.127,-436.228 835.873,-436.228 841.746,-437.456 841.746,-437.456 904.355,-450.544 904.355,-450.544 910.228,-451.772 910.228,-454.228 904.355,-455.456 904.355,-455.456 841.746,-468.544 841.746,-468.544 835.873,-469.772 824.127,-469.772 818.254,-468.544"/>
<text text-anchor="middle" x="830" y="-449.3" font-family="Times,serif" font-size="14.00">是兼职教师?</text>
</g>
<!-- sub2_s1 -->
<g id="node24" class="node"><title>sub2_s1</title>
<path fill="bisque" stroke="black" d="M911,-362C911,-362 735,-362 735,-362 729,-362 723,-356 723,-350 723,-350 723,-338 723,-338 723,-332 729,-326 735,-326 735,-326 911,-326 911,-326 917,-326 923,-332 923,-338 923,-338 923,-350 923,-350 923,-356 917,-362 911,-362"/>
<text text-anchor="middle" x="823" y="-340.3" font-family="Times,serif" font-size="14.00">工作年数=当前年份&#45;入职年份</text>
</g>
<!-- c2&#45;&gt;sub2_s1 -->
<g id="edge38" class="edge"><title>c2&#45;&gt;sub2_s1</title>
<path fill="none" stroke="black" d="M828.875,-434.809C827.773,-417.961 826.076,-392.018 824.789,-372.339"/>
<polygon fill="black" stroke="black" points="828.267,-371.899 824.122,-362.149 821.282,-372.356 828.267,-371.899"/>
<text text-anchor="middle" x="835.5" y="-405.3" font-family="Times,serif" font-size="14.00">是</text>
</g>
<!-- c2&#45;&gt;s7 -->
<g id="edge39" class="edge"><title>c2&#45;&gt;s7</title>
<path fill="none" stroke="black" d="M914.392,-452.642C1047.27,-452.047 1297.43,-443.932 1368,-393 1387.03,-379.267 1390,-368.467 1390,-345 1390,-345 1390,-345 1390,-91 1390,-49.9369 1154.95,-31.9329 986.198,-24.2985"/>
<polygon fill="black" stroke="black" points="986.34,-20.8014 976.195,-23.8545 986.03,-27.7946 986.34,-20.8014"/>
<text text-anchor="middle" x="1397.5" y="-206.3" font-family="Times,serif" font-size="14.00">否</text>
</g>
<!-- sub1_s2 -->
<g id="node14" class="node"><title>sub1_s2</title>
<path fill="bisque" stroke="black" d="M921,-1045C921,-1045 743,-1045 743,-1045 737,-1045 731,-1039 731,-1033 731,-1033 731,-1021 731,-1021 731,-1015 737,-1009 743,-1009 743,-1009 921,-1009 921,-1009 927,-1009 933,-1015 933,-1021 933,-1021 933,-1033 933,-1033 933,-1039 927,-1045 921,-1045"/>
<text text-anchor="middle" x="832" y="-1023.3" font-family="Times,serif" font-size="14.00">读取这次上课的授课教师人数</text>
</g>
<!-- sub1_s1&#45;&gt;sub1_s2 -->
<g id="edge1" class="edge"><title>sub1_s1&#45;&gt;sub1_s2</title>
<path fill="none" stroke="black" d="M832,-1116.97C832,-1100.38 832,-1074.88 832,-1055.43"/>
<polygon fill="black" stroke="black" points="835.5,-1055.34 832,-1045.34 828.5,-1055.34 835.5,-1055.34"/>
</g>
<!-- sub1_s3_a -->
<g id="node15" class="node"><title>sub1_s3_a</title>
<path fill="bisque" stroke="black" d="M694.25,-935C694.25,-935 565.75,-935 565.75,-935 559.75,-935 553.75,-929 553.75,-923 553.75,-923 553.75,-909 553.75,-909 553.75,-903 559.75,-897 565.75,-897 565.75,-897 694.25,-897 694.25,-897 700.25,-897 706.25,-903 706.25,-909 706.25,-909 706.25,-923 706.25,-923 706.25,-929 700.25,-935 694.25,-935"/>
<text text-anchor="middle" x="630" y="-919.8" font-family="Times,serif" font-size="14.00">优化后上课学生人数=</text>
<text text-anchor="middle" x="630" y="-904.8" font-family="Times,serif" font-size="14.00">起算人数</text>
</g>
<!-- sub1_s2&#45;&gt;sub1_s3_a -->
<g id="edge2" class="edge"><title>sub1_s2&#45;&gt;sub1_s3_a</title>
<path fill="none" stroke="black" d="M730.803,-1024.69C671.307,-1021.54 604.096,-1012.99 585,-991 573.927,-978.247 577.684,-968.222 585,-953 586.853,-949.145 589.342,-945.574 592.203,-942.299"/>
<polygon fill="black" stroke="black" points="594.747,-944.705 599.429,-935.201 589.842,-939.711 594.747,-944.705"/>
<text text-anchor="middle" x="660.5" y="-968.3" font-family="Times,serif" font-size="14.00">应到学生人数&lt;起算人数</text>
</g>
<!-- sub1_s3_b -->
<g id="node16" class="node"><title>sub1_s3_b</title>
<path fill="bisque" stroke="black" d="M865.25,-935C865.25,-935 736.75,-935 736.75,-935 730.75,-935 724.75,-929 724.75,-923 724.75,-923 724.75,-909 724.75,-909 724.75,-903 730.75,-897 736.75,-897 736.75,-897 865.25,-897 865.25,-897 871.25,-897 877.25,-903 877.25,-909 877.25,-909 877.25,-923 877.25,-923 877.25,-929 871.25,-935 865.25,-935"/>
<text text-anchor="middle" x="801" y="-919.8" font-family="Times,serif" font-size="14.00">优化后上课学生人数=</text>
<text text-anchor="middle" x="801" y="-904.8" font-family="Times,serif" font-size="14.00">下限人数</text>
</g>
<!-- sub1_s2&#45;&gt;sub1_s3_b -->
<g id="edge3" class="edge"><title>sub1_s2&#45;&gt;sub1_s3_b</title>
<path fill="none" stroke="black" d="M765.355,-1008.76C757.74,-1004.17 750.948,-998.356 746,-991 736.574,-976.987 737.968,-967.857 746,-953 748.228,-948.879 751.155,-945.154 754.5,-941.805"/>
<polygon fill="black" stroke="black" points="757.059,-944.222 762.382,-935.062 752.508,-938.903 757.059,-944.222"/>
<text text-anchor="middle" x="821.5" y="-968.3" font-family="Times,serif" font-size="14.00">应到学生人数=起算人数</text>
</g>
<!-- sub1_s3_c -->
<g id="node17" class="node"><title>sub1_s3_c</title>
<path fill="bisque" stroke="black" d="M1036.25,-935C1036.25,-935 907.75,-935 907.75,-935 901.75,-935 895.75,-929 895.75,-923 895.75,-923 895.75,-909 895.75,-909 895.75,-903 901.75,-897 907.75,-897 907.75,-897 1036.25,-897 1036.25,-897 1042.25,-897 1048.25,-903 1048.25,-909 1048.25,-909 1048.25,-923 1048.25,-923 1048.25,-929 1042.25,-935 1036.25,-935"/>
<text text-anchor="middle" x="972" y="-919.8" font-family="Times,serif" font-size="14.00">优化后上课学生人数=</text>
<text text-anchor="middle" x="972" y="-904.8" font-family="Times,serif" font-size="14.00">应到人数</text>
</g>
<!-- sub1_s2&#45;&gt;sub1_s3_c -->
<g id="edge4" class="edge"><title>sub1_s2&#45;&gt;sub1_s3_c</title>
<path fill="none" stroke="black" d="M871.728,-1008.95C880.664,-1003.98 889.662,-997.977 897,-991 911.306,-977.396 906.475,-967.38 920,-953 924,-948.747 928.582,-944.708 933.331,-940.977"/>
<polygon fill="black" stroke="black" points="935.447,-943.765 941.408,-935.006 931.286,-938.136 935.447,-943.765"/>
<text text-anchor="middle" x="1036.5" y="-968.3" font-family="Times,serif" font-size="14.00">下限人数&lt;=应到学生人数&lt;=上限人数</text>
</g>
<!-- sub1_s3_d -->
<g id="node18" class="node"><title>sub1_s3_d</title>
<path fill="bisque" stroke="black" d="M1223.25,-935C1223.25,-935 1094.75,-935 1094.75,-935 1088.75,-935 1082.75,-929 1082.75,-923 1082.75,-923 1082.75,-909 1082.75,-909 1082.75,-903 1088.75,-897 1094.75,-897 1094.75,-897 1223.25,-897 1223.25,-897 1229.25,-897 1235.25,-903 1235.25,-909 1235.25,-909 1235.25,-923 1235.25,-923 1235.25,-929 1229.25,-935 1223.25,-935"/>
<text text-anchor="middle" x="1159" y="-919.8" font-family="Times,serif" font-size="14.00">优化后上课学生人数=</text>
<text text-anchor="middle" x="1159" y="-904.8" font-family="Times,serif" font-size="14.00">上限人数</text>
</g>
<!-- sub1_s2&#45;&gt;sub1_s3_d -->
<g id="edge5" class="edge"><title>sub1_s2&#45;&gt;sub1_s3_d</title>
<path fill="none" stroke="black" d="M933.274,-1021.35C1021.52,-1016.27 1137.73,-1006.7 1153,-991 1164.46,-979.214 1165.99,-960.8 1164.64,-945.29"/>
<polygon fill="black" stroke="black" points="1168.08,-944.603 1163.33,-935.133 1161.14,-945.498 1168.08,-944.603"/>
<text text-anchor="middle" x="1241.5" y="-968.3" font-family="Times,serif" font-size="14.00">应到学生人数&gt;上限人数</text>
</g>
<!-- sub1_s5_a -->
<g id="node20" class="node"><title>sub1_s5_a</title>
<path fill="bisque" stroke="black" d="M916.25,-705C916.25,-705 731.75,-705 731.75,-705 725.75,-705 719.75,-699 719.75,-693 719.75,-693 719.75,-679 719.75,-679 719.75,-673 725.75,-667 731.75,-667 731.75,-667 916.25,-667 916.25,-667 922.25,-667 928.25,-673 928.25,-679 928.25,-679 928.25,-693 928.25,-693 928.25,-699 922.25,-705 916.25,-705"/>
<text text-anchor="middle" x="824" y="-689.8" font-family="Times,serif" font-size="14.00">这次上课的课时费=</text>
<text text-anchor="middle" x="824" y="-674.8" font-family="Times,serif" font-size="14.00">学生单价x优化后上课学生人数</text>
</g>
<!-- sub1_s3_a&#45;&gt;sub1_s5_a -->
<g id="edge6" class="edge"><title>sub1_s3_a&#45;&gt;sub1_s5_a</title>
<path fill="none" stroke="black" d="M645.548,-896.727C679.9,-856.355 762.352,-759.452 801.99,-712.867"/>
<polygon fill="black" stroke="black" points="804.833,-714.928 808.647,-705.043 799.501,-710.391 804.833,-714.928"/>
</g>
<!-- sub1_s3_b&#45;&gt;sub1_s5_a -->
<g id="edge7" class="edge"><title>sub1_s3_b&#45;&gt;sub1_s5_a</title>
<path fill="none" stroke="black" d="M802.843,-896.727C806.849,-857.023 816.369,-762.647 821.153,-715.223"/>
<polygon fill="black" stroke="black" points="824.658,-715.344 822.18,-705.043 817.694,-714.642 824.658,-715.344"/>
</g>
<!-- sub1_s3_c&#45;&gt;sub1_s5_a -->
<g id="edge8" class="edge"><title>sub1_s3_c&#45;&gt;sub1_s5_a</title>
<path fill="none" stroke="black" d="M960.139,-896.727C934.04,-856.522 871.551,-760.254 841.168,-713.448"/>
<polygon fill="black" stroke="black" points="844.093,-711.525 835.712,-705.043 838.221,-715.337 844.093,-711.525"/>
</g>
<!-- sub1_s4 -->
<g id="node19" class="node"><title>sub1_s4</title>
<path fill="bisque" stroke="black" d="M1204.25,-825C1204.25,-825 1005.75,-825 1005.75,-825 999.75,-825 993.75,-819 993.75,-813 993.75,-813 993.75,-799 993.75,-799 993.75,-793 999.75,-787 1005.75,-787 1005.75,-787 1204.25,-787 1204.25,-787 1210.25,-787 1216.25,-793 1216.25,-799 1216.25,-799 1216.25,-813 1216.25,-813 1216.25,-819 1210.25,-825 1204.25,-825"/>
<text text-anchor="middle" x="1105" y="-809.8" font-family="Times,serif" font-size="14.00">超过上限课时费=</text>
<text text-anchor="middle" x="1105" y="-794.8" font-family="Times,serif" font-size="14.00">超过上限学生单价x超过上限人数</text>
</g>
<!-- sub1_s3_d&#45;&gt;sub1_s4 -->
<g id="edge10" class="edge"><title>sub1_s3_d&#45;&gt;sub1_s4</title>
<path fill="none" stroke="black" d="M1149.84,-896.679C1141.25,-879.509 1128.31,-853.627 1118.54,-834.074"/>
<polygon fill="black" stroke="black" points="1121.63,-832.429 1114.03,-825.05 1115.37,-835.56 1121.63,-832.429"/>
</g>
<!-- sub1_s5_b -->
<g id="node21" class="node"><title>sub1_s5_b</title>
<path fill="bisque" stroke="black" d="M1161.25,-712.5C1161.25,-712.5 976.75,-712.5 976.75,-712.5 970.75,-712.5 964.75,-706.5 964.75,-700.5 964.75,-700.5 964.75,-671.5 964.75,-671.5 964.75,-665.5 970.75,-659.5 976.75,-659.5 976.75,-659.5 1161.25,-659.5 1161.25,-659.5 1167.25,-659.5 1173.25,-665.5 1173.25,-671.5 1173.25,-671.5 1173.25,-700.5 1173.25,-700.5 1173.25,-706.5 1167.25,-712.5 1161.25,-712.5"/>
<text text-anchor="middle" x="1069" y="-697.3" font-family="Times,serif" font-size="14.00">这次上课的课时费=</text>
<text text-anchor="middle" x="1069" y="-682.3" font-family="Times,serif" font-size="14.00">学生单价x优化后上课学生人数</text>
<text text-anchor="middle" x="1069" y="-667.3" font-family="Times,serif" font-size="14.00">+超过上限课时费</text>
</g>
<!-- sub1_s4&#45;&gt;sub1_s5_b -->
<g id="edge11" class="edge"><title>sub1_s4&#45;&gt;sub1_s5_b</title>
<path fill="none" stroke="black" d="M1099.45,-786.821C1094.24,-769.743 1086.3,-743.716 1079.84,-722.519"/>
<polygon fill="black" stroke="black" points="1083.16,-721.411 1076.89,-712.867 1076.46,-723.453 1083.16,-721.411"/>
</g>
<!-- sub1_s6 -->
<g id="node22" class="node"><title>sub1_s6</title>
<path fill="bisque" stroke="black" d="M963.25,-621C963.25,-621 696.75,-621 696.75,-621 690.75,-621 684.75,-615 684.75,-609 684.75,-609 684.75,-595 684.75,-595 684.75,-589 690.75,-583 696.75,-583 696.75,-583 963.25,-583 963.25,-583 969.25,-583 975.25,-589 975.25,-595 975.25,-595 975.25,-609 975.25,-609 975.25,-615 969.25,-621 963.25,-621"/>
<text text-anchor="middle" x="830" y="-605.8" font-family="Times,serif" font-size="14.00">这次上课的课时费=</text>
<text text-anchor="middle" x="830" y="-590.8" font-family="Times,serif" font-size="14.00">这次上课的课时费/这次上课的授课教师人数</text>
</g>
<!-- sub1_s5_a&#45;&gt;sub1_s6 -->
<g id="edge9" class="edge"><title>sub1_s5_a&#45;&gt;sub1_s6</title>
<path fill="none" stroke="black" d="M825.332,-666.802C826.093,-656.398 827.064,-643.122 827.924,-631.377"/>
<polygon fill="black" stroke="black" points="831.433,-631.376 828.672,-621.148 824.452,-630.865 831.433,-631.376"/>
</g>
<!-- sub1_s5_b&#45;&gt;sub1_s6 -->
<g id="edge12" class="edge"><title>sub1_s5_b&#45;&gt;sub1_s6</title>
<path fill="none" stroke="black" d="M994.362,-659.392C961.469,-648.107 923.272,-635.001 891.983,-624.266"/>
<polygon fill="black" stroke="black" points="893.103,-620.95 882.508,-621.015 890.831,-627.571 893.103,-620.95"/>
</g>
<!-- sub1_s7 -->
<g id="node23" class="node"><title>sub1_s7</title>
<path fill="bisque" stroke="black" d="M897.25,-545C897.25,-545 762.75,-545 762.75,-545 756.75,-545 750.75,-539 750.75,-533 750.75,-533 750.75,-521 750.75,-521 750.75,-515 756.75,-509 762.75,-509 762.75,-509 897.25,-509 897.25,-509 903.25,-509 909.25,-515 909.25,-521 909.25,-521 909.25,-533 909.25,-533 909.25,-539 903.25,-545 897.25,-545"/>
<text text-anchor="middle" x="830" y="-523.3" font-family="Times,serif" font-size="14.00">输出这次上课的课时费</text>
</g>
<!-- sub1_s6&#45;&gt;sub1_s7 -->
<g id="edge13" class="edge"><title>sub1_s6&#45;&gt;sub1_s7</title>
<path fill="none" stroke="black" d="M830,-582.955C830,-574.701 830,-564.738 830,-555.574"/>
<polygon fill="black" stroke="black" points="833.5,-555.335 830,-545.335 826.5,-555.335 833.5,-555.335"/>
</g>
<!-- sub1_s7&#45;&gt;c2 -->
<g id="edge37" class="edge"><title>sub1_s7&#45;&gt;c2</title>
<path fill="none" stroke="black" d="M830,-508.937C830,-500.807 830,-490.876 830,-481.705"/>
<polygon fill="black" stroke="black" points="833.5,-481.441 830,-471.441 826.5,-481.441 833.5,-481.441"/>
</g>
<!-- sub2_s2_a -->
<g id="node25" class="node"><title>sub2_s2_a</title>
<path fill="bisque" stroke="black" d="M425.25,-273C425.25,-273 360.75,-273 360.75,-273 354.75,-273 348.75,-267 348.75,-261 348.75,-261 348.75,-249 348.75,-249 348.75,-243 354.75,-237 360.75,-237 360.75,-237 425.25,-237 425.25,-237 431.25,-237 437.25,-243 437.25,-249 437.25,-249 437.25,-261 437.25,-261 437.25,-267 431.25,-273 425.25,-273"/>
<text text-anchor="middle" x="393" y="-251.3" font-family="Times,serif" font-size="14.00">年限系数=1</text>
</g>
<!-- sub2_s1&#45;&gt;sub2_s2_a -->
<g id="edge14" class="edge"><title>sub2_s1&#45;&gt;sub2_s2_a</title>
<path fill="none" stroke="black" d="M722.965,-340.437C659.284,-336.758 575.61,-328.104 504,-308 478.835,-300.935 452.266,-288.68 431.434,-277.84"/>
<polygon fill="black" stroke="black" points="433.059,-274.74 422.585,-273.143 429.776,-280.923 433.059,-274.74"/>
<text text-anchor="middle" x="540.5" y="-296.3" font-family="Times,serif" font-size="14.00">工作年数&lt;2</text>
</g>
<!-- sub2_s2_b -->
<g id="node26" class="node"><title>sub2_s2_b</title>
<path fill="bisque" stroke="black" d="M584,-274C584,-274 468,-274 468,-274 462,-274 456,-268 456,-262 456,-262 456,-248 456,-248 456,-242 462,-236 468,-236 468,-236 584,-236 584,-236 590,-236 596,-242 596,-248 596,-248 596,-262 596,-262 596,-268 590,-274 584,-274"/>
<text text-anchor="middle" x="526" y="-258.8" font-family="Times,serif" font-size="14.00">年限系数=</text>
<text text-anchor="middle" x="526" y="-243.8" font-family="Times,serif" font-size="14.00">1+0.01x(工作年数&#45;1)</text>
</g>
<!-- sub2_s1&#45;&gt;sub2_s2_b -->
<g id="edge15" class="edge"><title>sub2_s1&#45;&gt;sub2_s2_b</title>
<path fill="none" stroke="black" d="M722.748,-334.043C687.329,-328.869 647.696,-320.741 613,-308 594.221,-301.104 574.963,-290.078 559.356,-279.949"/>
<polygon fill="black" stroke="black" points="560.882,-276.76 550.619,-274.128 557,-282.586 560.882,-276.76"/>
<text text-anchor="middle" x="665" y="-296.3" font-family="Times,serif" font-size="14.00">2&lt;=工作年数&lt;=5</text>
</g>
<!-- sub2_s2_c -->
<g id="node27" class="node"><title>sub2_s2_c</title>
<path fill="bisque" stroke="black" d="M726,-274C726,-274 626,-274 626,-274 620,-274 614,-268 614,-262 614,-262 614,-248 614,-248 614,-242 620,-236 626,-236 626,-236 726,-236 726,-236 732,-236 738,-242 738,-248 738,-248 738,-262 738,-262 738,-268 732,-274 726,-274"/>
<text text-anchor="middle" x="676" y="-258.8" font-family="Times,serif" font-size="14.00">年限系数=</text>
<text text-anchor="middle" x="676" y="-243.8" font-family="Times,serif" font-size="14.00">1+6年的年限系数</text>
</g>
<!-- sub2_s1&#45;&gt;sub2_s2_c -->
<g id="edge16" class="edge"><title>sub2_s1&#45;&gt;sub2_s2_c</title>
<path fill="none" stroke="black" d="M779.439,-325.897C767.656,-320.685 755.099,-314.577 744,-308 730.625,-300.074 716.827,-289.943 705.184,-280.732"/>
<polygon fill="black" stroke="black" points="707.105,-277.786 697.124,-274.233 702.711,-283.235 707.105,-277.786"/>
<text text-anchor="middle" x="780.5" y="-296.3" font-family="Times,serif" font-size="14.00">工作年数=6</text>
</g>
<!-- sub2_s2_d -->
<g id="node28" class="node"><title>sub2_s2_d</title>
<path fill="bisque" stroke="black" d="M868,-274C868,-274 768,-274 768,-274 762,-274 756,-268 756,-262 756,-262 756,-248 756,-248 756,-242 762,-236 768,-236 768,-236 868,-236 868,-236 874,-236 880,-242 880,-248 880,-248 880,-262 880,-262 880,-268 874,-274 868,-274"/>
<text text-anchor="middle" x="818" y="-258.8" font-family="Times,serif" font-size="14.00">年限系数=</text>
<text text-anchor="middle" x="818" y="-243.8" font-family="Times,serif" font-size="14.00">1+7年的年限系数</text>
</g>
<!-- sub2_s1&#45;&gt;sub2_s2_d -->
<g id="edge17" class="edge"><title>sub2_s1&#45;&gt;sub2_s2_d</title>
<path fill="none" stroke="black" d="M822.012,-325.812C821.334,-314.011 820.418,-298.072 819.632,-284.404"/>
<polygon fill="black" stroke="black" points="823.106,-283.834 819.037,-274.051 816.117,-284.236 823.106,-283.834"/>
<text text-anchor="middle" x="857.5" y="-296.3" font-family="Times,serif" font-size="14.00">工作年数=7</text>
</g>
<!-- sub2_s2_e -->
<g id="node29" class="node"><title>sub2_s2_e</title>
<path fill="bisque" stroke="black" d="M1010,-274C1010,-274 910,-274 910,-274 904,-274 898,-268 898,-262 898,-262 898,-248 898,-248 898,-242 904,-236 910,-236 910,-236 1010,-236 1010,-236 1016,-236 1022,-242 1022,-248 1022,-248 1022,-262 1022,-262 1022,-268 1016,-274 1010,-274"/>
<text text-anchor="middle" x="960" y="-258.8" font-family="Times,serif" font-size="14.00">年限系数=</text>
<text text-anchor="middle" x="960" y="-243.8" font-family="Times,serif" font-size="14.00">1+8年的年限系数</text>
</g>
<!-- sub2_s1&#45;&gt;sub2_s2_e -->
<g id="edge18" class="edge"><title>sub2_s1&#45;&gt;sub2_s2_e</title>
<path fill="none" stroke="black" d="M864.507,-325.98C875.695,-320.768 887.578,-314.64 898,-308 910.368,-300.12 922.959,-290.02 933.534,-280.821"/>
<polygon fill="black" stroke="black" points="936.043,-283.273 941.191,-274.013 931.392,-278.042 936.043,-283.273"/>
<text text-anchor="middle" x="956.5" y="-296.3" font-family="Times,serif" font-size="14.00">工作年数=8</text>
</g>
<!-- sub2_s2_f -->
<g id="node30" class="node"><title>sub2_s2_f</title>
<path fill="bisque" stroke="black" d="M1152,-274C1152,-274 1052,-274 1052,-274 1046,-274 1040,-268 1040,-262 1040,-262 1040,-248 1040,-248 1040,-242 1046,-236 1052,-236 1052,-236 1152,-236 1152,-236 1158,-236 1164,-242 1164,-248 1164,-248 1164,-262 1164,-262 1164,-268 1158,-274 1152,-274"/>
<text text-anchor="middle" x="1102" y="-258.8" font-family="Times,serif" font-size="14.00">年限系数=</text>
<text text-anchor="middle" x="1102" y="-243.8" font-family="Times,serif" font-size="14.00">1+9年的年限系数</text>
</g>
<!-- sub2_s1&#45;&gt;sub2_s2_f -->
<g id="edge19" class="edge"><title>sub2_s1&#45;&gt;sub2_s2_f</title>
<path fill="none" stroke="black" d="M923.109,-327.511C947.611,-322.455 973.527,-316.018 997,-308 1019.17,-300.428 1042.64,-289.146 1061.75,-279.024"/>
<polygon fill="black" stroke="black" points="1063.62,-281.994 1070.76,-274.17 1060.3,-275.832 1063.62,-281.994"/>
<text text-anchor="middle" x="1072.5" y="-296.3" font-family="Times,serif" font-size="14.00">工作年数=9</text>
</g>
<!-- sub2_s2_g -->
<g id="node31" class="node"><title>sub2_s2_g</title>
<path fill="bisque" stroke="black" d="M1343.25,-274C1343.25,-274 1194.75,-274 1194.75,-274 1188.75,-274 1182.75,-268 1182.75,-262 1182.75,-262 1182.75,-248 1182.75,-248 1182.75,-242 1188.75,-236 1194.75,-236 1194.75,-236 1343.25,-236 1343.25,-236 1349.25,-236 1355.25,-242 1355.25,-248 1355.25,-248 1355.25,-262 1355.25,-262 1355.25,-268 1349.25,-274 1343.25,-274"/>
<text text-anchor="middle" x="1269" y="-258.8" font-family="Times,serif" font-size="14.00">年限系数=</text>
<text text-anchor="middle" x="1269" y="-243.8" font-family="Times,serif" font-size="14.00">1+10年及以上的年限系数</text>
</g>
<!-- sub2_s1&#45;&gt;sub2_s2_g -->
<g id="edge20" class="edge"><title>sub2_s1&#45;&gt;sub2_s2_g</title>
<path fill="none" stroke="black" d="M923.167,-335.922C979.429,-330.7 1050.66,-322.002 1113,-308 1146.91,-300.384 1183.85,-288.252 1213.26,-277.622"/>
<polygon fill="black" stroke="black" points="1214.75,-280.806 1222.93,-274.083 1212.34,-274.232 1214.75,-280.806"/>
<text text-anchor="middle" x="1214" y="-296.3" font-family="Times,serif" font-size="14.00">工作年数&gt;=10</text>
</g>
<!-- sub2_s3 -->
<g id="node32" class="node"><title>sub2_s3</title>
<path fill="bisque" stroke="black" d="M857,-184C857,-184 779,-184 779,-184 773,-184 767,-178 767,-172 767,-172 767,-160 767,-160 767,-154 773,-148 779,-148 779,-148 857,-148 857,-148 863,-148 869,-154 869,-160 869,-160 869,-172 869,-172 869,-178 863,-184 857,-184"/>
<text text-anchor="middle" x="818" y="-162.3" font-family="Times,serif" font-size="14.00">输出年限系数</text>
</g>
<!-- sub2_s2_a&#45;&gt;sub2_s3 -->
<g id="edge21" class="edge"><title>sub2_s2_a&#45;&gt;sub2_s3</title>
<path fill="none" stroke="black" d="M437.352,-238.677C440.602,-237.72 443.843,-236.816 447,-236 554.685,-208.18 682.7,-186.914 756.726,-175.743"/>
<polygon fill="black" stroke="black" points="757.433,-179.177 766.805,-174.235 756.397,-172.254 757.433,-179.177"/>
</g>
<!-- sub2_s2_b&#45;&gt;sub2_s3 -->
<g id="edge22" class="edge"><title>sub2_s2_b&#45;&gt;sub2_s3</title>
<path fill="none" stroke="black" d="M586.503,-235.974C636.46,-221.089 707.039,-200.06 757.105,-185.143"/>
<polygon fill="black" stroke="black" points="758.248,-188.455 766.832,-182.245 756.249,-181.746 758.248,-188.455"/>
</g>
<!-- sub2_s2_c&#45;&gt;sub2_s3 -->
<g id="edge23" class="edge"><title>sub2_s2_c&#45;&gt;sub2_s3</title>
<path fill="none" stroke="black" d="M705.422,-235.974C727.465,-222.469 757.762,-203.907 781.374,-189.44"/>
<polygon fill="black" stroke="black" points="783.366,-192.324 790.065,-184.115 779.709,-186.355 783.366,-192.324"/>
</g>
<!-- sub2_s2_d&#45;&gt;sub2_s3 -->
<g id="edge24" class="edge"><title>sub2_s2_d&#45;&gt;sub2_s3</title>
<path fill="none" stroke="black" d="M818,-235.974C818,-223.956 818,-207.934 818,-194.357"/>
<polygon fill="black" stroke="black" points="821.5,-194.115 818,-184.115 814.5,-194.115 821.5,-194.115"/>
</g>
<!-- sub2_s2_e&#45;&gt;sub2_s3 -->
<g id="edge25" class="edge"><title>sub2_s2_e&#45;&gt;sub2_s3</title>
<path fill="none" stroke="black" d="M930.578,-235.974C908.535,-222.469 878.238,-203.907 854.626,-189.44"/>
<polygon fill="black" stroke="black" points="856.291,-186.355 845.935,-184.115 852.634,-192.324 856.291,-186.355"/>
</g>
<!-- sub2_s2_f&#45;&gt;sub2_s3 -->
<g id="edge26" class="edge"><title>sub2_s2_f&#45;&gt;sub2_s3</title>
<path fill="none" stroke="black" d="M1043.16,-235.974C995.123,-221.26 927.493,-200.542 878.91,-185.659"/>
<polygon fill="black" stroke="black" points="879.739,-182.253 869.153,-182.67 877.689,-188.946 879.739,-182.253"/>
</g>
<!-- sub2_s2_g&#45;&gt;sub2_s3 -->
<g id="edge27" class="edge"><title>sub2_s2_g&#45;&gt;sub2_s3</title>
<path fill="none" stroke="black" d="M1182.58,-237.328C1093.72,-220.188 957.598,-193.929 879.261,-178.817"/>
<polygon fill="black" stroke="black" points="879.55,-175.309 869.068,-176.851 878.224,-182.182 879.55,-175.309"/>
</g>
<!-- sub2_s3&#45;&gt;s6 -->
<g id="edge40" class="edge"><title>sub2_s3&#45;&gt;s6</title>
<path fill="none" stroke="black" d="M818,-147.937C818,-139.807 818,-129.876 818,-120.705"/>
<polygon fill="black" stroke="black" points="821.5,-120.441 818,-110.441 814.5,-120.441 821.5,-120.441"/>
</g>
</g>
</svg>
