<?xml version="1.0" encoding="UTF-8" standalone="no"?>
<!DOCTYPE svg PUBLIC "-//W3C//DTD SVG 1.1//EN"
 "http://www.w3.org/Graphics/SVG/1.1/DTD/svg11.dtd">
<!-- Generated by graphviz version 2.30.1 (20180420.1509)
 -->
<!-- Title: %3 Pages: 1 -->
<svg width="1350pt" height="1290pt"
 viewBox="0.00 0.00 1350.00 1290.00" xmlns="http://www.w3.org/2000/svg" xmlns:xlink="http://www.w3.org/1999/xlink">
<g id="graph0" class="graph" transform="scale(1 1) rotate(0) translate(4 1286)">
<title>%3</title>
<polygon fill="white" stroke="white" points="-4,5 -4,-1286 1347,-1286 1347,5 -4,5"/>
<g id="clust1" class="cluster"><title>cluster1</title>
<polygon fill="aliceblue" stroke="aliceblue" points="545,-501 545,-1184 1334,-1184 1334,-501 545,-501"/>
<text text-anchor="middle" x="939.5" y="-1168.8" font-family="Times,serif" font-size="14.00">计算这次上课的课时费</text>
</g>
<g id="clust4" class="cluster"><title>cluster2</title>
<polygon fill="aliceblue" stroke="aliceblue" points="340,-140 340,-393 1289,-393 1289,-140 340,-140"/>
<text text-anchor="middle" x="814.5" y="-377.8" font-family="Times,serif" font-size="14.00">计算兼职教师年限系数</text>
</g>
<!-- start -->
<g id="node1" class="node"><title>start</title>
<path fill="aquamarine" stroke="black" d="M155,-1228C155,-1228 125,-1228 125,-1228 119,-1228 113,-1222 113,-1216 113,-1216 113,-1204 113,-1204 113,-1198 119,-1192 125,-1192 125,-1192 155,-1192 155,-1192 161,-1192 167,-1198 167,-1204 167,-1204 167,-1216 167,-1216 167,-1222 161,-1228 155,-1228"/>
<text text-anchor="middle" x="140" y="-1206.3" font-family="Times,serif" font-size="14.00">开始</text>
</g>
<!-- s1 -->
<g id="node3" class="node"><title>s1</title>
<path fill="bisque" stroke="black" d="M255,-1099C255,-1099 25,-1099 25,-1099 19,-1099 13,-1093 13,-1087 13,-1087 13,-1075 13,-1075 13,-1069 19,-1063 25,-1063 25,-1063 255,-1063 255,-1063 261,-1063 267,-1069 267,-1075 267,-1075 267,-1087 267,-1087 267,-1093 261,-1099 255,-1099"/>
<text text-anchor="middle" x="140" y="-1077.3" font-family="Times,serif" font-size="14.00">列出所有该教师授课的上课情况(按次)</text>
</g>
<!-- start&#45;&gt;s1 -->
<g id="edge28" class="edge"><title>start&#45;&gt;s1</title>
<path fill="none" stroke="black" d="M140,-1191.87C140,-1170.76 140,-1134.6 140,-1109.56"/>
<polygon fill="black" stroke="black" points="143.5,-1109.26 140,-1099.26 136.5,-1109.26 143.5,-1109.26"/>
</g>
<!-- end -->
<g id="node2" class="node"><title>end</title>
<path fill="aquamarine" stroke="black" d="M457,-1045C457,-1045 427,-1045 427,-1045 421,-1045 415,-1039 415,-1033 415,-1033 415,-1021 415,-1021 415,-1015 421,-1009 427,-1009 427,-1009 457,-1009 457,-1009 463,-1009 469,-1015 469,-1021 469,-1021 469,-1033 469,-1033 469,-1039 463,-1045 457,-1045"/>
<text text-anchor="middle" x="442" y="-1023.3" font-family="Times,serif" font-size="14.00">结束</text>
</g>
<!-- s2 -->
<g id="node4" class="node"><title>s2</title>
<path fill="bisque" stroke="black" d="M243,-991C243,-991 51,-991 51,-991 45,-991 39,-985 39,-979 39,-979 39,-965 39,-965 39,-959 45,-953 51,-953 51,-953 243,-953 243,-953 249,-953 255,-959 255,-965 255,-965 255,-979 255,-979 255,-985 249,-991 243,-991"/>
<text text-anchor="middle" x="147" y="-975.8" font-family="Times,serif" font-size="14.00">选择需要计算课时费的上课情况</text>
<text text-anchor="middle" x="147" y="-960.8" font-family="Times,serif" font-size="14.00">生成上课情况列表(按次)</text>
</g>
<!-- s1&#45;&gt;s2 -->
<g id="edge29" class="edge"><title>s1&#45;&gt;s2</title>
<path fill="none" stroke="black" d="M141.125,-1062.81C142.207,-1046.26 143.864,-1020.94 145.142,-1001.39"/>
<polygon fill="black" stroke="black" points="148.647,-1001.43 145.808,-991.223 141.662,-1000.97 148.647,-1001.43"/>
</g>
<!-- s3 -->
<g id="node5" class="node"><title>s3</title>
<path fill="bisque" stroke="black" d="M247.25,-879C247.25,-879 54.75,-879 54.75,-879 48.75,-879 42.75,-873 42.75,-867 42.75,-867 42.75,-855 42.75,-855 42.75,-849 48.75,-843 54.75,-843 54.75,-843 247.25,-843 247.25,-843 253.25,-843 259.25,-849 259.25,-855 259.25,-855 259.25,-867 259.25,-867 259.25,-873 253.25,-879 247.25,-879"/>
<text text-anchor="middle" x="151" y="-857.3" font-family="Times,serif" font-size="14.00">初始化该教师该班级的课时费=0</text>
</g>
<!-- s2&#45;&gt;s3 -->
<g id="edge30" class="edge"><title>s2&#45;&gt;s3</title>
<path fill="none" stroke="black" d="M147.679,-952.51C148.314,-935.188 149.272,-909.081 149.996,-889.351"/>
<polygon fill="black" stroke="black" points="153.502,-889.263 150.371,-879.142 146.506,-889.007 153.502,-889.263"/>
</g>
<!-- s4 -->
<g id="node6" class="node"><title>s4</title>
<path fill="bisque" stroke="black" d="M292.25,-769C292.25,-769 11.75,-769 11.75,-769 5.75,-769 -0.25,-763 -0.25,-757 -0.25,-757 -0.25,-743 -0.25,-743 -0.25,-737 5.75,-731 11.75,-731 11.75,-731 292.25,-731 292.25,-731 298.25,-731 304.25,-737 304.25,-743 304.25,-743 304.25,-757 304.25,-757 304.25,-763 298.25,-769 292.25,-769"/>
<text text-anchor="middle" x="152" y="-753.8" font-family="Times,serif" font-size="14.00">读取课程信息中的学生单价,超过上限学生单价</text>
<text text-anchor="middle" x="152" y="-738.8" font-family="Times,serif" font-size="14.00">起算人数,下限人数,上限人数</text>
</g>
<!-- s3&#45;&gt;s4 -->
<g id="edge31" class="edge"><title>s3&#45;&gt;s4</title>
<path fill="none" stroke="black" d="M151.156,-842.969C151.312,-826.017 151.553,-799.691 151.738,-779.542"/>
<polygon fill="black" stroke="black" points="155.24,-779.399 151.831,-769.367 148.24,-779.335 155.24,-779.399"/>
</g>
<!-- c1 -->
<g id="node11" class="node"><title>c1</title>
<path fill="beige" stroke="black" d="M308.076,-1280.65C308.076,-1280.65 172.524,-1265.35 172.524,-1265.35 166.562,-1264.67 166.562,-1263.33 172.524,-1262.65 172.524,-1262.65 308.076,-1247.35 308.076,-1247.35 314.038,-1246.67 325.962,-1246.67 331.924,-1247.35 331.924,-1247.35 467.476,-1262.65 467.476,-1262.65 473.438,-1263.33 473.438,-1264.67 467.476,-1265.35 467.476,-1265.35 331.924,-1280.65 331.924,-1280.65 325.962,-1281.33 314.038,-1281.33 308.076,-1280.65"/>
<text text-anchor="middle" x="320" y="-1260.3" font-family="Times,serif" font-size="14.00">上课情况列表(按次)为空?</text>
</g>
<!-- s4&#45;&gt;c1 -->
<g id="edge32" class="edge"><title>s4&#45;&gt;c1</title>
<path fill="none" stroke="black" d="M200.777,-769.036C237.665,-786.191 282,-815.968 282,-860 282,-1136 282,-1136 282,-1136 282,-1172.37 296.479,-1212.23 307.562,-1237.41"/>
<polygon fill="black" stroke="black" points="304.426,-1238.97 311.755,-1246.62 310.797,-1236.07 304.426,-1238.97"/>
</g>
<!-- s5 -->
<g id="node7" class="node"><title>s5</title>
<path fill="bisque" stroke="black" d="M942.25,-1282C942.25,-1282 721.75,-1282 721.75,-1282 715.75,-1282 709.75,-1276 709.75,-1270 709.75,-1270 709.75,-1258 709.75,-1258 709.75,-1252 715.75,-1246 721.75,-1246 721.75,-1246 942.25,-1246 942.25,-1246 948.25,-1246 954.25,-1252 954.25,-1258 954.25,-1258 954.25,-1270 954.25,-1270 954.25,-1276 948.25,-1282 942.25,-1282"/>
<text text-anchor="middle" x="832" y="-1260.3" font-family="Times,serif" font-size="14.00">从上课情况列表中取出一次上课境况</text>
</g>
<!-- sub1_s1 -->
<g id="node13" class="node"><title>sub1_s1</title>
<path fill="bisque" stroke="black" d="M942.25,-1153C942.25,-1153 721.75,-1153 721.75,-1153 715.75,-1153 709.75,-1147 709.75,-1141 709.75,-1141 709.75,-1129 709.75,-1129 709.75,-1123 715.75,-1117 721.75,-1117 721.75,-1117 942.25,-1117 942.25,-1117 948.25,-1117 954.25,-1123 954.25,-1129 954.25,-1129 954.25,-1141 954.25,-1141 954.25,-1147 948.25,-1153 942.25,-1153"/>
<text text-anchor="middle" x="832" y="-1131.3" font-family="Times,serif" font-size="14.00">读取这次上课情况中的应到学生人数</text>
</g>
<!-- s5&#45;&gt;sub1_s1 -->
<g id="edge36" class="edge"><title>s5&#45;&gt;sub1_s1</title>
<path fill="none" stroke="black" d="M832,-1245.87C832,-1224.76 832,-1188.6 832,-1163.56"/>
<polygon fill="black" stroke="black" points="835.5,-1163.26 832,-1153.26 828.5,-1163.26 835.5,-1163.26"/>
</g>
<!-- s6 -->
<g id="node8" class="node"><title>s6</title>
<path fill="bisque" stroke="black" d="M928,-110C928,-110 664,-110 664,-110 658,-110 652,-104 652,-98 652,-98 652,-86 652,-86 652,-80 658,-74 664,-74 664,-74 928,-74 928,-74 934,-74 940,-80 940,-86 940,-86 940,-98 940,-98 940,-104 934,-110 928,-110"/>
<text text-anchor="middle" x="796" y="-88.3" font-family="Times,serif" font-size="14.00">这次上课课时费=这次上课课时费x年限系数</text>
</g>
<!-- s7 -->
<g id="node9" class="node"><title>s7</title>
<path fill="bisque" stroke="black" d="M942,-36C942,-36 650,-36 650,-36 644,-36 638,-30 638,-24 638,-24 638,-12 638,-12 638,-6 644,-0 650,-0 650,-0 942,-0 942,-0 948,-0 954,-6 954,-12 954,-12 954,-24 954,-24 954,-30 948,-36 942,-36"/>
<text text-anchor="middle" x="796" y="-14.3" font-family="Times,serif" font-size="14.00">将这次上课的课时费计入该教师该班级的课时费</text>
</g>
<!-- s6&#45;&gt;s7 -->
<g id="edge41" class="edge"><title>s6&#45;&gt;s7</title>
<path fill="none" stroke="black" d="M796,-73.937C796,-65.8072 796,-55.8761 796,-46.7047"/>
<polygon fill="black" stroke="black" points="799.5,-46.4406 796,-36.4407 792.5,-46.4407 799.5,-46.4406"/>
</g>
<!-- s7&#45;&gt;c1 -->
<g id="edge42" class="edge"><title>s7&#45;&gt;c1</title>
<path fill="none" stroke="black" d="M637.83,-28.2324C499.315,-38.5161 320,-58.1692 320,-91 320,-1136 320,-1136 320,-1136 320,-1170.34 320,-1209.9 320,-1235.63"/>
<polygon fill="black" stroke="black" points="316.5,-1235.74 320,-1245.74 323.5,-1235.74 316.5,-1235.74"/>
</g>
<!-- s8 -->
<g id="node10" class="node"><title>s8</title>
<path fill="bisque" stroke="black" d="M524,-1153C524,-1153 360,-1153 360,-1153 354,-1153 348,-1147 348,-1141 348,-1141 348,-1129 348,-1129 348,-1123 354,-1117 360,-1117 360,-1117 524,-1117 524,-1117 530,-1117 536,-1123 536,-1129 536,-1129 536,-1141 536,-1141 536,-1147 530,-1153 524,-1153"/>
<text text-anchor="middle" x="442" y="-1131.3" font-family="Times,serif" font-size="14.00">输出该教师该班级的课时费</text>
</g>
<!-- s8&#45;&gt;end -->
<g id="edge34" class="edge"><title>s8&#45;&gt;end</title>
<path fill="none" stroke="black" d="M442,-1116.97C442,-1100.38 442,-1074.88 442,-1055.43"/>
<polygon fill="black" stroke="black" points="445.5,-1055.34 442,-1045.34 438.5,-1055.34 445.5,-1055.34"/>
</g>
<!-- c1&#45;&gt;s8 -->
<g id="edge33" class="edge"><title>c1&#45;&gt;s8</title>
<path fill="none" stroke="black" d="M334.96,-1247.43C355.718,-1225.82 393.484,-1186.5 418.154,-1160.82"/>
<polygon fill="black" stroke="black" points="420.952,-1162.96 425.356,-1153.33 415.904,-1158.11 420.952,-1162.96"/>
<text text-anchor="middle" x="392.5" y="-1206.3" font-family="Times,serif" font-size="14.00">是</text>
</g>
<!-- c1&#45;&gt;s5 -->
<g id="edge35" class="edge"><title>c1&#45;&gt;s5</title>
<path fill="none" stroke="black" d="M479.544,-1264C550.169,-1264 632.267,-1264 699.45,-1264"/>
<polygon fill="black" stroke="black" points="699.675,-1267.5 709.675,-1264 699.675,-1260.5 699.675,-1267.5"/>
<text text-anchor="middle" x="594.25" y="-1270.8" font-family="Times,serif" font-size="14.00">否</text>
</g>
<!-- c2 -->
<g id="node12" class="node"><title>c2</title>
<path fill="beige" stroke="black" d="M814.254,-468.544C814.254,-468.544 751.645,-455.456 751.645,-455.456 745.772,-454.228 745.772,-451.772 751.645,-450.544 751.645,-450.544 814.254,-437.456 814.254,-437.456 820.127,-436.228 831.873,-436.228 837.746,-437.456 837.746,-437.456 900.355,-450.544 900.355,-450.544 906.228,-451.772 906.228,-454.228 900.355,-455.456 900.355,-455.456 837.746,-468.544 837.746,-468.544 831.873,-469.772 820.127,-469.772 814.254,-468.544"/>
<text text-anchor="middle" x="826" y="-449.3" font-family="Times,serif" font-size="14.00">是兼职教师?</text>
</g>
<!-- sub2_s1 -->
<g id="node24" class="node"><title>sub2_s1</title>
<path fill="bisque" stroke="black" d="M907,-362C907,-362 731,-362 731,-362 725,-362 719,-356 719,-350 719,-350 719,-338 719,-338 719,-332 725,-326 731,-326 731,-326 907,-326 907,-326 913,-326 919,-332 919,-338 919,-338 919,-350 919,-350 919,-356 913,-362 907,-362"/>
<text text-anchor="middle" x="819" y="-340.3" font-family="Times,serif" font-size="14.00">工作年数=当前年份&#45;入职年份</text>
</g>
<!-- c2&#45;&gt;sub2_s1 -->
<g id="edge38" class="edge"><title>c2&#45;&gt;sub2_s1</title>
<path fill="none" stroke="black" d="M824.875,-434.809C823.773,-417.961 822.076,-392.018 820.789,-372.339"/>
<polygon fill="black" stroke="black" points="824.267,-371.899 820.122,-362.149 817.282,-372.356 824.267,-371.899"/>
<text text-anchor="middle" x="831.5" y="-405.3" font-family="Times,serif" font-size="14.00">是</text>
</g>
<!-- c2&#45;&gt;s7 -->
<g id="edge39" class="edge"><title>c2&#45;&gt;s7</title>
<path fill="none" stroke="black" d="M903.561,-451.139C1019.99,-448.389 1232.73,-437.255 1293,-393 1311.92,-379.111 1315,-368.467 1315,-345 1315,-345 1315,-345 1315,-91 1315,-54.958 1116.09,-35.9471 964.552,-26.6935"/>
<polygon fill="black" stroke="black" points="964.376,-23.1767 954.184,-26.071 963.956,-30.1642 964.376,-23.1767"/>
<text text-anchor="middle" x="1322.5" y="-206.3" font-family="Times,serif" font-size="14.00">否</text>
</g>
<!-- sub1_s2 -->
<g id="node14" class="node"><title>sub1_s2</title>
<path fill="bisque" stroke="black" d="M921,-1045C921,-1045 743,-1045 743,-1045 737,-1045 731,-1039 731,-1033 731,-1033 731,-1021 731,-1021 731,-1015 737,-1009 743,-1009 743,-1009 921,-1009 921,-1009 927,-1009 933,-1015 933,-1021 933,-1021 933,-1033 933,-1033 933,-1039 927,-1045 921,-1045"/>
<text text-anchor="middle" x="832" y="-1023.3" font-family="Times,serif" font-size="14.00">读取这次上课的授课教师人数</text>
</g>
<!-- sub1_s1&#45;&gt;sub1_s2 -->
<g id="edge1" class="edge"><title>sub1_s1&#45;&gt;sub1_s2</title>
<path fill="none" stroke="black" d="M832,-1116.97C832,-1100.38 832,-1074.88 832,-1055.43"/>
<polygon fill="black" stroke="black" points="835.5,-1055.34 832,-1045.34 828.5,-1055.34 835.5,-1055.34"/>
</g>
<!-- sub1_s3_a -->
<g id="node15" class="node"><title>sub1_s3_a</title>
<path fill="bisque" stroke="black" d="M694.25,-935C694.25,-935 565.75,-935 565.75,-935 559.75,-935 553.75,-929 553.75,-923 553.75,-923 553.75,-909 553.75,-909 553.75,-903 559.75,-897 565.75,-897 565.75,-897 694.25,-897 694.25,-897 700.25,-897 706.25,-903 706.25,-909 706.25,-909 706.25,-923 706.25,-923 706.25,-929 700.25,-935 694.25,-935"/>
<text text-anchor="middle" x="630" y="-919.8" font-family="Times,serif" font-size="14.00">优化后上课学生人数=</text>
<text text-anchor="middle" x="630" y="-904.8" font-family="Times,serif" font-size="14.00">起算人数</text>
</g>
<!-- sub1_s2&#45;&gt;sub1_s3_a -->
<g id="edge2" class="edge"><title>sub1_s2&#45;&gt;sub1_s3_a</title>
<path fill="none" stroke="black" d="M730.803,-1024.69C671.307,-1021.54 604.096,-1012.99 585,-991 573.927,-978.247 577.684,-968.222 585,-953 586.853,-949.145 589.342,-945.574 592.203,-942.299"/>
<polygon fill="black" stroke="black" points="594.747,-944.705 599.429,-935.201 589.842,-939.711 594.747,-944.705"/>
<text text-anchor="middle" x="660.5" y="-968.3" font-family="Times,serif" font-size="14.00">应到学生人数&lt;起算人数</text>
</g>
<!-- sub1_s3_b -->
<g id="node16" class="node"><title>sub1_s3_b</title>
<path fill="bisque" stroke="black" d="M865.25,-935C865.25,-935 736.75,-935 736.75,-935 730.75,-935 724.75,-929 724.75,-923 724.75,-923 724.75,-909 724.75,-909 724.75,-903 730.75,-897 736.75,-897 736.75,-897 865.25,-897 865.25,-897 871.25,-897 877.25,-903 877.25,-909 877.25,-909 877.25,-923 877.25,-923 877.25,-929 871.25,-935 865.25,-935"/>
<text text-anchor="middle" x="801" y="-919.8" font-family="Times,serif" font-size="14.00">优化后上课学生人数=</text>
<text text-anchor="middle" x="801" y="-904.8" font-family="Times,serif" font-size="14.00">下限人数</text>
</g>
<!-- sub1_s2&#45;&gt;sub1_s3_b -->
<g id="edge3" class="edge"><title>sub1_s2&#45;&gt;sub1_s3_b</title>
<path fill="none" stroke="black" d="M765.355,-1008.76C757.74,-1004.17 750.948,-998.356 746,-991 736.574,-976.987 737.968,-967.857 746,-953 748.228,-948.879 751.155,-945.154 754.5,-941.805"/>
<polygon fill="black" stroke="black" points="757.059,-944.222 762.382,-935.062 752.508,-938.903 757.059,-944.222"/>
<text text-anchor="middle" x="821.5" y="-968.3" font-family="Times,serif" font-size="14.00">应到学生人数=起算人数</text>
</g>
<!-- sub1_s3_c -->
<g id="node17" class="node"><title>sub1_s3_c</title>
<path fill="bisque" stroke="black" d="M1036.25,-935C1036.25,-935 907.75,-935 907.75,-935 901.75,-935 895.75,-929 895.75,-923 895.75,-923 895.75,-909 895.75,-909 895.75,-903 901.75,-897 907.75,-897 907.75,-897 1036.25,-897 1036.25,-897 1042.25,-897 1048.25,-903 1048.25,-909 1048.25,-909 1048.25,-923 1048.25,-923 1048.25,-929 1042.25,-935 1036.25,-935"/>
<text text-anchor="middle" x="972" y="-919.8" font-family="Times,serif" font-size="14.00">优化后上课学生人数=</text>
<text text-anchor="middle" x="972" y="-904.8" font-family="Times,serif" font-size="14.00">应到人数</text>
</g>
<!-- sub1_s2&#45;&gt;sub1_s3_c -->
<g id="edge4" class="edge"><title>sub1_s2&#45;&gt;sub1_s3_c</title>
<path fill="none" stroke="black" d="M871.728,-1008.95C880.664,-1003.98 889.662,-997.977 897,-991 911.306,-977.396 906.475,-967.38 920,-953 924,-948.747 928.582,-944.708 933.331,-940.977"/>
<polygon fill="black" stroke="black" points="935.447,-943.765 941.408,-935.006 931.286,-938.136 935.447,-943.765"/>
<text text-anchor="middle" x="1036.5" y="-968.3" font-family="Times,serif" font-size="14.00">下限人数&lt;=应到学生人数&lt;=上限人数</text>
</g>
<!-- sub1_s3_d -->
<g id="node18" class="node"><title>sub1_s3_d</title>
<path fill="bisque" stroke="black" d="M1223.25,-935C1223.25,-935 1094.75,-935 1094.75,-935 1088.75,-935 1082.75,-929 1082.75,-923 1082.75,-923 1082.75,-909 1082.75,-909 1082.75,-903 1088.75,-897 1094.75,-897 1094.75,-897 1223.25,-897 1223.25,-897 1229.25,-897 1235.25,-903 1235.25,-909 1235.25,-909 1235.25,-923 1235.25,-923 1235.25,-929 1229.25,-935 1223.25,-935"/>
<text text-anchor="middle" x="1159" y="-919.8" font-family="Times,serif" font-size="14.00">优化后上课学生人数=</text>
<text text-anchor="middle" x="1159" y="-904.8" font-family="Times,serif" font-size="14.00">上限人数</text>
</g>
<!-- sub1_s2&#45;&gt;sub1_s3_d -->
<g id="edge5" class="edge"><title>sub1_s2&#45;&gt;sub1_s3_d</title>
<path fill="none" stroke="black" d="M933.274,-1021.35C1021.52,-1016.27 1137.73,-1006.7 1153,-991 1164.46,-979.214 1165.99,-960.8 1164.64,-945.29"/>
<polygon fill="black" stroke="black" points="1168.08,-944.603 1163.33,-935.133 1161.14,-945.498 1168.08,-944.603"/>
<text text-anchor="middle" x="1241.5" y="-968.3" font-family="Times,serif" font-size="14.00">应到学生人数&gt;上限人数</text>
</g>
<!-- sub1_s5_a -->
<g id="node20" class="node"><title>sub1_s5_a</title>
<path fill="bisque" stroke="black" d="M913.25,-705C913.25,-705 728.75,-705 728.75,-705 722.75,-705 716.75,-699 716.75,-693 716.75,-693 716.75,-679 716.75,-679 716.75,-673 722.75,-667 728.75,-667 728.75,-667 913.25,-667 913.25,-667 919.25,-667 925.25,-673 925.25,-679 925.25,-679 925.25,-693 925.25,-693 925.25,-699 919.25,-705 913.25,-705"/>
<text text-anchor="middle" x="821" y="-689.8" font-family="Times,serif" font-size="14.00">这次上课的课时费=</text>
<text text-anchor="middle" x="821" y="-674.8" font-family="Times,serif" font-size="14.00">学生单价x优化后上课学生人数</text>
</g>
<!-- sub1_s3_a&#45;&gt;sub1_s5_a -->
<g id="edge6" class="edge"><title>sub1_s3_a&#45;&gt;sub1_s5_a</title>
<path fill="none" stroke="black" d="M645.307,-896.727C679.128,-856.355 760.305,-759.452 799.331,-712.867"/>
<polygon fill="black" stroke="black" points="802.146,-714.957 805.885,-705.043 796.78,-710.461 802.146,-714.957"/>
</g>
<!-- sub1_s3_b&#45;&gt;sub1_s5_a -->
<g id="edge7" class="edge"><title>sub1_s3_b&#45;&gt;sub1_s5_a</title>
<path fill="none" stroke="black" d="M802.603,-896.727C806.086,-857.023 814.364,-762.647 818.524,-715.223"/>
<polygon fill="black" stroke="black" points="822.03,-715.311 819.417,-705.043 815.057,-714.699 822.03,-715.311"/>
</g>
<!-- sub1_s3_c&#45;&gt;sub1_s5_a -->
<g id="edge8" class="edge"><title>sub1_s3_c&#45;&gt;sub1_s5_a</title>
<path fill="none" stroke="black" d="M959.898,-896.727C933.271,-856.522 869.514,-760.254 838.516,-713.448"/>
<polygon fill="black" stroke="black" points="841.39,-711.448 832.95,-705.043 835.553,-715.313 841.39,-711.448"/>
</g>
<!-- sub1_s4 -->
<g id="node19" class="node"><title>sub1_s4</title>
<path fill="bisque" stroke="black" d="M1208.25,-825C1208.25,-825 1009.75,-825 1009.75,-825 1003.75,-825 997.75,-819 997.75,-813 997.75,-813 997.75,-799 997.75,-799 997.75,-793 1003.75,-787 1009.75,-787 1009.75,-787 1208.25,-787 1208.25,-787 1214.25,-787 1220.25,-793 1220.25,-799 1220.25,-799 1220.25,-813 1220.25,-813 1220.25,-819 1214.25,-825 1208.25,-825"/>
<text text-anchor="middle" x="1109" y="-809.8" font-family="Times,serif" font-size="14.00">超过上限课时费=</text>
<text text-anchor="middle" x="1109" y="-794.8" font-family="Times,serif" font-size="14.00">超过上限学生单价x超过上限人数</text>
</g>
<!-- sub1_s3_d&#45;&gt;sub1_s4 -->
<g id="edge10" class="edge"><title>sub1_s3_d&#45;&gt;sub1_s4</title>
<path fill="none" stroke="black" d="M1150.52,-896.679C1142.61,-879.587 1130.7,-853.862 1121.66,-834.341"/>
<polygon fill="black" stroke="black" points="1124.73,-832.654 1117.36,-825.05 1118.38,-835.595 1124.73,-832.654"/>
</g>
<!-- sub1_s5_b -->
<g id="node21" class="node"><title>sub1_s5_b</title>
<path fill="bisque" stroke="black" d="M1155.25,-712.5C1155.25,-712.5 970.75,-712.5 970.75,-712.5 964.75,-712.5 958.75,-706.5 958.75,-700.5 958.75,-700.5 958.75,-671.5 958.75,-671.5 958.75,-665.5 964.75,-659.5 970.75,-659.5 970.75,-659.5 1155.25,-659.5 1155.25,-659.5 1161.25,-659.5 1167.25,-665.5 1167.25,-671.5 1167.25,-671.5 1167.25,-700.5 1167.25,-700.5 1167.25,-706.5 1161.25,-712.5 1155.25,-712.5"/>
<text text-anchor="middle" x="1063" y="-697.3" font-family="Times,serif" font-size="14.00">这次上课的课时费=</text>
<text text-anchor="middle" x="1063" y="-682.3" font-family="Times,serif" font-size="14.00">学生单价x优化后上课学生人数</text>
<text text-anchor="middle" x="1063" y="-667.3" font-family="Times,serif" font-size="14.00">+超过上限课时费</text>
</g>
<!-- sub1_s4&#45;&gt;sub1_s5_b -->
<g id="edge11" class="edge"><title>sub1_s4&#45;&gt;sub1_s5_b</title>
<path fill="none" stroke="black" d="M1101.91,-786.821C1095.23,-769.666 1085.02,-743.48 1076.73,-722.232"/>
<polygon fill="black" stroke="black" points="1079.98,-720.913 1073.08,-712.867 1073.45,-723.455 1079.98,-720.913"/>
</g>
<!-- sub1_s6 -->
<g id="node22" class="node"><title>sub1_s6</title>
<path fill="bisque" stroke="black" d="M959.25,-621C959.25,-621 692.75,-621 692.75,-621 686.75,-621 680.75,-615 680.75,-609 680.75,-609 680.75,-595 680.75,-595 680.75,-589 686.75,-583 692.75,-583 692.75,-583 959.25,-583 959.25,-583 965.25,-583 971.25,-589 971.25,-595 971.25,-595 971.25,-609 971.25,-609 971.25,-615 965.25,-621 959.25,-621"/>
<text text-anchor="middle" x="826" y="-605.8" font-family="Times,serif" font-size="14.00">这次上课的课时费=</text>
<text text-anchor="middle" x="826" y="-590.8" font-family="Times,serif" font-size="14.00">这次上课的课时费/这次上课的授课教师人数</text>
</g>
<!-- sub1_s5_a&#45;&gt;sub1_s6 -->
<g id="edge9" class="edge"><title>sub1_s5_a&#45;&gt;sub1_s6</title>
<path fill="none" stroke="black" d="M822.11,-666.802C822.744,-656.398 823.554,-643.122 824.27,-631.377"/>
<polygon fill="black" stroke="black" points="827.778,-631.342 824.893,-621.148 820.791,-630.916 827.778,-631.342"/>
</g>
<!-- sub1_s5_b&#45;&gt;sub1_s6 -->
<g id="edge12" class="edge"><title>sub1_s5_b&#45;&gt;sub1_s6</title>
<path fill="none" stroke="black" d="M988.987,-659.392C956.51,-648.155 918.818,-635.114 887.866,-624.405"/>
<polygon fill="black" stroke="black" points="888.663,-620.977 878.068,-621.015 886.374,-627.593 888.663,-620.977"/>
</g>
<!-- sub1_s7 -->
<g id="node23" class="node"><title>sub1_s7</title>
<path fill="bisque" stroke="black" d="M893.25,-545C893.25,-545 758.75,-545 758.75,-545 752.75,-545 746.75,-539 746.75,-533 746.75,-533 746.75,-521 746.75,-521 746.75,-515 752.75,-509 758.75,-509 758.75,-509 893.25,-509 893.25,-509 899.25,-509 905.25,-515 905.25,-521 905.25,-521 905.25,-533 905.25,-533 905.25,-539 899.25,-545 893.25,-545"/>
<text text-anchor="middle" x="826" y="-523.3" font-family="Times,serif" font-size="14.00">输出这次上课的课时费</text>
</g>
<!-- sub1_s6&#45;&gt;sub1_s7 -->
<g id="edge13" class="edge"><title>sub1_s6&#45;&gt;sub1_s7</title>
<path fill="none" stroke="black" d="M826,-582.955C826,-574.701 826,-564.738 826,-555.574"/>
<polygon fill="black" stroke="black" points="829.5,-555.335 826,-545.335 822.5,-555.335 829.5,-555.335"/>
</g>
<!-- sub1_s7&#45;&gt;c2 -->
<g id="edge37" class="edge"><title>sub1_s7&#45;&gt;c2</title>
<path fill="none" stroke="black" d="M826,-508.937C826,-500.807 826,-490.876 826,-481.705"/>
<polygon fill="black" stroke="black" points="829.5,-481.441 826,-471.441 822.5,-481.441 829.5,-481.441"/>
</g>
<!-- sub2_s2_a -->
<g id="node25" class="node"><title>sub2_s2_a</title>
<path fill="bisque" stroke="black" d="M425.25,-273C425.25,-273 360.75,-273 360.75,-273 354.75,-273 348.75,-267 348.75,-261 348.75,-261 348.75,-249 348.75,-249 348.75,-243 354.75,-237 360.75,-237 360.75,-237 425.25,-237 425.25,-237 431.25,-237 437.25,-243 437.25,-249 437.25,-249 437.25,-261 437.25,-261 437.25,-267 431.25,-273 425.25,-273"/>
<text text-anchor="middle" x="393" y="-251.3" font-family="Times,serif" font-size="14.00">年限系数=1</text>
</g>
<!-- sub2_s1&#45;&gt;sub2_s2_a -->
<g id="edge14" class="edge"><title>sub2_s1&#45;&gt;sub2_s2_a</title>
<path fill="none" stroke="black" d="M718.95,-341.38C654.211,-338.097 568.745,-329.529 496,-308 472.619,-301.081 448.186,-288.985 428.988,-278.2"/>
<polygon fill="black" stroke="black" points="430.7,-275.147 420.285,-273.2 427.213,-281.217 430.7,-275.147"/>
<text text-anchor="middle" x="532.5" y="-296.3" font-family="Times,serif" font-size="14.00">工作年数&lt;2</text>
</g>
<!-- sub2_s2_b -->
<g id="node26" class="node"><title>sub2_s2_b</title>
<path fill="bisque" stroke="black" d="M584,-274C584,-274 468,-274 468,-274 462,-274 456,-268 456,-262 456,-262 456,-248 456,-248 456,-242 462,-236 468,-236 468,-236 584,-236 584,-236 590,-236 596,-242 596,-248 596,-248 596,-262 596,-262 596,-268 590,-274 584,-274"/>
<text text-anchor="middle" x="526" y="-258.8" font-family="Times,serif" font-size="14.00">年限系数=</text>
<text text-anchor="middle" x="526" y="-243.8" font-family="Times,serif" font-size="14.00">1+0.01x(工作年数&#45;1)</text>
</g>
<!-- sub2_s1&#45;&gt;sub2_s2_b -->
<g id="edge15" class="edge"><title>sub2_s1&#45;&gt;sub2_s2_b</title>
<path fill="none" stroke="black" d="M718.815,-336.381C680.894,-331.455 637.981,-322.887 601,-308 584.482,-301.35 568.013,-290.518 554.733,-280.456"/>
<polygon fill="black" stroke="black" points="556.529,-277.418 546.498,-274.008 552.213,-282.929 556.529,-277.418"/>
<text text-anchor="middle" x="653" y="-296.3" font-family="Times,serif" font-size="14.00">2&lt;=工作年数&lt;=5</text>
</g>
<!-- sub2_s2_c -->
<g id="node27" class="node"><title>sub2_s2_c</title>
<path fill="bisque" stroke="black" d="M711.25,-274C711.25,-274 626.75,-274 626.75,-274 620.75,-274 614.75,-268 614.75,-262 614.75,-262 614.75,-248 614.75,-248 614.75,-242 620.75,-236 626.75,-236 626.75,-236 711.25,-236 711.25,-236 717.25,-236 723.25,-242 723.25,-248 723.25,-248 723.25,-262 723.25,-262 723.25,-268 717.25,-274 711.25,-274"/>
<text text-anchor="middle" x="669" y="-258.8" font-family="Times,serif" font-size="14.00">年限系数=</text>
<text text-anchor="middle" x="669" y="-243.8" font-family="Times,serif" font-size="14.00">6年的年限系数</text>
</g>
<!-- sub2_s1&#45;&gt;sub2_s2_c -->
<g id="edge16" class="edge"><title>sub2_s1&#45;&gt;sub2_s2_c</title>
<path fill="none" stroke="black" d="M767.26,-325.993C754.678,-320.962 741.533,-314.918 730,-308 717.447,-300.47 704.911,-290.349 694.498,-281.038"/>
<polygon fill="black" stroke="black" points="696.714,-278.321 686.983,-274.131 691.978,-283.475 696.714,-278.321"/>
<text text-anchor="middle" x="766.5" y="-296.3" font-family="Times,serif" font-size="14.00">工作年数=6</text>
</g>
<!-- sub2_s2_d -->
<g id="node28" class="node"><title>sub2_s2_d</title>
<path fill="bisque" stroke="black" d="M838.25,-274C838.25,-274 753.75,-274 753.75,-274 747.75,-274 741.75,-268 741.75,-262 741.75,-262 741.75,-248 741.75,-248 741.75,-242 747.75,-236 753.75,-236 753.75,-236 838.25,-236 838.25,-236 844.25,-236 850.25,-242 850.25,-248 850.25,-248 850.25,-262 850.25,-262 850.25,-268 844.25,-274 838.25,-274"/>
<text text-anchor="middle" x="796" y="-258.8" font-family="Times,serif" font-size="14.00">年限系数=</text>
<text text-anchor="middle" x="796" y="-243.8" font-family="Times,serif" font-size="14.00">7年的年限系数</text>
</g>
<!-- sub2_s1&#45;&gt;sub2_s2_d -->
<g id="edge17" class="edge"><title>sub2_s1&#45;&gt;sub2_s2_d</title>
<path fill="none" stroke="black" d="M814.456,-325.812C811.305,-313.894 807.039,-297.756 803.402,-283.999"/>
<polygon fill="black" stroke="black" points="806.712,-282.824 800.772,-274.051 799.944,-284.614 806.712,-282.824"/>
<text text-anchor="middle" x="846.5" y="-296.3" font-family="Times,serif" font-size="14.00">工作年数=7</text>
</g>
<!-- sub2_s2_e -->
<g id="node29" class="node"><title>sub2_s2_e</title>
<path fill="bisque" stroke="black" d="M965.25,-274C965.25,-274 880.75,-274 880.75,-274 874.75,-274 868.75,-268 868.75,-262 868.75,-262 868.75,-248 868.75,-248 868.75,-242 874.75,-236 880.75,-236 880.75,-236 965.25,-236 965.25,-236 971.25,-236 977.25,-242 977.25,-248 977.25,-248 977.25,-262 977.25,-262 977.25,-268 971.25,-274 965.25,-274"/>
<text text-anchor="middle" x="923" y="-258.8" font-family="Times,serif" font-size="14.00">年限系数=</text>
<text text-anchor="middle" x="923" y="-243.8" font-family="Times,serif" font-size="14.00">8年的年限系数</text>
</g>
<!-- sub2_s1&#45;&gt;sub2_s2_e -->
<g id="edge18" class="edge"><title>sub2_s1&#45;&gt;sub2_s2_e</title>
<path fill="none" stroke="black" d="M856.572,-325.83C865.708,-320.769 875.11,-314.751 883,-308 891.438,-300.78 899.25,-291.517 905.69,-282.814"/>
<polygon fill="black" stroke="black" points="908.728,-284.58 911.645,-274.395 903.013,-280.538 908.728,-284.58"/>
<text text-anchor="middle" x="935.5" y="-296.3" font-family="Times,serif" font-size="14.00">工作年数=8</text>
</g>
<!-- sub2_s2_f -->
<g id="node30" class="node"><title>sub2_s2_f</title>
<path fill="bisque" stroke="black" d="M1092.25,-274C1092.25,-274 1007.75,-274 1007.75,-274 1001.75,-274 995.75,-268 995.75,-262 995.75,-262 995.75,-248 995.75,-248 995.75,-242 1001.75,-236 1007.75,-236 1007.75,-236 1092.25,-236 1092.25,-236 1098.25,-236 1104.25,-242 1104.25,-248 1104.25,-248 1104.25,-262 1104.25,-262 1104.25,-268 1098.25,-274 1092.25,-274"/>
<text text-anchor="middle" x="1050" y="-258.8" font-family="Times,serif" font-size="14.00">年限系数=</text>
<text text-anchor="middle" x="1050" y="-243.8" font-family="Times,serif" font-size="14.00">9年的年限系数</text>
</g>
<!-- sub2_s1&#45;&gt;sub2_s2_f -->
<g id="edge19" class="edge"><title>sub2_s1&#45;&gt;sub2_s2_f</title>
<path fill="none" stroke="black" d="M919.301,-326.824C938.561,-322.006 958.246,-315.842 976,-308 991.906,-300.974 1007.9,-290.296 1020.93,-280.44"/>
<polygon fill="black" stroke="black" points="1023.29,-283.035 1029.03,-274.129 1018.99,-277.513 1023.29,-283.035"/>
<text text-anchor="middle" x="1041.5" y="-296.3" font-family="Times,serif" font-size="14.00">工作年数=9</text>
</g>
<!-- sub2_s2_g -->
<g id="node31" class="node"><title>sub2_s2_g</title>
<path fill="bisque" stroke="black" d="M1269,-274C1269,-274 1135,-274 1135,-274 1129,-274 1123,-268 1123,-262 1123,-262 1123,-248 1123,-248 1123,-242 1129,-236 1135,-236 1135,-236 1269,-236 1269,-236 1275,-236 1281,-242 1281,-248 1281,-248 1281,-262 1281,-262 1281,-268 1275,-274 1269,-274"/>
<text text-anchor="middle" x="1202" y="-258.8" font-family="Times,serif" font-size="14.00">年限系数=</text>
<text text-anchor="middle" x="1202" y="-243.8" font-family="Times,serif" font-size="14.00">10年及以上的年限系数</text>
</g>
<!-- sub2_s1&#45;&gt;sub2_s2_g -->
<g id="edge20" class="edge"><title>sub2_s1&#45;&gt;sub2_s2_g</title>
<path fill="none" stroke="black" d="M919.278,-336.215C968.892,-331.21 1029.29,-322.622 1082,-308 1108.04,-300.777 1135.8,-289.033 1158.05,-278.532"/>
<polygon fill="black" stroke="black" points="1159.73,-281.608 1167.23,-274.125 1156.7,-275.298 1159.73,-281.608"/>
<text text-anchor="middle" x="1171" y="-296.3" font-family="Times,serif" font-size="14.00">工作年数&gt;=10</text>
</g>
<!-- sub2_s3 -->
<g id="node32" class="node"><title>sub2_s3</title>
<path fill="bisque" stroke="black" d="M835,-184C835,-184 757,-184 757,-184 751,-184 745,-178 745,-172 745,-172 745,-160 745,-160 745,-154 751,-148 757,-148 757,-148 835,-148 835,-148 841,-148 847,-154 847,-160 847,-160 847,-172 847,-172 847,-178 841,-184 835,-184"/>
<text text-anchor="middle" x="796" y="-162.3" font-family="Times,serif" font-size="14.00">输出年限系数</text>
</g>
<!-- sub2_s2_a&#45;&gt;sub2_s3 -->
<g id="edge21" class="edge"><title>sub2_s2_a&#45;&gt;sub2_s3</title>
<path fill="none" stroke="black" d="M437.362,-238.718C440.61,-237.751 443.847,-236.834 447,-236 546.739,-209.631 664.903,-188.297 734.986,-176.654"/>
<polygon fill="black" stroke="black" points="735.672,-180.088 744.969,-175.007 734.532,-173.181 735.672,-180.088"/>
</g>
<!-- sub2_s2_b&#45;&gt;sub2_s3 -->
<g id="edge22" class="edge"><title>sub2_s2_b&#45;&gt;sub2_s3</title>
<path fill="none" stroke="black" d="M581.944,-235.974C626.648,-221.569 689.208,-201.411 735.154,-186.606"/>
<polygon fill="black" stroke="black" points="736.249,-189.93 744.694,-183.532 734.102,-183.268 736.249,-189.93"/>
</g>
<!-- sub2_s2_c&#45;&gt;sub2_s3 -->
<g id="edge23" class="edge"><title>sub2_s2_c&#45;&gt;sub2_s3</title>
<path fill="none" stroke="black" d="M695.314,-235.974C714.855,-222.588 741.648,-204.233 762.683,-189.823"/>
<polygon fill="black" stroke="black" points="764.744,-192.654 771.015,-184.115 760.788,-186.879 764.744,-192.654"/>
</g>
<!-- sub2_s2_d&#45;&gt;sub2_s3 -->
<g id="edge24" class="edge"><title>sub2_s2_d&#45;&gt;sub2_s3</title>
<path fill="none" stroke="black" d="M796,-235.974C796,-223.956 796,-207.934 796,-194.357"/>
<polygon fill="black" stroke="black" points="799.5,-194.115 796,-184.115 792.5,-194.115 799.5,-194.115"/>
</g>
<!-- sub2_s2_e&#45;&gt;sub2_s3 -->
<g id="edge25" class="edge"><title>sub2_s2_e&#45;&gt;sub2_s3</title>
<path fill="none" stroke="black" d="M896.686,-235.974C877.145,-222.588 850.352,-204.233 829.317,-189.823"/>
<polygon fill="black" stroke="black" points="831.212,-186.879 820.985,-184.115 827.256,-192.654 831.212,-186.879"/>
</g>
<!-- sub2_s2_f&#45;&gt;sub2_s3 -->
<g id="edge26" class="edge"><title>sub2_s2_f&#45;&gt;sub2_s3</title>
<path fill="none" stroke="black" d="M997.371,-235.974C956.033,-221.814 898.463,-202.096 855.462,-187.367"/>
<polygon fill="black" stroke="black" points="856.564,-184.045 845.969,-184.115 854.295,-190.667 856.564,-184.045"/>
</g>
<!-- sub2_s2_g&#45;&gt;sub2_s3 -->
<g id="edge27" class="edge"><title>sub2_s2_g&#45;&gt;sub2_s3</title>
<path fill="none" stroke="black" d="M1122.76,-237.019C1045,-220.358 928.081,-195.303 857.213,-180.117"/>
<polygon fill="black" stroke="black" points="857.613,-176.623 847.101,-177.95 856.146,-183.468 857.613,-176.623"/>
</g>
<!-- sub2_s3&#45;&gt;s6 -->
<g id="edge40" class="edge"><title>sub2_s3&#45;&gt;s6</title>
<path fill="none" stroke="black" d="M796,-147.937C796,-139.807 796,-129.876 796,-120.705"/>
<polygon fill="black" stroke="black" points="799.5,-120.441 796,-110.441 792.5,-120.441 799.5,-120.441"/>
</g>
</g>
</svg>
