<?xml version="1.0" encoding="UTF-8" standalone="no"?>
<!DOCTYPE svg PUBLIC "-//W3C//DTD SVG 1.1//EN"
 "http://www.w3.org/Graphics/SVG/1.1/DTD/svg11.dtd">
<!-- Generated by graphviz version 2.30.1 (20180420.1509)
 -->
<!-- Title: %3 Pages: 1 -->
<svg width="1409pt" height="977pt"
 viewBox="0.00 0.00 1409.00 977.00" xmlns="http://www.w3.org/2000/svg" xmlns:xlink="http://www.w3.org/1999/xlink">
<g id="graph0" class="graph" transform="scale(1 1) rotate(0) translate(4 973)">
<title>%3</title>
<polygon fill="white" stroke="white" points="-4,5 -4,-973 1406,-973 1406,5 -4,5"/>
<g id="clust1" class="cluster"><title>cluster1</title>
<polygon fill="aliceblue" stroke="aliceblue" points="306,-471 306,-961 1381,-961 1381,-471 306,-471"/>
<text text-anchor="middle" x="843.5" y="-945.8" font-family="Times,serif" font-size="14.00">计算这次上课的课时费</text>
</g>
<!-- start -->
<g id="node1" class="node"><title>start</title>
<path fill="aquamarine" stroke="black" d="M163,-680C163,-680 133,-680 133,-680 127,-680 121,-674 121,-668 121,-668 121,-656 121,-656 121,-650 127,-644 133,-644 133,-644 163,-644 163,-644 169,-644 175,-650 175,-656 175,-656 175,-668 175,-668 175,-674 169,-680 163,-680"/>
<text text-anchor="middle" x="148" y="-658.3" font-family="Times,serif" font-size="14.00">开始</text>
</g>
<!-- s1 -->
<g id="node3" class="node"><title>s1</title>
<path fill="bisque" stroke="black" d="M284,-592C284,-592 12,-592 12,-592 6,-592 0,-586 0,-580 0,-580 0,-566 0,-566 0,-560 6,-554 12,-554 12,-554 284,-554 284,-554 290,-554 296,-560 296,-566 296,-566 296,-580 296,-580 296,-586 290,-592 284,-592"/>
<text text-anchor="middle" x="148" y="-576.8" font-family="Times,serif" font-size="14.00">列出该班级中该教师应上课的上课情况(按次)</text>
<text text-anchor="middle" x="148" y="-561.8" font-family="Times,serif" font-size="14.00">(教师出现在一次课的应上课教师列表中)</text>
</g>
<!-- start&#45;&gt;s1 -->
<g id="edge21" class="edge"><title>start&#45;&gt;s1</title>
<path fill="none" stroke="black" d="M148,-643.812C148,-632.011 148,-616.072 148,-602.404"/>
<polygon fill="black" stroke="black" points="151.5,-602.051 148,-592.051 144.5,-602.051 151.5,-602.051"/>
</g>
<!-- end -->
<g id="node2" class="node"><title>end</title>
<path fill="aquamarine" stroke="black" d="M494,-36C494,-36 464,-36 464,-36 458,-36 452,-30 452,-24 452,-24 452,-12 452,-12 452,-6 458,-0 464,-0 464,-0 494,-0 494,-0 500,-0 506,-6 506,-12 506,-12 506,-24 506,-24 506,-30 500,-36 494,-36"/>
<text text-anchor="middle" x="479" y="-14.3" font-family="Times,serif" font-size="14.00">结束</text>
</g>
<!-- s2 -->
<g id="node4" class="node"><title>s2</title>
<path fill="bisque" stroke="black" d="M264,-516C264,-516 72,-516 72,-516 66,-516 60,-510 60,-504 60,-504 60,-490 60,-490 60,-484 66,-478 72,-478 72,-478 264,-478 264,-478 270,-478 276,-484 276,-490 276,-490 276,-504 276,-504 276,-510 270,-516 264,-516"/>
<text text-anchor="middle" x="168" y="-500.8" font-family="Times,serif" font-size="14.00">选择需要计算课时费的上课情况</text>
<text text-anchor="middle" x="168" y="-485.8" font-family="Times,serif" font-size="14.00">生成上课情况列表(按次)</text>
</g>
<!-- s1&#45;&gt;s2 -->
<g id="edge22" class="edge"><title>s1&#45;&gt;s2</title>
<path fill="none" stroke="black" d="M152.944,-553.708C155.22,-545.284 157.972,-535.105 160.496,-525.765"/>
<polygon fill="black" stroke="black" points="163.883,-526.649 163.113,-516.082 157.125,-524.822 163.883,-526.649"/>
</g>
<!-- s3 -->
<g id="node5" class="node"><title>s3</title>
<path fill="bisque" stroke="black" d="M286,-439.5C286,-439.5 80,-439.5 80,-439.5 74,-439.5 68,-433.5 68,-427.5 68,-427.5 68,-398.5 68,-398.5 68,-392.5 74,-386.5 80,-386.5 80,-386.5 286,-386.5 286,-386.5 292,-386.5 298,-392.5 298,-398.5 298,-398.5 298,-427.5 298,-427.5 298,-433.5 292,-439.5 286,-439.5"/>
<text text-anchor="middle" x="183" y="-424.3" font-family="Times,serif" font-size="14.00">初始化该班级的课时费=0</text>
<text text-anchor="middle" x="183" y="-409.3" font-family="Times,serif" font-size="14.00">上课次数=0</text>
<text text-anchor="middle" x="183" y="-394.3" font-family="Times,serif" font-size="14.00">初始化班级课次对应的课时费报表</text>
</g>
<!-- s2&#45;&gt;s3 -->
<g id="edge23" class="edge"><title>s2&#45;&gt;s3</title>
<path fill="none" stroke="black" d="M171.329,-477.802C172.854,-469.467 174.715,-459.289 176.5,-449.532"/>
<polygon fill="black" stroke="black" points="179.958,-450.078 178.315,-439.612 173.073,-448.818 179.958,-450.078"/>
</g>
<!-- s4 -->
<g id="node6" class="node"><title>s4</title>
<path fill="bisque" stroke="black" d="M321.25,-348C321.25,-348 50.75,-348 50.75,-348 44.75,-348 38.75,-342 38.75,-336 38.75,-336 38.75,-322 38.75,-322 38.75,-316 44.75,-310 50.75,-310 50.75,-310 321.25,-310 321.25,-310 327.25,-310 333.25,-316 333.25,-322 333.25,-322 333.25,-336 333.25,-336 333.25,-342 327.25,-348 321.25,-348"/>
<text text-anchor="middle" x="186" y="-332.8" font-family="Times,serif" font-size="14.00">读取课程信息中的学生单价,超上限学生单价,</text>
<text text-anchor="middle" x="186" y="-317.8" font-family="Times,serif" font-size="14.00">起算人数,下限人数,上限人数</text>
</g>
<!-- s3&#45;&gt;s4 -->
<g id="edge24" class="edge"><title>s3&#45;&gt;s4</title>
<path fill="none" stroke="black" d="M183.949,-386.055C184.272,-377.219 184.635,-367.3 184.965,-358.29"/>
<polygon fill="black" stroke="black" points="188.464,-358.371 185.332,-348.249 181.469,-358.115 188.464,-358.371"/>
</g>
<!-- c1 -->
<g id="node12" class="node"><title>c1</title>
<path fill="beige" stroke="black" d="M467.076,-270.653C467.076,-270.653 331.524,-255.347 331.524,-255.347 325.562,-254.673 325.562,-253.327 331.524,-252.653 331.524,-252.653 467.076,-237.347 467.076,-237.347 473.038,-236.673 484.962,-236.673 490.924,-237.347 490.924,-237.347 626.476,-252.653 626.476,-252.653 632.438,-253.327 632.438,-254.673 626.476,-255.347 626.476,-255.347 490.924,-270.653 490.924,-270.653 484.962,-271.327 473.038,-271.327 467.076,-270.653"/>
<text text-anchor="middle" x="479" y="-250.3" font-family="Times,serif" font-size="14.00">上课情况列表(按次)为空?</text>
</g>
<!-- s4&#45;&gt;c1 -->
<g id="edge25" class="edge"><title>s4&#45;&gt;c1</title>
<path fill="none" stroke="black" d="M258.427,-309.955C308.791,-297.407 375.004,-280.91 421.698,-269.277"/>
<polygon fill="black" stroke="black" points="422.79,-272.612 431.647,-266.798 421.098,-265.819 422.79,-272.612"/>
</g>
<!-- s_c1_y1 -->
<g id="node7" class="node"><title>s_c1_y1</title>
<path fill="bisque" stroke="black" d="M539.25,-184C539.25,-184 418.75,-184 418.75,-184 412.75,-184 406.75,-178 406.75,-172 406.75,-172 406.75,-160 406.75,-160 406.75,-154 412.75,-148 418.75,-148 418.75,-148 539.25,-148 539.25,-148 545.25,-148 551.25,-154 551.25,-160 551.25,-160 551.25,-172 551.25,-172 551.25,-178 545.25,-184 539.25,-184"/>
<text text-anchor="middle" x="479" y="-162.3" font-family="Times,serif" font-size="14.00">输出该班级的课时费</text>
</g>
<!-- s_c1_y2 -->
<g id="node8" class="node"><title>s_c1_y2</title>
<path fill="bisque" stroke="black" d="M603.25,-110C603.25,-110 354.75,-110 354.75,-110 348.75,-110 342.75,-104 342.75,-98 342.75,-98 342.75,-86 342.75,-86 342.75,-80 348.75,-74 354.75,-74 354.75,-74 603.25,-74 603.25,-74 609.25,-74 615.25,-80 615.25,-86 615.25,-86 615.25,-98 615.25,-98 615.25,-104 609.25,-110 603.25,-110"/>
<text text-anchor="middle" x="479" y="-88.3" font-family="Times,serif" font-size="14.00">输出该班级的班级课次对应的课时费报表</text>
</g>
<!-- s_c1_y1&#45;&gt;s_c1_y2 -->
<g id="edge28" class="edge"><title>s_c1_y1&#45;&gt;s_c1_y2</title>
<path fill="none" stroke="black" d="M479,-147.937C479,-139.807 479,-129.876 479,-120.705"/>
<polygon fill="black" stroke="black" points="482.5,-120.441 479,-110.441 475.5,-120.441 482.5,-120.441"/>
</g>
<!-- s_c1_y2&#45;&gt;end -->
<g id="edge29" class="edge"><title>s_c1_y2&#45;&gt;end</title>
<path fill="none" stroke="black" d="M479,-73.937C479,-65.8072 479,-55.8761 479,-46.7047"/>
<polygon fill="black" stroke="black" points="482.5,-46.4406 479,-36.4407 475.5,-46.4407 482.5,-46.4406"/>
</g>
<!-- s_c1_n1 -->
<g id="node9" class="node"><title>s_c1_n1</title>
<path fill="bisque" stroke="black" d="M1283.25,-184C1283.25,-184 1062.75,-184 1062.75,-184 1056.75,-184 1050.75,-178 1050.75,-172 1050.75,-172 1050.75,-160 1050.75,-160 1050.75,-154 1056.75,-148 1062.75,-148 1062.75,-148 1283.25,-148 1283.25,-148 1289.25,-148 1295.25,-154 1295.25,-160 1295.25,-160 1295.25,-172 1295.25,-172 1295.25,-178 1289.25,-184 1283.25,-184"/>
<text text-anchor="middle" x="1173" y="-162.3" font-family="Times,serif" font-size="14.00">从上课情况列表中取出一次上课情况</text>
</g>
<!-- sub1_s1 -->
<g id="node13" class="node"><title>sub1_s1</title>
<path fill="bisque" stroke="black" d="M1343.25,-930C1343.25,-930 1122.75,-930 1122.75,-930 1116.75,-930 1110.75,-924 1110.75,-918 1110.75,-918 1110.75,-906 1110.75,-906 1110.75,-900 1116.75,-894 1122.75,-894 1122.75,-894 1343.25,-894 1343.25,-894 1349.25,-894 1355.25,-900 1355.25,-906 1355.25,-906 1355.25,-918 1355.25,-918 1355.25,-924 1349.25,-930 1343.25,-930"/>
<text text-anchor="middle" x="1233" y="-908.3" font-family="Times,serif" font-size="14.00">读取这次上课情况中的应到学生人数</text>
</g>
<!-- s_c1_n1&#45;&gt;sub1_s1 -->
<g id="edge30" class="edge"><title>s_c1_n1&#45;&gt;sub1_s1</title>
<path fill="none" stroke="black" d="M1263.77,-184.034C1327.35,-198.65 1401,-222.223 1401,-253 1401,-825 1401,-825 1401,-825 1401,-857.515 1375.76,-877.745 1344.84,-890.328"/>
<polygon fill="black" stroke="black" points="1343.21,-887.199 1335.08,-893.992 1345.68,-893.752 1343.21,-887.199"/>
</g>
<!-- s_c1_n2 -->
<g id="node10" class="node"><title>s_c1_n2</title>
<path fill="bisque" stroke="black" d="M603.25,-431C603.25,-431 354.75,-431 354.75,-431 348.75,-431 342.75,-425 342.75,-419 342.75,-419 342.75,-407 342.75,-407 342.75,-401 348.75,-395 354.75,-395 354.75,-395 603.25,-395 603.25,-395 609.25,-395 615.25,-401 615.25,-407 615.25,-407 615.25,-419 615.25,-419 615.25,-425 609.25,-431 603.25,-431"/>
<text text-anchor="middle" x="479" y="-409.3" font-family="Times,serif" font-size="14.00">将这次上课的课时费计入该班级的课时费</text>
</g>
<!-- s_c1_n3 -->
<g id="node11" class="node"><title>s_c1_n3</title>
<path fill="bisque" stroke="black" d="M593,-348C593,-348 365,-348 365,-348 359,-348 353,-342 353,-336 353,-336 353,-322 353,-322 353,-316 359,-310 365,-310 365,-310 593,-310 593,-310 599,-310 605,-316 605,-322 605,-322 605,-336 605,-336 605,-342 599,-348 593,-348"/>
<text text-anchor="middle" x="479" y="-332.8" font-family="Times,serif" font-size="14.00">新增这次上课的班级,课次,课时费记录</text>
<text text-anchor="middle" x="479" y="-317.8" font-family="Times,serif" font-size="14.00">插入班级课次对应的课时费报表</text>
</g>
<!-- s_c1_n2&#45;&gt;s_c1_n3 -->
<g id="edge32" class="edge"><title>s_c1_n2&#45;&gt;s_c1_n3</title>
<path fill="none" stroke="black" d="M479,-394.61C479,-384.065 479,-370.36 479,-358.287"/>
<polygon fill="black" stroke="black" points="482.5,-358.218 479,-348.218 475.5,-358.218 482.5,-358.218"/>
</g>
<!-- s_c1_n3&#45;&gt;c1 -->
<g id="edge33" class="edge"><title>s_c1_n3&#45;&gt;c1</title>
<path fill="none" stroke="black" d="M479,-309.955C479,-301.701 479,-291.738 479,-282.574"/>
<polygon fill="black" stroke="black" points="482.5,-282.335 479,-272.335 475.5,-282.335 482.5,-282.335"/>
</g>
<!-- c1&#45;&gt;s_c1_y1 -->
<g id="edge26" class="edge"><title>c1&#45;&gt;s_c1_y1</title>
<path fill="none" stroke="black" d="M479,-235.597C479,-223.746 479,-207.817 479,-194.292"/>
<polygon fill="black" stroke="black" points="482.5,-194.084 479,-184.084 475.5,-194.084 482.5,-194.084"/>
<text text-anchor="middle" x="486.5" y="-206.3" font-family="Times,serif" font-size="14.00">是</text>
</g>
<!-- c1&#45;&gt;s_c1_n1 -->
<g id="edge27" class="edge"><title>c1&#45;&gt;s_c1_n1</title>
<path fill="none" stroke="black" d="M550.981,-244.08C666.365,-229.782 894.512,-201.51 1040.11,-183.468"/>
<polygon fill="black" stroke="black" points="1040.95,-186.89 1050.44,-182.187 1040.09,-179.943 1040.95,-186.89"/>
<text text-anchor="middle" x="896.5" y="-206.3" font-family="Times,serif" font-size="14.00">否</text>
</g>
<!-- sub1_c1 -->
<g id="node27" class="node"><title>sub1_c1</title>
<path fill="beige" stroke="black" d="M1204.12,-840.295C1204.12,-840.295 1102.49,-825.705 1102.49,-825.705 1096.55,-824.853 1096.55,-823.147 1102.49,-822.295 1102.49,-822.295 1204.12,-807.705 1204.12,-807.705 1210.06,-806.853 1221.94,-806.853 1227.88,-807.705 1227.88,-807.705 1329.51,-822.295 1329.51,-822.295 1335.45,-823.147 1335.45,-824.853 1329.51,-825.705 1329.51,-825.705 1227.88,-840.295 1227.88,-840.295 1221.94,-841.147 1210.06,-841.147 1204.12,-840.295"/>
<text text-anchor="middle" x="1216" y="-820.3" font-family="Times,serif" font-size="14.00">该次上课已经结束?</text>
</g>
<!-- sub1_s1&#45;&gt;sub1_c1 -->
<g id="edge1" class="edge"><title>sub1_s1&#45;&gt;sub1_c1</title>
<path fill="none" stroke="black" d="M1229.56,-893.597C1227.18,-881.55 1223.96,-865.29 1221.26,-851.624"/>
<polygon fill="black" stroke="black" points="1224.69,-850.924 1219.32,-841.792 1217.83,-852.281 1224.69,-850.924"/>
</g>
<!-- sub1_s2 -->
<g id="node14" class="node"><title>sub1_s2</title>
<path fill="bisque" stroke="black" d="M1070,-680C1070,-680 878,-680 878,-680 872,-680 866,-674 866,-668 866,-668 866,-656 866,-656 866,-650 872,-644 878,-644 878,-644 1070,-644 1070,-644 1076,-644 1082,-650 1082,-656 1082,-656 1082,-668 1082,-668 1082,-674 1076,-680 1070,-680"/>
<text text-anchor="middle" x="974" y="-658.3" font-family="Times,serif" font-size="14.00">读取该次上课的应上课教师数量</text>
</g>
<!-- sub1_s3_a -->
<g id="node15" class="node"><title>sub1_s3_a</title>
<path fill="bisque" stroke="black" d="M1189.25,-591C1189.25,-591 1060.75,-591 1060.75,-591 1054.75,-591 1048.75,-585 1048.75,-579 1048.75,-579 1048.75,-567 1048.75,-567 1048.75,-561 1054.75,-555 1060.75,-555 1060.75,-555 1189.25,-555 1189.25,-555 1195.25,-555 1201.25,-561 1201.25,-567 1201.25,-567 1201.25,-579 1201.25,-579 1201.25,-585 1195.25,-591 1189.25,-591"/>
<text text-anchor="middle" x="1125" y="-569.3" font-family="Times,serif" font-size="14.00">优化后人数=起算人数</text>
</g>
<!-- sub1_s2&#45;&gt;sub1_s3_a -->
<g id="edge6" class="edge"><title>sub1_s2&#45;&gt;sub1_s3_a</title>
<path fill="none" stroke="black" d="M969.397,-643.592C967.637,-632.786 967.562,-619.247 975,-610 977.358,-607.069 1006.55,-599.774 1038.56,-592.512"/>
<polygon fill="black" stroke="black" points="1039.57,-595.872 1048.56,-590.264 1038.04,-589.042 1039.57,-595.872"/>
<text text-anchor="middle" x="1050.5" y="-614.3" font-family="Times,serif" font-size="14.00">上课学生人数&lt;起算人数</text>
</g>
<!-- sub1_s3_b -->
<g id="node16" class="node"><title>sub1_s3_b</title>
<path fill="bisque" stroke="black" d="M1360.25,-591C1360.25,-591 1231.75,-591 1231.75,-591 1225.75,-591 1219.75,-585 1219.75,-579 1219.75,-579 1219.75,-567 1219.75,-567 1219.75,-561 1225.75,-555 1231.75,-555 1231.75,-555 1360.25,-555 1360.25,-555 1366.25,-555 1372.25,-561 1372.25,-567 1372.25,-567 1372.25,-579 1372.25,-579 1372.25,-585 1366.25,-591 1360.25,-591"/>
<text text-anchor="middle" x="1296" y="-569.3" font-family="Times,serif" font-size="14.00">优化后人数=下限人数</text>
</g>
<!-- sub1_s2&#45;&gt;sub1_s3_b -->
<g id="edge7" class="edge"><title>sub1_s2&#45;&gt;sub1_s3_b</title>
<path fill="none" stroke="black" d="M1061.21,-643.94C1082.62,-638.927 1105.32,-632.904 1126,-626 1142.61,-620.454 1145.5,-615.845 1162,-610 1178.86,-604.03 1197.21,-598.494 1214.77,-593.643"/>
<polygon fill="black" stroke="black" points="1215.7,-597.019 1224.43,-591.021 1213.87,-590.263 1215.7,-597.019"/>
<text text-anchor="middle" x="1274.5" y="-614.3" font-family="Times,serif" font-size="14.00">起算人数&lt;=上课学生人数&lt;下限人数</text>
</g>
<!-- sub1_s3_c -->
<g id="node17" class="node"><title>sub1_s3_c</title>
<path fill="bisque" stroke="black" d="M785.25,-591C785.25,-591 656.75,-591 656.75,-591 650.75,-591 644.75,-585 644.75,-579 644.75,-579 644.75,-567 644.75,-567 644.75,-561 650.75,-555 656.75,-555 656.75,-555 785.25,-555 785.25,-555 791.25,-555 797.25,-561 797.25,-567 797.25,-567 797.25,-579 797.25,-579 797.25,-585 791.25,-591 785.25,-591"/>
<text text-anchor="middle" x="721" y="-569.3" font-family="Times,serif" font-size="14.00">优化后人数=应到人数</text>
</g>
<!-- sub1_s2&#45;&gt;sub1_s3_c -->
<g id="edge8" class="edge"><title>sub1_s2&#45;&gt;sub1_s3_c</title>
<path fill="none" stroke="black" d="M865.807,-659.309C749.809,-656.347 579.429,-648.224 559,-626 554.188,-620.765 554.55,-615.547 559,-610 560.36,-608.304 596.457,-600.203 634.23,-592.115"/>
<polygon fill="black" stroke="black" points="635.323,-595.461 644.373,-589.951 633.863,-588.615 635.323,-595.461"/>
<text text-anchor="middle" x="675.5" y="-614.3" font-family="Times,serif" font-size="14.00">下限人数&lt;=上课学生人数&lt;=上限人数</text>
</g>
<!-- sub1_s3_d -->
<g id="node18" class="node"><title>sub1_s3_d</title>
<path fill="bisque" stroke="black" d="M1018.25,-592C1018.25,-592 827.75,-592 827.75,-592 821.75,-592 815.75,-586 815.75,-580 815.75,-580 815.75,-566 815.75,-566 815.75,-560 821.75,-554 827.75,-554 827.75,-554 1018.25,-554 1018.25,-554 1024.25,-554 1030.25,-560 1030.25,-566 1030.25,-566 1030.25,-580 1030.25,-580 1030.25,-586 1024.25,-592 1018.25,-592"/>
<text text-anchor="middle" x="923" y="-576.8" font-family="Times,serif" font-size="14.00">优化后人数=上限人数,</text>
<text text-anchor="middle" x="923" y="-561.8" font-family="Times,serif" font-size="14.00">超上限人数=应到人数&#45;上限人数</text>
</g>
<!-- sub1_s2&#45;&gt;sub1_s3_d -->
<g id="edge9" class="edge"><title>sub1_s2&#45;&gt;sub1_s3_d</title>
<path fill="none" stroke="black" d="M865.725,-650.251C836.415,-644.991 810.216,-637.267 801,-626 790.716,-613.427 795.365,-603.835 807.497,-596.535"/>
<polygon fill="black" stroke="black" points="809.082,-599.656 816.469,-592.061 805.958,-593.392 809.082,-599.656"/>
<text text-anchor="middle" x="876.5" y="-614.3" font-family="Times,serif" font-size="14.00">上课学生人数&gt;上限人数</text>
</g>
<!-- sub1_s4 -->
<g id="node19" class="node"><title>sub1_s4</title>
<path fill="bisque" stroke="black" d="M1012.25,-515C1012.25,-515 833.75,-515 833.75,-515 827.75,-515 821.75,-509 821.75,-503 821.75,-503 821.75,-491 821.75,-491 821.75,-485 827.75,-479 833.75,-479 833.75,-479 1012.25,-479 1012.25,-479 1018.25,-479 1024.25,-485 1024.25,-491 1024.25,-491 1024.25,-503 1024.25,-503 1024.25,-509 1018.25,-515 1012.25,-515"/>
<text text-anchor="middle" x="923" y="-493.3" font-family="Times,serif" font-size="14.00">课时费=学生单价x优化后人数</text>
</g>
<!-- sub1_s3_a&#45;&gt;sub1_s4 -->
<g id="edge10" class="edge"><title>sub1_s3_a&#45;&gt;sub1_s4</title>
<path fill="none" stroke="black" d="M1078.4,-554.93C1048.84,-544.099 1010.41,-530.02 979.16,-518.574"/>
<polygon fill="black" stroke="black" points="980.305,-515.266 969.712,-515.112 977.897,-521.838 980.305,-515.266"/>
</g>
<!-- sub1_s3_b&#45;&gt;sub1_s4 -->
<g id="edge11" class="edge"><title>sub1_s3_b&#45;&gt;sub1_s4</title>
<path fill="none" stroke="black" d="M1219.58,-555.948C1216.34,-555.287 1213.14,-554.635 1210,-554 1147.58,-541.379 1077.42,-527.68 1022.1,-516.991"/>
<polygon fill="black" stroke="black" points="1022.43,-513.49 1011.94,-515.031 1021.1,-520.363 1022.43,-513.49"/>
</g>
<!-- sub1_s3_c&#45;&gt;sub1_s4 -->
<g id="edge12" class="edge"><title>sub1_s3_c&#45;&gt;sub1_s4</title>
<path fill="none" stroke="black" d="M767.597,-554.93C797.162,-544.099 835.593,-530.02 866.84,-518.574"/>
<polygon fill="black" stroke="black" points="868.103,-521.838 876.288,-515.112 865.695,-515.266 868.103,-521.838"/>
</g>
<!-- sub1_s3_d&#45;&gt;sub1_s4 -->
<g id="edge13" class="edge"><title>sub1_s3_d&#45;&gt;sub1_s4</title>
<path fill="none" stroke="black" d="M923,-553.708C923,-545.125 923,-534.72 923,-525.236"/>
<polygon fill="black" stroke="black" points="926.5,-525.067 923,-515.067 919.5,-525.067 926.5,-525.067"/>
</g>
<!-- sub1_c2 -->
<g id="node28" class="node"><title>sub1_c2</title>
<path fill="beige" stroke="black" d="M581.189,-927.88C581.189,-927.88 504.529,-914.12 504.529,-914.12 498.623,-913.06 498.623,-910.94 504.529,-909.88 504.529,-909.88 581.189,-896.12 581.189,-896.12 587.094,-895.06 598.906,-895.06 604.811,-896.12 604.811,-896.12 681.471,-909.88 681.471,-909.88 687.377,-910.94 687.377,-913.06 681.471,-914.12 681.471,-914.12 604.811,-927.88 604.811,-927.88 598.906,-928.94 587.094,-928.94 581.189,-927.88"/>
<text text-anchor="middle" x="593" y="-908.3" font-family="Times,serif" font-size="14.00">超上限人数&gt;0?</text>
</g>
<!-- sub1_s4&#45;&gt;sub1_c2 -->
<g id="edge14" class="edge"><title>sub1_s4&#45;&gt;sub1_c2</title>
<path fill="none" stroke="black" d="M821.652,-508.355C750.971,-517.295 664.281,-532.236 635,-554 619.682,-565.385 629.812,-579.965 615,-592 592.399,-610.363 569.536,-586.752 552,-610 547.718,-615.677 548.82,-619.64 552,-626 557.963,-637.926 568.79,-632.784 576,-644 607.49,-692.986 597.742,-714.103 604,-772 608.203,-810.882 602.72,-856.046 598.103,-884.079"/>
<polygon fill="black" stroke="black" points="594.594,-883.831 596.335,-894.282 601.491,-885.027 594.594,-883.831"/>
</g>
<!-- sub1_c2_y1 -->
<g id="node20" class="node"><title>sub1_c2_y1</title>
<path fill="bisque" stroke="black" d="M562,-842C562,-842 326,-842 326,-842 320,-842 314,-836 314,-830 314,-830 314,-818 314,-818 314,-812 320,-806 326,-806 326,-806 562,-806 562,-806 568,-806 574,-812 574,-818 574,-818 574,-830 574,-830 574,-836 568,-842 562,-842"/>
<text text-anchor="middle" x="444" y="-820.3" font-family="Times,serif" font-size="14.00">超上限课时费=超上限单价x超上限人数</text>
</g>
<!-- sub1_c2_y2 -->
<g id="node21" class="node"><title>sub1_c2_y2</title>
<path fill="bisque" stroke="black" d="M544,-754C544,-754 364,-754 364,-754 358,-754 352,-748 352,-742 352,-742 352,-730 352,-730 352,-724 358,-718 364,-718 364,-718 544,-718 544,-718 550,-718 556,-724 556,-730 556,-730 556,-742 556,-742 556,-748 550,-754 544,-754"/>
<text text-anchor="middle" x="454" y="-732.3" font-family="Times,serif" font-size="14.00">课时费=课时费+超上限课时费</text>
</g>
<!-- sub1_c2_y1&#45;&gt;sub1_c2_y2 -->
<g id="edge17" class="edge"><title>sub1_c2_y1&#45;&gt;sub1_c2_y2</title>
<path fill="none" stroke="black" d="M446.024,-805.597C447.402,-793.746 449.254,-777.817 450.827,-764.292"/>
<polygon fill="black" stroke="black" points="454.335,-764.421 452.013,-754.084 447.382,-763.613 454.335,-764.421"/>
</g>
<!-- sub1_s5 -->
<g id="node22" class="node"><title>sub1_s5</title>
<path fill="bisque" stroke="black" d="M555,-680C555,-680 365,-680 365,-680 359,-680 353,-674 353,-668 353,-668 353,-656 353,-656 353,-650 359,-644 365,-644 365,-644 555,-644 555,-644 561,-644 567,-650 567,-656 567,-656 567,-668 567,-668 567,-674 561,-680 555,-680"/>
<text text-anchor="middle" x="460" y="-658.3" font-family="Times,serif" font-size="14.00">课时费=课时费/应上课教师数量</text>
</g>
<!-- sub1_c2_y2&#45;&gt;sub1_s5 -->
<g id="edge18" class="edge"><title>sub1_c2_y2&#45;&gt;sub1_s5</title>
<path fill="none" stroke="black" d="M455.422,-717.937C456.099,-709.807 456.927,-699.876 457.691,-690.705"/>
<polygon fill="black" stroke="black" points="461.204,-690.697 458.547,-680.441 454.228,-690.115 461.204,-690.697"/>
</g>
<!-- sub1_s6 -->
<g id="node23" class="node"><title>sub1_s6</title>
<path fill="bisque" stroke="black" d="M594,-591C594,-591 326,-591 326,-591 320,-591 314,-585 314,-579 314,-579 314,-567 314,-567 314,-561 320,-555 326,-555 326,-555 594,-555 594,-555 600,-555 606,-561 606,-567 606,-567 606,-579 606,-579 606,-585 600,-591 594,-591"/>
<text text-anchor="middle" x="460" y="-569.3" font-family="Times,serif" font-size="14.00">该次课该教师的上课次数=1/应上课教师数量</text>
</g>
<!-- sub1_s5&#45;&gt;sub1_s6 -->
<g id="edge19" class="edge"><title>sub1_s5&#45;&gt;sub1_s6</title>
<path fill="none" stroke="black" d="M460,-643.812C460,-631.657 460,-615.114 460,-601.182"/>
<polygon fill="black" stroke="black" points="463.5,-601.153 460,-591.153 456.5,-601.153 463.5,-601.153"/>
</g>
<!-- sub1_s7 -->
<g id="node24" class="node"><title>sub1_s7</title>
<path fill="bisque" stroke="black" d="M632,-515C632,-515 326,-515 326,-515 320,-515 314,-509 314,-503 314,-503 314,-491 314,-491 314,-485 320,-479 326,-479 326,-479 632,-479 632,-479 638,-479 644,-485 644,-491 644,-491 644,-503 644,-503 644,-509 638,-515 632,-515"/>
<text text-anchor="middle" x="479" y="-493.3" font-family="Times,serif" font-size="14.00">输出这次上课的课时费，该次课该教师的上课次数</text>
</g>
<!-- sub1_s6&#45;&gt;sub1_s7 -->
<g id="edge20" class="edge"><title>sub1_s6&#45;&gt;sub1_s7</title>
<path fill="none" stroke="black" d="M464.407,-554.837C466.685,-545.964 469.518,-534.931 472.08,-524.952"/>
<polygon fill="black" stroke="black" points="475.52,-525.626 474.617,-515.07 468.74,-523.885 475.52,-525.626"/>
</g>
<!-- sub1_s7&#45;&gt;s_c1_n2 -->
<g id="edge31" class="edge"><title>sub1_s7&#45;&gt;s_c1_n2</title>
<path fill="none" stroke="black" d="M479,-478.61C479,-467.774 479,-453.601 479,-441.291"/>
<polygon fill="black" stroke="black" points="482.5,-441.084 479,-431.084 475.5,-441.084 482.5,-441.084"/>
</g>
<!-- sub1_c1_y1 -->
<g id="node25" class="node"><title>sub1_c1_y1</title>
<path fill="bisque" stroke="black" d="M1316,-754C1316,-754 1116,-754 1116,-754 1110,-754 1104,-748 1104,-742 1104,-742 1104,-730 1104,-730 1104,-724 1110,-718 1116,-718 1116,-718 1316,-718 1316,-718 1322,-718 1328,-724 1328,-730 1328,-730 1328,-742 1328,-742 1328,-748 1322,-754 1316,-754"/>
<text text-anchor="middle" x="1216" y="-732.3" font-family="Times,serif" font-size="14.00">上课学生人数=实际上课学生人数</text>
</g>
<!-- sub1_c1_y1&#45;&gt;sub1_s2 -->
<g id="edge4" class="edge"><title>sub1_c1_y1&#45;&gt;sub1_s2</title>
<path fill="none" stroke="black" d="M1158.65,-717.937C1123.37,-707.439 1077.99,-693.938 1041.05,-682.948"/>
<polygon fill="black" stroke="black" points="1041.94,-679.562 1031.36,-680.065 1039.94,-686.272 1041.94,-679.562"/>
</g>
<!-- sub1_c1_n1 -->
<g id="node26" class="node"><title>sub1_c1_n1</title>
<path fill="bisque" stroke="black" d="M1074,-754C1074,-754 874,-754 874,-754 868,-754 862,-748 862,-742 862,-742 862,-730 862,-730 862,-724 868,-718 874,-718 874,-718 1074,-718 1074,-718 1080,-718 1086,-724 1086,-730 1086,-730 1086,-742 1086,-742 1086,-748 1080,-754 1074,-754"/>
<text text-anchor="middle" x="974" y="-732.3" font-family="Times,serif" font-size="14.00">上课学生人数=应到上课学生人数</text>
</g>
<!-- sub1_c1_n1&#45;&gt;sub1_s2 -->
<g id="edge5" class="edge"><title>sub1_c1_n1&#45;&gt;sub1_s2</title>
<path fill="none" stroke="black" d="M974,-717.937C974,-709.807 974,-699.876 974,-690.705"/>
<polygon fill="black" stroke="black" points="977.5,-690.441 974,-680.441 970.5,-690.441 977.5,-690.441"/>
</g>
<!-- sub1_c1&#45;&gt;sub1_c1_y1 -->
<g id="edge2" class="edge"><title>sub1_c1&#45;&gt;sub1_c1_y1</title>
<path fill="none" stroke="black" d="M1216,-805.597C1216,-793.746 1216,-777.817 1216,-764.292"/>
<polygon fill="black" stroke="black" points="1219.5,-764.084 1216,-754.084 1212.5,-764.084 1219.5,-764.084"/>
<text text-anchor="middle" x="1223.5" y="-776.3" font-family="Times,serif" font-size="14.00">是</text>
</g>
<!-- sub1_c1&#45;&gt;sub1_c1_n1 -->
<g id="edge3" class="edge"><title>sub1_c1&#45;&gt;sub1_c1_n1</title>
<path fill="none" stroke="black" d="M1181.84,-810.861C1142.92,-797.028 1078.65,-774.191 1031.87,-757.567"/>
<polygon fill="black" stroke="black" points="1032.77,-754.17 1022.17,-754.119 1030.42,-760.766 1032.77,-754.17"/>
<text text-anchor="middle" x="1124.5" y="-776.3" font-family="Times,serif" font-size="14.00">否</text>
</g>
<!-- sub1_c2&#45;&gt;sub1_c2_y1 -->
<g id="edge15" class="edge"><title>sub1_c2&#45;&gt;sub1_c2_y1</title>
<path fill="none" stroke="black" d="M570.37,-897.938C547.01,-884.455 510.142,-863.176 482.244,-847.073"/>
<polygon fill="black" stroke="black" points="483.94,-844.011 473.529,-842.044 480.441,-850.074 483.94,-844.011"/>
<text text-anchor="middle" x="539.5" y="-864.3" font-family="Times,serif" font-size="14.00">是</text>
</g>
<!-- sub1_c2&#45;&gt;sub1_s5 -->
<g id="edge16" class="edge"><title>sub1_c2&#45;&gt;sub1_s5</title>
<path fill="none" stroke="black" d="M592.583,-894.069C591.242,-852.289 585.814,-745.664 565,-718 554.244,-703.704 538.684,-692.775 522.823,-684.574"/>
<polygon fill="black" stroke="black" points="524.01,-681.261 513.484,-680.057 520.962,-687.562 524.01,-681.261"/>
<text text-anchor="middle" x="592.5" y="-776.3" font-family="Times,serif" font-size="14.00">否</text>
</g>
</g>
</svg>
