<?xml version="1.0" encoding="UTF-8" standalone="no"?>
<!DOCTYPE svg PUBLIC "-//W3C//DTD SVG 1.1//EN"
 "http://www.w3.org/Graphics/SVG/1.1/DTD/svg11.dtd">
<!-- Generated by graphviz version 2.30.1 (20180420.1509)
 -->
<!-- Title: %3 Pages: 1 -->
<svg width="1374pt" height="1447pt"
 viewBox="0.00 0.00 1374.00 1447.00" xmlns="http://www.w3.org/2000/svg" xmlns:xlink="http://www.w3.org/1999/xlink">
<g id="graph0" class="graph" transform="scale(1 1) rotate(0) translate(4 1443)">
<title>%3</title>
<polygon fill="white" stroke="white" points="-4,5 -4,-1443 1371,-1443 1371,5 -4,5"/>
<g id="clust1" class="cluster"><title>cluster1</title>
<polygon fill="aliceblue" stroke="aliceblue" points="8,-232 8,-1135 438,-1135 438,-232 8,-232"/>
<text text-anchor="middle" x="223" y="-1119.8" font-family="Times,serif" font-size="14.00">计算该教师当月上课班级的课时费总和</text>
</g>
<!-- start -->
<g id="node1" class="node"><title>start</title>
<path fill="aquamarine" stroke="black" d="M145,-1439C145,-1439 115,-1439 115,-1439 109,-1439 103,-1433 103,-1427 103,-1427 103,-1415 103,-1415 103,-1409 109,-1403 115,-1403 115,-1403 145,-1403 145,-1403 151,-1403 157,-1409 157,-1415 157,-1415 157,-1427 157,-1427 157,-1433 151,-1439 145,-1439"/>
<text text-anchor="middle" x="130" y="-1417.3" font-family="Times,serif" font-size="14.00">开始</text>
</g>
<!-- s1 -->
<g id="node3" class="node"><title>s1</title>
<path fill="bisque" stroke="black" d="M169,-1365C169,-1365 91,-1365 91,-1365 85,-1365 79,-1359 79,-1353 79,-1353 79,-1341 79,-1341 79,-1335 85,-1329 91,-1329 91,-1329 169,-1329 169,-1329 175,-1329 181,-1335 181,-1341 181,-1341 181,-1353 181,-1353 181,-1359 175,-1365 169,-1365"/>
<text text-anchor="middle" x="130" y="-1343.3" font-family="Times,serif" font-size="14.00">选择一个教师</text>
</g>
<!-- start&#45;&gt;s1 -->
<g id="edge13" class="edge"><title>start&#45;&gt;s1</title>
<path fill="none" stroke="black" d="M130,-1402.94C130,-1394.81 130,-1384.88 130,-1375.7"/>
<polygon fill="black" stroke="black" points="133.5,-1375.44 130,-1365.44 126.5,-1375.44 133.5,-1375.44"/>
</g>
<!-- end -->
<g id="node2" class="node"><title>end</title>
<path fill="aquamarine" stroke="black" d="M874,-36C874,-36 844,-36 844,-36 838,-36 832,-30 832,-24 832,-24 832,-12 832,-12 832,-6 838,-0 844,-0 844,-0 874,-0 874,-0 880,-0 886,-6 886,-12 886,-12 886,-24 886,-24 886,-30 880,-36 874,-36"/>
<text text-anchor="middle" x="859" y="-14.3" font-family="Times,serif" font-size="14.00">结束</text>
</g>
<!-- s2 -->
<g id="node4" class="node"><title>s2</title>
<path fill="bisque" stroke="black" d="M169,-1291C169,-1291 91,-1291 91,-1291 85,-1291 79,-1285 79,-1279 79,-1279 79,-1267 79,-1267 79,-1261 85,-1255 91,-1255 91,-1255 169,-1255 169,-1255 175,-1255 181,-1261 181,-1267 181,-1267 181,-1279 181,-1279 181,-1285 175,-1291 169,-1291"/>
<text text-anchor="middle" x="130" y="-1269.3" font-family="Times,serif" font-size="14.00">选定一个月份</text>
</g>
<!-- s1&#45;&gt;s2 -->
<g id="edge14" class="edge"><title>s1&#45;&gt;s2</title>
<path fill="none" stroke="black" d="M130,-1328.94C130,-1320.81 130,-1310.88 130,-1301.7"/>
<polygon fill="black" stroke="black" points="133.5,-1301.44 130,-1291.44 126.5,-1301.44 133.5,-1301.44"/>
</g>
<!-- s3 -->
<g id="node5" class="node"><title>s3</title>
<path fill="bisque" stroke="black" d="M233,-1216.5C233,-1216.5 27,-1216.5 27,-1216.5 21,-1216.5 15,-1210.5 15,-1204.5 15,-1204.5 15,-1175.5 15,-1175.5 15,-1169.5 21,-1163.5 27,-1163.5 27,-1163.5 233,-1163.5 233,-1163.5 239,-1163.5 245,-1169.5 245,-1175.5 245,-1175.5 245,-1204.5 245,-1204.5 245,-1210.5 239,-1216.5 233,-1216.5"/>
<text text-anchor="middle" x="130" y="-1201.3" font-family="Times,serif" font-size="14.00">初始化实际课时费=0</text>
<text text-anchor="middle" x="130" y="-1186.3" font-family="Times,serif" font-size="14.00">基本工资扣除=0</text>
<text text-anchor="middle" x="130" y="-1171.3" font-family="Times,serif" font-size="14.00">初始化班级课次对应的课时费报表</text>
</g>
<!-- s2&#45;&gt;s3 -->
<g id="edge15" class="edge"><title>s2&#45;&gt;s3</title>
<path fill="none" stroke="black" d="M130,-1254.82C130,-1246.71 130,-1236.69 130,-1227.02"/>
<polygon fill="black" stroke="black" points="133.5,-1226.77 130,-1216.78 126.5,-1226.78 133.5,-1226.77"/>
</g>
<!-- sub1_s1 -->
<g id="node17" class="node"><title>sub1_s1</title>
<path fill="bisque" stroke="black" d="M212,-1104C212,-1104 48,-1104 48,-1104 42,-1104 36,-1098 36,-1092 36,-1092 36,-1080 36,-1080 36,-1074 42,-1068 48,-1068 48,-1068 212,-1068 212,-1068 218,-1068 224,-1074 224,-1080 224,-1080 224,-1092 224,-1092 224,-1098 218,-1104 212,-1104"/>
<text text-anchor="middle" x="130" y="-1082.3" font-family="Times,serif" font-size="14.00">列出该教师上课的所有班级</text>
</g>
<!-- s3&#45;&gt;sub1_s1 -->
<g id="edge16" class="edge"><title>s3&#45;&gt;sub1_s1</title>
<path fill="none" stroke="black" d="M130,-1163.26C130,-1148.35 130,-1129.58 130,-1114.4"/>
<polygon fill="black" stroke="black" points="133.5,-1114.08 130,-1104.08 126.5,-1114.08 133.5,-1114.08"/>
</g>
<!-- s_c1_y1 -->
<g id="node6" class="node"><title>s_c1_y1</title>
<path fill="bisque" stroke="black" d="M777.25,-609C777.25,-609 556.75,-609 556.75,-609 550.75,-609 544.75,-603 544.75,-597 544.75,-597 544.75,-585 544.75,-585 544.75,-579 550.75,-573 556.75,-573 556.75,-573 777.25,-573 777.25,-573 783.25,-573 789.25,-579 789.25,-585 789.25,-585 789.25,-597 789.25,-597 789.25,-603 783.25,-609 777.25,-609"/>
<text text-anchor="middle" x="667" y="-587.3" font-family="Times,serif" font-size="14.00">读取该教师基本工资包含的上课次数</text>
</g>
<!-- s4 -->
<g id="node12" class="node"><title>s4</title>
<path fill="bisque" stroke="black" d="M905,-353C905,-353 813,-353 813,-353 807,-353 801,-347 801,-341 801,-341 801,-329 801,-329 801,-323 807,-317 813,-317 813,-317 905,-317 905,-317 911,-317 917,-323 917,-329 917,-329 917,-341 917,-341 917,-347 911,-353 905,-353"/>
<text text-anchor="middle" x="859" y="-331.3" font-family="Times,serif" font-size="14.00">输出实际课时费</text>
</g>
<!-- s_c1_y1&#45;&gt;s4 -->
<g id="edge20" class="edge"><title>s_c1_y1&#45;&gt;s4</title>
<path fill="none" stroke="black" d="M600.383,-572.935C525.434,-550.447 419.587,-506.757 464,-448 503.361,-395.927 688.58,-361.037 790.808,-345.397"/>
<polygon fill="black" stroke="black" points="791.37,-348.851 800.736,-343.898 790.325,-341.93 791.37,-348.851"/>
<text text-anchor="middle" x="589.5" y="-452.3" font-family="Times,serif" font-size="14.00">上课次数总和=基本工资包含的上课次数</text>
</g>
<!-- s_c1_y2_b -->
<g id="node9" class="node"><title>s_c1_y2_b</title>
<path fill="bisque" stroke="black" d="M830,-520C830,-520 504,-520 504,-520 498,-520 492,-514 492,-508 492,-508 492,-494 492,-494 492,-488 498,-482 504,-482 504,-482 830,-482 830,-482 836,-482 842,-488 842,-494 842,-494 842,-508 842,-508 842,-514 836,-520 830,-520"/>
<text text-anchor="middle" x="667" y="-504.8" font-family="Times,serif" font-size="14.00">基本工资扣除=</text>
<text text-anchor="middle" x="667" y="-489.8" font-family="Times,serif" font-size="14.00">(基本工资包含的上课次数&#45;上课次数总和)x指定课时费</text>
</g>
<!-- s_c1_y1&#45;&gt;s_c1_y2_b -->
<g id="edge21" class="edge"><title>s_c1_y1&#45;&gt;s_c1_y2_b</title>
<path fill="none" stroke="black" d="M667,-572.614C667,-560.56 667,-544.236 667,-530.32"/>
<polygon fill="black" stroke="black" points="670.5,-530.259 667,-520.259 663.5,-530.259 670.5,-530.259"/>
<text text-anchor="middle" x="792.5" y="-542.3" font-family="Times,serif" font-size="14.00">上课次数总和&lt;基本工资包含的上课次数</text>
</g>
<!-- s_c1_y2_c1 -->
<g id="node10" class="node"><title>s_c1_y2_c1</title>
<path fill="bisque" stroke="black" d="M1105.25,-519C1105.25,-519 872.75,-519 872.75,-519 866.75,-519 860.75,-513 860.75,-507 860.75,-507 860.75,-495 860.75,-495 860.75,-489 866.75,-483 872.75,-483 872.75,-483 1105.25,-483 1105.25,-483 1111.25,-483 1117.25,-489 1117.25,-495 1117.25,-495 1117.25,-507 1117.25,-507 1117.25,-513 1111.25,-519 1105.25,-519"/>
<text text-anchor="middle" x="989" y="-497.3" font-family="Times,serif" font-size="14.00">平均课时费=课时费总和/上课次数总和</text>
</g>
<!-- s_c1_y1&#45;&gt;s_c1_y2_c1 -->
<g id="edge22" class="edge"><title>s_c1_y1&#45;&gt;s_c1_y2_c1</title>
<path fill="none" stroke="black" d="M789.472,-585.626C832.664,-580.766 880.719,-571.46 922,-554 937.536,-547.429 952.585,-536.326 964.471,-526.062"/>
<polygon fill="black" stroke="black" points="967.059,-528.442 972.162,-519.157 962.383,-523.233 967.059,-528.442"/>
<text text-anchor="middle" x="1074.5" y="-542.3" font-family="Times,serif" font-size="14.00">上课次数总和&gt;基本工资包含的上课次数</text>
</g>
<!-- s_c1_n1 -->
<g id="node7" class="node"><title>s_c1_n1</title>
<path fill="bisque" stroke="black" d="M1153.25,-610C1153.25,-610 966.75,-610 966.75,-610 960.75,-610 954.75,-604 954.75,-598 954.75,-598 954.75,-584 954.75,-584 954.75,-578 960.75,-572 966.75,-572 966.75,-572 1153.25,-572 1153.25,-572 1159.25,-572 1165.25,-578 1165.25,-584 1165.25,-584 1165.25,-598 1165.25,-598 1165.25,-604 1159.25,-610 1153.25,-610"/>
<text text-anchor="middle" x="1060" y="-594.8" font-family="Times,serif" font-size="14.00">计算兼职教师的年限系数</text>
<text text-anchor="middle" x="1060" y="-579.8" font-family="Times,serif" font-size="14.00">(详见兼职教师年限系数流程图)</text>
</g>
<!-- s_c1_n2 -->
<g id="node8" class="node"><title>s_c1_n2</title>
<path fill="bisque" stroke="black" d="M1354.25,-519C1354.25,-519 1147.75,-519 1147.75,-519 1141.75,-519 1135.75,-513 1135.75,-507 1135.75,-507 1135.75,-495 1135.75,-495 1135.75,-489 1141.75,-483 1147.75,-483 1147.75,-483 1354.25,-483 1354.25,-483 1360.25,-483 1366.25,-489 1366.25,-495 1366.25,-495 1366.25,-507 1366.25,-507 1366.25,-513 1360.25,-519 1354.25,-519"/>
<text text-anchor="middle" x="1251" y="-497.3" font-family="Times,serif" font-size="14.00">实际课时费=课时费总和x年限系数</text>
</g>
<!-- s_c1_n1&#45;&gt;s_c1_n2 -->
<g id="edge30" class="edge"><title>s_c1_n1&#45;&gt;s_c1_n2</title>
<path fill="none" stroke="black" d="M1165.6,-578.001C1184.17,-572.63 1202.49,-564.951 1218,-554 1227.17,-547.526 1234.37,-537.614 1239.67,-528.175"/>
<polygon fill="black" stroke="black" points="1242.91,-529.534 1244.35,-519.037 1236.68,-526.347 1242.91,-529.534"/>
</g>
<!-- s_c1_n2&#45;&gt;s4 -->
<g id="edge31" class="edge"><title>s_c1_n2&#45;&gt;s4</title>
<path fill="none" stroke="black" d="M1239.08,-482.623C1221.36,-458.229 1185.64,-414.32 1144,-392 1076.04,-355.575 987.593,-342.684 927.373,-338.209"/>
<polygon fill="black" stroke="black" points="927.43,-334.705 917.214,-337.514 926.952,-341.689 927.43,-334.705"/>
</g>
<!-- s_c1_y2_b&#45;&gt;s4 -->
<g id="edge27" class="edge"><title>s_c1_y2_b&#45;&gt;s4</title>
<path fill="none" stroke="black" d="M694.491,-481.991C702.552,-476.439 711.273,-470.161 719,-464 730.659,-454.704 795.897,-394.492 833.064,-360.063"/>
<polygon fill="black" stroke="black" points="835.584,-362.499 840.54,-353.135 830.826,-357.365 835.584,-362.499"/>
</g>
<!-- s_c1_y2_c2 -->
<g id="node11" class="node"><title>s_c1_y2_c2</title>
<path fill="bisque" stroke="black" d="M1123.25,-430C1123.25,-430 820.75,-430 820.75,-430 814.75,-430 808.75,-424 808.75,-418 808.75,-418 808.75,-404 808.75,-404 808.75,-398 814.75,-392 820.75,-392 820.75,-392 1123.25,-392 1123.25,-392 1129.25,-392 1135.25,-398 1135.25,-404 1135.25,-404 1135.25,-418 1135.25,-418 1135.25,-424 1129.25,-430 1123.25,-430"/>
<text text-anchor="middle" x="972" y="-414.8" font-family="Times,serif" font-size="14.00">实际课时费=</text>
<text text-anchor="middle" x="972" y="-399.8" font-family="Times,serif" font-size="14.00">课时费总和&#45;平均课时费x基本工资包含的上课次数</text>
</g>
<!-- s_c1_y2_c1&#45;&gt;s_c1_y2_c2 -->
<g id="edge28" class="edge"><title>s_c1_y2_c1&#45;&gt;s_c1_y2_c2</title>
<path fill="none" stroke="black" d="M985.641,-482.614C983.313,-470.56 980.159,-454.236 977.471,-440.32"/>
<polygon fill="black" stroke="black" points="980.861,-439.413 975.527,-430.259 973.988,-440.741 980.861,-439.413"/>
</g>
<!-- s_c1_y2_c2&#45;&gt;s4 -->
<g id="edge29" class="edge"><title>s_c1_y2_c2&#45;&gt;s4</title>
<path fill="none" stroke="black" d="M944.357,-391.898C929.141,-381.933 910.109,-369.469 893.879,-358.841"/>
<polygon fill="black" stroke="black" points="895.476,-355.703 885.193,-353.153 891.641,-361.559 895.476,-355.703"/>
</g>
<!-- s5 -->
<g id="node13" class="node"><title>s5</title>
<path fill="bisque" stroke="black" d="M912.25,-277C912.25,-277 805.75,-277 805.75,-277 799.75,-277 793.75,-271 793.75,-265 793.75,-265 793.75,-253 793.75,-253 793.75,-247 799.75,-241 805.75,-241 805.75,-241 912.25,-241 912.25,-241 918.25,-241 924.25,-247 924.25,-253 924.25,-253 924.25,-265 924.25,-265 924.25,-271 918.25,-277 912.25,-277"/>
<text text-anchor="middle" x="859" y="-255.3" font-family="Times,serif" font-size="14.00">输出基本工资扣除</text>
</g>
<!-- s4&#45;&gt;s5 -->
<g id="edge23" class="edge"><title>s4&#45;&gt;s5</title>
<path fill="none" stroke="black" d="M859,-316.837C859,-308.058 859,-297.163 859,-287.267"/>
<polygon fill="black" stroke="black" points="862.5,-287.07 859,-277.07 855.5,-287.07 862.5,-287.07"/>
</g>
<!-- s6 -->
<g id="node14" class="node"><title>s6</title>
<path fill="bisque" stroke="black" d="M955,-202C955,-202 763,-202 763,-202 757,-202 751,-196 751,-190 751,-190 751,-178 751,-178 751,-172 757,-166 763,-166 763,-166 955,-166 955,-166 961,-166 967,-172 967,-178 967,-178 967,-190 967,-190 967,-196 961,-202 955,-202"/>
<text text-anchor="middle" x="859" y="-180.3" font-family="Times,serif" font-size="14.00">输出班级课次对应的课时费报表</text>
</g>
<!-- s5&#45;&gt;s6 -->
<g id="edge24" class="edge"><title>s5&#45;&gt;s6</title>
<path fill="none" stroke="black" d="M859,-240.7C859,-232.245 859,-221.869 859,-212.373"/>
<polygon fill="black" stroke="black" points="862.5,-212.176 859,-202.176 855.5,-212.176 862.5,-212.176"/>
</g>
<!-- s7 -->
<g id="node15" class="node"><title>s7</title>
<path fill="bisque" stroke="black" d="M984,-127.5C984,-127.5 734,-127.5 734,-127.5 728,-127.5 722,-121.5 722,-115.5 722,-115.5 722,-86.5 722,-86.5 722,-80.5 728,-74.5 734,-74.5 734,-74.5 984,-74.5 984,-74.5 990,-74.5 996,-80.5 996,-86.5 996,-86.5 996,-115.5 996,-115.5 996,-121.5 990,-127.5 984,-127.5"/>
<text text-anchor="middle" x="859" y="-112.3" font-family="Times,serif" font-size="14.00">生成一条新的薪资记录:</text>
<text text-anchor="middle" x="859" y="-97.3" font-family="Times,serif" font-size="14.00">包括月份,教师,实际课时费,基本工资扣除,</text>
<text text-anchor="middle" x="859" y="-82.3" font-family="Times,serif" font-size="14.00">班级课次对应的课时费报表</text>
</g>
<!-- s6&#45;&gt;s7 -->
<g id="edge25" class="edge"><title>s6&#45;&gt;s7</title>
<path fill="none" stroke="black" d="M859,-165.822C859,-157.705 859,-147.693 859,-138.025"/>
<polygon fill="black" stroke="black" points="862.5,-137.775 859,-127.775 855.5,-137.775 862.5,-137.775"/>
</g>
<!-- s7&#45;&gt;end -->
<g id="edge26" class="edge"><title>s7&#45;&gt;end</title>
<path fill="none" stroke="black" d="M859,-74.3711C859,-65.4432 859,-55.3957 859,-46.3347"/>
<polygon fill="black" stroke="black" points="862.5,-46.2771 859,-36.2772 855.5,-46.2772 862.5,-46.2771"/>
</g>
<!-- c1 -->
<g id="node16" class="node"><title>c1</title>
<path fill="beige" stroke="black" d="M655.346,-695.138C655.346,-695.138 605.355,-682.862 605.355,-682.862 599.528,-681.431 599.528,-678.569 605.355,-677.138 605.355,-677.138 655.346,-664.862 655.346,-664.862 661.173,-663.431 672.827,-663.431 678.654,-664.862 678.654,-664.862 728.645,-677.138 728.645,-677.138 734.472,-678.569 734.472,-681.431 728.645,-682.862 728.645,-682.862 678.654,-695.138 678.654,-695.138 672.827,-696.569 661.173,-696.569 655.346,-695.138"/>
<text text-anchor="middle" x="667" y="-676.3" font-family="Times,serif" font-size="14.00">全职教师?</text>
</g>
<!-- c1&#45;&gt;s_c1_y1 -->
<g id="edge18" class="edge"><title>c1&#45;&gt;s_c1_y1</title>
<path fill="none" stroke="black" d="M667,-661.812C667,-649.657 667,-633.114 667,-619.182"/>
<polygon fill="black" stroke="black" points="670.5,-619.153 667,-609.153 663.5,-619.153 670.5,-619.153"/>
<text text-anchor="middle" x="674.5" y="-632.3" font-family="Times,serif" font-size="14.00">是</text>
</g>
<!-- c1&#45;&gt;s_c1_n1 -->
<g id="edge19" class="edge"><title>c1&#45;&gt;s_c1_n1</title>
<path fill="none" stroke="black" d="M703.62,-670.893C763.557,-657.625 884.356,-630.883 968.614,-612.231"/>
<polygon fill="black" stroke="black" points="969.437,-615.633 978.444,-610.054 967.924,-608.799 969.437,-615.633"/>
<text text-anchor="middle" x="895.5" y="-632.3" font-family="Times,serif" font-size="14.00">否</text>
</g>
<!-- sub1_s2 -->
<g id="node18" class="node"><title>sub1_s2</title>
<path fill="bisque" stroke="black" d="M206.25,-1030C206.25,-1030 53.75,-1030 53.75,-1030 47.75,-1030 41.75,-1024 41.75,-1018 41.75,-1018 41.75,-1004 41.75,-1004 41.75,-998 47.75,-992 53.75,-992 53.75,-992 206.25,-992 206.25,-992 212.25,-992 218.25,-998 218.25,-1004 218.25,-1004 218.25,-1018 218.25,-1018 218.25,-1024 212.25,-1030 206.25,-1030"/>
<text text-anchor="middle" x="130" y="-1014.8" font-family="Times,serif" font-size="14.00">选择需要发放薪资的班级,</text>
<text text-anchor="middle" x="130" y="-999.8" font-family="Times,serif" font-size="14.00">生成班级列表</text>
</g>
<!-- sub1_s1&#45;&gt;sub1_s2 -->
<g id="edge1" class="edge"><title>sub1_s1&#45;&gt;sub1_s2</title>
<path fill="none" stroke="black" d="M130,-1067.7C130,-1059.49 130,-1049.47 130,-1040.2"/>
<polygon fill="black" stroke="black" points="133.5,-1040.19 130,-1030.19 126.5,-1040.19 133.5,-1040.19"/>
</g>
<!-- sub1_s3 -->
<g id="node19" class="node"><title>sub1_s3</title>
<path fill="bisque" stroke="black" d="M191,-954C191,-954 69,-954 69,-954 63,-954 57,-948 57,-942 57,-942 57,-928 57,-928 57,-922 63,-916 69,-916 69,-916 191,-916 191,-916 197,-916 203,-922 203,-928 203,-928 203,-942 203,-942 203,-948 197,-954 191,-954"/>
<text text-anchor="middle" x="130" y="-938.8" font-family="Times,serif" font-size="14.00">初始化课时费总和=0</text>
<text text-anchor="middle" x="130" y="-923.8" font-family="Times,serif" font-size="14.00">上课次数总和=0</text>
</g>
<!-- sub1_s2&#45;&gt;sub1_s3 -->
<g id="edge2" class="edge"><title>sub1_s2&#45;&gt;sub1_s3</title>
<path fill="none" stroke="black" d="M130,-991.708C130,-983.464 130,-973.538 130,-964.362"/>
<polygon fill="black" stroke="black" points="133.5,-964.082 130,-954.082 126.5,-964.082 133.5,-964.082"/>
</g>
<!-- sub1_c1 -->
<g id="node28" class="node"><title>sub1_c1</title>
<path fill="beige" stroke="black" d="M118.194,-875.851C118.194,-875.851 42.9017,-862.149 42.9017,-862.149 36.9987,-861.074 36.9987,-858.926 42.9017,-857.851 42.9017,-857.851 118.194,-844.149 118.194,-844.149 124.097,-843.074 135.903,-843.074 141.806,-844.149 141.806,-844.149 217.098,-857.851 217.098,-857.851 223.001,-858.926 223.001,-861.074 217.098,-862.149 217.098,-862.149 141.806,-875.851 141.806,-875.851 135.903,-876.926 124.097,-876.926 118.194,-875.851"/>
<text text-anchor="middle" x="130" y="-856.3" font-family="Times,serif" font-size="14.00">班级列表为空?</text>
</g>
<!-- sub1_s3&#45;&gt;sub1_c1 -->
<g id="edge3" class="edge"><title>sub1_s3&#45;&gt;sub1_c1</title>
<path fill="none" stroke="black" d="M130,-915.955C130,-907.701 130,-897.738 130,-888.574"/>
<polygon fill="black" stroke="black" points="133.5,-888.335 130,-878.335 126.5,-888.335 133.5,-888.335"/>
</g>
<!-- sub1_s_c1_y1 -->
<g id="node20" class="node"><title>sub1_s_c1_y1</title>
<path fill="bisque" stroke="black" d="M418,-789.5C418,-789.5 254,-789.5 254,-789.5 248,-789.5 242,-783.5 242,-777.5 242,-777.5 242,-748.5 242,-748.5 242,-742.5 248,-736.5 254,-736.5 254,-736.5 418,-736.5 418,-736.5 424,-736.5 430,-742.5 430,-748.5 430,-748.5 430,-777.5 430,-777.5 430,-783.5 424,-789.5 418,-789.5"/>
<text text-anchor="middle" x="336" y="-774.3" font-family="Times,serif" font-size="14.00">输出课时费总和,</text>
<text text-anchor="middle" x="336" y="-759.3" font-family="Times,serif" font-size="14.00">上课次数总和,</text>
<text text-anchor="middle" x="336" y="-744.3" font-family="Times,serif" font-size="14.00">班级课次对应的课时费报表</text>
</g>
<!-- sub1_s_c1_y1&#45;&gt;c1 -->
<g id="edge17" class="edge"><title>sub1_s_c1_y1&#45;&gt;c1</title>
<path fill="none" stroke="black" d="M430.408,-738.897C493.381,-723.487 573.309,-703.927 622.275,-691.945"/>
<polygon fill="black" stroke="black" points="623.355,-695.284 632.236,-689.507 621.691,-688.485 623.355,-695.284"/>
</g>
<!-- sub1_s_c1_n1 -->
<g id="node21" class="node"><title>sub1_s_c1_n1</title>
<path fill="bisque" stroke="black" d="M212,-781C212,-781 48,-781 48,-781 42,-781 36,-775 36,-769 36,-769 36,-757 36,-757 36,-751 42,-745 48,-745 48,-745 212,-745 212,-745 218,-745 224,-751 224,-757 224,-757 224,-769 224,-769 224,-775 218,-781 212,-781"/>
<text text-anchor="middle" x="130" y="-759.3" font-family="Times,serif" font-size="14.00">从班级列表中取出一个班级</text>
</g>
<!-- sub1_s_c1_n2 -->
<g id="node22" class="node"><title>sub1_s_c1_n2</title>
<path fill="bisque" stroke="black" d="M257.25,-698C257.25,-698 56.75,-698 56.75,-698 50.75,-698 44.75,-692 44.75,-686 44.75,-686 44.75,-674 44.75,-674 44.75,-668 50.75,-662 56.75,-662 56.75,-662 257.25,-662 257.25,-662 263.25,-662 269.25,-668 269.25,-674 269.25,-674 269.25,-686 269.25,-686 269.25,-692 263.25,-698 257.25,-698"/>
<text text-anchor="middle" x="157" y="-676.3" font-family="Times,serif" font-size="14.00">列出当前班级所有上课情况(按次)</text>
</g>
<!-- sub1_s_c1_n1&#45;&gt;sub1_s_c1_n2 -->
<g id="edge6" class="edge"><title>sub1_s_c1_n1&#45;&gt;sub1_s_c1_n2</title>
<path fill="none" stroke="black" d="M135.726,-744.822C139.306,-734.083 143.992,-720.025 148.054,-707.837"/>
<polygon fill="black" stroke="black" points="151.44,-708.747 151.282,-698.153 144.8,-706.533 151.44,-708.747"/>
</g>
<!-- sub1_s_c1_n3 -->
<g id="node23" class="node"><title>sub1_s_c1_n3</title>
<path fill="bisque" stroke="black" d="M281.25,-610C281.25,-610 48.75,-610 48.75,-610 42.75,-610 36.75,-604 36.75,-598 36.75,-598 36.75,-584 36.75,-584 36.75,-578 42.75,-572 48.75,-572 48.75,-572 281.25,-572 281.25,-572 287.25,-572 293.25,-578 293.25,-584 293.25,-584 293.25,-598 293.25,-598 293.25,-604 287.25,-610 281.25,-610"/>
<text text-anchor="middle" x="165" y="-594.8" font-family="Times,serif" font-size="14.00">选择需要计算课时费的上课情况(按次),</text>
<text text-anchor="middle" x="165" y="-579.8" font-family="Times,serif" font-size="14.00">生成上课情况列表</text>
</g>
<!-- sub1_s_c1_n2&#45;&gt;sub1_s_c1_n3 -->
<g id="edge7" class="edge"><title>sub1_s_c1_n2&#45;&gt;sub1_s_c1_n3</title>
<path fill="none" stroke="black" d="M158.581,-661.812C159.666,-650.011 161.131,-634.072 162.388,-620.404"/>
<polygon fill="black" stroke="black" points="165.91,-620.33 163.34,-610.051 158.939,-619.689 165.91,-620.33"/>
</g>
<!-- sub1_s_c1_n4 -->
<g id="node24" class="node"><title>sub1_s_c1_n4</title>
<path fill="bisque" stroke="black" d="M283.25,-520C283.25,-520 48.75,-520 48.75,-520 42.75,-520 36.75,-514 36.75,-508 36.75,-508 36.75,-494 36.75,-494 36.75,-488 42.75,-482 48.75,-482 48.75,-482 283.25,-482 283.25,-482 289.25,-482 295.25,-488 295.25,-494 295.25,-494 295.25,-508 295.25,-508 295.25,-514 289.25,-520 283.25,-520"/>
<text text-anchor="middle" x="166" y="-504.8" font-family="Times,serif" font-size="14.00">计算给定班级的上课情况列表的课时费</text>
<text text-anchor="middle" x="166" y="-489.8" font-family="Times,serif" font-size="14.00">(详见课时费计算流程图)</text>
</g>
<!-- sub1_s_c1_n3&#45;&gt;sub1_s_c1_n4 -->
<g id="edge8" class="edge"><title>sub1_s_c1_n3&#45;&gt;sub1_s_c1_n4</title>
<path fill="none" stroke="black" d="M165.207,-571.766C165.343,-559.849 165.522,-544.038 165.676,-530.482"/>
<polygon fill="black" stroke="black" points="169.179,-530.249 165.793,-520.21 162.18,-530.17 169.179,-530.249"/>
</g>
<!-- sub1_s_c1_n5 -->
<g id="node25" class="node"><title>sub1_s_c1_n5</title>
<path fill="bisque" stroke="black" d="M222.25,-429C222.25,-429 73.75,-429 73.75,-429 67.75,-429 61.75,-423 61.75,-417 61.75,-417 61.75,-405 61.75,-405 61.75,-399 67.75,-393 73.75,-393 73.75,-393 222.25,-393 222.25,-393 228.25,-393 234.25,-399 234.25,-405 234.25,-405 234.25,-417 234.25,-417 234.25,-423 228.25,-429 222.25,-429"/>
<text text-anchor="middle" x="148" y="-407.3" font-family="Times,serif" font-size="14.00">将课时费计入课时费总和</text>
</g>
<!-- sub1_s_c1_n4&#45;&gt;sub1_s_c1_n5 -->
<g id="edge9" class="edge"><title>sub1_s_c1_n4&#45;&gt;sub1_s_c1_n5</title>
<path fill="none" stroke="black" d="M162.27,-481.766C159.743,-469.41 156.359,-452.868 153.521,-438.993"/>
<polygon fill="black" stroke="black" points="156.914,-438.112 151.481,-429.016 150.056,-439.515 156.914,-438.112"/>
</g>
<!-- sub1_s_c1_n6 -->
<g id="node26" class="node"><title>sub1_s_c1_n6</title>
<path fill="bisque" stroke="black" d="M217,-354C217,-354 53,-354 53,-354 47,-354 41,-348 41,-342 41,-342 41,-328 41,-328 41,-322 47,-316 53,-316 53,-316 217,-316 217,-316 223,-316 229,-322 229,-328 229,-328 229,-342 229,-342 229,-348 223,-354 217,-354"/>
<text text-anchor="middle" x="135" y="-338.8" font-family="Times,serif" font-size="14.00">将上课情况列表的上课次数</text>
<text text-anchor="middle" x="135" y="-323.8" font-family="Times,serif" font-size="14.00">计入上课次数总和</text>
</g>
<!-- sub1_s_c1_n5&#45;&gt;sub1_s_c1_n6 -->
<g id="edge10" class="edge"><title>sub1_s_c1_n5&#45;&gt;sub1_s_c1_n6</title>
<path fill="none" stroke="black" d="M144.985,-392.837C143.487,-384.308 141.638,-373.783 139.94,-364.118"/>
<polygon fill="black" stroke="black" points="143.358,-363.346 138.18,-354.102 136.463,-364.557 143.358,-363.346"/>
</g>
<!-- sub1_s_c1_n7 -->
<g id="node27" class="node"><title>sub1_s_c1_n7</title>
<path fill="bisque" stroke="black" d="M235,-278C235,-278 29,-278 29,-278 23,-278 17,-272 17,-266 17,-266 17,-252 17,-252 17,-246 23,-240 29,-240 29,-240 235,-240 235,-240 241,-240 247,-246 247,-252 247,-252 247,-266 247,-266 247,-272 241,-278 235,-278"/>
<text text-anchor="middle" x="132" y="-262.8" font-family="Times,serif" font-size="14.00">将当前班级的班级课次课时费报表</text>
<text text-anchor="middle" x="132" y="-247.8" font-family="Times,serif" font-size="14.00">合并到班级课次对应的课时费报表</text>
</g>
<!-- sub1_s_c1_n6&#45;&gt;sub1_s_c1_n7 -->
<g id="edge11" class="edge"><title>sub1_s_c1_n6&#45;&gt;sub1_s_c1_n7</title>
<path fill="none" stroke="black" d="M134.258,-315.708C133.924,-307.464 133.522,-297.538 133.15,-288.362"/>
<polygon fill="black" stroke="black" points="136.635,-287.932 132.733,-278.082 129.641,-288.215 136.635,-287.932"/>
</g>
<!-- sub1_s_c1_n7&#45;&gt;sub1_c1 -->
<g id="edge12" class="edge"><title>sub1_s_c1_n7&#45;&gt;sub1_c1</title>
<path fill="none" stroke="black" d="M65.104,-278.064C39.8049,-289.3 17,-306.935 17,-334 17,-764 17,-764 17,-764 17,-802.723 56.3592,-828.829 88.6197,-843.722"/>
<polygon fill="black" stroke="black" points="87.3576,-846.991 97.921,-847.806 90.1719,-840.581 87.3576,-846.991"/>
</g>
<!-- sub1_c1&#45;&gt;sub1_s_c1_y1 -->
<g id="edge4" class="edge"><title>sub1_c1&#45;&gt;sub1_s_c1_y1</title>
<path fill="none" stroke="black" d="M156.509,-846.775C185.382,-833.46 232.625,-811.673 271.397,-793.793"/>
<polygon fill="black" stroke="black" points="272.93,-796.94 280.545,-789.574 269.998,-790.583 272.93,-796.94"/>
<text text-anchor="middle" x="247.5" y="-812.3" font-family="Times,serif" font-size="14.00">是</text>
</g>
<!-- sub1_c1&#45;&gt;sub1_s_c1_n1 -->
<g id="edge5" class="edge"><title>sub1_c1&#45;&gt;sub1_s_c1_n1</title>
<path fill="none" stroke="black" d="M130,-841.576C130,-827.648 130,-807.861 130,-791.757"/>
<polygon fill="black" stroke="black" points="133.5,-791.314 130,-781.314 126.5,-791.314 133.5,-791.314"/>
<text text-anchor="middle" x="137.5" y="-812.3" font-family="Times,serif" font-size="14.00">否</text>
</g>
</g>
</svg>
