<?xml version="1.0" encoding="UTF-8" standalone="no"?>
<!DOCTYPE svg PUBLIC "-//W3C//DTD SVG 1.1//EN"
 "http://www.w3.org/Graphics/SVG/1.1/DTD/svg11.dtd">
<!-- Generated by graphviz version 2.30.1 (20180420.1509)
 -->
<!-- Title: %3 Pages: 1 -->
<svg width="1122pt" height="1332pt"
 viewBox="0.00 0.00 1122.00 1332.00" xmlns="http://www.w3.org/2000/svg" xmlns:xlink="http://www.w3.org/1999/xlink">
<g id="graph0" class="graph" transform="scale(1 1) rotate(0) translate(4 1328)">
<title>%3</title>
<polygon fill="white" stroke="white" points="-4,5 -4,-1328 1119,-1328 1119,5 -4,5"/>
<!-- start -->
<g id="node1" class="node"><title>start</title>
<path fill="aquamarine" stroke="black" d="M815,-1324C815,-1324 785,-1324 785,-1324 779,-1324 773,-1318 773,-1312 773,-1312 773,-1300 773,-1300 773,-1294 779,-1288 785,-1288 785,-1288 815,-1288 815,-1288 821,-1288 827,-1294 827,-1300 827,-1300 827,-1312 827,-1312 827,-1318 821,-1324 815,-1324"/>
<text text-anchor="middle" x="800" y="-1302.3" font-family="Times,serif" font-size="14.00">开始</text>
</g>
<!-- s1 -->
<g id="node3" class="node"><title>s1</title>
<path fill="bisque" stroke="black" d="M936,-1250C936,-1250 664,-1250 664,-1250 658,-1250 652,-1244 652,-1238 652,-1238 652,-1224 652,-1224 652,-1218 658,-1212 664,-1212 664,-1212 936,-1212 936,-1212 942,-1212 948,-1218 948,-1224 948,-1224 948,-1238 948,-1238 948,-1244 942,-1250 936,-1250"/>
<text text-anchor="middle" x="800" y="-1234.8" font-family="Times,serif" font-size="14.00">列出该班级中该教师应上课的上课情况(按次)</text>
<text text-anchor="middle" x="800" y="-1219.8" font-family="Times,serif" font-size="14.00">(教师出现在一次课的应上课教师列表中)</text>
</g>
<!-- start&#45;&gt;s1 -->
<g id="edge1" class="edge"><title>start&#45;&gt;s1</title>
<path fill="none" stroke="black" d="M800,-1287.7C800,-1279.49 800,-1269.47 800,-1260.2"/>
<polygon fill="black" stroke="black" points="803.5,-1260.19 800,-1250.19 796.5,-1260.19 803.5,-1260.19"/>
</g>
<!-- end -->
<g id="node2" class="node"><title>end</title>
<path fill="aquamarine" stroke="black" d="M993,-37C993,-37 963,-37 963,-37 957,-37 951,-31 951,-25 951,-25 951,-13 951,-13 951,-7 957,-1 963,-1 963,-1 993,-1 993,-1 999,-1 1005,-7 1005,-13 1005,-13 1005,-25 1005,-25 1005,-31 999,-37 993,-37"/>
<text text-anchor="middle" x="978" y="-15.3" font-family="Times,serif" font-size="14.00">结束</text>
</g>
<!-- s2 -->
<g id="node4" class="node"><title>s2</title>
<path fill="bisque" stroke="black" d="M896,-1174C896,-1174 704,-1174 704,-1174 698,-1174 692,-1168 692,-1162 692,-1162 692,-1148 692,-1148 692,-1142 698,-1136 704,-1136 704,-1136 896,-1136 896,-1136 902,-1136 908,-1142 908,-1148 908,-1148 908,-1162 908,-1162 908,-1168 902,-1174 896,-1174"/>
<text text-anchor="middle" x="800" y="-1158.8" font-family="Times,serif" font-size="14.00">选择需要计算课时费的上课情况</text>
<text text-anchor="middle" x="800" y="-1143.8" font-family="Times,serif" font-size="14.00">生成上课情况列表(按次)</text>
</g>
<!-- s1&#45;&gt;s2 -->
<g id="edge2" class="edge"><title>s1&#45;&gt;s2</title>
<path fill="none" stroke="black" d="M800,-1211.71C800,-1203.46 800,-1193.54 800,-1184.36"/>
<polygon fill="black" stroke="black" points="803.5,-1184.08 800,-1174.08 796.5,-1184.08 803.5,-1184.08"/>
</g>
<!-- s3 -->
<g id="node5" class="node"><title>s3</title>
<path fill="bisque" stroke="black" d="M903,-1098C903,-1098 697,-1098 697,-1098 691,-1098 685,-1092 685,-1086 685,-1086 685,-1072 685,-1072 685,-1066 691,-1060 697,-1060 697,-1060 903,-1060 903,-1060 909,-1060 915,-1066 915,-1072 915,-1072 915,-1086 915,-1086 915,-1092 909,-1098 903,-1098"/>
<text text-anchor="middle" x="800" y="-1082.8" font-family="Times,serif" font-size="14.00">初始化该班级的课时费=0</text>
<text text-anchor="middle" x="800" y="-1067.8" font-family="Times,serif" font-size="14.00">初始化班级课次对应的课时费报表</text>
</g>
<!-- s2&#45;&gt;s3 -->
<g id="edge3" class="edge"><title>s2&#45;&gt;s3</title>
<path fill="none" stroke="black" d="M800,-1135.71C800,-1127.46 800,-1117.54 800,-1108.36"/>
<polygon fill="black" stroke="black" points="803.5,-1108.08 800,-1098.08 796.5,-1108.08 803.5,-1108.08"/>
</g>
<!-- c1 -->
<g id="node21" class="node"><title>c1</title>
<path fill="beige" stroke="black" d="M788.194,-1019.85C788.194,-1019.85 712.902,-1006.15 712.902,-1006.15 706.999,-1005.07 706.999,-1002.93 712.902,-1001.85 712.902,-1001.85 788.194,-988.149 788.194,-988.149 794.097,-987.074 805.903,-987.074 811.806,-988.149 811.806,-988.149 887.098,-1001.85 887.098,-1001.85 893.001,-1002.93 893.001,-1005.07 887.098,-1006.15 887.098,-1006.15 811.806,-1019.85 811.806,-1019.85 805.903,-1020.93 794.097,-1020.93 788.194,-1019.85"/>
<text text-anchor="middle" x="800" y="-1000.3" font-family="Times,serif" font-size="14.00">是高中冲刺班?</text>
</g>
<!-- s3&#45;&gt;c1 -->
<g id="edge4" class="edge"><title>s3&#45;&gt;c1</title>
<path fill="none" stroke="black" d="M800,-1059.96C800,-1051.7 800,-1041.74 800,-1032.57"/>
<polygon fill="black" stroke="black" points="803.5,-1032.33 800,-1022.33 796.5,-1032.33 803.5,-1032.33"/>
</g>
<!-- s_c1_y1 -->
<g id="node6" class="node"><title>s_c1_y1</title>
<path fill="bisque" stroke="black" d="M773,-934C773,-934 601,-934 601,-934 595,-934 589,-928 589,-922 589,-922 589,-910 589,-910 589,-904 595,-898 601,-898 601,-898 773,-898 773,-898 779,-898 785,-904 785,-910 785,-910 785,-922 785,-922 785,-928 779,-934 773,-934"/>
<text text-anchor="middle" x="687" y="-912.3" font-family="Times,serif" font-size="14.00">提成比例=高中冲刺提成比例</text>
</g>
<!-- c2 -->
<g id="node22" class="node"><title>c2</title>
<path fill="beige" stroke="black" d="M814.076,-858.653C814.076,-858.653 678.524,-843.347 678.524,-843.347 672.562,-842.673 672.562,-841.327 678.524,-840.653 678.524,-840.653 814.076,-825.347 814.076,-825.347 820.038,-824.673 831.962,-824.673 837.924,-825.347 837.924,-825.347 973.476,-840.653 973.476,-840.653 979.438,-841.327 979.438,-842.673 973.476,-843.347 973.476,-843.347 837.924,-858.653 837.924,-858.653 831.962,-859.327 820.038,-859.327 814.076,-858.653"/>
<text text-anchor="middle" x="826" y="-838.3" font-family="Times,serif" font-size="14.00">上课情况列表(按次)为空?</text>
</g>
<!-- s_c1_y1&#45;&gt;c2 -->
<g id="edge7" class="edge"><title>s_c1_y1&#45;&gt;c2</title>
<path fill="none" stroke="black" d="M719.941,-897.937C741.015,-887.021 768.358,-872.858 790.003,-861.646"/>
<polygon fill="black" stroke="black" points="791.626,-864.747 798.895,-857.04 788.406,-858.532 791.626,-864.747"/>
</g>
<!-- s_c1_n1 -->
<g id="node7" class="node"><title>s_c1_n1</title>
<path fill="bisque" stroke="black" d="M1015,-934C1015,-934 815,-934 815,-934 809,-934 803,-928 803,-922 803,-922 803,-910 803,-910 803,-904 809,-898 815,-898 815,-898 1015,-898 1015,-898 1021,-898 1027,-904 1027,-910 1027,-910 1027,-922 1027,-922 1027,-928 1021,-934 1015,-934"/>
<text text-anchor="middle" x="915" y="-912.3" font-family="Times,serif" font-size="14.00">提成比例=普通高中课程提成比例</text>
</g>
<!-- s_c1_n1&#45;&gt;c2 -->
<g id="edge8" class="edge"><title>s_c1_n1&#45;&gt;c2</title>
<path fill="none" stroke="black" d="M893.908,-897.937C881.478,-887.881 865.642,-875.07 852.389,-864.349"/>
<polygon fill="black" stroke="black" points="854.501,-861.555 844.525,-857.987 850.098,-866.997 854.501,-861.555"/>
</g>
<!-- s_c2_y1 -->
<g id="node8" class="node"><title>s_c2_y1</title>
<path fill="bisque" stroke="black" d="M1012.25,-772C1012.25,-772 891.75,-772 891.75,-772 885.75,-772 879.75,-766 879.75,-760 879.75,-760 879.75,-748 879.75,-748 879.75,-742 885.75,-736 891.75,-736 891.75,-736 1012.25,-736 1012.25,-736 1018.25,-736 1024.25,-742 1024.25,-748 1024.25,-748 1024.25,-760 1024.25,-760 1024.25,-766 1018.25,-772 1012.25,-772"/>
<text text-anchor="middle" x="952" y="-750.3" font-family="Times,serif" font-size="14.00">输出该班级的课时费</text>
</g>
<!-- s_c2_y2 -->
<g id="node9" class="node"><title>s_c2_y2</title>
<path fill="bisque" stroke="black" d="M1102.25,-644C1102.25,-644 853.75,-644 853.75,-644 847.75,-644 841.75,-638 841.75,-632 841.75,-632 841.75,-620 841.75,-620 841.75,-614 847.75,-608 853.75,-608 853.75,-608 1102.25,-608 1102.25,-608 1108.25,-608 1114.25,-614 1114.25,-620 1114.25,-620 1114.25,-632 1114.25,-632 1114.25,-638 1108.25,-644 1102.25,-644"/>
<text text-anchor="middle" x="978" y="-622.3" font-family="Times,serif" font-size="14.00">输出该班级的班级课次对应的课时费报表</text>
</g>
<!-- s_c2_y1&#45;&gt;s_c2_y2 -->
<g id="edge11" class="edge"><title>s_c2_y1&#45;&gt;s_c2_y2</title>
<path fill="none" stroke="black" d="M955.561,-735.744C959.917,-714.632 967.342,-678.648 972.451,-653.893"/>
<polygon fill="black" stroke="black" points="975.889,-654.548 974.482,-644.047 969.034,-653.133 975.889,-654.548"/>
</g>
<!-- s_c2_y2&#45;&gt;end -->
<g id="edge12" class="edge"><title>s_c2_y2&#45;&gt;end</title>
<path fill="none" stroke="black" d="M978,-607.938C978,-590.023 978,-561.031 978,-536 978,-536 978,-536 978,-94 978,-78.5914 978,-61.378 978,-47.4331"/>
<polygon fill="black" stroke="black" points="981.5,-47.0471 978,-37.0472 974.5,-47.0472 981.5,-47.0471"/>
</g>
<!-- s_c2_n1 -->
<g id="node10" class="node"><title>s_c2_n1</title>
<path fill="bisque" stroke="black" d="M785.25,-772C785.25,-772 564.75,-772 564.75,-772 558.75,-772 552.75,-766 552.75,-760 552.75,-760 552.75,-748 552.75,-748 552.75,-742 558.75,-736 564.75,-736 564.75,-736 785.25,-736 785.25,-736 791.25,-736 797.25,-742 797.25,-748 797.25,-748 797.25,-760 797.25,-760 797.25,-766 791.25,-772 785.25,-772"/>
<text text-anchor="middle" x="675" y="-750.3" font-family="Times,serif" font-size="14.00">从上课情况列表中取出一次上课境况</text>
</g>
<!-- s_c2_n2 -->
<g id="node11" class="node"><title>s_c2_n2</title>
<path fill="bisque" stroke="black" d="M696.25,-698C696.25,-698 475.75,-698 475.75,-698 469.75,-698 463.75,-692 463.75,-686 463.75,-686 463.75,-674 463.75,-674 463.75,-668 469.75,-662 475.75,-662 475.75,-662 696.25,-662 696.25,-662 702.25,-662 708.25,-668 708.25,-674 708.25,-674 708.25,-686 708.25,-686 708.25,-692 702.25,-698 696.25,-698"/>
<text text-anchor="middle" x="586" y="-676.3" font-family="Times,serif" font-size="14.00">读取这次上课情况中的应到学生列表</text>
</g>
<!-- s_c2_n1&#45;&gt;s_c2_n2 -->
<g id="edge13" class="edge"><title>s_c2_n1&#45;&gt;s_c2_n2</title>
<path fill="none" stroke="black" d="M653.908,-735.937C642.355,-726.59 627.858,-714.863 615.229,-704.646"/>
<polygon fill="black" stroke="black" points="617.225,-701.758 607.249,-698.19 612.822,-707.201 617.225,-701.758"/>
</g>
<!-- s_c2_n3 -->
<g id="node12" class="node"><title>s_c2_n3</title>
<path fill="bisque" stroke="black" d="M594,-590C594,-590 444,-590 444,-590 438,-590 432,-584 432,-578 432,-578 432,-566 432,-566 432,-560 438,-554 444,-554 444,-554 594,-554 594,-554 600,-554 606,-560 606,-566 606,-566 606,-578 606,-578 606,-584 600,-590 594,-590"/>
<text text-anchor="middle" x="519" y="-568.3" font-family="Times,serif" font-size="14.00">初始化这次上课课时费=0</text>
</g>
<!-- s_c2_n2&#45;&gt;s_c2_n3 -->
<g id="edge14" class="edge"><title>s_c2_n2&#45;&gt;s_c2_n3</title>
<path fill="none" stroke="black" d="M575.235,-661.969C564.457,-644.917 547.734,-618.459 535.323,-598.824"/>
<polygon fill="black" stroke="black" points="538.262,-596.924 529.961,-590.341 532.345,-600.664 538.262,-596.924"/>
</g>
<!-- s_c2_n4 -->
<g id="node13" class="node"><title>s_c2_n4</title>
<path fill="bisque" stroke="black" d="M602,-516C602,-516 410,-516 410,-516 404,-516 398,-510 398,-504 398,-504 398,-492 398,-492 398,-486 404,-480 410,-480 410,-480 602,-480 602,-480 608,-480 614,-486 614,-492 614,-492 614,-504 614,-504 614,-510 608,-516 602,-516"/>
<text text-anchor="middle" x="506" y="-494.3" font-family="Times,serif" font-size="14.00">读取该次上课的应上课教师数量</text>
</g>
<!-- s_c2_n3&#45;&gt;s_c2_n4 -->
<g id="edge15" class="edge"><title>s_c2_n3&#45;&gt;s_c2_n4</title>
<path fill="none" stroke="black" d="M515.919,-553.937C514.435,-545.719 512.619,-535.66 510.948,-526.406"/>
<polygon fill="black" stroke="black" points="514.37,-525.66 509.149,-516.441 507.482,-526.903 514.37,-525.66"/>
</g>
<!-- c3 -->
<g id="node23" class="node"><title>c3</title>
<path fill="beige" stroke="black" d="M485.084,-440.584C485.084,-440.584 357.425,-425.416 357.425,-425.416 351.467,-424.708 351.467,-423.292 357.425,-422.584 357.425,-422.584 485.084,-407.416 485.084,-407.416 491.042,-406.708 502.958,-406.708 508.916,-407.416 508.916,-407.416 636.575,-422.584 636.575,-422.584 642.533,-423.292 642.533,-424.708 636.575,-425.416 636.575,-425.416 508.916,-440.584 508.916,-440.584 502.958,-441.292 491.042,-441.292 485.084,-440.584"/>
<text text-anchor="middle" x="497" y="-420.3" font-family="Times,serif" font-size="14.00">应到学生列表是否为空?</text>
</g>
<!-- s_c2_n4&#45;&gt;c3 -->
<g id="edge16" class="edge"><title>s_c2_n4&#45;&gt;c3</title>
<path fill="none" stroke="black" d="M503.867,-479.937C502.825,-471.598 501.545,-461.364 500.375,-451.998"/>
<polygon fill="black" stroke="black" points="503.831,-451.429 499.118,-441.941 496.885,-452.297 503.831,-451.429"/>
</g>
<!-- s_c3_y1 -->
<g id="node14" class="node"><title>s_c3_y1</title>
<path fill="bisque" stroke="black" d="M785.25,-354C785.25,-354 536.75,-354 536.75,-354 530.75,-354 524.75,-348 524.75,-342 524.75,-342 524.75,-330 524.75,-330 524.75,-324 530.75,-318 536.75,-318 536.75,-318 785.25,-318 785.25,-318 791.25,-318 797.25,-324 797.25,-330 797.25,-330 797.25,-342 797.25,-342 797.25,-348 791.25,-354 785.25,-354"/>
<text text-anchor="middle" x="661" y="-332.3" font-family="Times,serif" font-size="14.00">将这次上课的课时费计入该班级的课时费</text>
</g>
<!-- s_c3_y2 -->
<g id="node15" class="node"><title>s_c3_y2</title>
<path fill="bisque" stroke="black" d="M888,-280C888,-280 670,-280 670,-280 664,-280 658,-274 658,-268 658,-268 658,-254 658,-254 658,-248 664,-242 670,-242 670,-242 888,-242 888,-242 894,-242 900,-248 900,-254 900,-254 900,-268 900,-268 900,-274 894,-280 888,-280"/>
<text text-anchor="middle" x="779" y="-264.8" font-family="Times,serif" font-size="14.00">新增班级,课次,这次上课课时费记录,</text>
<text text-anchor="middle" x="779" y="-249.8" font-family="Times,serif" font-size="14.00">插入班级课次对应的课时费报表中</text>
</g>
<!-- s_c3_y1&#45;&gt;s_c3_y2 -->
<g id="edge19" class="edge"><title>s_c3_y1&#45;&gt;s_c3_y2</title>
<path fill="none" stroke="black" d="M688.666,-317.885C704.328,-308.195 724.14,-295.939 741.217,-285.374"/>
<polygon fill="black" stroke="black" points="743.198,-288.264 749.861,-280.027 739.515,-282.311 743.198,-288.264"/>
</g>
<!-- s_c3_y2&#45;&gt;c2 -->
<g id="edge20" class="edge"><title>s_c3_y2&#45;&gt;c2</title>
<path fill="none" stroke="black" d="M798.932,-280.092C811.742,-293.76 826,-313.747 826,-335 826,-755 826,-755 826,-755 826,-774.596 826,-796.704 826,-813.598"/>
<polygon fill="black" stroke="black" points="822.5,-813.867 826,-823.867 829.5,-813.867 822.5,-813.867"/>
</g>
<!-- s_c3_n1 -->
<g id="node16" class="node"><title>s_c3_n1</title>
<path fill="bisque" stroke="black" d="M455.25,-354C455.25,-354 234.75,-354 234.75,-354 228.75,-354 222.75,-348 222.75,-342 222.75,-342 222.75,-330 222.75,-330 222.75,-324 228.75,-318 234.75,-318 234.75,-318 455.25,-318 455.25,-318 461.25,-318 467.25,-324 467.25,-330 467.25,-330 467.25,-342 467.25,-342 467.25,-348 461.25,-354 455.25,-354"/>
<text text-anchor="middle" x="345" y="-332.3" font-family="Times,serif" font-size="14.00">从应到学生列表中取出一个学生信息</text>
</g>
<!-- c4 -->
<g id="node24" class="node"><title>c4</title>
<path fill="beige" stroke="black" d="M333.194,-276.851C333.194,-276.851 257.902,-263.149 257.902,-263.149 251.999,-262.074 251.999,-259.926 257.902,-258.851 257.902,-258.851 333.194,-245.149 333.194,-245.149 339.097,-244.074 350.903,-244.074 356.806,-245.149 356.806,-245.149 432.098,-258.851 432.098,-258.851 438.001,-259.926 438.001,-262.074 432.098,-263.149 432.098,-263.149 356.806,-276.851 356.806,-276.851 350.903,-277.926 339.097,-277.926 333.194,-276.851"/>
<text text-anchor="middle" x="345" y="-257.3" font-family="Times,serif" font-size="14.00">学生是高中生?</text>
</g>
<!-- s_c3_n1&#45;&gt;c4 -->
<g id="edge21" class="edge"><title>s_c3_n1&#45;&gt;c4</title>
<path fill="none" stroke="black" d="M345,-317.7C345,-309.245 345,-298.869 345,-289.373"/>
<polygon fill="black" stroke="black" points="348.5,-289.176 345,-279.176 341.5,-289.176 348.5,-289.176"/>
</g>
<!-- s_c4_y1 -->
<g id="node17" class="node"><title>s_c4_y1</title>
<path fill="bisque" stroke="black" d="M210.25,-190C210.25,-190 11.75,-190 11.75,-190 5.75,-190 -0.25,-184 -0.25,-178 -0.25,-178 -0.25,-164 -0.25,-164 -0.25,-158 5.75,-152 11.75,-152 11.75,-152 210.25,-152 210.25,-152 216.25,-152 222.25,-158 222.25,-164 222.25,-164 222.25,-178 222.25,-178 222.25,-184 216.25,-190 210.25,-190"/>
<text text-anchor="middle" x="111" y="-174.8" font-family="Times,serif" font-size="14.00">从该学生得到的收入=</text>
<text text-anchor="middle" x="111" y="-159.8" font-family="Times,serif" font-size="14.00">该学生这次上课的学费x提成比例</text>
</g>
<!-- s_c4_after_1 -->
<g id="node19" class="node"><title>s_c4_after_1</title>
<path fill="bisque" stroke="black" d="M456,-114C456,-114 232,-114 232,-114 226,-114 220,-108 220,-102 220,-102 220,-88 220,-88 220,-82 226,-76 232,-76 232,-76 456,-76 456,-76 462,-76 468,-82 468,-88 468,-88 468,-102 468,-102 468,-108 462,-114 456,-114"/>
<text text-anchor="middle" x="344" y="-98.8" font-family="Times,serif" font-size="14.00">从该学生得到的收入=</text>
<text text-anchor="middle" x="344" y="-83.8" font-family="Times,serif" font-size="14.00">从该学生得到的收入/应上课教师数量</text>
</g>
<!-- s_c4_y1&#45;&gt;s_c4_after_1 -->
<g id="edge24" class="edge"><title>s_c4_y1&#45;&gt;s_c4_after_1</title>
<path fill="none" stroke="black" d="M167.7,-151.992C200.822,-141.473 242.791,-128.144 277.471,-117.129"/>
<polygon fill="black" stroke="black" points="278.574,-120.451 287.045,-114.089 276.455,-113.78 278.574,-120.451"/>
</g>
<!-- s_c4_n1 -->
<g id="node18" class="node"><title>s_c4_n1</title>
<path fill="bisque" stroke="black" d="M453,-189C453,-189 253,-189 253,-189 247,-189 241,-183 241,-177 241,-177 241,-165 241,-165 241,-159 247,-153 253,-153 253,-153 453,-153 453,-153 459,-153 465,-159 465,-165 465,-165 465,-177 465,-177 465,-183 459,-189 453,-189"/>
<text text-anchor="middle" x="353" y="-167.3" font-family="Times,serif" font-size="14.00">从该学生得到的收入=一个固定值</text>
</g>
<!-- s_c4_n1&#45;&gt;s_c4_after_1 -->
<g id="edge25" class="edge"><title>s_c4_n1&#45;&gt;s_c4_after_1</title>
<path fill="none" stroke="black" d="M350.913,-152.837C349.875,-144.308 348.595,-133.783 347.42,-124.118"/>
<polygon fill="black" stroke="black" points="350.883,-123.607 346.202,-114.102 343.935,-124.452 350.883,-123.607"/>
</g>
<!-- s_c4_after_2 -->
<g id="node20" class="node"><title>s_c4_after_2</title>
<path fill="bisque" stroke="black" d="M519.25,-38C519.25,-38 384.75,-38 384.75,-38 378.75,-38 372.75,-32 372.75,-26 372.75,-26 372.75,-12 372.75,-12 372.75,-6 378.75,-0 384.75,-0 384.75,-0 519.25,-0 519.25,-0 525.25,-0 531.25,-6 531.25,-12 531.25,-12 531.25,-26 531.25,-26 531.25,-32 525.25,-38 519.25,-38"/>
<text text-anchor="middle" x="452" y="-22.8" font-family="Times,serif" font-size="14.00">将从该学生得到的收入</text>
<text text-anchor="middle" x="452" y="-7.8" font-family="Times,serif" font-size="14.00">计入这次上课的课时费</text>
</g>
<!-- s_c4_after_1&#45;&gt;s_c4_after_2 -->
<g id="edge26" class="edge"><title>s_c4_after_1&#45;&gt;s_c4_after_2</title>
<path fill="none" stroke="black" d="M370.42,-75.8976C384.41,-66.3117 401.776,-54.4125 416.886,-44.0597"/>
<polygon fill="black" stroke="black" points="419.208,-46.7116 425.479,-38.172 415.251,-40.9371 419.208,-46.7116"/>
</g>
<!-- s_c4_after_2&#45;&gt;c3 -->
<g id="edge27" class="edge"><title>s_c4_after_2&#45;&gt;c3</title>
<path fill="none" stroke="black" d="M470.151,-38.0325C482.271,-52.041 496,-72.6262 496,-94 496,-337 496,-337 496,-337 496,-356.598 496.263,-378.706 496.519,-395.599"/>
<polygon fill="black" stroke="black" points="493.024,-395.925 496.684,-405.868 500.023,-395.813 493.024,-395.925"/>
</g>
<!-- c1&#45;&gt;s_c1_y1 -->
<g id="edge5" class="edge"><title>c1&#45;&gt;s_c1_y1</title>
<path fill="none" stroke="black" d="M781.845,-989.183C764.517,-975.996 738.08,-955.875 717.515,-940.224"/>
<polygon fill="black" stroke="black" points="719.466,-937.31 709.388,-934.039 715.226,-942.88 719.466,-937.31"/>
<text text-anchor="middle" x="761.5" y="-956.3" font-family="Times,serif" font-size="14.00">是</text>
</g>
<!-- c1&#45;&gt;s_c1_n1 -->
<g id="edge6" class="edge"><title>c1&#45;&gt;s_c1_n1</title>
<path fill="none" stroke="black" d="M818.477,-989.183C836.111,-975.996 863.016,-955.875 883.945,-940.224"/>
<polygon fill="black" stroke="black" points="886.303,-942.831 892.215,-934.039 882.111,-937.225 886.303,-942.831"/>
<text text-anchor="middle" x="875.5" y="-956.3" font-family="Times,serif" font-size="14.00">否</text>
</g>
<!-- c2&#45;&gt;s_c2_y1 -->
<g id="edge9" class="edge"><title>c2&#45;&gt;s_c2_y1</title>
<path fill="none" stroke="black" d="M847.374,-826.411C866.923,-813.068 896.151,-793.119 918.75,-777.695"/>
<polygon fill="black" stroke="black" points="920.766,-780.556 927.052,-772.028 916.82,-774.774 920.766,-780.556"/>
<text text-anchor="middle" x="908.5" y="-794.3" font-family="Times,serif" font-size="14.00">是</text>
</g>
<!-- c2&#45;&gt;s_c2_n1 -->
<g id="edge10" class="edge"><title>c2&#45;&gt;s_c2_n1</title>
<path fill="none" stroke="black" d="M801.065,-826.799C777.359,-813.297 741.343,-792.785 713.869,-777.137"/>
<polygon fill="black" stroke="black" points="715.331,-773.942 704.909,-772.034 711.866,-780.025 715.331,-773.942"/>
<text text-anchor="middle" x="772.5" y="-794.3" font-family="Times,serif" font-size="14.00">否</text>
</g>
<!-- c3&#45;&gt;s_c3_y1 -->
<g id="edge17" class="edge"><title>c3&#45;&gt;s_c3_y1</title>
<path fill="none" stroke="black" d="M523.714,-408.991C549.625,-395.404 589.32,-374.588 619.374,-358.828"/>
<polygon fill="black" stroke="black" points="621.134,-361.857 628.365,-354.113 617.884,-355.658 621.134,-361.857"/>
<text text-anchor="middle" x="601.5" y="-376.3" font-family="Times,serif" font-size="14.00">是</text>
</g>
<!-- c3&#45;&gt;s_c3_n1 -->
<g id="edge18" class="edge"><title>c3&#45;&gt;s_c3_n1</title>
<path fill="none" stroke="black" d="M471.9,-408.799C448.037,-395.297 411.782,-374.785 384.126,-359.137"/>
<polygon fill="black" stroke="black" points="385.534,-355.912 375.107,-354.034 382.087,-362.005 385.534,-355.912"/>
<text text-anchor="middle" x="442.5" y="-376.3" font-family="Times,serif" font-size="14.00">否</text>
</g>
<!-- c4&#45;&gt;s_c4_y1 -->
<g id="edge22" class="edge"><title>c4&#45;&gt;s_c4_y1</title>
<path fill="none" stroke="black" d="M314.409,-248.496C277.514,-234.621 214.719,-211.005 168.637,-193.675"/>
<polygon fill="black" stroke="black" points="169.665,-190.323 159.073,-190.079 167.201,-196.875 169.665,-190.323"/>
<text text-anchor="middle" x="256.5" y="-212.3" font-family="Times,serif" font-size="14.00">是</text>
</g>
<!-- c4&#45;&gt;s_c4_n1 -->
<g id="edge23" class="edge"><title>c4&#45;&gt;s_c4_n1</title>
<path fill="none" stroke="black" d="M346.542,-243.033C347.664,-230.695 349.207,-213.727 350.503,-199.469"/>
<polygon fill="black" stroke="black" points="354.015,-199.491 351.435,-189.215 347.044,-198.857 354.015,-199.491"/>
<text text-anchor="middle" x="357.5" y="-212.3" font-family="Times,serif" font-size="14.00">否</text>
</g>
</g>
</svg>
