<?xml version="1.0" encoding="UTF-8" standalone="no"?>
<!DOCTYPE svg PUBLIC "-//W3C//DTD SVG 1.1//EN"
 "http://www.w3.org/Graphics/SVG/1.1/DTD/svg11.dtd">
<!-- Generated by graphviz version 2.30.1 (20180420.1509)
 -->
<!-- Title: %3 Pages: 1 -->
<svg width="1119pt" height="1568pt"
 viewBox="0.00 0.00 1119.00 1568.00" xmlns="http://www.w3.org/2000/svg" xmlns:xlink="http://www.w3.org/1999/xlink">
<g id="graph0" class="graph" transform="scale(1 1) rotate(0) translate(4 1564)">
<title>%3</title>
<polygon fill="white" stroke="white" points="-4,5 -4,-1564 1116,-1564 1116,5 -4,5"/>
<!-- start -->
<g id="node1" class="node"><title>start</title>
<path fill="aquamarine" stroke="black" d="M812,-1560C812,-1560 782,-1560 782,-1560 776,-1560 770,-1554 770,-1548 770,-1548 770,-1536 770,-1536 770,-1530 776,-1524 782,-1524 782,-1524 812,-1524 812,-1524 818,-1524 824,-1530 824,-1536 824,-1536 824,-1548 824,-1548 824,-1554 818,-1560 812,-1560"/>
<text text-anchor="middle" x="797" y="-1538.3" font-family="Times,serif" font-size="14.00">开始</text>
</g>
<!-- s1 -->
<g id="node3" class="node"><title>s1</title>
<path fill="bisque" stroke="black" d="M933,-1486C933,-1486 661,-1486 661,-1486 655,-1486 649,-1480 649,-1474 649,-1474 649,-1460 649,-1460 649,-1454 655,-1448 661,-1448 661,-1448 933,-1448 933,-1448 939,-1448 945,-1454 945,-1460 945,-1460 945,-1474 945,-1474 945,-1480 939,-1486 933,-1486"/>
<text text-anchor="middle" x="797" y="-1470.8" font-family="Times,serif" font-size="14.00">列出该班级中该教师应上课的上课情况(按次)</text>
<text text-anchor="middle" x="797" y="-1455.8" font-family="Times,serif" font-size="14.00">(教师出现在一次课的应上课教师列表中)</text>
</g>
<!-- start&#45;&gt;s1 -->
<g id="edge1" class="edge"><title>start&#45;&gt;s1</title>
<path fill="none" stroke="black" d="M797,-1523.7C797,-1515.49 797,-1505.47 797,-1496.2"/>
<polygon fill="black" stroke="black" points="800.5,-1496.19 797,-1486.19 793.5,-1496.19 800.5,-1496.19"/>
</g>
<!-- end -->
<g id="node2" class="node"><title>end</title>
<path fill="aquamarine" stroke="black" d="M990,-37C990,-37 960,-37 960,-37 954,-37 948,-31 948,-25 948,-25 948,-13 948,-13 948,-7 954,-1 960,-1 960,-1 990,-1 990,-1 996,-1 1002,-7 1002,-13 1002,-13 1002,-25 1002,-25 1002,-31 996,-37 990,-37"/>
<text text-anchor="middle" x="975" y="-15.3" font-family="Times,serif" font-size="14.00">结束</text>
</g>
<!-- s2 -->
<g id="node4" class="node"><title>s2</title>
<path fill="bisque" stroke="black" d="M893,-1410C893,-1410 701,-1410 701,-1410 695,-1410 689,-1404 689,-1398 689,-1398 689,-1384 689,-1384 689,-1378 695,-1372 701,-1372 701,-1372 893,-1372 893,-1372 899,-1372 905,-1378 905,-1384 905,-1384 905,-1398 905,-1398 905,-1404 899,-1410 893,-1410"/>
<text text-anchor="middle" x="797" y="-1394.8" font-family="Times,serif" font-size="14.00">选择需要计算课时费的上课情况</text>
<text text-anchor="middle" x="797" y="-1379.8" font-family="Times,serif" font-size="14.00">生成上课情况列表(按次)</text>
</g>
<!-- s1&#45;&gt;s2 -->
<g id="edge2" class="edge"><title>s1&#45;&gt;s2</title>
<path fill="none" stroke="black" d="M797,-1447.71C797,-1439.46 797,-1429.54 797,-1420.36"/>
<polygon fill="black" stroke="black" points="800.5,-1420.08 797,-1410.08 793.5,-1420.08 800.5,-1420.08"/>
</g>
<!-- s3 -->
<g id="node5" class="node"><title>s3</title>
<path fill="bisque" stroke="black" d="M900,-1334C900,-1334 694,-1334 694,-1334 688,-1334 682,-1328 682,-1322 682,-1322 682,-1308 682,-1308 682,-1302 688,-1296 694,-1296 694,-1296 900,-1296 900,-1296 906,-1296 912,-1302 912,-1308 912,-1308 912,-1322 912,-1322 912,-1328 906,-1334 900,-1334"/>
<text text-anchor="middle" x="797" y="-1318.8" font-family="Times,serif" font-size="14.00">初始化该班级的课时费=0</text>
<text text-anchor="middle" x="797" y="-1303.8" font-family="Times,serif" font-size="14.00">初始化班级课次对应的课时费报表</text>
</g>
<!-- s2&#45;&gt;s3 -->
<g id="edge3" class="edge"><title>s2&#45;&gt;s3</title>
<path fill="none" stroke="black" d="M797,-1371.71C797,-1363.46 797,-1353.54 797,-1344.36"/>
<polygon fill="black" stroke="black" points="800.5,-1344.08 797,-1334.08 793.5,-1344.08 800.5,-1344.08"/>
</g>
<!-- c1 -->
<g id="node24" class="node"><title>c1</title>
<path fill="beige" stroke="black" d="M785.194,-1255.85C785.194,-1255.85 709.902,-1242.15 709.902,-1242.15 703.999,-1241.07 703.999,-1238.93 709.902,-1237.85 709.902,-1237.85 785.194,-1224.15 785.194,-1224.15 791.097,-1223.07 802.903,-1223.07 808.806,-1224.15 808.806,-1224.15 884.098,-1237.85 884.098,-1237.85 890.001,-1238.93 890.001,-1241.07 884.098,-1242.15 884.098,-1242.15 808.806,-1255.85 808.806,-1255.85 802.903,-1256.93 791.097,-1256.93 785.194,-1255.85"/>
<text text-anchor="middle" x="797" y="-1236.3" font-family="Times,serif" font-size="14.00">是高中冲刺班?</text>
</g>
<!-- s3&#45;&gt;c1 -->
<g id="edge4" class="edge"><title>s3&#45;&gt;c1</title>
<path fill="none" stroke="black" d="M797,-1295.96C797,-1287.7 797,-1277.74 797,-1268.57"/>
<polygon fill="black" stroke="black" points="800.5,-1268.33 797,-1258.33 793.5,-1268.33 800.5,-1268.33"/>
</g>
<!-- s_c1_y1 -->
<g id="node6" class="node"><title>s_c1_y1</title>
<path fill="bisque" stroke="black" d="M770,-1170C770,-1170 598,-1170 598,-1170 592,-1170 586,-1164 586,-1158 586,-1158 586,-1146 586,-1146 586,-1140 592,-1134 598,-1134 598,-1134 770,-1134 770,-1134 776,-1134 782,-1140 782,-1146 782,-1146 782,-1158 782,-1158 782,-1164 776,-1170 770,-1170"/>
<text text-anchor="middle" x="684" y="-1148.3" font-family="Times,serif" font-size="14.00">提成比例=高中冲刺提成比例</text>
</g>
<!-- c2 -->
<g id="node25" class="node"><title>c2</title>
<path fill="beige" stroke="black" d="M811.076,-1094.65C811.076,-1094.65 675.524,-1079.35 675.524,-1079.35 669.562,-1078.67 669.562,-1077.33 675.524,-1076.65 675.524,-1076.65 811.076,-1061.35 811.076,-1061.35 817.038,-1060.67 828.962,-1060.67 834.924,-1061.35 834.924,-1061.35 970.476,-1076.65 970.476,-1076.65 976.438,-1077.33 976.438,-1078.67 970.476,-1079.35 970.476,-1079.35 834.924,-1094.65 834.924,-1094.65 828.962,-1095.33 817.038,-1095.33 811.076,-1094.65"/>
<text text-anchor="middle" x="823" y="-1074.3" font-family="Times,serif" font-size="14.00">上课情况列表(按次)为空?</text>
</g>
<!-- s_c1_y1&#45;&gt;c2 -->
<g id="edge7" class="edge"><title>s_c1_y1&#45;&gt;c2</title>
<path fill="none" stroke="black" d="M716.941,-1133.94C738.015,-1123.02 765.358,-1108.86 787.003,-1097.65"/>
<polygon fill="black" stroke="black" points="788.626,-1100.75 795.895,-1093.04 785.406,-1094.53 788.626,-1100.75"/>
</g>
<!-- s_c1_n1 -->
<g id="node7" class="node"><title>s_c1_n1</title>
<path fill="bisque" stroke="black" d="M1012,-1170C1012,-1170 812,-1170 812,-1170 806,-1170 800,-1164 800,-1158 800,-1158 800,-1146 800,-1146 800,-1140 806,-1134 812,-1134 812,-1134 1012,-1134 1012,-1134 1018,-1134 1024,-1140 1024,-1146 1024,-1146 1024,-1158 1024,-1158 1024,-1164 1018,-1170 1012,-1170"/>
<text text-anchor="middle" x="912" y="-1148.3" font-family="Times,serif" font-size="14.00">提成比例=普通高中课程提成比例</text>
</g>
<!-- s_c1_n1&#45;&gt;c2 -->
<g id="edge8" class="edge"><title>s_c1_n1&#45;&gt;c2</title>
<path fill="none" stroke="black" d="M890.908,-1133.94C878.478,-1123.88 862.642,-1111.07 849.389,-1100.35"/>
<polygon fill="black" stroke="black" points="851.501,-1097.56 841.525,-1093.99 847.098,-1103 851.501,-1097.56"/>
</g>
<!-- s_c2_y1 -->
<g id="node8" class="node"><title>s_c2_y1</title>
<path fill="bisque" stroke="black" d="M1009.25,-1008C1009.25,-1008 888.75,-1008 888.75,-1008 882.75,-1008 876.75,-1002 876.75,-996 876.75,-996 876.75,-984 876.75,-984 876.75,-978 882.75,-972 888.75,-972 888.75,-972 1009.25,-972 1009.25,-972 1015.25,-972 1021.25,-978 1021.25,-984 1021.25,-984 1021.25,-996 1021.25,-996 1021.25,-1002 1015.25,-1008 1009.25,-1008"/>
<text text-anchor="middle" x="949" y="-986.3" font-family="Times,serif" font-size="14.00">输出该班级的课时费</text>
</g>
<!-- s_c2_y2 -->
<g id="node9" class="node"><title>s_c2_y2</title>
<path fill="bisque" stroke="black" d="M1099.25,-880C1099.25,-880 850.75,-880 850.75,-880 844.75,-880 838.75,-874 838.75,-868 838.75,-868 838.75,-856 838.75,-856 838.75,-850 844.75,-844 850.75,-844 850.75,-844 1099.25,-844 1099.25,-844 1105.25,-844 1111.25,-850 1111.25,-856 1111.25,-856 1111.25,-868 1111.25,-868 1111.25,-874 1105.25,-880 1099.25,-880"/>
<text text-anchor="middle" x="975" y="-858.3" font-family="Times,serif" font-size="14.00">输出该班级的班级课次对应的课时费报表</text>
</g>
<!-- s_c2_y1&#45;&gt;s_c2_y2 -->
<g id="edge11" class="edge"><title>s_c2_y1&#45;&gt;s_c2_y2</title>
<path fill="none" stroke="black" d="M952.561,-971.744C956.917,-950.632 964.342,-914.648 969.451,-889.893"/>
<polygon fill="black" stroke="black" points="972.889,-890.548 971.482,-880.047 966.034,-889.133 972.889,-890.548"/>
</g>
<!-- s_c2_y2&#45;&gt;end -->
<g id="edge12" class="edge"><title>s_c2_y2&#45;&gt;end</title>
<path fill="none" stroke="black" d="M975,-843.938C975,-826.023 975,-797.031 975,-772 975,-772 975,-772 975,-94 975,-78.5914 975,-61.378 975,-47.4331"/>
<polygon fill="black" stroke="black" points="978.5,-47.0471 975,-37.0472 971.5,-47.0472 978.5,-47.0471"/>
</g>
<!-- s_c2_n1 -->
<g id="node10" class="node"><title>s_c2_n1</title>
<path fill="bisque" stroke="black" d="M773.25,-1008C773.25,-1008 552.75,-1008 552.75,-1008 546.75,-1008 540.75,-1002 540.75,-996 540.75,-996 540.75,-984 540.75,-984 540.75,-978 546.75,-972 552.75,-972 552.75,-972 773.25,-972 773.25,-972 779.25,-972 785.25,-978 785.25,-984 785.25,-984 785.25,-996 785.25,-996 785.25,-1002 779.25,-1008 773.25,-1008"/>
<text text-anchor="middle" x="663" y="-986.3" font-family="Times,serif" font-size="14.00">从上课情况列表中取出一次上课境况</text>
</g>
<!-- s_c2_n2 -->
<g id="node11" class="node"><title>s_c2_n2</title>
<path fill="bisque" stroke="black" d="M731.25,-934C731.25,-934 582.75,-934 582.75,-934 576.75,-934 570.75,-928 570.75,-922 570.75,-922 570.75,-910 570.75,-910 570.75,-904 576.75,-898 582.75,-898 582.75,-898 731.25,-898 731.25,-898 737.25,-898 743.25,-904 743.25,-910 743.25,-910 743.25,-922 743.25,-922 743.25,-928 737.25,-934 731.25,-934"/>
<text text-anchor="middle" x="657" y="-912.3" font-family="Times,serif" font-size="14.00">初始化该次上课学生列表</text>
</g>
<!-- s_c2_n1&#45;&gt;s_c2_n2 -->
<g id="edge13" class="edge"><title>s_c2_n1&#45;&gt;s_c2_n2</title>
<path fill="none" stroke="black" d="M661.578,-971.937C660.901,-963.807 660.073,-953.876 659.309,-944.705"/>
<polygon fill="black" stroke="black" points="662.772,-944.115 658.453,-934.441 655.796,-944.697 662.772,-944.115"/>
</g>
<!-- s_c2_n3 -->
<g id="node12" class="node"><title>s_c2_n3</title>
<path fill="bisque" stroke="black" d="M730,-826C730,-826 580,-826 580,-826 574,-826 568,-820 568,-814 568,-814 568,-802 568,-802 568,-796 574,-790 580,-790 580,-790 730,-790 730,-790 736,-790 742,-796 742,-802 742,-802 742,-814 742,-814 742,-820 736,-826 730,-826"/>
<text text-anchor="middle" x="655" y="-804.3" font-family="Times,serif" font-size="14.00">初始化这次上课课时费=0</text>
</g>
<!-- s_c2_n2&#45;&gt;s_c2_n3 -->
<g id="edge14" class="edge"><title>s_c2_n2&#45;&gt;s_c2_n3</title>
<path fill="none" stroke="black" d="M656.679,-897.969C656.366,-881.378 655.885,-855.883 655.518,-836.431"/>
<polygon fill="black" stroke="black" points="659.015,-836.273 655.327,-826.341 652.017,-836.405 659.015,-836.273"/>
</g>
<!-- s_c2_n4 -->
<g id="node13" class="node"><title>s_c2_n4</title>
<path fill="bisque" stroke="black" d="M750,-752C750,-752 558,-752 558,-752 552,-752 546,-746 546,-740 546,-740 546,-728 546,-728 546,-722 552,-716 558,-716 558,-716 750,-716 750,-716 756,-716 762,-722 762,-728 762,-728 762,-740 762,-740 762,-746 756,-752 750,-752"/>
<text text-anchor="middle" x="654" y="-730.3" font-family="Times,serif" font-size="14.00">读取该次上课的应上课教师数量</text>
</g>
<!-- s_c2_n3&#45;&gt;s_c2_n4 -->
<g id="edge15" class="edge"><title>s_c2_n3&#45;&gt;s_c2_n4</title>
<path fill="none" stroke="black" d="M654.763,-789.937C654.65,-781.807 654.512,-771.876 654.385,-762.705"/>
<polygon fill="black" stroke="black" points="657.881,-762.391 654.242,-752.441 650.882,-762.488 657.881,-762.391"/>
</g>
<!-- c3 -->
<g id="node26" class="node"><title>c3</title>
<path fill="beige" stroke="black" d="M642.151,-676.099C642.151,-676.099 553.643,-661.901 553.643,-661.901 547.718,-660.95 547.718,-659.05 553.643,-658.099 553.643,-658.099 642.151,-643.901 642.151,-643.901 648.076,-642.95 659.924,-642.95 665.849,-643.901 665.849,-643.901 754.357,-658.099 754.357,-658.099 760.282,-659.05 760.282,-660.95 754.357,-661.901 754.357,-661.901 665.849,-676.099 665.849,-676.099 659.924,-677.05 648.076,-677.05 642.151,-676.099"/>
<text text-anchor="middle" x="654" y="-656.3" font-family="Times,serif" font-size="14.00">该次上课已结束?</text>
</g>
<!-- s_c2_n4&#45;&gt;c3 -->
<g id="edge16" class="edge"><title>s_c2_n4&#45;&gt;c3</title>
<path fill="none" stroke="black" d="M654,-715.937C654,-707.807 654,-697.876 654,-688.705"/>
<polygon fill="black" stroke="black" points="657.5,-688.441 654,-678.441 650.5,-688.441 657.5,-688.441"/>
</g>
<!-- s_c3_y1 -->
<g id="node14" class="node"><title>s_c3_y1</title>
<path fill="bisque" stroke="black" d="M483.25,-590C483.25,-590 226.75,-590 226.75,-590 220.75,-590 214.75,-584 214.75,-578 214.75,-578 214.75,-566 214.75,-566 214.75,-560 220.75,-554 226.75,-554 226.75,-554 483.25,-554 483.25,-554 489.25,-554 495.25,-560 495.25,-566 495.25,-566 495.25,-578 495.25,-578 495.25,-584 489.25,-590 483.25,-590"/>
<text text-anchor="middle" x="355" y="-568.3" font-family="Times,serif" font-size="14.00">该次上课学生列表=该次上课实际学生列表</text>
</g>
<!-- c4 -->
<g id="node27" class="node"><title>c4</title>
<path fill="beige" stroke="black" d="M481.122,-440.295C481.122,-440.295 379.491,-425.705 379.491,-425.705 373.552,-424.853 373.552,-423.147 379.491,-422.295 379.491,-422.295 481.122,-407.705 481.122,-407.705 487.061,-406.853 498.939,-406.853 504.878,-407.705 504.878,-407.705 606.509,-422.295 606.509,-422.295 612.448,-423.147 612.448,-424.853 606.509,-425.705 606.509,-425.705 504.878,-440.295 504.878,-440.295 498.939,-441.147 487.061,-441.147 481.122,-440.295"/>
<text text-anchor="middle" x="493" y="-420.3" font-family="Times,serif" font-size="14.00">学生列表是否为空?</text>
</g>
<!-- s_c3_y1&#45;&gt;c4 -->
<g id="edge19" class="edge"><title>s_c3_y1&#45;&gt;c4</title>
<path fill="none" stroke="black" d="M371.1,-553.966C396.032,-527.589 443.993,-476.848 471.743,-447.489"/>
<polygon fill="black" stroke="black" points="474.342,-449.835 478.668,-440.163 469.255,-445.026 474.342,-449.835"/>
</g>
<!-- s_c3_n1 -->
<g id="node15" class="node"><title>s_c3_n1</title>
<path fill="bisque" stroke="black" d="M782.25,-590C782.25,-590 525.75,-590 525.75,-590 519.75,-590 513.75,-584 513.75,-578 513.75,-578 513.75,-566 513.75,-566 513.75,-560 519.75,-554 525.75,-554 525.75,-554 782.25,-554 782.25,-554 788.25,-554 794.25,-560 794.25,-566 794.25,-566 794.25,-578 794.25,-578 794.25,-584 788.25,-590 782.25,-590"/>
<text text-anchor="middle" x="654" y="-568.3" font-family="Times,serif" font-size="14.00">该次上课学生列表=该次上课应到学生列表</text>
</g>
<!-- s_c3_n2 -->
<g id="node16" class="node"><title>s_c3_n2</title>
<path fill="bisque" stroke="black" d="M659,-516C659,-516 491,-516 491,-516 485,-516 479,-510 479,-504 479,-504 479,-492 479,-492 479,-486 485,-480 491,-480 491,-480 659,-480 659,-480 665,-480 671,-486 671,-492 671,-492 671,-504 671,-504 671,-510 665,-516 659,-516"/>
<text text-anchor="middle" x="575" y="-494.3" font-family="Times,serif" font-size="14.00">为该次课时费加上&#39;预估&#39;属性</text>
</g>
<!-- s_c3_n1&#45;&gt;s_c3_n2 -->
<g id="edge20" class="edge"><title>s_c3_n1&#45;&gt;s_c3_n2</title>
<path fill="none" stroke="black" d="M635.278,-553.937C625.12,-544.679 612.4,-533.086 601.265,-522.938"/>
<polygon fill="black" stroke="black" points="603.61,-520.339 593.861,-516.19 598.895,-525.513 603.61,-520.339"/>
</g>
<!-- s_c3_n2&#45;&gt;c4 -->
<g id="edge21" class="edge"><title>s_c3_n2&#45;&gt;c4</title>
<path fill="none" stroke="black" d="M555.567,-479.937C544.145,-469.908 529.601,-457.138 517.411,-446.434"/>
<polygon fill="black" stroke="black" points="519.62,-443.716 509.796,-439.748 515.002,-448.976 519.62,-443.716"/>
</g>
<!-- s_c4_y1 -->
<g id="node17" class="node"><title>s_c4_y1</title>
<path fill="bisque" stroke="black" d="M782.25,-354C782.25,-354 533.75,-354 533.75,-354 527.75,-354 521.75,-348 521.75,-342 521.75,-342 521.75,-330 521.75,-330 521.75,-324 527.75,-318 533.75,-318 533.75,-318 782.25,-318 782.25,-318 788.25,-318 794.25,-324 794.25,-330 794.25,-330 794.25,-342 794.25,-342 794.25,-348 788.25,-354 782.25,-354"/>
<text text-anchor="middle" x="658" y="-332.3" font-family="Times,serif" font-size="14.00">将这次上课的课时费计入该班级的课时费</text>
</g>
<!-- s_c4_y2 -->
<g id="node18" class="node"><title>s_c4_y2</title>
<path fill="bisque" stroke="black" d="M890,-280C890,-280 672,-280 672,-280 666,-280 660,-274 660,-268 660,-268 660,-254 660,-254 660,-248 666,-242 672,-242 672,-242 890,-242 890,-242 896,-242 902,-248 902,-254 902,-254 902,-268 902,-268 902,-274 896,-280 890,-280"/>
<text text-anchor="middle" x="781" y="-264.8" font-family="Times,serif" font-size="14.00">新增班级,课次,这次上课课时费记录,</text>
<text text-anchor="middle" x="781" y="-249.8" font-family="Times,serif" font-size="14.00">插入班级课次对应的课时费报表中</text>
</g>
<!-- s_c4_y1&#45;&gt;s_c4_y2 -->
<g id="edge24" class="edge"><title>s_c4_y1&#45;&gt;s_c4_y2</title>
<path fill="none" stroke="black" d="M686.838,-317.885C703.164,-308.195 723.816,-295.939 741.616,-285.374"/>
<polygon fill="black" stroke="black" points="743.813,-288.14 750.626,-280.027 740.24,-282.121 743.813,-288.14"/>
</g>
<!-- s_c4_y2&#45;&gt;c2 -->
<g id="edge25" class="edge"><title>s_c4_y2&#45;&gt;c2</title>
<path fill="none" stroke="black" d="M798.568,-280.184C810.078,-294.048 823,-314.237 823,-335 823,-991 823,-991 823,-991 823,-1010.6 823,-1032.7 823,-1049.6"/>
<polygon fill="black" stroke="black" points="819.5,-1049.87 823,-1059.87 826.5,-1049.87 819.5,-1049.87"/>
</g>
<!-- s_c4_n1 -->
<g id="node19" class="node"><title>s_c4_n1</title>
<path fill="bisque" stroke="black" d="M451,-354C451,-354 259,-354 259,-354 253,-354 247,-348 247,-342 247,-342 247,-330 247,-330 247,-324 253,-318 259,-318 259,-318 451,-318 451,-318 457,-318 463,-324 463,-330 463,-330 463,-342 463,-342 463,-348 457,-354 451,-354"/>
<text text-anchor="middle" x="355" y="-332.3" font-family="Times,serif" font-size="14.00">从学生列表中取出一个学生信息</text>
</g>
<!-- c5 -->
<g id="node28" class="node"><title>c5</title>
<path fill="beige" stroke="black" d="M341.194,-276.851C341.194,-276.851 265.902,-263.149 265.902,-263.149 259.999,-262.074 259.999,-259.926 265.902,-258.851 265.902,-258.851 341.194,-245.149 341.194,-245.149 347.097,-244.074 358.903,-244.074 364.806,-245.149 364.806,-245.149 440.098,-258.851 440.098,-258.851 446.001,-259.926 446.001,-262.074 440.098,-263.149 440.098,-263.149 364.806,-276.851 364.806,-276.851 358.903,-277.926 347.097,-277.926 341.194,-276.851"/>
<text text-anchor="middle" x="353" y="-257.3" font-family="Times,serif" font-size="14.00">学生是高中生?</text>
</g>
<!-- s_c4_n1&#45;&gt;c5 -->
<g id="edge26" class="edge"><title>s_c4_n1&#45;&gt;c5</title>
<path fill="none" stroke="black" d="M354.526,-317.7C354.293,-309.184 354.006,-298.718 353.744,-289.167"/>
<polygon fill="black" stroke="black" points="357.236,-288.824 353.464,-278.924 350.239,-289.016 357.236,-288.824"/>
</g>
<!-- s_c5_y1 -->
<g id="node20" class="node"><title>s_c5_y1</title>
<path fill="bisque" stroke="black" d="M210.25,-190C210.25,-190 11.75,-190 11.75,-190 5.75,-190 -0.25,-184 -0.25,-178 -0.25,-178 -0.25,-164 -0.25,-164 -0.25,-158 5.75,-152 11.75,-152 11.75,-152 210.25,-152 210.25,-152 216.25,-152 222.25,-158 222.25,-164 222.25,-164 222.25,-178 222.25,-178 222.25,-184 216.25,-190 210.25,-190"/>
<text text-anchor="middle" x="111" y="-174.8" font-family="Times,serif" font-size="14.00">从该学生得到的收入=</text>
<text text-anchor="middle" x="111" y="-159.8" font-family="Times,serif" font-size="14.00">该学生这次上课的学费x提成比例</text>
</g>
<!-- s_c5_after_1 -->
<g id="node22" class="node"><title>s_c5_after_1</title>
<path fill="bisque" stroke="black" d="M453,-114C453,-114 229,-114 229,-114 223,-114 217,-108 217,-102 217,-102 217,-88 217,-88 217,-82 223,-76 229,-76 229,-76 453,-76 453,-76 459,-76 465,-82 465,-88 465,-88 465,-102 465,-102 465,-108 459,-114 453,-114"/>
<text text-anchor="middle" x="341" y="-98.8" font-family="Times,serif" font-size="14.00">从该学生得到的收入=</text>
<text text-anchor="middle" x="341" y="-83.8" font-family="Times,serif" font-size="14.00">从该学生得到的收入/应上课教师数量</text>
</g>
<!-- s_c5_y1&#45;&gt;s_c5_after_1 -->
<g id="edge29" class="edge"><title>s_c5_y1&#45;&gt;s_c5_after_1</title>
<path fill="none" stroke="black" d="M166.97,-151.992C199.526,-141.518 240.74,-128.258 274.888,-117.271"/>
<polygon fill="black" stroke="black" points="276.331,-120.483 284.779,-114.089 274.187,-113.82 276.331,-120.483"/>
</g>
<!-- s_c5_n1 -->
<g id="node21" class="node"><title>s_c5_n1</title>
<path fill="bisque" stroke="black" d="M453,-189C453,-189 253,-189 253,-189 247,-189 241,-183 241,-177 241,-177 241,-165 241,-165 241,-159 247,-153 253,-153 253,-153 453,-153 453,-153 459,-153 465,-159 465,-165 465,-165 465,-177 465,-177 465,-183 459,-189 453,-189"/>
<text text-anchor="middle" x="353" y="-167.3" font-family="Times,serif" font-size="14.00">从该学生得到的收入=一个固定值</text>
</g>
<!-- s_c5_n1&#45;&gt;s_c5_after_1 -->
<g id="edge30" class="edge"><title>s_c5_n1&#45;&gt;s_c5_after_1</title>
<path fill="none" stroke="black" d="M350.217,-152.837C348.834,-144.308 347.127,-133.783 345.56,-124.118"/>
<polygon fill="black" stroke="black" points="348.991,-123.413 343.936,-114.102 342.081,-124.534 348.991,-123.413"/>
</g>
<!-- s_c5_after_2 -->
<g id="node23" class="node"><title>s_c5_after_2</title>
<path fill="bisque" stroke="black" d="M484.25,-38C484.25,-38 349.75,-38 349.75,-38 343.75,-38 337.75,-32 337.75,-26 337.75,-26 337.75,-12 337.75,-12 337.75,-6 343.75,-0 349.75,-0 349.75,-0 484.25,-0 484.25,-0 490.25,-0 496.25,-6 496.25,-12 496.25,-12 496.25,-26 496.25,-26 496.25,-32 490.25,-38 484.25,-38"/>
<text text-anchor="middle" x="417" y="-22.8" font-family="Times,serif" font-size="14.00">将从该学生得到的收入</text>
<text text-anchor="middle" x="417" y="-7.8" font-family="Times,serif" font-size="14.00">计入这次上课的课时费</text>
</g>
<!-- s_c5_after_1&#45;&gt;s_c5_after_2 -->
<g id="edge31" class="edge"><title>s_c5_after_1&#45;&gt;s_c5_after_2</title>
<path fill="none" stroke="black" d="M359.787,-75.7079C369.266,-66.4778 380.91,-55.1399 391.214,-45.1074"/>
<polygon fill="black" stroke="black" points="393.707,-47.5656 398.43,-38.0817 388.823,-42.5503 393.707,-47.5656"/>
</g>
<!-- s_c5_after_2&#45;&gt;c4 -->
<g id="edge32" class="edge"><title>s_c5_after_2&#45;&gt;c4</title>
<path fill="none" stroke="black" d="M453.219,-38.1562C472.794,-50.7764 493,-69.691 493,-94 493,-337 493,-337 493,-337 493,-356.596 493,-378.704 493,-395.598"/>
<polygon fill="black" stroke="black" points="489.5,-395.867 493,-405.867 496.5,-395.867 489.5,-395.867"/>
</g>
<!-- c1&#45;&gt;s_c1_y1 -->
<g id="edge5" class="edge"><title>c1&#45;&gt;s_c1_y1</title>
<path fill="none" stroke="black" d="M778.845,-1225.18C761.517,-1212 735.08,-1191.88 714.515,-1176.22"/>
<polygon fill="black" stroke="black" points="716.466,-1173.31 706.388,-1170.04 712.226,-1178.88 716.466,-1173.31"/>
<text text-anchor="middle" x="758.5" y="-1192.3" font-family="Times,serif" font-size="14.00">是</text>
</g>
<!-- c1&#45;&gt;s_c1_n1 -->
<g id="edge6" class="edge"><title>c1&#45;&gt;s_c1_n1</title>
<path fill="none" stroke="black" d="M815.477,-1225.18C833.111,-1212 860.016,-1191.88 880.945,-1176.22"/>
<polygon fill="black" stroke="black" points="883.303,-1178.83 889.215,-1170.04 879.111,-1173.22 883.303,-1178.83"/>
<text text-anchor="middle" x="872.5" y="-1192.3" font-family="Times,serif" font-size="14.00">否</text>
</g>
<!-- c2&#45;&gt;s_c2_y1 -->
<g id="edge9" class="edge"><title>c2&#45;&gt;s_c2_y1</title>
<path fill="none" stroke="black" d="M844.374,-1062.41C863.923,-1049.07 893.151,-1029.12 915.75,-1013.69"/>
<polygon fill="black" stroke="black" points="917.766,-1016.56 924.052,-1008.03 913.82,-1010.77 917.766,-1016.56"/>
<text text-anchor="middle" x="905.5" y="-1030.3" font-family="Times,serif" font-size="14.00">是</text>
</g>
<!-- c2&#45;&gt;s_c2_n1 -->
<g id="edge10" class="edge"><title>c2&#45;&gt;s_c2_n1</title>
<path fill="none" stroke="black" d="M796.579,-1062.8C771.351,-1049.24 732.965,-1028.61 703.806,-1012.93"/>
<polygon fill="black" stroke="black" points="705.157,-1009.69 694.692,-1008.03 701.843,-1015.85 705.157,-1009.69"/>
<text text-anchor="middle" x="765.5" y="-1030.3" font-family="Times,serif" font-size="14.00">否</text>
</g>
<!-- c3&#45;&gt;s_c3_y1 -->
<g id="edge17" class="edge"><title>c3&#45;&gt;s_c3_y1</title>
<path fill="none" stroke="black" d="M615.828,-648.021C567.583,-634.144 483.655,-610.004 424.039,-592.858"/>
<polygon fill="black" stroke="black" points="424.897,-589.462 414.32,-590.062 422.962,-596.19 424.897,-589.462"/>
<text text-anchor="middle" x="539.5" y="-612.3" font-family="Times,serif" font-size="14.00">是</text>
</g>
<!-- c3&#45;&gt;s_c3_n1 -->
<g id="edge18" class="edge"><title>c3&#45;&gt;s_c3_n1</title>
<path fill="none" stroke="black" d="M654,-641.597C654,-629.746 654,-613.817 654,-600.292"/>
<polygon fill="black" stroke="black" points="657.5,-600.084 654,-590.084 650.5,-600.084 657.5,-600.084"/>
<text text-anchor="middle" x="661.5" y="-612.3" font-family="Times,serif" font-size="14.00">否</text>
</g>
<!-- c4&#45;&gt;s_c4_y1 -->
<g id="edge22" class="edge"><title>c4&#45;&gt;s_c4_y1</title>
<path fill="none" stroke="black" d="M518.781,-409.562C544.82,-395.991 585.468,-374.805 616.134,-358.821"/>
<polygon fill="black" stroke="black" points="618.053,-361.768 625.303,-354.042 614.817,-355.561 618.053,-361.768"/>
<text text-anchor="middle" x="598.5" y="-376.3" font-family="Times,serif" font-size="14.00">是</text>
</g>
<!-- c4&#45;&gt;s_c4_n1 -->
<g id="edge23" class="edge"><title>c4&#45;&gt;s_c4_n1</title>
<path fill="none" stroke="black" d="M470.828,-409.183C449.291,-395.761 416.23,-375.158 390.934,-359.393"/>
<polygon fill="black" stroke="black" points="392.68,-356.358 382.342,-354.039 388.977,-362.298 392.68,-356.358"/>
<text text-anchor="middle" x="444.5" y="-376.3" font-family="Times,serif" font-size="14.00">否</text>
</g>
<!-- c5&#45;&gt;s_c5_y1 -->
<g id="edge27" class="edge"><title>c5&#45;&gt;s_c5_y1</title>
<path fill="none" stroke="black" d="M321.363,-248.496C283.127,-234.592 217.993,-210.906 170.309,-193.567"/>
<polygon fill="black" stroke="black" points="171.31,-190.207 160.716,-190.079 168.918,-196.785 171.31,-190.207"/>
<text text-anchor="middle" x="261.5" y="-212.3" font-family="Times,serif" font-size="14.00">是</text>
</g>
<!-- c5&#45;&gt;s_c5_n1 -->
<g id="edge28" class="edge"><title>c5&#45;&gt;s_c5_n1</title>
<path fill="none" stroke="black" d="M353,-242.614C353,-230.24 353,-213.369 353,-199.22"/>
<polygon fill="black" stroke="black" points="356.5,-199.05 353,-189.05 349.5,-199.05 356.5,-199.05"/>
<text text-anchor="middle" x="360.5" y="-212.3" font-family="Times,serif" font-size="14.00">否</text>
</g>
</g>
</svg>
