<?xml version="1.0" encoding="UTF-8" standalone="no"?>
<!DOCTYPE svg PUBLIC "-//W3C//DTD SVG 1.1//EN"
 "http://www.w3.org/Graphics/SVG/1.1/DTD/svg11.dtd">
<!-- Generated by graphviz version 2.30.1 (20180420.1509)
 -->
<!-- Title: %3 Pages: 1 -->
<svg width="921pt" height="1328pt"
 viewBox="0.00 0.00 921.00 1328.00" xmlns="http://www.w3.org/2000/svg" xmlns:xlink="http://www.w3.org/1999/xlink">
<g id="graph0" class="graph" transform="scale(1 1) rotate(0) translate(4 1324)">
<title>%3</title>
<polygon fill="white" stroke="white" points="-4,5 -4,-1324 918,-1324 918,5 -4,5"/>
<!-- start -->
<g id="node1" class="node"><title>start</title>
<path fill="aquamarine" stroke="black" d="M226,-1320C226,-1320 196,-1320 196,-1320 190,-1320 184,-1314 184,-1308 184,-1308 184,-1296 184,-1296 184,-1290 190,-1284 196,-1284 196,-1284 226,-1284 226,-1284 232,-1284 238,-1290 238,-1296 238,-1296 238,-1308 238,-1308 238,-1314 232,-1320 226,-1320"/>
<text text-anchor="middle" x="211" y="-1298.3" font-family="Times,serif" font-size="14.00">开始</text>
</g>
<!-- s1 -->
<g id="node3" class="node"><title>s1</title>
<path fill="bisque" stroke="black" d="M347,-1246C347,-1246 75,-1246 75,-1246 69,-1246 63,-1240 63,-1234 63,-1234 63,-1220 63,-1220 63,-1214 69,-1208 75,-1208 75,-1208 347,-1208 347,-1208 353,-1208 359,-1214 359,-1220 359,-1220 359,-1234 359,-1234 359,-1240 353,-1246 347,-1246"/>
<text text-anchor="middle" x="211" y="-1230.8" font-family="Times,serif" font-size="14.00">列出该班级中该教师应上课的上课情况(按次)</text>
<text text-anchor="middle" x="211" y="-1215.8" font-family="Times,serif" font-size="14.00">(教师出现在一次课的应上课教师列表中)</text>
</g>
<!-- start&#45;&gt;s1 -->
<g id="edge1" class="edge"><title>start&#45;&gt;s1</title>
<path fill="none" stroke="black" d="M211,-1283.7C211,-1275.49 211,-1265.47 211,-1256.2"/>
<polygon fill="black" stroke="black" points="214.5,-1256.19 211,-1246.19 207.5,-1256.19 214.5,-1256.19"/>
</g>
<!-- end -->
<g id="node2" class="node"><title>end</title>
<path fill="aquamarine" stroke="black" d="M102,-37C102,-37 72,-37 72,-37 66,-37 60,-31 60,-25 60,-25 60,-13 60,-13 60,-7 66,-1 72,-1 72,-1 102,-1 102,-1 108,-1 114,-7 114,-13 114,-13 114,-25 114,-25 114,-31 108,-37 102,-37"/>
<text text-anchor="middle" x="87" y="-15.3" font-family="Times,serif" font-size="14.00">结束</text>
</g>
<!-- s2 -->
<g id="node4" class="node"><title>s2</title>
<path fill="bisque" stroke="black" d="M307,-1170C307,-1170 115,-1170 115,-1170 109,-1170 103,-1164 103,-1158 103,-1158 103,-1144 103,-1144 103,-1138 109,-1132 115,-1132 115,-1132 307,-1132 307,-1132 313,-1132 319,-1138 319,-1144 319,-1144 319,-1158 319,-1158 319,-1164 313,-1170 307,-1170"/>
<text text-anchor="middle" x="211" y="-1154.8" font-family="Times,serif" font-size="14.00">选择需要计算课时费的上课情况</text>
<text text-anchor="middle" x="211" y="-1139.8" font-family="Times,serif" font-size="14.00">生成上课情况列表(按次)</text>
</g>
<!-- s1&#45;&gt;s2 -->
<g id="edge2" class="edge"><title>s1&#45;&gt;s2</title>
<path fill="none" stroke="black" d="M211,-1207.71C211,-1199.46 211,-1189.54 211,-1180.36"/>
<polygon fill="black" stroke="black" points="214.5,-1180.08 211,-1170.08 207.5,-1180.08 214.5,-1180.08"/>
</g>
<!-- s3 -->
<g id="node5" class="node"><title>s3</title>
<path fill="bisque" stroke="black" d="M286,-1094C286,-1094 136,-1094 136,-1094 130,-1094 124,-1088 124,-1082 124,-1082 124,-1070 124,-1070 124,-1064 130,-1058 136,-1058 136,-1058 286,-1058 286,-1058 292,-1058 298,-1064 298,-1070 298,-1070 298,-1082 298,-1082 298,-1088 292,-1094 286,-1094"/>
<text text-anchor="middle" x="211" y="-1072.3" font-family="Times,serif" font-size="14.00">初始化该班级的课时费=0</text>
</g>
<!-- s2&#45;&gt;s3 -->
<g id="edge3" class="edge"><title>s2&#45;&gt;s3</title>
<path fill="none" stroke="black" d="M211,-1131.96C211,-1123.7 211,-1113.74 211,-1104.57"/>
<polygon fill="black" stroke="black" points="214.5,-1104.33 211,-1094.33 207.5,-1104.33 214.5,-1104.33"/>
</g>
<!-- c1 -->
<g id="node19" class="node"><title>c1</title>
<path fill="beige" stroke="black" d="M199.194,-1017.85C199.194,-1017.85 123.902,-1004.15 123.902,-1004.15 117.999,-1003.07 117.999,-1000.93 123.902,-999.851 123.902,-999.851 199.194,-986.149 199.194,-986.149 205.097,-985.074 216.903,-985.074 222.806,-986.149 222.806,-986.149 298.098,-999.851 298.098,-999.851 304.001,-1000.93 304.001,-1003.07 298.098,-1004.15 298.098,-1004.15 222.806,-1017.85 222.806,-1017.85 216.903,-1018.93 205.097,-1018.93 199.194,-1017.85"/>
<text text-anchor="middle" x="211" y="-998.3" font-family="Times,serif" font-size="14.00">是高中冲刺班?</text>
</g>
<!-- s3&#45;&gt;c1 -->
<g id="edge4" class="edge"><title>s3&#45;&gt;c1</title>
<path fill="none" stroke="black" d="M211,-1057.94C211,-1049.81 211,-1039.88 211,-1030.7"/>
<polygon fill="black" stroke="black" points="214.5,-1030.44 211,-1020.44 207.5,-1030.44 214.5,-1030.44"/>
</g>
<!-- s_c1_y1 -->
<g id="node6" class="node"><title>s_c1_y1</title>
<path fill="bisque" stroke="black" d="M184,-932C184,-932 12,-932 12,-932 6,-932 0,-926 0,-920 0,-920 0,-908 0,-908 0,-902 6,-896 12,-896 12,-896 184,-896 184,-896 190,-896 196,-902 196,-908 196,-908 196,-920 196,-920 196,-926 190,-932 184,-932"/>
<text text-anchor="middle" x="98" y="-910.3" font-family="Times,serif" font-size="14.00">提成比例=高中冲刺提成比例</text>
</g>
<!-- c2 -->
<g id="node20" class="node"><title>c2</title>
<path fill="beige" stroke="black" d="M225.076,-856.653C225.076,-856.653 89.5239,-841.347 89.5239,-841.347 83.5618,-840.673 83.5618,-839.327 89.5239,-838.653 89.5239,-838.653 225.076,-823.347 225.076,-823.347 231.038,-822.673 242.962,-822.673 248.924,-823.347 248.924,-823.347 384.476,-838.653 384.476,-838.653 390.438,-839.327 390.438,-840.673 384.476,-841.347 384.476,-841.347 248.924,-856.653 248.924,-856.653 242.962,-857.327 231.038,-857.327 225.076,-856.653"/>
<text text-anchor="middle" x="237" y="-836.3" font-family="Times,serif" font-size="14.00">上课情况列表(按次)为空?</text>
</g>
<!-- s_c1_y1&#45;&gt;c2 -->
<g id="edge7" class="edge"><title>s_c1_y1&#45;&gt;c2</title>
<path fill="none" stroke="black" d="M130.941,-895.937C152.015,-885.021 179.358,-870.858 201.003,-859.646"/>
<polygon fill="black" stroke="black" points="202.626,-862.747 209.895,-855.04 199.406,-856.532 202.626,-862.747"/>
</g>
<!-- s_c1_n1 -->
<g id="node7" class="node"><title>s_c1_n1</title>
<path fill="bisque" stroke="black" d="M426,-932C426,-932 226,-932 226,-932 220,-932 214,-926 214,-920 214,-920 214,-908 214,-908 214,-902 220,-896 226,-896 226,-896 426,-896 426,-896 432,-896 438,-902 438,-908 438,-908 438,-920 438,-920 438,-926 432,-932 426,-932"/>
<text text-anchor="middle" x="326" y="-910.3" font-family="Times,serif" font-size="14.00">提成比例=普通高中课程提成比例</text>
</g>
<!-- s_c1_n1&#45;&gt;c2 -->
<g id="edge8" class="edge"><title>s_c1_n1&#45;&gt;c2</title>
<path fill="none" stroke="black" d="M304.908,-895.937C292.478,-885.881 276.642,-873.07 263.389,-862.349"/>
<polygon fill="black" stroke="black" points="265.501,-859.555 255.525,-855.987 261.098,-864.997 265.501,-859.555"/>
</g>
<!-- s_c2_y1 -->
<g id="node8" class="node"><title>s_c2_y1</title>
<path fill="bisque" stroke="black" d="M178.25,-716C178.25,-716 57.75,-716 57.75,-716 51.75,-716 45.75,-710 45.75,-704 45.75,-704 45.75,-692 45.75,-692 45.75,-686 51.75,-680 57.75,-680 57.75,-680 178.25,-680 178.25,-680 184.25,-680 190.25,-686 190.25,-692 190.25,-692 190.25,-704 190.25,-704 190.25,-710 184.25,-716 178.25,-716"/>
<text text-anchor="middle" x="118" y="-694.3" font-family="Times,serif" font-size="14.00">输出该班级的课时费</text>
</g>
<!-- s_c2_y1&#45;&gt;end -->
<g id="edge11" class="edge"><title>s_c2_y1&#45;&gt;end</title>
<path fill="none" stroke="black" d="M108.191,-679.884C99.1094,-662.4 87,-634.179 87,-608 87,-608 87,-608 87,-94 87,-78.5914 87,-61.378 87,-47.4331"/>
<polygon fill="black" stroke="black" points="90.5001,-47.0471 87,-37.0472 83.5001,-47.0472 90.5001,-47.0471"/>
</g>
<!-- s_c2_n1 -->
<g id="node9" class="node"><title>s_c2_n1</title>
<path fill="bisque" stroke="black" d="M512.25,-770C512.25,-770 291.75,-770 291.75,-770 285.75,-770 279.75,-764 279.75,-758 279.75,-758 279.75,-746 279.75,-746 279.75,-740 285.75,-734 291.75,-734 291.75,-734 512.25,-734 512.25,-734 518.25,-734 524.25,-740 524.25,-746 524.25,-746 524.25,-758 524.25,-758 524.25,-764 518.25,-770 512.25,-770"/>
<text text-anchor="middle" x="402" y="-748.3" font-family="Times,serif" font-size="14.00">从上课情况列表中取出一次上课境况</text>
</g>
<!-- s_c2_n2 -->
<g id="node10" class="node"><title>s_c2_n2</title>
<path fill="bisque" stroke="black" d="M523.25,-662C523.25,-662 302.75,-662 302.75,-662 296.75,-662 290.75,-656 290.75,-650 290.75,-650 290.75,-638 290.75,-638 290.75,-632 296.75,-626 302.75,-626 302.75,-626 523.25,-626 523.25,-626 529.25,-626 535.25,-632 535.25,-638 535.25,-638 535.25,-650 535.25,-650 535.25,-656 529.25,-662 523.25,-662"/>
<text text-anchor="middle" x="413" y="-640.3" font-family="Times,serif" font-size="14.00">读取这次上课情况中的应到学生列表</text>
</g>
<!-- s_c2_n1&#45;&gt;s_c2_n2 -->
<g id="edge12" class="edge"><title>s_c2_n1&#45;&gt;s_c2_n2</title>
<path fill="none" stroke="black" d="M403.767,-733.969C405.489,-717.378 408.135,-691.883 410.153,-672.431"/>
<polygon fill="black" stroke="black" points="413.65,-672.648 411.201,-662.341 406.687,-671.926 413.65,-672.648"/>
</g>
<!-- s_c2_n3 -->
<g id="node11" class="node"><title>s_c2_n3</title>
<path fill="bisque" stroke="black" d="M491,-588C491,-588 341,-588 341,-588 335,-588 329,-582 329,-576 329,-576 329,-564 329,-564 329,-558 335,-552 341,-552 341,-552 491,-552 491,-552 497,-552 503,-558 503,-564 503,-564 503,-576 503,-576 503,-582 497,-588 491,-588"/>
<text text-anchor="middle" x="416" y="-566.3" font-family="Times,serif" font-size="14.00">初始化这次上课课时费=0</text>
</g>
<!-- s_c2_n2&#45;&gt;s_c2_n3 -->
<g id="edge13" class="edge"><title>s_c2_n2&#45;&gt;s_c2_n3</title>
<path fill="none" stroke="black" d="M413.711,-625.937C414.05,-617.807 414.463,-607.876 414.846,-598.705"/>
<polygon fill="black" stroke="black" points="418.354,-598.578 415.273,-588.441 411.36,-598.286 418.354,-598.578"/>
</g>
<!-- s_c2_n4 -->
<g id="node12" class="node"><title>s_c2_n4</title>
<path fill="bisque" stroke="black" d="M512,-514C512,-514 320,-514 320,-514 314,-514 308,-508 308,-502 308,-502 308,-490 308,-490 308,-484 314,-478 320,-478 320,-478 512,-478 512,-478 518,-478 524,-484 524,-490 524,-490 524,-502 524,-502 524,-508 518,-514 512,-514"/>
<text text-anchor="middle" x="416" y="-492.3" font-family="Times,serif" font-size="14.00">读取该次上课的应上课教师数量</text>
</g>
<!-- s_c2_n3&#45;&gt;s_c2_n4 -->
<g id="edge14" class="edge"><title>s_c2_n3&#45;&gt;s_c2_n4</title>
<path fill="none" stroke="black" d="M416,-551.937C416,-543.807 416,-533.876 416,-524.705"/>
<polygon fill="black" stroke="black" points="419.5,-524.441 416,-514.441 412.5,-524.441 419.5,-524.441"/>
</g>
<!-- c3 -->
<g id="node21" class="node"><title>c3</title>
<path fill="beige" stroke="black" d="M405.084,-438.584C405.084,-438.584 277.425,-423.416 277.425,-423.416 271.467,-422.708 271.467,-421.292 277.425,-420.584 277.425,-420.584 405.084,-405.416 405.084,-405.416 411.042,-404.708 422.958,-404.708 428.916,-405.416 428.916,-405.416 556.575,-420.584 556.575,-420.584 562.533,-421.292 562.533,-422.708 556.575,-423.416 556.575,-423.416 428.916,-438.584 428.916,-438.584 422.958,-439.292 411.042,-439.292 405.084,-438.584"/>
<text text-anchor="middle" x="417" y="-418.3" font-family="Times,serif" font-size="14.00">应到学生列表是否为空?</text>
</g>
<!-- s_c2_n4&#45;&gt;c3 -->
<g id="edge15" class="edge"><title>s_c2_n4&#45;&gt;c3</title>
<path fill="none" stroke="black" d="M416.237,-477.937C416.35,-469.807 416.488,-459.876 416.615,-450.705"/>
<polygon fill="black" stroke="black" points="420.118,-450.488 416.758,-440.441 413.119,-450.391 420.118,-450.488"/>
</g>
<!-- s_c3_y1 -->
<g id="node13" class="node"><title>s_c3_y1</title>
<path fill="bisque" stroke="black" d="M376.25,-352C376.25,-352 127.75,-352 127.75,-352 121.75,-352 115.75,-346 115.75,-340 115.75,-340 115.75,-328 115.75,-328 115.75,-322 121.75,-316 127.75,-316 127.75,-316 376.25,-316 376.25,-316 382.25,-316 388.25,-322 388.25,-328 388.25,-328 388.25,-340 388.25,-340 388.25,-346 382.25,-352 376.25,-352"/>
<text text-anchor="middle" x="252" y="-330.3" font-family="Times,serif" font-size="14.00">将这次上课的课时费计入该班级的课时费</text>
</g>
<!-- s_c3_y1&#45;&gt;c2 -->
<g id="edge18" class="edge"><title>s_c3_y1&#45;&gt;c2</title>
<path fill="none" stroke="black" d="M247.171,-352.305C242.786,-369.563 237,-396.902 237,-421 237,-753 237,-753 237,-753 237,-772.596 237,-794.704 237,-811.598"/>
<polygon fill="black" stroke="black" points="233.5,-811.867 237,-821.867 240.5,-811.867 233.5,-811.867"/>
</g>
<!-- s_c3_n1 -->
<g id="node14" class="node"><title>s_c3_n1</title>
<path fill="bisque" stroke="black" d="M678.25,-352C678.25,-352 457.75,-352 457.75,-352 451.75,-352 445.75,-346 445.75,-340 445.75,-340 445.75,-328 445.75,-328 445.75,-322 451.75,-316 457.75,-316 457.75,-316 678.25,-316 678.25,-316 684.25,-316 690.25,-322 690.25,-328 690.25,-328 690.25,-340 690.25,-340 690.25,-346 684.25,-352 678.25,-352"/>
<text text-anchor="middle" x="568" y="-330.3" font-family="Times,serif" font-size="14.00">从应到学生列表中取出一个学生信息</text>
</g>
<!-- c4 -->
<g id="node22" class="node"><title>c4</title>
<path fill="beige" stroke="black" d="M556.194,-275.851C556.194,-275.851 480.902,-262.149 480.902,-262.149 474.999,-261.074 474.999,-258.926 480.902,-257.851 480.902,-257.851 556.194,-244.149 556.194,-244.149 562.097,-243.074 573.903,-243.074 579.806,-244.149 579.806,-244.149 655.098,-257.851 655.098,-257.851 661.001,-258.926 661.001,-261.074 655.098,-262.149 655.098,-262.149 579.806,-275.851 579.806,-275.851 573.903,-276.926 562.097,-276.926 556.194,-275.851"/>
<text text-anchor="middle" x="568" y="-256.3" font-family="Times,serif" font-size="14.00">学生是高中生?</text>
</g>
<!-- s_c3_n1&#45;&gt;c4 -->
<g id="edge19" class="edge"><title>s_c3_n1&#45;&gt;c4</title>
<path fill="none" stroke="black" d="M568,-315.937C568,-307.807 568,-297.876 568,-288.705"/>
<polygon fill="black" stroke="black" points="571.5,-288.441 568,-278.441 564.5,-288.441 571.5,-288.441"/>
</g>
<!-- s_c4_y1 -->
<g id="node15" class="node"><title>s_c4_y1</title>
<path fill="bisque" stroke="black" d="M901.25,-190C901.25,-190 702.75,-190 702.75,-190 696.75,-190 690.75,-184 690.75,-178 690.75,-178 690.75,-164 690.75,-164 690.75,-158 696.75,-152 702.75,-152 702.75,-152 901.25,-152 901.25,-152 907.25,-152 913.25,-158 913.25,-164 913.25,-164 913.25,-178 913.25,-178 913.25,-184 907.25,-190 901.25,-190"/>
<text text-anchor="middle" x="802" y="-174.8" font-family="Times,serif" font-size="14.00">从该学生得到的收入=</text>
<text text-anchor="middle" x="802" y="-159.8" font-family="Times,serif" font-size="14.00">该学生这次上课的学费x提成比例</text>
</g>
<!-- s_c4_after_1 -->
<g id="node17" class="node"><title>s_c4_after_1</title>
<path fill="bisque" stroke="black" d="M681,-114C681,-114 457,-114 457,-114 451,-114 445,-108 445,-102 445,-102 445,-88 445,-88 445,-82 451,-76 457,-76 457,-76 681,-76 681,-76 687,-76 693,-82 693,-88 693,-88 693,-102 693,-102 693,-108 687,-114 681,-114"/>
<text text-anchor="middle" x="569" y="-98.8" font-family="Times,serif" font-size="14.00">从该学生得到的收入=</text>
<text text-anchor="middle" x="569" y="-83.8" font-family="Times,serif" font-size="14.00">从该学生得到的收入/应上课教师数量</text>
</g>
<!-- s_c4_y1&#45;&gt;s_c4_after_1 -->
<g id="edge22" class="edge"><title>s_c4_y1&#45;&gt;s_c4_after_1</title>
<path fill="none" stroke="black" d="M745.3,-151.992C712.178,-141.473 670.209,-128.144 635.529,-117.129"/>
<polygon fill="black" stroke="black" points="636.545,-113.78 625.955,-114.089 634.426,-120.451 636.545,-113.78"/>
</g>
<!-- s_c4_n1 -->
<g id="node16" class="node"><title>s_c4_n1</title>
<path fill="bisque" stroke="black" d="M660,-189C660,-189 460,-189 460,-189 454,-189 448,-183 448,-177 448,-177 448,-165 448,-165 448,-159 454,-153 460,-153 460,-153 660,-153 660,-153 666,-153 672,-159 672,-165 672,-165 672,-177 672,-177 672,-183 666,-189 660,-189"/>
<text text-anchor="middle" x="560" y="-167.3" font-family="Times,serif" font-size="14.00">从该学生得到的收入=一个固定值</text>
</g>
<!-- s_c4_n1&#45;&gt;s_c4_after_1 -->
<g id="edge23" class="edge"><title>s_c4_n1&#45;&gt;s_c4_after_1</title>
<path fill="none" stroke="black" d="M562.087,-152.837C563.125,-144.308 564.405,-133.783 565.58,-124.118"/>
<polygon fill="black" stroke="black" points="569.065,-124.452 566.798,-114.102 562.117,-123.607 569.065,-124.452"/>
</g>
<!-- s_c4_after_2 -->
<g id="node18" class="node"><title>s_c4_after_2</title>
<path fill="bisque" stroke="black" d="M528.25,-38C528.25,-38 393.75,-38 393.75,-38 387.75,-38 381.75,-32 381.75,-26 381.75,-26 381.75,-12 381.75,-12 381.75,-6 387.75,-0 393.75,-0 393.75,-0 528.25,-0 528.25,-0 534.25,-0 540.25,-6 540.25,-12 540.25,-12 540.25,-26 540.25,-26 540.25,-32 534.25,-38 528.25,-38"/>
<text text-anchor="middle" x="461" y="-22.8" font-family="Times,serif" font-size="14.00">将从该学生得到的收入</text>
<text text-anchor="middle" x="461" y="-7.8" font-family="Times,serif" font-size="14.00">计入这次上课的课时费</text>
</g>
<!-- s_c4_after_1&#45;&gt;s_c4_after_2 -->
<g id="edge24" class="edge"><title>s_c4_after_1&#45;&gt;s_c4_after_2</title>
<path fill="none" stroke="black" d="M542.58,-75.8976C528.59,-66.3117 511.224,-54.4125 496.114,-44.0597"/>
<polygon fill="black" stroke="black" points="497.749,-40.9371 487.521,-38.172 493.792,-46.7116 497.749,-40.9371"/>
</g>
<!-- s_c4_after_2&#45;&gt;c3 -->
<g id="edge25" class="edge"><title>s_c4_after_2&#45;&gt;c3</title>
<path fill="none" stroke="black" d="M442.849,-38.0325C430.729,-52.041 417,-72.6262 417,-94 417,-335 417,-335 417,-335 417,-354.596 417,-376.704 417,-393.598"/>
<polygon fill="black" stroke="black" points="413.5,-393.867 417,-403.867 420.5,-393.867 413.5,-393.867"/>
</g>
<!-- c1&#45;&gt;s_c1_y1 -->
<g id="edge5" class="edge"><title>c1&#45;&gt;s_c1_y1</title>
<path fill="none" stroke="black" d="M192.845,-987.183C175.517,-973.996 149.08,-953.875 128.515,-938.224"/>
<polygon fill="black" stroke="black" points="130.466,-935.31 120.388,-932.039 126.226,-940.88 130.466,-935.31"/>
<text text-anchor="middle" x="172.5" y="-954.3" font-family="Times,serif" font-size="14.00">是</text>
</g>
<!-- c1&#45;&gt;s_c1_n1 -->
<g id="edge6" class="edge"><title>c1&#45;&gt;s_c1_n1</title>
<path fill="none" stroke="black" d="M229.477,-987.183C247.111,-973.996 274.016,-953.875 294.945,-938.224"/>
<polygon fill="black" stroke="black" points="297.303,-940.831 303.215,-932.039 293.111,-935.225 297.303,-940.831"/>
<text text-anchor="middle" x="286.5" y="-954.3" font-family="Times,serif" font-size="14.00">否</text>
</g>
<!-- c2&#45;&gt;s_c2_y1 -->
<g id="edge9" class="edge"><title>c2&#45;&gt;s_c2_y1</title>
<path fill="none" stroke="black" d="M223.81,-823.483C203.344,-799.405 163.748,-752.821 139.224,-723.97"/>
<polygon fill="black" stroke="black" points="141.879,-721.688 132.735,-716.336 136.545,-726.222 141.879,-721.688"/>
<text text-anchor="middle" x="214.5" y="-792.3" font-family="Times,serif" font-size="14.00">是</text>
</g>
<!-- c2&#45;&gt;s_c2_n1 -->
<g id="edge10" class="edge"><title>c2&#45;&gt;s_c2_n1</title>
<path fill="none" stroke="black" d="M263.877,-824.991C289.946,-811.404 329.883,-790.588 360.12,-774.828"/>
<polygon fill="black" stroke="black" points="361.916,-777.839 369.166,-770.113 358.681,-771.632 361.916,-777.839"/>
<text text-anchor="middle" x="342.5" y="-792.3" font-family="Times,serif" font-size="14.00">否</text>
</g>
<!-- c3&#45;&gt;s_c3_y1 -->
<g id="edge16" class="edge"><title>c3&#45;&gt;s_c3_y1</title>
<path fill="none" stroke="black" d="M390.123,-406.991C364.054,-393.404 324.117,-372.588 293.88,-356.828"/>
<polygon fill="black" stroke="black" points="295.319,-353.632 284.834,-352.113 292.084,-359.839 295.319,-353.632"/>
<text text-anchor="middle" x="357.5" y="-374.3" font-family="Times,serif" font-size="14.00">是</text>
</g>
<!-- c3&#45;&gt;s_c3_n1 -->
<g id="edge17" class="edge"><title>c3&#45;&gt;s_c3_n1</title>
<path fill="none" stroke="black" d="M441.935,-406.799C465.641,-393.297 501.657,-372.785 529.131,-357.137"/>
<polygon fill="black" stroke="black" points="531.134,-360.025 538.091,-352.034 527.669,-353.942 531.134,-360.025"/>
<text text-anchor="middle" x="513.5" y="-374.3" font-family="Times,serif" font-size="14.00">否</text>
</g>
<!-- c4&#45;&gt;s_c4_y1 -->
<g id="edge20" class="edge"><title>c4&#45;&gt;s_c4_y1</title>
<path fill="none" stroke="black" d="M599.073,-247.447C635.866,-233.768 697.925,-210.694 743.748,-193.658"/>
<polygon fill="black" stroke="black" points="745.112,-196.885 753.265,-190.119 742.672,-190.324 745.112,-196.885"/>
<text text-anchor="middle" x="706.5" y="-212.3" font-family="Times,serif" font-size="14.00">是</text>
</g>
<!-- c4&#45;&gt;s_c4_n1 -->
<g id="edge21" class="edge"><title>c4&#45;&gt;s_c4_n1</title>
<path fill="none" stroke="black" d="M566.458,-242.226C565.336,-230.028 563.793,-213.253 562.497,-199.157"/>
<polygon fill="black" stroke="black" points="565.966,-198.657 561.565,-189.02 558.996,-199.298 565.966,-198.657"/>
<text text-anchor="middle" x="571.5" y="-212.3" font-family="Times,serif" font-size="14.00">否</text>
</g>
</g>
</svg>
