<?xml version="1.0" encoding="UTF-8" standalone="no"?>
<!DOCTYPE svg PUBLIC "-//W3C//DTD SVG 1.1//EN"
 "http://www.w3.org/Graphics/SVG/1.1/DTD/svg11.dtd">
<!-- Generated by graphviz version 2.30.1 (20180420.1509)
 -->
<!-- Title: %3 Pages: 1 -->
<svg width="919pt" height="1176pt"
 viewBox="0.00 0.00 919.00 1176.00" xmlns="http://www.w3.org/2000/svg" xmlns:xlink="http://www.w3.org/1999/xlink">
<g id="graph0" class="graph" transform="scale(1 1) rotate(0) translate(4 1172)">
<title>%3</title>
<polygon fill="white" stroke="white" points="-4,5 -4,-1172 916,-1172 916,5 -4,5"/>
<!-- start -->
<g id="node1" class="node"><title>start</title>
<path fill="aquamarine" stroke="black" d="M226,-1168C226,-1168 196,-1168 196,-1168 190,-1168 184,-1162 184,-1156 184,-1156 184,-1144 184,-1144 184,-1138 190,-1132 196,-1132 196,-1132 226,-1132 226,-1132 232,-1132 238,-1138 238,-1144 238,-1144 238,-1156 238,-1156 238,-1162 232,-1168 226,-1168"/>
<text text-anchor="middle" x="211" y="-1146.3" font-family="Times,serif" font-size="14.00">开始</text>
</g>
<!-- s1 -->
<g id="node3" class="node"><title>s1</title>
<path fill="bisque" stroke="black" d="M304.25,-1094C304.25,-1094 117.75,-1094 117.75,-1094 111.75,-1094 105.75,-1088 105.75,-1082 105.75,-1082 105.75,-1070 105.75,-1070 105.75,-1064 111.75,-1058 117.75,-1058 117.75,-1058 304.25,-1058 304.25,-1058 310.25,-1058 316.25,-1064 316.25,-1070 316.25,-1070 316.25,-1082 316.25,-1082 316.25,-1088 310.25,-1094 304.25,-1094"/>
<text text-anchor="middle" x="211" y="-1072.3" font-family="Times,serif" font-size="14.00">列出该班级所有上课情况(按次)</text>
</g>
<!-- start&#45;&gt;s1 -->
<g id="edge1" class="edge"><title>start&#45;&gt;s1</title>
<path fill="none" stroke="black" d="M211,-1131.94C211,-1123.81 211,-1113.88 211,-1104.7"/>
<polygon fill="black" stroke="black" points="214.5,-1104.44 211,-1094.44 207.5,-1104.44 214.5,-1104.44"/>
</g>
<!-- end -->
<g id="node2" class="node"><title>end</title>
<path fill="aquamarine" stroke="black" d="M102,-37C102,-37 72,-37 72,-37 66,-37 60,-31 60,-25 60,-25 60,-13 60,-13 60,-7 66,-1 72,-1 72,-1 102,-1 102,-1 108,-1 114,-7 114,-13 114,-13 114,-25 114,-25 114,-31 108,-37 102,-37"/>
<text text-anchor="middle" x="87" y="-15.3" font-family="Times,serif" font-size="14.00">结束</text>
</g>
<!-- s2 -->
<g id="node4" class="node"><title>s2</title>
<path fill="bisque" stroke="black" d="M307,-1020C307,-1020 115,-1020 115,-1020 109,-1020 103,-1014 103,-1008 103,-1008 103,-994 103,-994 103,-988 109,-982 115,-982 115,-982 307,-982 307,-982 313,-982 319,-988 319,-994 319,-994 319,-1008 319,-1008 319,-1014 313,-1020 307,-1020"/>
<text text-anchor="middle" x="211" y="-1004.8" font-family="Times,serif" font-size="14.00">选择需要计算课时费的上课情况</text>
<text text-anchor="middle" x="211" y="-989.8" font-family="Times,serif" font-size="14.00">生成上课情况列表(按次)</text>
</g>
<!-- s1&#45;&gt;s2 -->
<g id="edge2" class="edge"><title>s1&#45;&gt;s2</title>
<path fill="none" stroke="black" d="M211,-1057.7C211,-1049.49 211,-1039.47 211,-1030.2"/>
<polygon fill="black" stroke="black" points="214.5,-1030.19 211,-1020.19 207.5,-1030.19 214.5,-1030.19"/>
</g>
<!-- s3 -->
<g id="node5" class="node"><title>s3</title>
<path fill="bisque" stroke="black" d="M286,-944C286,-944 136,-944 136,-944 130,-944 124,-938 124,-932 124,-932 124,-920 124,-920 124,-914 130,-908 136,-908 136,-908 286,-908 286,-908 292,-908 298,-914 298,-920 298,-920 298,-932 298,-932 298,-938 292,-944 286,-944"/>
<text text-anchor="middle" x="211" y="-922.3" font-family="Times,serif" font-size="14.00">初始化该班级的课时费=0</text>
</g>
<!-- s2&#45;&gt;s3 -->
<g id="edge3" class="edge"><title>s2&#45;&gt;s3</title>
<path fill="none" stroke="black" d="M211,-981.955C211,-973.701 211,-963.738 211,-954.574"/>
<polygon fill="black" stroke="black" points="214.5,-954.335 211,-944.335 207.5,-954.335 214.5,-954.335"/>
</g>
<!-- c1 -->
<g id="node17" class="node"><title>c1</title>
<path fill="beige" stroke="black" d="M199.194,-867.851C199.194,-867.851 123.902,-854.149 123.902,-854.149 117.999,-853.074 117.999,-850.926 123.902,-849.851 123.902,-849.851 199.194,-836.149 199.194,-836.149 205.097,-835.074 216.903,-835.074 222.806,-836.149 222.806,-836.149 298.098,-849.851 298.098,-849.851 304.001,-850.926 304.001,-853.074 298.098,-854.149 298.098,-854.149 222.806,-867.851 222.806,-867.851 216.903,-868.926 205.097,-868.926 199.194,-867.851"/>
<text text-anchor="middle" x="211" y="-848.3" font-family="Times,serif" font-size="14.00">是高中冲刺班?</text>
</g>
<!-- s3&#45;&gt;c1 -->
<g id="edge4" class="edge"><title>s3&#45;&gt;c1</title>
<path fill="none" stroke="black" d="M211,-907.937C211,-899.807 211,-889.876 211,-880.705"/>
<polygon fill="black" stroke="black" points="214.5,-880.441 211,-870.441 207.5,-880.441 214.5,-880.441"/>
</g>
<!-- s_c1_y_1 -->
<g id="node6" class="node"><title>s_c1_y_1</title>
<path fill="bisque" stroke="black" d="M184,-782C184,-782 12,-782 12,-782 6,-782 0,-776 0,-770 0,-770 0,-758 0,-758 0,-752 6,-746 12,-746 12,-746 184,-746 184,-746 190,-746 196,-752 196,-758 196,-758 196,-770 196,-770 196,-776 190,-782 184,-782"/>
<text text-anchor="middle" x="98" y="-760.3" font-family="Times,serif" font-size="14.00">提成比例=高中冲刺提成比例</text>
</g>
<!-- c2 -->
<g id="node18" class="node"><title>c2</title>
<path fill="beige" stroke="black" d="M225.076,-706.653C225.076,-706.653 89.5239,-691.347 89.5239,-691.347 83.5618,-690.673 83.5618,-689.327 89.5239,-688.653 89.5239,-688.653 225.076,-673.347 225.076,-673.347 231.038,-672.673 242.962,-672.673 248.924,-673.347 248.924,-673.347 384.476,-688.653 384.476,-688.653 390.438,-689.327 390.438,-690.673 384.476,-691.347 384.476,-691.347 248.924,-706.653 248.924,-706.653 242.962,-707.327 231.038,-707.327 225.076,-706.653"/>
<text text-anchor="middle" x="237" y="-686.3" font-family="Times,serif" font-size="14.00">上课情况列表(按次)为空?</text>
</g>
<!-- s_c1_y_1&#45;&gt;c2 -->
<g id="edge7" class="edge"><title>s_c1_y_1&#45;&gt;c2</title>
<path fill="none" stroke="black" d="M130.941,-745.937C152.015,-735.021 179.358,-720.858 201.003,-709.646"/>
<polygon fill="black" stroke="black" points="202.626,-712.747 209.895,-705.04 199.406,-706.532 202.626,-712.747"/>
</g>
<!-- s_c1_n_1 -->
<g id="node7" class="node"><title>s_c1_n_1</title>
<path fill="bisque" stroke="black" d="M426,-782C426,-782 226,-782 226,-782 220,-782 214,-776 214,-770 214,-770 214,-758 214,-758 214,-752 220,-746 226,-746 226,-746 426,-746 426,-746 432,-746 438,-752 438,-758 438,-758 438,-770 438,-770 438,-776 432,-782 426,-782"/>
<text text-anchor="middle" x="326" y="-760.3" font-family="Times,serif" font-size="14.00">提成比例=普通高中课程提成比例</text>
</g>
<!-- s_c1_n_1&#45;&gt;c2 -->
<g id="edge8" class="edge"><title>s_c1_n_1&#45;&gt;c2</title>
<path fill="none" stroke="black" d="M304.908,-745.937C292.478,-735.881 276.642,-723.07 263.389,-712.349"/>
<polygon fill="black" stroke="black" points="265.501,-709.555 255.525,-705.987 261.098,-714.997 265.501,-709.555"/>
</g>
<!-- s_c2_y_1 -->
<g id="node8" class="node"><title>s_c2_y_1</title>
<path fill="bisque" stroke="black" d="M178.25,-566C178.25,-566 57.75,-566 57.75,-566 51.75,-566 45.75,-560 45.75,-554 45.75,-554 45.75,-542 45.75,-542 45.75,-536 51.75,-530 57.75,-530 57.75,-530 178.25,-530 178.25,-530 184.25,-530 190.25,-536 190.25,-542 190.25,-542 190.25,-554 190.25,-554 190.25,-560 184.25,-566 178.25,-566"/>
<text text-anchor="middle" x="118" y="-544.3" font-family="Times,serif" font-size="14.00">输出该班级的课时费</text>
</g>
<!-- s_c2_y_1&#45;&gt;end -->
<g id="edge11" class="edge"><title>s_c2_y_1&#45;&gt;end</title>
<path fill="none" stroke="black" d="M108.191,-529.884C99.1094,-512.4 87,-484.179 87,-458 87,-458 87,-458 87,-94 87,-78.5914 87,-61.378 87,-47.4331"/>
<polygon fill="black" stroke="black" points="90.5001,-47.0471 87,-37.0472 83.5001,-47.0472 90.5001,-47.0471"/>
</g>
<!-- s_c2_n_1 -->
<g id="node9" class="node"><title>s_c2_n_1</title>
<path fill="bisque" stroke="black" d="M512.25,-620C512.25,-620 291.75,-620 291.75,-620 285.75,-620 279.75,-614 279.75,-608 279.75,-608 279.75,-596 279.75,-596 279.75,-590 285.75,-584 291.75,-584 291.75,-584 512.25,-584 512.25,-584 518.25,-584 524.25,-590 524.25,-596 524.25,-596 524.25,-608 524.25,-608 524.25,-614 518.25,-620 512.25,-620"/>
<text text-anchor="middle" x="402" y="-598.3" font-family="Times,serif" font-size="14.00">从上课情况列表中取出一次上课境况</text>
</g>
<!-- s_c2_n_2 -->
<g id="node10" class="node"><title>s_c2_n_2</title>
<path fill="bisque" stroke="black" d="M523.25,-512C523.25,-512 302.75,-512 302.75,-512 296.75,-512 290.75,-506 290.75,-500 290.75,-500 290.75,-488 290.75,-488 290.75,-482 296.75,-476 302.75,-476 302.75,-476 523.25,-476 523.25,-476 529.25,-476 535.25,-482 535.25,-488 535.25,-488 535.25,-500 535.25,-500 535.25,-506 529.25,-512 523.25,-512"/>
<text text-anchor="middle" x="413" y="-490.3" font-family="Times,serif" font-size="14.00">读取这次上课情况中的应到学生列表</text>
</g>
<!-- s_c2_n_1&#45;&gt;s_c2_n_2 -->
<g id="edge12" class="edge"><title>s_c2_n_1&#45;&gt;s_c2_n_2</title>
<path fill="none" stroke="black" d="M403.767,-583.969C405.489,-567.378 408.135,-541.883 410.153,-522.431"/>
<polygon fill="black" stroke="black" points="413.65,-522.648 411.201,-512.341 406.687,-521.926 413.65,-522.648"/>
</g>
<!-- s_c2_n_3 -->
<g id="node11" class="node"><title>s_c2_n_3</title>
<path fill="bisque" stroke="black" d="M491,-438C491,-438 341,-438 341,-438 335,-438 329,-432 329,-426 329,-426 329,-414 329,-414 329,-408 335,-402 341,-402 341,-402 491,-402 491,-402 497,-402 503,-408 503,-414 503,-414 503,-426 503,-426 503,-432 497,-438 491,-438"/>
<text text-anchor="middle" x="416" y="-416.3" font-family="Times,serif" font-size="14.00">初始化这次上课课时费=0</text>
</g>
<!-- s_c2_n_2&#45;&gt;s_c2_n_3 -->
<g id="edge13" class="edge"><title>s_c2_n_2&#45;&gt;s_c2_n_3</title>
<path fill="none" stroke="black" d="M413.711,-475.937C414.05,-467.807 414.463,-457.876 414.846,-448.705"/>
<polygon fill="black" stroke="black" points="418.354,-448.578 415.273,-438.441 411.36,-448.286 418.354,-448.578"/>
</g>
<!-- c3 -->
<g id="node19" class="node"><title>c3</title>
<path fill="beige" stroke="black" d="M405.084,-362.584C405.084,-362.584 277.425,-347.416 277.425,-347.416 271.467,-346.708 271.467,-345.292 277.425,-344.584 277.425,-344.584 405.084,-329.416 405.084,-329.416 411.042,-328.708 422.958,-328.708 428.916,-329.416 428.916,-329.416 556.575,-344.584 556.575,-344.584 562.533,-345.292 562.533,-346.708 556.575,-347.416 556.575,-347.416 428.916,-362.584 428.916,-362.584 422.958,-363.292 411.042,-363.292 405.084,-362.584"/>
<text text-anchor="middle" x="417" y="-342.3" font-family="Times,serif" font-size="14.00">应到学生列表是否为空?</text>
</g>
<!-- s_c2_n_3&#45;&gt;c3 -->
<g id="edge14" class="edge"><title>s_c2_n_3&#45;&gt;c3</title>
<path fill="none" stroke="black" d="M416.237,-401.937C416.35,-393.807 416.488,-383.876 416.615,-374.705"/>
<polygon fill="black" stroke="black" points="420.118,-374.488 416.758,-364.441 413.119,-374.391 420.118,-374.488"/>
</g>
<!-- s_c3_y_1 -->
<g id="node12" class="node"><title>s_c3_y_1</title>
<path fill="bisque" stroke="black" d="M376.25,-276C376.25,-276 127.75,-276 127.75,-276 121.75,-276 115.75,-270 115.75,-264 115.75,-264 115.75,-252 115.75,-252 115.75,-246 121.75,-240 127.75,-240 127.75,-240 376.25,-240 376.25,-240 382.25,-240 388.25,-246 388.25,-252 388.25,-252 388.25,-264 388.25,-264 388.25,-270 382.25,-276 376.25,-276"/>
<text text-anchor="middle" x="252" y="-254.3" font-family="Times,serif" font-size="14.00">将这次上课的课时费计入该班级的课时费</text>
</g>
<!-- s_c3_y_1&#45;&gt;c2 -->
<g id="edge17" class="edge"><title>s_c3_y_1&#45;&gt;c2</title>
<path fill="none" stroke="black" d="M247.171,-276.305C242.786,-293.563 237,-320.902 237,-345 237,-603 237,-603 237,-603 237,-622.596 237,-644.704 237,-661.598"/>
<polygon fill="black" stroke="black" points="233.5,-661.867 237,-671.867 240.5,-661.867 233.5,-661.867"/>
</g>
<!-- s_c3_n_1 -->
<g id="node13" class="node"><title>s_c3_n_1</title>
<path fill="bisque" stroke="black" d="M678.25,-276C678.25,-276 457.75,-276 457.75,-276 451.75,-276 445.75,-270 445.75,-264 445.75,-264 445.75,-252 445.75,-252 445.75,-246 451.75,-240 457.75,-240 457.75,-240 678.25,-240 678.25,-240 684.25,-240 690.25,-246 690.25,-252 690.25,-252 690.25,-264 690.25,-264 690.25,-270 684.25,-276 678.25,-276"/>
<text text-anchor="middle" x="568" y="-254.3" font-family="Times,serif" font-size="14.00">从应到学生列表中取出一个学生信息</text>
</g>
<!-- c4 -->
<g id="node20" class="node"><title>c4</title>
<path fill="beige" stroke="black" d="M556.194,-199.851C556.194,-199.851 480.902,-186.149 480.902,-186.149 474.999,-185.074 474.999,-182.926 480.902,-181.851 480.902,-181.851 556.194,-168.149 556.194,-168.149 562.097,-167.074 573.903,-167.074 579.806,-168.149 579.806,-168.149 655.098,-181.851 655.098,-181.851 661.001,-182.926 661.001,-185.074 655.098,-186.149 655.098,-186.149 579.806,-199.851 579.806,-199.851 573.903,-200.926 562.097,-200.926 556.194,-199.851"/>
<text text-anchor="middle" x="568" y="-180.3" font-family="Times,serif" font-size="14.00">学生是高中生?</text>
</g>
<!-- s_c3_n_1&#45;&gt;c4 -->
<g id="edge18" class="edge"><title>s_c3_n_1&#45;&gt;c4</title>
<path fill="none" stroke="black" d="M568,-239.937C568,-231.807 568,-221.876 568,-212.705"/>
<polygon fill="black" stroke="black" points="571.5,-212.441 568,-202.441 564.5,-212.441 571.5,-212.441"/>
</g>
<!-- s_c4_y_1 -->
<g id="node14" class="node"><title>s_c4_y_1</title>
<path fill="bisque" stroke="black" d="M656.25,-114C656.25,-114 457.75,-114 457.75,-114 451.75,-114 445.75,-108 445.75,-102 445.75,-102 445.75,-88 445.75,-88 445.75,-82 451.75,-76 457.75,-76 457.75,-76 656.25,-76 656.25,-76 662.25,-76 668.25,-82 668.25,-88 668.25,-88 668.25,-102 668.25,-102 668.25,-108 662.25,-114 656.25,-114"/>
<text text-anchor="middle" x="557" y="-98.8" font-family="Times,serif" font-size="14.00">从该学生得到的收入=</text>
<text text-anchor="middle" x="557" y="-83.8" font-family="Times,serif" font-size="14.00">该学生这次上课的学费x提成比例</text>
</g>
<!-- s_c4_after_1 -->
<g id="node16" class="node"><title>s_c4_after_1</title>
<path fill="bisque" stroke="black" d="M624.25,-38C624.25,-38 489.75,-38 489.75,-38 483.75,-38 477.75,-32 477.75,-26 477.75,-26 477.75,-12 477.75,-12 477.75,-6 483.75,-0 489.75,-0 489.75,-0 624.25,-0 624.25,-0 630.25,-0 636.25,-6 636.25,-12 636.25,-12 636.25,-26 636.25,-26 636.25,-32 630.25,-38 624.25,-38"/>
<text text-anchor="middle" x="557" y="-22.8" font-family="Times,serif" font-size="14.00">将从该学生得到的收入</text>
<text text-anchor="middle" x="557" y="-7.8" font-family="Times,serif" font-size="14.00">计入这次上课的课时费</text>
</g>
<!-- s_c4_y_1&#45;&gt;s_c4_after_1 -->
<g id="edge21" class="edge"><title>s_c4_y_1&#45;&gt;s_c4_after_1</title>
<path fill="none" stroke="black" d="M557,-75.7079C557,-67.4635 557,-57.5376 557,-48.3622"/>
<polygon fill="black" stroke="black" points="560.5,-48.0817 557,-38.0817 553.5,-48.0818 560.5,-48.0817"/>
</g>
<!-- s_c4_n_1 -->
<g id="node15" class="node"><title>s_c4_n_1</title>
<path fill="bisque" stroke="black" d="M899,-113C899,-113 699,-113 699,-113 693,-113 687,-107 687,-101 687,-101 687,-89 687,-89 687,-83 693,-77 699,-77 699,-77 899,-77 899,-77 905,-77 911,-83 911,-89 911,-89 911,-101 911,-101 911,-107 905,-113 899,-113"/>
<text text-anchor="middle" x="799" y="-91.3" font-family="Times,serif" font-size="14.00">从该学生得到的收入=一个固定值</text>
</g>
<!-- s_c4_n_1&#45;&gt;s_c4_after_1 -->
<g id="edge22" class="edge"><title>s_c4_n_1&#45;&gt;s_c4_after_1</title>
<path fill="none" stroke="black" d="M743.176,-76.93C708.195,-66.2333 662.855,-52.3689 625.677,-41.0004"/>
<polygon fill="black" stroke="black" points="626.505,-37.5937 615.919,-38.0165 624.458,-44.2878 626.505,-37.5937"/>
</g>
<!-- s_c4_after_1&#45;&gt;c3 -->
<g id="edge23" class="edge"><title>s_c4_after_1&#45;&gt;c3</title>
<path fill="none" stroke="black" d="M477.592,-33.4416C445.993,-43.7692 417,-61.9718 417,-94 417,-259 417,-259 417,-259 417,-278.596 417,-300.704 417,-317.598"/>
<polygon fill="black" stroke="black" points="413.5,-317.867 417,-327.867 420.5,-317.867 413.5,-317.867"/>
</g>
<!-- c1&#45;&gt;s_c1_y_1 -->
<g id="edge5" class="edge"><title>c1&#45;&gt;s_c1_y_1</title>
<path fill="none" stroke="black" d="M192.845,-837.183C175.517,-823.996 149.08,-803.875 128.515,-788.224"/>
<polygon fill="black" stroke="black" points="130.466,-785.31 120.388,-782.039 126.226,-790.88 130.466,-785.31"/>
<text text-anchor="middle" x="172.5" y="-804.3" font-family="Times,serif" font-size="14.00">是</text>
</g>
<!-- c1&#45;&gt;s_c1_n_1 -->
<g id="edge6" class="edge"><title>c1&#45;&gt;s_c1_n_1</title>
<path fill="none" stroke="black" d="M229.477,-837.183C247.111,-823.996 274.016,-803.875 294.945,-788.224"/>
<polygon fill="black" stroke="black" points="297.303,-790.831 303.215,-782.039 293.111,-785.225 297.303,-790.831"/>
<text text-anchor="middle" x="286.5" y="-804.3" font-family="Times,serif" font-size="14.00">否</text>
</g>
<!-- c2&#45;&gt;s_c2_y_1 -->
<g id="edge9" class="edge"><title>c2&#45;&gt;s_c2_y_1</title>
<path fill="none" stroke="black" d="M223.81,-673.483C203.344,-649.405 163.748,-602.821 139.224,-573.97"/>
<polygon fill="black" stroke="black" points="141.879,-571.688 132.735,-566.336 136.545,-576.222 141.879,-571.688"/>
<text text-anchor="middle" x="214.5" y="-642.3" font-family="Times,serif" font-size="14.00">是</text>
</g>
<!-- c2&#45;&gt;s_c2_n_1 -->
<g id="edge10" class="edge"><title>c2&#45;&gt;s_c2_n_1</title>
<path fill="none" stroke="black" d="M263.877,-674.991C289.946,-661.404 329.883,-640.588 360.12,-624.828"/>
<polygon fill="black" stroke="black" points="361.916,-627.839 369.166,-620.113 358.681,-621.632 361.916,-627.839"/>
<text text-anchor="middle" x="342.5" y="-642.3" font-family="Times,serif" font-size="14.00">否</text>
</g>
<!-- c3&#45;&gt;s_c3_y_1 -->
<g id="edge15" class="edge"><title>c3&#45;&gt;s_c3_y_1</title>
<path fill="none" stroke="black" d="M390.123,-330.991C364.054,-317.404 324.117,-296.588 293.88,-280.828"/>
<polygon fill="black" stroke="black" points="295.319,-277.632 284.834,-276.113 292.084,-283.839 295.319,-277.632"/>
<text text-anchor="middle" x="357.5" y="-298.3" font-family="Times,serif" font-size="14.00">是</text>
</g>
<!-- c3&#45;&gt;s_c3_n_1 -->
<g id="edge16" class="edge"><title>c3&#45;&gt;s_c3_n_1</title>
<path fill="none" stroke="black" d="M441.935,-330.799C465.641,-317.297 501.657,-296.785 529.131,-281.137"/>
<polygon fill="black" stroke="black" points="531.134,-284.025 538.091,-276.034 527.669,-277.942 531.134,-284.025"/>
<text text-anchor="middle" x="513.5" y="-298.3" font-family="Times,serif" font-size="14.00">否</text>
</g>
<!-- c4&#45;&gt;s_c4_y_1 -->
<g id="edge19" class="edge"><title>c4&#45;&gt;s_c4_y_1</title>
<path fill="none" stroke="black" d="M565.879,-166.226C564.377,-154.343 562.325,-138.115 560.572,-124.253"/>
<polygon fill="black" stroke="black" points="564.031,-123.707 559.304,-114.225 557.086,-124.585 564.031,-123.707"/>
<text text-anchor="middle" x="570.5" y="-136.3" font-family="Times,serif" font-size="14.00">是</text>
</g>
<!-- c4&#45;&gt;s_c4_n_1 -->
<g id="edge20" class="edge"><title>c4&#45;&gt;s_c4_n_1</title>
<path fill="none" stroke="black" d="M598.675,-171.447C635.684,-157.509 698.588,-133.818 744.046,-116.697"/>
<polygon fill="black" stroke="black" points="745.342,-119.949 753.466,-113.149 742.874,-113.398 745.342,-119.949"/>
<text text-anchor="middle" x="704.5" y="-136.3" font-family="Times,serif" font-size="14.00">否</text>
</g>
</g>
</svg>
