<?xml version="1.0" encoding="UTF-8" standalone="no"?>
<!DOCTYPE svg PUBLIC "-//W3C//DTD SVG 1.1//EN"
 "http://www.w3.org/Graphics/SVG/1.1/DTD/svg11.dtd">
<!-- Generated by graphviz version 2.30.1 (20180420.1509)
 -->
<!-- Title: %3 Pages: 1 -->
<svg width="1340pt" height="923pt"
 viewBox="0.00 0.00 1340.00 923.00" xmlns="http://www.w3.org/2000/svg" xmlns:xlink="http://www.w3.org/1999/xlink">
<g id="graph0" class="graph" transform="scale(1 1) rotate(0) translate(4 919)">
<title>%3</title>
<polygon fill="white" stroke="white" points="-4,5 -4,-919 1337,-919 1337,5 -4,5"/>
<g id="clust1" class="cluster"><title>cluster1</title>
<polygon fill="aliceblue" stroke="aliceblue" points="315,-471 315,-907 1312,-907 1312,-471 315,-471"/>
<text text-anchor="middle" x="813.5" y="-891.8" font-family="Times,serif" font-size="14.00">计算这次上课的课时费</text>
</g>
<!-- start -->
<g id="node1" class="node"><title>start</title>
<path fill="aquamarine" stroke="black" d="M163,-680C163,-680 133,-680 133,-680 127,-680 121,-674 121,-668 121,-668 121,-656 121,-656 121,-650 127,-644 133,-644 133,-644 163,-644 163,-644 169,-644 175,-650 175,-656 175,-656 175,-668 175,-668 175,-674 169,-680 163,-680"/>
<text text-anchor="middle" x="148" y="-658.3" font-family="Times,serif" font-size="14.00">开始</text>
</g>
<!-- s1 -->
<g id="node3" class="node"><title>s1</title>
<path fill="bisque" stroke="black" d="M284,-592C284,-592 12,-592 12,-592 6,-592 0,-586 0,-580 0,-580 0,-566 0,-566 0,-560 6,-554 12,-554 12,-554 284,-554 284,-554 290,-554 296,-560 296,-566 296,-566 296,-580 296,-580 296,-586 290,-592 284,-592"/>
<text text-anchor="middle" x="148" y="-576.8" font-family="Times,serif" font-size="14.00">列出该班级中该教师应上课的上课情况(按次)</text>
<text text-anchor="middle" x="148" y="-561.8" font-family="Times,serif" font-size="14.00">(教师出现在一次课的应上课教师列表中)</text>
</g>
<!-- start&#45;&gt;s1 -->
<g id="edge16" class="edge"><title>start&#45;&gt;s1</title>
<path fill="none" stroke="black" d="M148,-643.812C148,-632.011 148,-616.072 148,-602.404"/>
<polygon fill="black" stroke="black" points="151.5,-602.051 148,-592.051 144.5,-602.051 151.5,-602.051"/>
</g>
<!-- end -->
<g id="node2" class="node"><title>end</title>
<path fill="aquamarine" stroke="black" d="M455,-36C455,-36 425,-36 425,-36 419,-36 413,-30 413,-24 413,-24 413,-12 413,-12 413,-6 419,-0 425,-0 425,-0 455,-0 455,-0 461,-0 467,-6 467,-12 467,-12 467,-24 467,-24 467,-30 461,-36 455,-36"/>
<text text-anchor="middle" x="440" y="-14.3" font-family="Times,serif" font-size="14.00">结束</text>
</g>
<!-- s2 -->
<g id="node4" class="node"><title>s2</title>
<path fill="bisque" stroke="black" d="M244,-516C244,-516 52,-516 52,-516 46,-516 40,-510 40,-504 40,-504 40,-490 40,-490 40,-484 46,-478 52,-478 52,-478 244,-478 244,-478 250,-478 256,-484 256,-490 256,-490 256,-504 256,-504 256,-510 250,-516 244,-516"/>
<text text-anchor="middle" x="148" y="-500.8" font-family="Times,serif" font-size="14.00">选择需要计算课时费的上课情况</text>
<text text-anchor="middle" x="148" y="-485.8" font-family="Times,serif" font-size="14.00">生成上课情况列表(按次)</text>
</g>
<!-- s1&#45;&gt;s2 -->
<g id="edge17" class="edge"><title>s1&#45;&gt;s2</title>
<path fill="none" stroke="black" d="M148,-553.708C148,-545.464 148,-535.538 148,-526.362"/>
<polygon fill="black" stroke="black" points="151.5,-526.082 148,-516.082 144.5,-526.082 151.5,-526.082"/>
</g>
<!-- s3 -->
<g id="node5" class="node"><title>s3</title>
<path fill="bisque" stroke="black" d="M251,-439.5C251,-439.5 45,-439.5 45,-439.5 39,-439.5 33,-433.5 33,-427.5 33,-427.5 33,-398.5 33,-398.5 33,-392.5 39,-386.5 45,-386.5 45,-386.5 251,-386.5 251,-386.5 257,-386.5 263,-392.5 263,-398.5 263,-398.5 263,-427.5 263,-427.5 263,-433.5 257,-439.5 251,-439.5"/>
<text text-anchor="middle" x="148" y="-424.3" font-family="Times,serif" font-size="14.00">初始化该班级的课时费=0</text>
<text text-anchor="middle" x="148" y="-409.3" font-family="Times,serif" font-size="14.00">上课次数=0</text>
<text text-anchor="middle" x="148" y="-394.3" font-family="Times,serif" font-size="14.00">初始化班级课次对应的课时费报表</text>
</g>
<!-- s2&#45;&gt;s3 -->
<g id="edge18" class="edge"><title>s2&#45;&gt;s3</title>
<path fill="none" stroke="black" d="M148,-477.802C148,-469.555 148,-459.503 148,-449.841"/>
<polygon fill="black" stroke="black" points="151.5,-449.611 148,-439.612 144.5,-449.612 151.5,-449.611"/>
</g>
<!-- s4 -->
<g id="node6" class="node"><title>s4</title>
<path fill="bisque" stroke="black" d="M283.25,-348C283.25,-348 12.75,-348 12.75,-348 6.75,-348 0.75,-342 0.75,-336 0.75,-336 0.75,-322 0.75,-322 0.75,-316 6.75,-310 12.75,-310 12.75,-310 283.25,-310 283.25,-310 289.25,-310 295.25,-316 295.25,-322 295.25,-322 295.25,-336 295.25,-336 295.25,-342 289.25,-348 283.25,-348"/>
<text text-anchor="middle" x="148" y="-332.8" font-family="Times,serif" font-size="14.00">读取课程信息中的学生单价,超上限学生单价,</text>
<text text-anchor="middle" x="148" y="-317.8" font-family="Times,serif" font-size="14.00">起算人数,下限人数,上限人数</text>
</g>
<!-- s3&#45;&gt;s4 -->
<g id="edge19" class="edge"><title>s3&#45;&gt;s4</title>
<path fill="none" stroke="black" d="M148,-386.055C148,-377.219 148,-367.3 148,-358.29"/>
<polygon fill="black" stroke="black" points="151.5,-358.249 148,-348.249 144.5,-358.249 151.5,-358.249"/>
</g>
<!-- c1 -->
<g id="node12" class="node"><title>c1</title>
<path fill="beige" stroke="black" d="M428.076,-270.653C428.076,-270.653 292.524,-255.347 292.524,-255.347 286.562,-254.673 286.562,-253.327 292.524,-252.653 292.524,-252.653 428.076,-237.347 428.076,-237.347 434.038,-236.673 445.962,-236.673 451.924,-237.347 451.924,-237.347 587.476,-252.653 587.476,-252.653 593.438,-253.327 593.438,-254.673 587.476,-255.347 587.476,-255.347 451.924,-270.653 451.924,-270.653 445.962,-271.327 434.038,-271.327 428.076,-270.653"/>
<text text-anchor="middle" x="440" y="-250.3" font-family="Times,serif" font-size="14.00">上课情况列表(按次)为空?</text>
</g>
<!-- s4&#45;&gt;c1 -->
<g id="edge20" class="edge"><title>s4&#45;&gt;c1</title>
<path fill="none" stroke="black" d="M220.18,-309.955C270.372,-297.407 336.359,-280.91 382.894,-269.277"/>
<polygon fill="black" stroke="black" points="383.956,-272.619 392.809,-266.798 382.259,-265.828 383.956,-272.619"/>
</g>
<!-- s_c1_y1 -->
<g id="node7" class="node"><title>s_c1_y1</title>
<path fill="bisque" stroke="black" d="M500.25,-184C500.25,-184 379.75,-184 379.75,-184 373.75,-184 367.75,-178 367.75,-172 367.75,-172 367.75,-160 367.75,-160 367.75,-154 373.75,-148 379.75,-148 379.75,-148 500.25,-148 500.25,-148 506.25,-148 512.25,-154 512.25,-160 512.25,-160 512.25,-172 512.25,-172 512.25,-178 506.25,-184 500.25,-184"/>
<text text-anchor="middle" x="440" y="-162.3" font-family="Times,serif" font-size="14.00">输出该班级的课时费</text>
</g>
<!-- s_c1_y2 -->
<g id="node8" class="node"><title>s_c1_y2</title>
<path fill="bisque" stroke="black" d="M564.25,-110C564.25,-110 315.75,-110 315.75,-110 309.75,-110 303.75,-104 303.75,-98 303.75,-98 303.75,-86 303.75,-86 303.75,-80 309.75,-74 315.75,-74 315.75,-74 564.25,-74 564.25,-74 570.25,-74 576.25,-80 576.25,-86 576.25,-86 576.25,-98 576.25,-98 576.25,-104 570.25,-110 564.25,-110"/>
<text text-anchor="middle" x="440" y="-88.3" font-family="Times,serif" font-size="14.00">输出该班级的班级课次对应的课时费报表</text>
</g>
<!-- s_c1_y1&#45;&gt;s_c1_y2 -->
<g id="edge23" class="edge"><title>s_c1_y1&#45;&gt;s_c1_y2</title>
<path fill="none" stroke="black" d="M440,-147.937C440,-139.807 440,-129.876 440,-120.705"/>
<polygon fill="black" stroke="black" points="443.5,-120.441 440,-110.441 436.5,-120.441 443.5,-120.441"/>
</g>
<!-- s_c1_y2&#45;&gt;end -->
<g id="edge24" class="edge"><title>s_c1_y2&#45;&gt;end</title>
<path fill="none" stroke="black" d="M440,-73.937C440,-65.8072 440,-55.8761 440,-46.7047"/>
<polygon fill="black" stroke="black" points="443.5,-46.4406 440,-36.4407 436.5,-46.4407 443.5,-46.4406"/>
</g>
<!-- s_c1_n1 -->
<g id="node9" class="node"><title>s_c1_n1</title>
<path fill="bisque" stroke="black" d="M1102.25,-184C1102.25,-184 881.75,-184 881.75,-184 875.75,-184 869.75,-178 869.75,-172 869.75,-172 869.75,-160 869.75,-160 869.75,-154 875.75,-148 881.75,-148 881.75,-148 1102.25,-148 1102.25,-148 1108.25,-148 1114.25,-154 1114.25,-160 1114.25,-160 1114.25,-172 1114.25,-172 1114.25,-178 1108.25,-184 1102.25,-184"/>
<text text-anchor="middle" x="992" y="-162.3" font-family="Times,serif" font-size="14.00">从上课情况列表中取出一次上课情况</text>
</g>
<!-- sub1_s1 -->
<g id="node13" class="node"><title>sub1_s1</title>
<path fill="bisque" stroke="black" d="M1202.25,-768C1202.25,-768 981.75,-768 981.75,-768 975.75,-768 969.75,-762 969.75,-756 969.75,-756 969.75,-744 969.75,-744 969.75,-738 975.75,-732 981.75,-732 981.75,-732 1202.25,-732 1202.25,-732 1208.25,-732 1214.25,-738 1214.25,-744 1214.25,-744 1214.25,-756 1214.25,-756 1214.25,-762 1208.25,-768 1202.25,-768"/>
<text text-anchor="middle" x="1092" y="-746.3" font-family="Times,serif" font-size="14.00">读取这次上课情况中的应到学生人数</text>
</g>
<!-- s_c1_n1&#45;&gt;sub1_s1 -->
<g id="edge25" class="edge"><title>s_c1_n1&#45;&gt;sub1_s1</title>
<path fill="none" stroke="black" d="M1114.27,-175.088C1211.74,-185.013 1332,-206.65 1332,-253 1332,-663 1332,-663 1332,-663 1332,-692.987 1264.76,-715.323 1201.46,-729.707"/>
<polygon fill="black" stroke="black" points="1200.36,-726.367 1191.35,-731.947 1201.87,-733.202 1200.36,-726.367"/>
</g>
<!-- s_c1_n2 -->
<g id="node10" class="node"><title>s_c1_n2</title>
<path fill="bisque" stroke="black" d="M562.25,-431C562.25,-431 313.75,-431 313.75,-431 307.75,-431 301.75,-425 301.75,-419 301.75,-419 301.75,-407 301.75,-407 301.75,-401 307.75,-395 313.75,-395 313.75,-395 562.25,-395 562.25,-395 568.25,-395 574.25,-401 574.25,-407 574.25,-407 574.25,-419 574.25,-419 574.25,-425 568.25,-431 562.25,-431"/>
<text text-anchor="middle" x="438" y="-409.3" font-family="Times,serif" font-size="14.00">将这次上课的课时费计入该班级的课时费</text>
</g>
<!-- s_c1_n3 -->
<g id="node11" class="node"><title>s_c1_n3</title>
<path fill="bisque" stroke="black" d="M554,-348C554,-348 326,-348 326,-348 320,-348 314,-342 314,-336 314,-336 314,-322 314,-322 314,-316 320,-310 326,-310 326,-310 554,-310 554,-310 560,-310 566,-316 566,-322 566,-322 566,-336 566,-336 566,-342 560,-348 554,-348"/>
<text text-anchor="middle" x="440" y="-332.8" font-family="Times,serif" font-size="14.00">新增这次上课的班级,课次,课时费记录</text>
<text text-anchor="middle" x="440" y="-317.8" font-family="Times,serif" font-size="14.00">插入班级课次对应的课时费报表</text>
</g>
<!-- s_c1_n2&#45;&gt;s_c1_n3 -->
<g id="edge27" class="edge"><title>s_c1_n2&#45;&gt;s_c1_n3</title>
<path fill="none" stroke="black" d="M438.424,-394.61C438.681,-384.065 439.016,-370.36 439.31,-358.287"/>
<polygon fill="black" stroke="black" points="442.811,-358.3 439.556,-348.218 435.813,-358.129 442.811,-358.3"/>
</g>
<!-- s_c1_n3&#45;&gt;c1 -->
<g id="edge28" class="edge"><title>s_c1_n3&#45;&gt;c1</title>
<path fill="none" stroke="black" d="M440,-309.955C440,-301.701 440,-291.738 440,-282.574"/>
<polygon fill="black" stroke="black" points="443.5,-282.335 440,-272.335 436.5,-282.335 443.5,-282.335"/>
</g>
<!-- c1&#45;&gt;s_c1_y1 -->
<g id="edge21" class="edge"><title>c1&#45;&gt;s_c1_y1</title>
<path fill="none" stroke="black" d="M440,-235.597C440,-223.746 440,-207.817 440,-194.292"/>
<polygon fill="black" stroke="black" points="443.5,-194.084 440,-184.084 436.5,-194.084 443.5,-194.084"/>
<text text-anchor="middle" x="447.5" y="-206.3" font-family="Times,serif" font-size="14.00">是</text>
</g>
<!-- c1&#45;&gt;s_c1_n1 -->
<g id="edge22" class="edge"><title>c1&#45;&gt;s_c1_n1</title>
<path fill="none" stroke="black" d="M503.321,-243.135C593.142,-229.141 759.215,-203.267 872.595,-185.603"/>
<polygon fill="black" stroke="black" points="873.371,-189.024 882.713,-184.027 872.294,-182.108 873.371,-189.024"/>
<text text-anchor="middle" x="773.5" y="-206.3" font-family="Times,serif" font-size="14.00">否</text>
</g>
<!-- sub1_s2 -->
<g id="node14" class="node"><title>sub1_s2</title>
<path fill="bisque" stroke="black" d="M919,-680C919,-680 727,-680 727,-680 721,-680 715,-674 715,-668 715,-668 715,-656 715,-656 715,-650 721,-644 727,-644 727,-644 919,-644 919,-644 925,-644 931,-650 931,-656 931,-656 931,-668 931,-668 931,-674 925,-680 919,-680"/>
<text text-anchor="middle" x="823" y="-658.3" font-family="Times,serif" font-size="14.00">读取该次上课的应上课教师数量</text>
</g>
<!-- sub1_s1&#45;&gt;sub1_s2 -->
<g id="edge1" class="edge"><title>sub1_s1&#45;&gt;sub1_s2</title>
<path fill="none" stroke="black" d="M1038.53,-731.906C994.618,-717.867 932.329,-697.953 885.998,-683.141"/>
<polygon fill="black" stroke="black" points="886.957,-679.773 876.366,-680.061 884.825,-686.44 886.957,-679.773"/>
</g>
<!-- sub1_s3_a -->
<g id="node15" class="node"><title>sub1_s3_a</title>
<path fill="bisque" stroke="black" d="M949.25,-591C949.25,-591 820.75,-591 820.75,-591 814.75,-591 808.75,-585 808.75,-579 808.75,-579 808.75,-567 808.75,-567 808.75,-561 814.75,-555 820.75,-555 820.75,-555 949.25,-555 949.25,-555 955.25,-555 961.25,-561 961.25,-567 961.25,-567 961.25,-579 961.25,-579 961.25,-585 955.25,-591 949.25,-591"/>
<text text-anchor="middle" x="885" y="-569.3" font-family="Times,serif" font-size="14.00">优化后人数=起算人数</text>
</g>
<!-- sub1_s2&#45;&gt;sub1_s3_a -->
<g id="edge2" class="edge"><title>sub1_s2&#45;&gt;sub1_s3_a</title>
<path fill="none" stroke="black" d="M714.808,-657.807C665.659,-652.441 623.724,-639.641 650,-610 670.525,-586.846 752.886,-595.827 798.65,-591.592"/>
<polygon fill="black" stroke="black" points="799.145,-595.057 808.632,-590.34 798.274,-588.112 799.145,-595.057"/>
<text text-anchor="middle" x="725.5" y="-614.3" font-family="Times,serif" font-size="14.00">应到学生人数&lt;起算人数</text>
</g>
<!-- sub1_s3_b -->
<g id="node16" class="node"><title>sub1_s3_b</title>
<path fill="bisque" stroke="black" d="M1120.25,-591C1120.25,-591 991.75,-591 991.75,-591 985.75,-591 979.75,-585 979.75,-579 979.75,-579 979.75,-567 979.75,-567 979.75,-561 985.75,-555 991.75,-555 991.75,-555 1120.25,-555 1120.25,-555 1126.25,-555 1132.25,-561 1132.25,-567 1132.25,-567 1132.25,-579 1132.25,-579 1132.25,-585 1126.25,-591 1120.25,-591"/>
<text text-anchor="middle" x="1056" y="-569.3" font-family="Times,serif" font-size="14.00">优化后人数=下限人数</text>
</g>
<!-- sub1_s2&#45;&gt;sub1_s3_b -->
<g id="edge3" class="edge"><title>sub1_s2&#45;&gt;sub1_s3_b</title>
<path fill="none" stroke="black" d="M818.136,-643.783C816.156,-632.778 815.934,-618.944 824,-610 844.269,-587.526 924.502,-595.825 969.529,-591.608"/>
<polygon fill="black" stroke="black" points="970.148,-595.058 979.63,-590.33 969.27,-588.113 970.148,-595.058"/>
<text text-anchor="middle" x="936.5" y="-614.3" font-family="Times,serif" font-size="14.00">起算人数&lt;=应到学生人数&lt;下限人数</text>
</g>
<!-- sub1_s3_c -->
<g id="node17" class="node"><title>sub1_s3_c</title>
<path fill="bisque" stroke="black" d="M1291.25,-591C1291.25,-591 1162.75,-591 1162.75,-591 1156.75,-591 1150.75,-585 1150.75,-579 1150.75,-579 1150.75,-567 1150.75,-567 1150.75,-561 1156.75,-555 1162.75,-555 1162.75,-555 1291.25,-555 1291.25,-555 1297.25,-555 1303.25,-561 1303.25,-567 1303.25,-567 1303.25,-579 1303.25,-579 1303.25,-585 1297.25,-591 1291.25,-591"/>
<text text-anchor="middle" x="1227" y="-569.3" font-family="Times,serif" font-size="14.00">优化后人数=应到人数</text>
</g>
<!-- sub1_s2&#45;&gt;sub1_s3_c -->
<g id="edge4" class="edge"><title>sub1_s2&#45;&gt;sub1_s3_c</title>
<path fill="none" stroke="black" d="M931.195,-650.164C968.947,-644.833 1011.29,-637.087 1049,-626 1065.8,-621.061 1068.45,-615.728 1085,-610 1102.72,-603.865 1122.02,-598.277 1140.51,-593.43"/>
<polygon fill="black" stroke="black" points="1141.58,-596.77 1150.39,-590.889 1139.83,-589.99 1141.58,-596.77"/>
<text text-anchor="middle" x="1201.5" y="-614.3" font-family="Times,serif" font-size="14.00">下限人数&lt;=应到学生人数&lt;=上限人数</text>
</g>
<!-- sub1_s3_d -->
<g id="node18" class="node"><title>sub1_s3_d</title>
<path fill="bisque" stroke="black" d="M778.25,-592C778.25,-592 587.75,-592 587.75,-592 581.75,-592 575.75,-586 575.75,-580 575.75,-580 575.75,-566 575.75,-566 575.75,-560 581.75,-554 587.75,-554 587.75,-554 778.25,-554 778.25,-554 784.25,-554 790.25,-560 790.25,-566 790.25,-566 790.25,-580 790.25,-580 790.25,-586 784.25,-592 778.25,-592"/>
<text text-anchor="middle" x="683" y="-576.8" font-family="Times,serif" font-size="14.00">优化后人数=上限人数,</text>
<text text-anchor="middle" x="683" y="-561.8" font-family="Times,serif" font-size="14.00">超上限人数=应到人数&#45;上限人数</text>
</g>
<!-- sub1_s2&#45;&gt;sub1_s3_d -->
<g id="edge5" class="edge"><title>sub1_s2&#45;&gt;sub1_s3_d</title>
<path fill="none" stroke="black" d="M714.896,-653.171C619.939,-645.758 495.682,-634.526 488,-626 483.24,-620.717 483.451,-615.466 488,-610 490.969,-606.433 526.05,-599.481 565.658,-592.63"/>
<polygon fill="black" stroke="black" points="566.266,-596.077 575.532,-590.939 565.085,-589.177 566.266,-596.077"/>
<text text-anchor="middle" x="563.5" y="-614.3" font-family="Times,serif" font-size="14.00">应到学生人数&gt;上限人数</text>
</g>
<!-- sub1_s4 -->
<g id="node19" class="node"><title>sub1_s4</title>
<path fill="bisque" stroke="black" d="M974.25,-515C974.25,-515 795.75,-515 795.75,-515 789.75,-515 783.75,-509 783.75,-503 783.75,-503 783.75,-491 783.75,-491 783.75,-485 789.75,-479 795.75,-479 795.75,-479 974.25,-479 974.25,-479 980.25,-479 986.25,-485 986.25,-491 986.25,-491 986.25,-503 986.25,-503 986.25,-509 980.25,-515 974.25,-515"/>
<text text-anchor="middle" x="885" y="-493.3" font-family="Times,serif" font-size="14.00">课时费=学生单价x优化后人数</text>
</g>
<!-- sub1_s3_a&#45;&gt;sub1_s4 -->
<g id="edge6" class="edge"><title>sub1_s3_a&#45;&gt;sub1_s4</title>
<path fill="none" stroke="black" d="M885,-554.837C885,-546.058 885,-535.163 885,-525.267"/>
<polygon fill="black" stroke="black" points="888.5,-525.07 885,-515.07 881.5,-525.07 888.5,-525.07"/>
</g>
<!-- sub1_s3_b&#45;&gt;sub1_s4 -->
<g id="edge7" class="edge"><title>sub1_s3_b&#45;&gt;sub1_s4</title>
<path fill="none" stroke="black" d="M1016.34,-554.837C991.735,-544.19 959.941,-530.431 933.798,-519.117"/>
<polygon fill="black" stroke="black" points="935.013,-515.829 924.446,-515.07 932.233,-522.254 935.013,-515.829"/>
</g>
<!-- sub1_s3_c&#45;&gt;sub1_s4 -->
<g id="edge8" class="edge"><title>sub1_s3_c&#45;&gt;sub1_s4</title>
<path fill="none" stroke="black" d="M1150.67,-555.485C1098.32,-544.157 1028.67,-529.087 973.824,-517.219"/>
<polygon fill="black" stroke="black" points="974.276,-513.736 963.762,-515.042 972.796,-520.578 974.276,-513.736"/>
</g>
<!-- sub1_s3_d&#45;&gt;sub1_s4 -->
<g id="edge9" class="edge"><title>sub1_s3_d&#45;&gt;sub1_s4</title>
<path fill="none" stroke="black" d="M732.156,-553.992C761.346,-543.299 798.462,-529.702 828.809,-518.585"/>
<polygon fill="black" stroke="black" points="830.219,-521.796 838.405,-515.069 827.811,-515.223 830.219,-521.796"/>
</g>
<!-- sub1_c2 -->
<g id="node25" class="node"><title>sub1_c2</title>
<path fill="beige" stroke="black" d="M590.189,-873.88C590.189,-873.88 513.529,-860.12 513.529,-860.12 507.623,-859.06 507.623,-856.94 513.529,-855.88 513.529,-855.88 590.189,-842.12 590.189,-842.12 596.094,-841.06 607.906,-841.06 613.811,-842.12 613.811,-842.12 690.471,-855.88 690.471,-855.88 696.377,-856.94 696.377,-859.06 690.471,-860.12 690.471,-860.12 613.811,-873.88 613.811,-873.88 607.906,-874.94 596.094,-874.94 590.189,-873.88"/>
<text text-anchor="middle" x="602" y="-854.3" font-family="Times,serif" font-size="14.00">超上限人数&gt;0?</text>
</g>
<!-- sub1_s4&#45;&gt;sub1_c2 -->
<g id="edge10" class="edge"><title>sub1_s4&#45;&gt;sub1_c2</title>
<path fill="none" stroke="black" d="M783.742,-506.073C703.738,-514.198 600.075,-529.153 566,-554 550.579,-565.245 560.861,-580.026 546,-592 522.658,-610.808 499.149,-586.142 481,-610 455.615,-643.371 534.065,-620.815 569,-644 593.241,-660.088 597.235,-670.259 606,-698 620.127,-742.709 613.753,-798.062 607.86,-830.268"/>
<polygon fill="black" stroke="black" points="604.391,-829.768 605.91,-840.254 611.261,-831.11 604.391,-829.768"/>
</g>
<!-- sub1_c2_y1 -->
<g id="node20" class="node"><title>sub1_c2_y1</title>
<path fill="bisque" stroke="black" d="M571,-768C571,-768 335,-768 335,-768 329,-768 323,-762 323,-756 323,-756 323,-744 323,-744 323,-738 329,-732 335,-732 335,-732 571,-732 571,-732 577,-732 583,-738 583,-744 583,-744 583,-756 583,-756 583,-762 577,-768 571,-768"/>
<text text-anchor="middle" x="453" y="-746.3" font-family="Times,serif" font-size="14.00">超上限课时费=超上限单价x超上限人数</text>
</g>
<!-- sub1_c2_y2 -->
<g id="node21" class="node"><title>sub1_c2_y2</title>
<path fill="bisque" stroke="black" d="M528,-680C528,-680 348,-680 348,-680 342,-680 336,-674 336,-668 336,-668 336,-656 336,-656 336,-650 342,-644 348,-644 348,-644 528,-644 528,-644 534,-644 540,-650 540,-656 540,-656 540,-668 540,-668 540,-674 534,-680 528,-680"/>
<text text-anchor="middle" x="438" y="-658.3" font-family="Times,serif" font-size="14.00">课时费=课时费+超上限课时费</text>
</g>
<!-- sub1_c2_y1&#45;&gt;sub1_c2_y2 -->
<g id="edge13" class="edge"><title>sub1_c2_y1&#45;&gt;sub1_c2_y2</title>
<path fill="none" stroke="black" d="M449.965,-731.597C447.898,-719.746 445.119,-703.817 442.76,-690.292"/>
<polygon fill="black" stroke="black" points="446.146,-689.334 440.98,-680.084 439.25,-690.537 446.146,-689.334"/>
</g>
<!-- sub1_s5 -->
<g id="node22" class="node"><title>sub1_s5</title>
<path fill="bisque" stroke="black" d="M525,-591C525,-591 335,-591 335,-591 329,-591 323,-585 323,-579 323,-579 323,-567 323,-567 323,-561 329,-555 335,-555 335,-555 525,-555 525,-555 531,-555 537,-561 537,-567 537,-567 537,-579 537,-579 537,-585 531,-591 525,-591"/>
<text text-anchor="middle" x="430" y="-569.3" font-family="Times,serif" font-size="14.00">课时费=课时费/应上课教师数量</text>
</g>
<!-- sub1_c2_y2&#45;&gt;sub1_s5 -->
<g id="edge14" class="edge"><title>sub1_c2_y2&#45;&gt;sub1_s5</title>
<path fill="none" stroke="black" d="M436.419,-643.812C435.302,-631.657 433.781,-615.114 432.499,-601.182"/>
<polygon fill="black" stroke="black" points="435.978,-600.79 431.577,-591.153 429.008,-601.431 435.978,-600.79"/>
</g>
<!-- sub1_s6 -->
<g id="node23" class="node"><title>sub1_s6</title>
<path fill="bisque" stroke="black" d="M503.25,-515C503.25,-515 368.75,-515 368.75,-515 362.75,-515 356.75,-509 356.75,-503 356.75,-503 356.75,-491 356.75,-491 356.75,-485 362.75,-479 368.75,-479 368.75,-479 503.25,-479 503.25,-479 509.25,-479 515.25,-485 515.25,-491 515.25,-491 515.25,-503 515.25,-503 515.25,-509 509.25,-515 503.25,-515"/>
<text text-anchor="middle" x="436" y="-493.3" font-family="Times,serif" font-size="14.00">输出这次上课的课时费</text>
</g>
<!-- sub1_s5&#45;&gt;sub1_s6 -->
<g id="edge15" class="edge"><title>sub1_s5&#45;&gt;sub1_s6</title>
<path fill="none" stroke="black" d="M431.392,-554.837C432.103,-546.058 432.987,-535.163 433.789,-525.267"/>
<polygon fill="black" stroke="black" points="437.296,-525.32 434.616,-515.07 430.319,-524.754 437.296,-525.32"/>
</g>
<!-- sub1_s6&#45;&gt;s_c1_n2 -->
<g id="edge26" class="edge"><title>sub1_s6&#45;&gt;s_c1_n2</title>
<path fill="none" stroke="black" d="M436.424,-478.61C436.688,-467.774 437.034,-453.601 437.334,-441.291"/>
<polygon fill="black" stroke="black" points="440.838,-441.166 437.583,-431.084 433.84,-440.995 440.838,-441.166"/>
</g>
<!-- sub1_c1 -->
<g id="node24" class="node"><title>sub1_c1</title>
<path fill="beige" stroke="black" d="M954.122,-820.295C954.122,-820.295 852.491,-805.705 852.491,-805.705 846.552,-804.853 846.552,-803.147 852.491,-802.295 852.491,-802.295 954.122,-787.705 954.122,-787.705 960.061,-786.853 971.939,-786.853 977.878,-787.705 977.878,-787.705 1079.51,-802.295 1079.51,-802.295 1085.45,-803.147 1085.45,-804.853 1079.51,-805.705 1079.51,-805.705 977.878,-820.295 977.878,-820.295 971.939,-821.147 960.061,-821.147 954.122,-820.295"/>
<text text-anchor="middle" x="966" y="-800.3" font-family="Times,serif" font-size="14.00">该次上课已经结束?</text>
</g>
<!-- sub1_c2&#45;&gt;sub1_c2_y1 -->
<g id="edge11" class="edge"><title>sub1_c2&#45;&gt;sub1_c2_y1</title>
<path fill="none" stroke="black" d="M582.826,-843.359C558.217,-825.852 515.158,-795.219 485.415,-774.061"/>
<polygon fill="black" stroke="black" points="487.205,-771.038 477.027,-768.093 483.147,-776.742 487.205,-771.038"/>
<text text-anchor="middle" x="557.5" y="-800.3" font-family="Times,serif" font-size="14.00">是</text>
</g>
<!-- sub1_c2&#45;&gt;sub1_s5 -->
<g id="edge12" class="edge"><title>sub1_c2&#45;&gt;sub1_s5</title>
<path fill="none" stroke="black" d="M602.622,-840.078C603.078,-815.724 602.288,-769.587 592,-732 580.508,-690.014 583.728,-670.247 549,-644 512.973,-616.772 483.56,-655.067 449,-626 444.804,-622.471 440.575,-611.761 437.175,-600.971"/>
<polygon fill="black" stroke="black" points="440.493,-599.848 434.311,-591.243 433.778,-601.825 440.493,-599.848"/>
<text text-anchor="middle" x="595.5" y="-702.3" font-family="Times,serif" font-size="14.00">否</text>
</g>
</g>
</svg>
