<?xml version="1.0" encoding="UTF-8" standalone="no"?>
<!DOCTYPE svg PUBLIC "-//W3C//DTD SVG 1.1//EN"
 "http://www.w3.org/Graphics/SVG/1.1/DTD/svg11.dtd">
<!-- Generated by graphviz version 2.30.1 (20180420.1509)
 -->
<!-- Title: %3 Pages: 1 -->
<svg width="1135pt" height="885pt"
 viewBox="0.00 0.00 1135.00 885.00" xmlns="http://www.w3.org/2000/svg" xmlns:xlink="http://www.w3.org/1999/xlink">
<g id="graph0" class="graph" transform="scale(1 1) rotate(0) translate(4 881)">
<title>%3</title>
<polygon fill="white" stroke="white" points="-4,5 -4,-881 1132,-881 1132,5 -4,5"/>
<g id="clust1" class="cluster"><title>cluster1</title>
<polygon fill="aliceblue" stroke="aliceblue" points="224,-304 224,-869 1013,-869 1013,-304 224,-304"/>
<text text-anchor="middle" x="618.5" y="-853.8" font-family="Times,serif" font-size="14.00">计算这次上课的课时费</text>
</g>
<!-- start -->
<g id="node1" class="node"><title>start</title>
<path fill="aquamarine" stroke="black" d="M123,-600C123,-600 93,-600 93,-600 87,-600 81,-594 81,-588 81,-588 81,-576 81,-576 81,-570 87,-564 93,-564 93,-564 123,-564 123,-564 129,-564 135,-570 135,-576 135,-576 135,-588 135,-588 135,-594 129,-600 123,-600"/>
<text text-anchor="middle" x="108" y="-578.3" font-family="Times,serif" font-size="14.00">开始</text>
</g>
<!-- s1 -->
<g id="node3" class="node"><title>s1</title>
<path fill="bisque" stroke="black" d="M201.25,-512C201.25,-512 14.75,-512 14.75,-512 8.75,-512 2.75,-506 2.75,-500 2.75,-500 2.75,-488 2.75,-488 2.75,-482 8.75,-476 14.75,-476 14.75,-476 201.25,-476 201.25,-476 207.25,-476 213.25,-482 213.25,-488 213.25,-488 213.25,-500 213.25,-500 213.25,-506 207.25,-512 201.25,-512"/>
<text text-anchor="middle" x="108" y="-490.3" font-family="Times,serif" font-size="14.00">列出该班级所有上课情况(按次)</text>
</g>
<!-- start&#45;&gt;s1 -->
<g id="edge14" class="edge"><title>start&#45;&gt;s1</title>
<path fill="none" stroke="black" d="M108,-563.597C108,-551.746 108,-535.817 108,-522.292"/>
<polygon fill="black" stroke="black" points="111.5,-522.084 108,-512.084 104.5,-522.084 111.5,-522.084"/>
</g>
<!-- end -->
<g id="node2" class="node"><title>end</title>
<path fill="aquamarine" stroke="black" d="M793,-36C793,-36 763,-36 763,-36 757,-36 751,-30 751,-24 751,-24 751,-12 751,-12 751,-6 757,-0 763,-0 763,-0 793,-0 793,-0 799,-0 805,-6 805,-12 805,-12 805,-24 805,-24 805,-30 799,-36 793,-36"/>
<text text-anchor="middle" x="778" y="-14.3" font-family="Times,serif" font-size="14.00">结束</text>
</g>
<!-- s2 -->
<g id="node4" class="node"><title>s2</title>
<path fill="bisque" stroke="black" d="M204,-424C204,-424 12,-424 12,-424 6,-424 0,-418 0,-412 0,-412 0,-398 0,-398 0,-392 6,-386 12,-386 12,-386 204,-386 204,-386 210,-386 216,-392 216,-398 216,-398 216,-412 216,-412 216,-418 210,-424 204,-424"/>
<text text-anchor="middle" x="108" y="-408.8" font-family="Times,serif" font-size="14.00">选择需要计算课时费的上课情况</text>
<text text-anchor="middle" x="108" y="-393.8" font-family="Times,serif" font-size="14.00">生成上课情况列表(按次)</text>
</g>
<!-- s1&#45;&gt;s2 -->
<g id="edge15" class="edge"><title>s1&#45;&gt;s2</title>
<path fill="none" stroke="black" d="M108,-475.812C108,-464.011 108,-448.072 108,-434.404"/>
<polygon fill="black" stroke="black" points="111.5,-434.051 108,-424.051 104.5,-434.051 111.5,-434.051"/>
</g>
<!-- s3 -->
<g id="node5" class="node"><title>s3</title>
<path fill="bisque" stroke="black" d="M194,-348C194,-348 44,-348 44,-348 38,-348 32,-342 32,-336 32,-336 32,-324 32,-324 32,-318 38,-312 44,-312 44,-312 194,-312 194,-312 200,-312 206,-318 206,-324 206,-324 206,-336 206,-336 206,-342 200,-348 194,-348"/>
<text text-anchor="middle" x="119" y="-326.3" font-family="Times,serif" font-size="14.00">初始化该班级的课时费=0</text>
</g>
<!-- s2&#45;&gt;s3 -->
<g id="edge16" class="edge"><title>s2&#45;&gt;s3</title>
<path fill="none" stroke="black" d="M110.719,-385.955C111.976,-377.611 113.497,-367.521 114.89,-358.276"/>
<polygon fill="black" stroke="black" points="118.359,-358.745 116.388,-348.335 111.437,-357.702 118.359,-358.745"/>
</g>
<!-- s4 -->
<g id="node6" class="node"><title>s4</title>
<path fill="bisque" stroke="black" d="M522.25,-274C522.25,-274 251.75,-274 251.75,-274 245.75,-274 239.75,-268 239.75,-262 239.75,-262 239.75,-248 239.75,-248 239.75,-242 245.75,-236 251.75,-236 251.75,-236 522.25,-236 522.25,-236 528.25,-236 534.25,-242 534.25,-248 534.25,-248 534.25,-262 534.25,-262 534.25,-268 528.25,-274 522.25,-274"/>
<text text-anchor="middle" x="387" y="-258.8" font-family="Times,serif" font-size="14.00">读取课程信息中的学生单价,超上限学生单价,</text>
<text text-anchor="middle" x="387" y="-243.8" font-family="Times,serif" font-size="14.00">起算人数,下限人数,上限人数</text>
</g>
<!-- s3&#45;&gt;s4 -->
<g id="edge17" class="edge"><title>s3&#45;&gt;s4</title>
<path fill="none" stroke="black" d="M181.496,-311.977C220.158,-301.446 270.05,-287.856 310.993,-276.703"/>
<polygon fill="black" stroke="black" points="311.929,-280.076 320.657,-274.071 310.089,-273.322 311.929,-280.076"/>
</g>
<!-- c1 -->
<g id="node10" class="node"><title>c1</title>
<path fill="beige" stroke="black" d="M766.076,-196.653C766.076,-196.653 630.524,-181.347 630.524,-181.347 624.562,-180.673 624.562,-179.327 630.524,-178.653 630.524,-178.653 766.076,-163.347 766.076,-163.347 772.038,-162.673 783.962,-162.673 789.924,-163.347 789.924,-163.347 925.476,-178.653 925.476,-178.653 931.438,-179.327 931.438,-180.673 925.476,-181.347 925.476,-181.347 789.924,-196.653 789.924,-196.653 783.962,-197.327 772.038,-197.327 766.076,-196.653"/>
<text text-anchor="middle" x="778" y="-176.3" font-family="Times,serif" font-size="14.00">上课情况列表(按次)为空?</text>
</g>
<!-- s4&#45;&gt;c1 -->
<g id="edge18" class="edge"><title>s4&#45;&gt;c1</title>
<path fill="none" stroke="black" d="M483.652,-235.955C554.344,-222.757 648.437,-205.19 711.005,-193.508"/>
<polygon fill="black" stroke="black" points="711.964,-196.89 721.152,-191.614 710.679,-190.008 711.964,-196.89"/>
</g>
<!-- s_c1_y_1 -->
<g id="node7" class="node"><title>s_c1_y_1</title>
<path fill="bisque" stroke="black" d="M838.25,-110C838.25,-110 717.75,-110 717.75,-110 711.75,-110 705.75,-104 705.75,-98 705.75,-98 705.75,-86 705.75,-86 705.75,-80 711.75,-74 717.75,-74 717.75,-74 838.25,-74 838.25,-74 844.25,-74 850.25,-80 850.25,-86 850.25,-86 850.25,-98 850.25,-98 850.25,-104 844.25,-110 838.25,-110"/>
<text text-anchor="middle" x="778" y="-88.3" font-family="Times,serif" font-size="14.00">输出该班级的课时费</text>
</g>
<!-- s_c1_y_1&#45;&gt;end -->
<g id="edge21" class="edge"><title>s_c1_y_1&#45;&gt;end</title>
<path fill="none" stroke="black" d="M778,-73.937C778,-65.8072 778,-55.8761 778,-46.7047"/>
<polygon fill="black" stroke="black" points="781.5,-46.4406 778,-36.4407 774.5,-46.4407 781.5,-46.4406"/>
</g>
<!-- s_c1_n_1 -->
<g id="node8" class="node"><title>s_c1_n_1</title>
<path fill="bisque" stroke="black" d="M1115.25,-110C1115.25,-110 894.75,-110 894.75,-110 888.75,-110 882.75,-104 882.75,-98 882.75,-98 882.75,-86 882.75,-86 882.75,-80 888.75,-74 894.75,-74 894.75,-74 1115.25,-74 1115.25,-74 1121.25,-74 1127.25,-80 1127.25,-86 1127.25,-86 1127.25,-98 1127.25,-98 1127.25,-104 1121.25,-110 1115.25,-110"/>
<text text-anchor="middle" x="1005" y="-88.3" font-family="Times,serif" font-size="14.00">从上课情况列表中取出一次上课境况</text>
</g>
<!-- sub1_s1 -->
<g id="node11" class="node"><title>sub1_s1</title>
<path fill="bisque" stroke="black" d="M708.25,-838C708.25,-838 487.75,-838 487.75,-838 481.75,-838 475.75,-832 475.75,-826 475.75,-826 475.75,-814 475.75,-814 475.75,-808 481.75,-802 487.75,-802 487.75,-802 708.25,-802 708.25,-802 714.25,-802 720.25,-808 720.25,-814 720.25,-814 720.25,-826 720.25,-826 720.25,-832 714.25,-838 708.25,-838"/>
<text text-anchor="middle" x="598" y="-816.3" font-family="Times,serif" font-size="14.00">读取这次上课情况中的应到学生人数</text>
</g>
<!-- s_c1_n_1&#45;&gt;sub1_s1 -->
<g id="edge22" class="edge"><title>s_c1_n_1&#45;&gt;sub1_s1</title>
<path fill="none" stroke="black" d="M1009.83,-110.305C1014.21,-127.563 1020,-154.902 1020,-179 1020,-732 1020,-732 1020,-732 1020,-756.762 1019.78,-769.109 1000,-784 978.594,-800.112 839.227,-809.466 730.52,-814.385"/>
<polygon fill="black" stroke="black" points="730.267,-810.893 720.433,-814.833 730.578,-817.886 730.267,-810.893"/>
</g>
<!-- s_c1_n_2 -->
<g id="node9" class="node"><title>s_c1_n_2</title>
<path fill="bisque" stroke="black" d="M902.25,-273C902.25,-273 653.75,-273 653.75,-273 647.75,-273 641.75,-267 641.75,-261 641.75,-261 641.75,-249 641.75,-249 641.75,-243 647.75,-237 653.75,-237 653.75,-237 902.25,-237 902.25,-237 908.25,-237 914.25,-243 914.25,-249 914.25,-249 914.25,-261 914.25,-261 914.25,-267 908.25,-273 902.25,-273"/>
<text text-anchor="middle" x="778" y="-251.3" font-family="Times,serif" font-size="14.00">将这次上课的课时费计入该班级的课时费</text>
</g>
<!-- s_c1_n_2&#45;&gt;c1 -->
<g id="edge24" class="edge"><title>s_c1_n_2&#45;&gt;c1</title>
<path fill="none" stroke="black" d="M778,-236.7C778,-228.245 778,-217.869 778,-208.373"/>
<polygon fill="black" stroke="black" points="781.5,-208.176 778,-198.176 774.5,-208.176 781.5,-208.176"/>
</g>
<!-- c1&#45;&gt;s_c1_y_1 -->
<g id="edge19" class="edge"><title>c1&#45;&gt;s_c1_y_1</title>
<path fill="none" stroke="black" d="M778,-161.597C778,-149.746 778,-133.817 778,-120.292"/>
<polygon fill="black" stroke="black" points="781.5,-120.084 778,-110.084 774.5,-120.084 781.5,-120.084"/>
<text text-anchor="middle" x="785.5" y="-132.3" font-family="Times,serif" font-size="14.00">是</text>
</g>
<!-- c1&#45;&gt;s_c1_n_1 -->
<g id="edge20" class="edge"><title>c1&#45;&gt;s_c1_n_1</title>
<path fill="none" stroke="black" d="M812.971,-165.751C849.623,-151.865 907.705,-129.861 950.402,-113.685"/>
<polygon fill="black" stroke="black" points="951.698,-116.936 959.81,-110.121 949.218,-110.39 951.698,-116.936"/>
<text text-anchor="middle" x="919.5" y="-132.3" font-family="Times,serif" font-size="14.00">否</text>
</g>
<!-- sub1_s2_a -->
<g id="node12" class="node"><title>sub1_s2_a</title>
<path fill="bisque" stroke="black" d="M373.25,-749C373.25,-749 244.75,-749 244.75,-749 238.75,-749 232.75,-743 232.75,-737 232.75,-737 232.75,-725 232.75,-725 232.75,-719 238.75,-713 244.75,-713 244.75,-713 373.25,-713 373.25,-713 379.25,-713 385.25,-719 385.25,-725 385.25,-725 385.25,-737 385.25,-737 385.25,-743 379.25,-749 373.25,-749"/>
<text text-anchor="middle" x="309" y="-727.3" font-family="Times,serif" font-size="14.00">优化后人数=起算人数</text>
</g>
<!-- sub1_s1&#45;&gt;sub1_s2_a -->
<g id="edge1" class="edge"><title>sub1_s1&#45;&gt;sub1_s2_a</title>
<path fill="none" stroke="black" d="M475.34,-813.155C392.221,-807.899 295.163,-798.701 282,-784 275.039,-776.225 277.993,-766.33 284.034,-757.264"/>
<polygon fill="black" stroke="black" points="286.885,-759.299 290.254,-749.254 281.356,-755.006 286.885,-759.299"/>
<text text-anchor="middle" x="357.5" y="-772.3" font-family="Times,serif" font-size="14.00">应到学生人数&lt;起算人数</text>
</g>
<!-- sub1_s2_b -->
<g id="node13" class="node"><title>sub1_s2_b</title>
<path fill="bisque" stroke="black" d="M544.25,-749C544.25,-749 415.75,-749 415.75,-749 409.75,-749 403.75,-743 403.75,-737 403.75,-737 403.75,-725 403.75,-725 403.75,-719 409.75,-713 415.75,-713 415.75,-713 544.25,-713 544.25,-713 550.25,-713 556.25,-719 556.25,-725 556.25,-725 556.25,-737 556.25,-737 556.25,-743 550.25,-749 544.25,-749"/>
<text text-anchor="middle" x="480" y="-727.3" font-family="Times,serif" font-size="14.00">优化后人数=下限人数</text>
</g>
<!-- sub1_s1&#45;&gt;sub1_s2_b -->
<g id="edge2" class="edge"><title>sub1_s1&#45;&gt;sub1_s2_b</title>
<path fill="none" stroke="black" d="M476.437,-801.939C459.522,-797.235 445.892,-791.34 440,-784 432.743,-774.959 437.58,-764.887 446.042,-756.032"/>
<polygon fill="black" stroke="black" points="448.445,-758.577 453.444,-749.236 443.711,-753.422 448.445,-758.577"/>
<text text-anchor="middle" x="515.5" y="-772.3" font-family="Times,serif" font-size="14.00">应到学生人数=起算人数</text>
</g>
<!-- sub1_s2_c -->
<g id="node14" class="node"><title>sub1_s2_c</title>
<path fill="bisque" stroke="black" d="M715.25,-749C715.25,-749 586.75,-749 586.75,-749 580.75,-749 574.75,-743 574.75,-737 574.75,-737 574.75,-725 574.75,-725 574.75,-719 580.75,-713 586.75,-713 586.75,-713 715.25,-713 715.25,-713 721.25,-713 727.25,-719 727.25,-725 727.25,-725 727.25,-737 727.25,-737 727.25,-743 721.25,-749 715.25,-749"/>
<text text-anchor="middle" x="651" y="-727.3" font-family="Times,serif" font-size="14.00">优化后人数=应到人数</text>
</g>
<!-- sub1_s1&#45;&gt;sub1_s2_c -->
<g id="edge3" class="edge"><title>sub1_s1&#45;&gt;sub1_s2_c</title>
<path fill="none" stroke="black" d="M594.587,-801.945C593.38,-791.538 593.473,-778.301 599,-768 601.467,-763.401 604.811,-759.269 608.621,-755.589"/>
<polygon fill="black" stroke="black" points="610.992,-758.168 616.413,-749.065 606.499,-752.8 610.992,-758.168"/>
<text text-anchor="middle" x="715.5" y="-772.3" font-family="Times,serif" font-size="14.00">下限人数&lt;=应到学生人数&lt;=上限人数</text>
</g>
<!-- sub1_s2_d -->
<g id="node15" class="node"><title>sub1_s2_d</title>
<path fill="bisque" stroke="black" d="M949.25,-750C949.25,-750 758.75,-750 758.75,-750 752.75,-750 746.75,-744 746.75,-738 746.75,-738 746.75,-724 746.75,-724 746.75,-718 752.75,-712 758.75,-712 758.75,-712 949.25,-712 949.25,-712 955.25,-712 961.25,-718 961.25,-724 961.25,-724 961.25,-738 961.25,-738 961.25,-744 955.25,-750 949.25,-750"/>
<text text-anchor="middle" x="854" y="-734.8" font-family="Times,serif" font-size="14.00">优化后人数=上限人数,</text>
<text text-anchor="middle" x="854" y="-719.8" font-family="Times,serif" font-size="14.00">超上限人数=应到人数&#45;上限人数</text>
</g>
<!-- sub1_s1&#45;&gt;sub1_s2_d -->
<g id="edge4" class="edge"><title>sub1_s1&#45;&gt;sub1_s2_d</title>
<path fill="none" stroke="black" d="M720.515,-811.513C767.388,-806.442 813.943,-798 832,-784 839.655,-778.065 844.678,-768.964 847.961,-760.026"/>
<polygon fill="black" stroke="black" points="851.394,-760.768 850.975,-750.181 844.701,-758.718 851.394,-760.768"/>
<text text-anchor="middle" x="920.5" y="-772.3" font-family="Times,serif" font-size="14.00">应到学生人数&gt;上限人数</text>
</g>
<!-- sub1_s3 -->
<g id="node16" class="node"><title>sub1_s3</title>
<path fill="bisque" stroke="black" d="M726.25,-674C726.25,-674 547.75,-674 547.75,-674 541.75,-674 535.75,-668 535.75,-662 535.75,-662 535.75,-650 535.75,-650 535.75,-644 541.75,-638 547.75,-638 547.75,-638 726.25,-638 726.25,-638 732.25,-638 738.25,-644 738.25,-650 738.25,-650 738.25,-662 738.25,-662 738.25,-668 732.25,-674 726.25,-674"/>
<text text-anchor="middle" x="637" y="-652.3" font-family="Times,serif" font-size="14.00">课时费=学生单价x优化后人数</text>
</g>
<!-- sub1_s2_a&#45;&gt;sub1_s3 -->
<g id="edge5" class="edge"><title>sub1_s2_a&#45;&gt;sub1_s3</title>
<path fill="none" stroke="black" d="M385.487,-712.977C434.824,-701.997 499.103,-687.69 550.329,-676.29"/>
<polygon fill="black" stroke="black" points="551.391,-679.639 560.391,-674.05 549.87,-672.806 551.391,-679.639"/>
</g>
<!-- sub1_s2_b&#45;&gt;sub1_s3 -->
<g id="edge6" class="edge"><title>sub1_s2_b&#45;&gt;sub1_s3</title>
<path fill="none" stroke="black" d="M516.81,-712.885C539.053,-702.542 567.588,-689.274 591.272,-678.262"/>
<polygon fill="black" stroke="black" points="592.829,-681.398 600.421,-674.008 589.878,-675.051 592.829,-681.398"/>
</g>
<!-- sub1_s2_c&#45;&gt;sub1_s3 -->
<g id="edge7" class="edge"><title>sub1_s2_c&#45;&gt;sub1_s3</title>
<path fill="none" stroke="black" d="M647.682,-712.7C646.043,-704.154 644.028,-693.645 642.191,-684.067"/>
<polygon fill="black" stroke="black" points="645.615,-683.338 640.294,-674.176 638.74,-684.656 645.615,-683.338"/>
</g>
<!-- sub1_s2_d&#45;&gt;sub1_s3 -->
<g id="edge8" class="edge"><title>sub1_s2_d&#45;&gt;sub1_s3</title>
<path fill="none" stroke="black" d="M800.36,-711.955C769.194,-701.471 729.835,-688.23 697.559,-677.372"/>
<polygon fill="black" stroke="black" points="698.381,-673.956 687.787,-674.085 696.149,-680.591 698.381,-673.956"/>
</g>
<!-- sub1_c1 -->
<g id="node20" class="node"><title>sub1_c1</title>
<path fill="beige" stroke="black" d="M625.189,-597.88C625.189,-597.88 548.529,-584.12 548.529,-584.12 542.623,-583.06 542.623,-580.94 548.529,-579.88 548.529,-579.88 625.189,-566.12 625.189,-566.12 631.094,-565.06 642.906,-565.06 648.811,-566.12 648.811,-566.12 725.471,-579.88 725.471,-579.88 731.377,-580.94 731.377,-583.06 725.471,-584.12 725.471,-584.12 648.811,-597.88 648.811,-597.88 642.906,-598.94 631.094,-598.94 625.189,-597.88"/>
<text text-anchor="middle" x="637" y="-578.3" font-family="Times,serif" font-size="14.00">超上限人数&gt;0?</text>
</g>
<!-- sub1_s3&#45;&gt;sub1_c1 -->
<g id="edge9" class="edge"><title>sub1_s3&#45;&gt;sub1_c1</title>
<path fill="none" stroke="black" d="M637,-637.937C637,-629.807 637,-619.876 637,-610.705"/>
<polygon fill="black" stroke="black" points="640.5,-610.441 637,-600.441 633.5,-610.441 640.5,-610.441"/>
</g>
<!-- sub1_c1_y_1 -->
<g id="node17" class="node"><title>sub1_c1_y_1</title>
<path fill="bisque" stroke="black" d="M753,-512C753,-512 517,-512 517,-512 511,-512 505,-506 505,-500 505,-500 505,-488 505,-488 505,-482 511,-476 517,-476 517,-476 753,-476 753,-476 759,-476 765,-482 765,-488 765,-488 765,-500 765,-500 765,-506 759,-512 753,-512"/>
<text text-anchor="middle" x="635" y="-490.3" font-family="Times,serif" font-size="14.00">超上限课时费=超上限单价x超上限人数</text>
</g>
<!-- sub1_c1_y_2 -->
<g id="node18" class="node"><title>sub1_c1_y_2</title>
<path fill="bisque" stroke="black" d="M739,-423C739,-423 559,-423 559,-423 553,-423 547,-417 547,-411 547,-411 547,-399 547,-399 547,-393 553,-387 559,-387 559,-387 739,-387 739,-387 745,-387 751,-393 751,-399 751,-399 751,-411 751,-411 751,-417 745,-423 739,-423"/>
<text text-anchor="middle" x="649" y="-401.3" font-family="Times,serif" font-size="14.00">课时费=课时费+超上限课时费</text>
</g>
<!-- sub1_c1_y_1&#45;&gt;sub1_c1_y_2 -->
<g id="edge12" class="edge"><title>sub1_c1_y_1&#45;&gt;sub1_c1_y_2</title>
<path fill="none" stroke="black" d="M637.766,-475.812C639.722,-463.657 642.384,-447.114 644.626,-433.182"/>
<polygon fill="black" stroke="black" points="648.107,-433.582 646.24,-423.153 641.195,-432.47 648.107,-433.582"/>
</g>
<!-- sub1_s4 -->
<g id="node19" class="node"><title>sub1_s4</title>
<path fill="bisque" stroke="black" d="M845.25,-348C845.25,-348 710.75,-348 710.75,-348 704.75,-348 698.75,-342 698.75,-336 698.75,-336 698.75,-324 698.75,-324 698.75,-318 704.75,-312 710.75,-312 710.75,-312 845.25,-312 845.25,-312 851.25,-312 857.25,-318 857.25,-324 857.25,-324 857.25,-336 857.25,-336 857.25,-342 851.25,-348 845.25,-348"/>
<text text-anchor="middle" x="778" y="-326.3" font-family="Times,serif" font-size="14.00">输出这次上课的课时费</text>
</g>
<!-- sub1_c1_y_2&#45;&gt;sub1_s4 -->
<g id="edge13" class="edge"><title>sub1_c1_y_2&#45;&gt;sub1_s4</title>
<path fill="none" stroke="black" d="M679.245,-386.885C697.117,-376.771 719.932,-363.86 739.13,-352.996"/>
<polygon fill="black" stroke="black" points="740.965,-355.979 747.945,-348.008 737.518,-349.887 740.965,-355.979"/>
</g>
<!-- sub1_s4&#45;&gt;s_c1_n_2 -->
<g id="edge23" class="edge"><title>sub1_s4&#45;&gt;s_c1_n_2</title>
<path fill="none" stroke="black" d="M778,-311.7C778,-303.245 778,-292.869 778,-283.373"/>
<polygon fill="black" stroke="black" points="781.5,-283.176 778,-273.176 774.5,-283.176 781.5,-283.176"/>
</g>
<!-- sub1_c1&#45;&gt;sub1_c1_y_1 -->
<g id="edge10" class="edge"><title>sub1_c1&#45;&gt;sub1_c1_y_1</title>
<path fill="none" stroke="black" d="M636.605,-564.009C636.33,-552.19 635.957,-536.171 635.641,-522.542"/>
<polygon fill="black" stroke="black" points="639.133,-522.166 635.401,-512.25 632.135,-522.329 639.133,-522.166"/>
<text text-anchor="middle" x="644.5" y="-534.3" font-family="Times,serif" font-size="14.00">是</text>
</g>
<!-- sub1_c1&#45;&gt;sub1_s4 -->
<g id="edge11" class="edge"><title>sub1_c1&#45;&gt;sub1_s4</title>
<path fill="none" stroke="black" d="M680.307,-571.749C712.171,-562.451 753.385,-544.652 774,-512 803.909,-464.628 794.108,-395.478 785.395,-357.841"/>
<polygon fill="black" stroke="black" points="788.788,-356.98 783,-348.105 781.99,-358.652 788.788,-356.98"/>
<text text-anchor="middle" x="801.5" y="-446.3" font-family="Times,serif" font-size="14.00">否</text>
</g>
</g>
</svg>
