<?xml version="1.0" encoding="UTF-8" standalone="no"?>
<!DOCTYPE svg PUBLIC "-//W3C//DTD SVG 1.1//EN"
 "http://www.w3.org/Graphics/SVG/1.1/DTD/svg11.dtd">
<!-- Generated by graphviz version 2.30.1 (20180420.1509)
 -->
<!-- Title: %3 Pages: 1 -->
<svg width="1340pt" height="903pt"
 viewBox="0.00 0.00 1340.00 903.00" xmlns="http://www.w3.org/2000/svg" xmlns:xlink="http://www.w3.org/1999/xlink">
<g id="graph0" class="graph" transform="scale(1 1) rotate(0) translate(4 899)">
<title>%3</title>
<polygon fill="white" stroke="white" points="-4,5 -4,-899 1337,-899 1337,5 -4,5"/>
<g id="clust1" class="cluster"><title>cluster1</title>
<polygon fill="aliceblue" stroke="aliceblue" points="315,-471 315,-887 1312,-887 1312,-471 315,-471"/>
<text text-anchor="middle" x="813.5" y="-871.8" font-family="Times,serif" font-size="14.00">计算这次上课的课时费</text>
</g>
<!-- start -->
<g id="node1" class="node"><title>start</title>
<path fill="aquamarine" stroke="black" d="M163,-680C163,-680 133,-680 133,-680 127,-680 121,-674 121,-668 121,-668 121,-656 121,-656 121,-650 127,-644 133,-644 133,-644 163,-644 163,-644 169,-644 175,-650 175,-656 175,-656 175,-668 175,-668 175,-674 169,-680 163,-680"/>
<text text-anchor="middle" x="148" y="-658.3" font-family="Times,serif" font-size="14.00">开始</text>
</g>
<!-- s1 -->
<g id="node3" class="node"><title>s1</title>
<path fill="bisque" stroke="black" d="M284,-592C284,-592 12,-592 12,-592 6,-592 0,-586 0,-580 0,-580 0,-566 0,-566 0,-560 6,-554 12,-554 12,-554 284,-554 284,-554 290,-554 296,-560 296,-566 296,-566 296,-580 296,-580 296,-586 290,-592 284,-592"/>
<text text-anchor="middle" x="148" y="-576.8" font-family="Times,serif" font-size="14.00">列出该班级中该教师应上课的上课情况(按次)</text>
<text text-anchor="middle" x="148" y="-561.8" font-family="Times,serif" font-size="14.00">(教师出现在一次课的应上课教师列表中)</text>
</g>
<!-- start&#45;&gt;s1 -->
<g id="edge16" class="edge"><title>start&#45;&gt;s1</title>
<path fill="none" stroke="black" d="M148,-643.812C148,-632.011 148,-616.072 148,-602.404"/>
<polygon fill="black" stroke="black" points="151.5,-602.051 148,-592.051 144.5,-602.051 151.5,-602.051"/>
</g>
<!-- end -->
<g id="node2" class="node"><title>end</title>
<path fill="aquamarine" stroke="black" d="M455,-36C455,-36 425,-36 425,-36 419,-36 413,-30 413,-24 413,-24 413,-12 413,-12 413,-6 419,-0 425,-0 425,-0 455,-0 455,-0 461,-0 467,-6 467,-12 467,-12 467,-24 467,-24 467,-30 461,-36 455,-36"/>
<text text-anchor="middle" x="440" y="-14.3" font-family="Times,serif" font-size="14.00">结束</text>
</g>
<!-- s2 -->
<g id="node4" class="node"><title>s2</title>
<path fill="bisque" stroke="black" d="M244,-516C244,-516 52,-516 52,-516 46,-516 40,-510 40,-504 40,-504 40,-490 40,-490 40,-484 46,-478 52,-478 52,-478 244,-478 244,-478 250,-478 256,-484 256,-490 256,-490 256,-504 256,-504 256,-510 250,-516 244,-516"/>
<text text-anchor="middle" x="148" y="-500.8" font-family="Times,serif" font-size="14.00">选择需要计算课时费的上课情况</text>
<text text-anchor="middle" x="148" y="-485.8" font-family="Times,serif" font-size="14.00">生成上课情况列表(按次)</text>
</g>
<!-- s1&#45;&gt;s2 -->
<g id="edge17" class="edge"><title>s1&#45;&gt;s2</title>
<path fill="none" stroke="black" d="M148,-553.708C148,-545.464 148,-535.538 148,-526.362"/>
<polygon fill="black" stroke="black" points="151.5,-526.082 148,-516.082 144.5,-526.082 151.5,-526.082"/>
</g>
<!-- s3 -->
<g id="node5" class="node"><title>s3</title>
<path fill="bisque" stroke="black" d="M251,-439.5C251,-439.5 45,-439.5 45,-439.5 39,-439.5 33,-433.5 33,-427.5 33,-427.5 33,-398.5 33,-398.5 33,-392.5 39,-386.5 45,-386.5 45,-386.5 251,-386.5 251,-386.5 257,-386.5 263,-392.5 263,-398.5 263,-398.5 263,-427.5 263,-427.5 263,-433.5 257,-439.5 251,-439.5"/>
<text text-anchor="middle" x="148" y="-424.3" font-family="Times,serif" font-size="14.00">初始化该班级的课时费=0</text>
<text text-anchor="middle" x="148" y="-409.3" font-family="Times,serif" font-size="14.00">上课次数=0</text>
<text text-anchor="middle" x="148" y="-394.3" font-family="Times,serif" font-size="14.00">初始化班级课次对应的课时费报表</text>
</g>
<!-- s2&#45;&gt;s3 -->
<g id="edge18" class="edge"><title>s2&#45;&gt;s3</title>
<path fill="none" stroke="black" d="M148,-477.802C148,-469.555 148,-459.503 148,-449.841"/>
<polygon fill="black" stroke="black" points="151.5,-449.611 148,-439.612 144.5,-449.612 151.5,-449.611"/>
</g>
<!-- s4 -->
<g id="node6" class="node"><title>s4</title>
<path fill="bisque" stroke="black" d="M283.25,-348C283.25,-348 12.75,-348 12.75,-348 6.75,-348 0.75,-342 0.75,-336 0.75,-336 0.75,-322 0.75,-322 0.75,-316 6.75,-310 12.75,-310 12.75,-310 283.25,-310 283.25,-310 289.25,-310 295.25,-316 295.25,-322 295.25,-322 295.25,-336 295.25,-336 295.25,-342 289.25,-348 283.25,-348"/>
<text text-anchor="middle" x="148" y="-332.8" font-family="Times,serif" font-size="14.00">读取课程信息中的学生单价,超上限学生单价,</text>
<text text-anchor="middle" x="148" y="-317.8" font-family="Times,serif" font-size="14.00">起算人数,下限人数,上限人数</text>
</g>
<!-- s3&#45;&gt;s4 -->
<g id="edge19" class="edge"><title>s3&#45;&gt;s4</title>
<path fill="none" stroke="black" d="M148,-386.055C148,-377.219 148,-367.3 148,-358.29"/>
<polygon fill="black" stroke="black" points="151.5,-358.249 148,-348.249 144.5,-358.249 151.5,-358.249"/>
</g>
<!-- c1 -->
<g id="node12" class="node"><title>c1</title>
<path fill="beige" stroke="black" d="M428.076,-270.653C428.076,-270.653 292.524,-255.347 292.524,-255.347 286.562,-254.673 286.562,-253.327 292.524,-252.653 292.524,-252.653 428.076,-237.347 428.076,-237.347 434.038,-236.673 445.962,-236.673 451.924,-237.347 451.924,-237.347 587.476,-252.653 587.476,-252.653 593.438,-253.327 593.438,-254.673 587.476,-255.347 587.476,-255.347 451.924,-270.653 451.924,-270.653 445.962,-271.327 434.038,-271.327 428.076,-270.653"/>
<text text-anchor="middle" x="440" y="-250.3" font-family="Times,serif" font-size="14.00">上课情况列表(按次)为空?</text>
</g>
<!-- s4&#45;&gt;c1 -->
<g id="edge20" class="edge"><title>s4&#45;&gt;c1</title>
<path fill="none" stroke="black" d="M220.18,-309.955C270.372,-297.407 336.359,-280.91 382.894,-269.277"/>
<polygon fill="black" stroke="black" points="383.956,-272.619 392.809,-266.798 382.259,-265.828 383.956,-272.619"/>
</g>
<!-- s_c1_y1 -->
<g id="node7" class="node"><title>s_c1_y1</title>
<path fill="bisque" stroke="black" d="M500.25,-184C500.25,-184 379.75,-184 379.75,-184 373.75,-184 367.75,-178 367.75,-172 367.75,-172 367.75,-160 367.75,-160 367.75,-154 373.75,-148 379.75,-148 379.75,-148 500.25,-148 500.25,-148 506.25,-148 512.25,-154 512.25,-160 512.25,-160 512.25,-172 512.25,-172 512.25,-178 506.25,-184 500.25,-184"/>
<text text-anchor="middle" x="440" y="-162.3" font-family="Times,serif" font-size="14.00">输出该班级的课时费</text>
</g>
<!-- s_c1_y2 -->
<g id="node8" class="node"><title>s_c1_y2</title>
<path fill="bisque" stroke="black" d="M564.25,-110C564.25,-110 315.75,-110 315.75,-110 309.75,-110 303.75,-104 303.75,-98 303.75,-98 303.75,-86 303.75,-86 303.75,-80 309.75,-74 315.75,-74 315.75,-74 564.25,-74 564.25,-74 570.25,-74 576.25,-80 576.25,-86 576.25,-86 576.25,-98 576.25,-98 576.25,-104 570.25,-110 564.25,-110"/>
<text text-anchor="middle" x="440" y="-88.3" font-family="Times,serif" font-size="14.00">输出该班级的班级课次对应的课时费报表</text>
</g>
<!-- s_c1_y1&#45;&gt;s_c1_y2 -->
<g id="edge23" class="edge"><title>s_c1_y1&#45;&gt;s_c1_y2</title>
<path fill="none" stroke="black" d="M440,-147.937C440,-139.807 440,-129.876 440,-120.705"/>
<polygon fill="black" stroke="black" points="443.5,-120.441 440,-110.441 436.5,-120.441 443.5,-120.441"/>
</g>
<!-- s_c1_y2&#45;&gt;end -->
<g id="edge24" class="edge"><title>s_c1_y2&#45;&gt;end</title>
<path fill="none" stroke="black" d="M440,-73.937C440,-65.8072 440,-55.8761 440,-46.7047"/>
<polygon fill="black" stroke="black" points="443.5,-46.4406 440,-36.4407 436.5,-46.4407 443.5,-46.4406"/>
</g>
<!-- s_c1_n1 -->
<g id="node9" class="node"><title>s_c1_n1</title>
<path fill="bisque" stroke="black" d="M1102.25,-184C1102.25,-184 881.75,-184 881.75,-184 875.75,-184 869.75,-178 869.75,-172 869.75,-172 869.75,-160 869.75,-160 869.75,-154 875.75,-148 881.75,-148 881.75,-148 1102.25,-148 1102.25,-148 1108.25,-148 1114.25,-154 1114.25,-160 1114.25,-160 1114.25,-172 1114.25,-172 1114.25,-178 1108.25,-184 1102.25,-184"/>
<text text-anchor="middle" x="992" y="-162.3" font-family="Times,serif" font-size="14.00">从上课情况列表中取出一次上课情况</text>
</g>
<!-- sub1_s1 -->
<g id="node13" class="node"><title>sub1_s1</title>
<path fill="bisque" stroke="black" d="M1220.25,-768C1220.25,-768 999.75,-768 999.75,-768 993.75,-768 987.75,-762 987.75,-756 987.75,-756 987.75,-744 987.75,-744 987.75,-738 993.75,-732 999.75,-732 999.75,-732 1220.25,-732 1220.25,-732 1226.25,-732 1232.25,-738 1232.25,-744 1232.25,-744 1232.25,-756 1232.25,-756 1232.25,-762 1226.25,-768 1220.25,-768"/>
<text text-anchor="middle" x="1110" y="-746.3" font-family="Times,serif" font-size="14.00">读取这次上课情况中的应到学生人数</text>
</g>
<!-- s_c1_n1&#45;&gt;sub1_s1 -->
<g id="edge25" class="edge"><title>s_c1_n1&#45;&gt;sub1_s1</title>
<path fill="none" stroke="black" d="M1114.27,-175.088C1211.74,-185.013 1332,-206.65 1332,-253 1332,-663 1332,-663 1332,-663 1332,-691.728 1266.54,-714.615 1206.71,-729.534"/>
<polygon fill="black" stroke="black" points="1205.67,-726.184 1196.78,-731.951 1207.33,-732.986 1205.67,-726.184"/>
</g>
<!-- s_c1_n2 -->
<g id="node10" class="node"><title>s_c1_n2</title>
<path fill="bisque" stroke="black" d="M559.25,-431C559.25,-431 310.75,-431 310.75,-431 304.75,-431 298.75,-425 298.75,-419 298.75,-419 298.75,-407 298.75,-407 298.75,-401 304.75,-395 310.75,-395 310.75,-395 559.25,-395 559.25,-395 565.25,-395 571.25,-401 571.25,-407 571.25,-407 571.25,-419 571.25,-419 571.25,-425 565.25,-431 559.25,-431"/>
<text text-anchor="middle" x="435" y="-409.3" font-family="Times,serif" font-size="14.00">将这次上课的课时费计入该班级的课时费</text>
</g>
<!-- s_c1_n3 -->
<g id="node11" class="node"><title>s_c1_n3</title>
<path fill="bisque" stroke="black" d="M554,-348C554,-348 326,-348 326,-348 320,-348 314,-342 314,-336 314,-336 314,-322 314,-322 314,-316 320,-310 326,-310 326,-310 554,-310 554,-310 560,-310 566,-316 566,-322 566,-322 566,-336 566,-336 566,-342 560,-348 554,-348"/>
<text text-anchor="middle" x="440" y="-332.8" font-family="Times,serif" font-size="14.00">新增这次上课的班级,课次,课时费记录</text>
<text text-anchor="middle" x="440" y="-317.8" font-family="Times,serif" font-size="14.00">插入班级课次对应的课时费报表</text>
</g>
<!-- s_c1_n2&#45;&gt;s_c1_n3 -->
<g id="edge27" class="edge"><title>s_c1_n2&#45;&gt;s_c1_n3</title>
<path fill="none" stroke="black" d="M436.06,-394.61C436.703,-384.065 437.539,-370.36 438.275,-358.287"/>
<polygon fill="black" stroke="black" points="441.774,-358.412 438.889,-348.218 434.787,-357.986 441.774,-358.412"/>
</g>
<!-- s_c1_n3&#45;&gt;c1 -->
<g id="edge28" class="edge"><title>s_c1_n3&#45;&gt;c1</title>
<path fill="none" stroke="black" d="M440,-309.955C440,-301.701 440,-291.738 440,-282.574"/>
<polygon fill="black" stroke="black" points="443.5,-282.335 440,-272.335 436.5,-282.335 443.5,-282.335"/>
</g>
<!-- c1&#45;&gt;s_c1_y1 -->
<g id="edge21" class="edge"><title>c1&#45;&gt;s_c1_y1</title>
<path fill="none" stroke="black" d="M440,-235.597C440,-223.746 440,-207.817 440,-194.292"/>
<polygon fill="black" stroke="black" points="443.5,-194.084 440,-184.084 436.5,-194.084 443.5,-194.084"/>
<text text-anchor="middle" x="447.5" y="-206.3" font-family="Times,serif" font-size="14.00">是</text>
</g>
<!-- c1&#45;&gt;s_c1_n1 -->
<g id="edge22" class="edge"><title>c1&#45;&gt;s_c1_n1</title>
<path fill="none" stroke="black" d="M503.321,-243.135C593.142,-229.141 759.215,-203.267 872.595,-185.603"/>
<polygon fill="black" stroke="black" points="873.371,-189.024 882.713,-184.027 872.294,-182.108 873.371,-189.024"/>
<text text-anchor="middle" x="773.5" y="-206.3" font-family="Times,serif" font-size="14.00">否</text>
</g>
<!-- sub1_s2 -->
<g id="node14" class="node"><title>sub1_s2</title>
<path fill="bisque" stroke="black" d="M993,-680C993,-680 801,-680 801,-680 795,-680 789,-674 789,-668 789,-668 789,-656 789,-656 789,-650 795,-644 801,-644 801,-644 993,-644 993,-644 999,-644 1005,-650 1005,-656 1005,-656 1005,-668 1005,-668 1005,-674 999,-680 993,-680"/>
<text text-anchor="middle" x="897" y="-658.3" font-family="Times,serif" font-size="14.00">读取该次上课的应上课教师数量</text>
</g>
<!-- sub1_s1&#45;&gt;sub1_s2 -->
<g id="edge1" class="edge"><title>sub1_s1&#45;&gt;sub1_s2</title>
<path fill="none" stroke="black" d="M1067.66,-731.906C1033.47,-718.102 985.216,-698.618 948.736,-683.889"/>
<polygon fill="black" stroke="black" points="949.84,-680.56 939.256,-680.061 947.219,-687.051 949.84,-680.56"/>
</g>
<!-- sub1_s3_a -->
<g id="node15" class="node"><title>sub1_s3_a</title>
<path fill="bisque" stroke="black" d="M949.25,-591C949.25,-591 820.75,-591 820.75,-591 814.75,-591 808.75,-585 808.75,-579 808.75,-579 808.75,-567 808.75,-567 808.75,-561 814.75,-555 820.75,-555 820.75,-555 949.25,-555 949.25,-555 955.25,-555 961.25,-561 961.25,-567 961.25,-567 961.25,-579 961.25,-579 961.25,-585 955.25,-591 949.25,-591"/>
<text text-anchor="middle" x="885" y="-569.3" font-family="Times,serif" font-size="14.00">优化后人数=起算人数</text>
</g>
<!-- sub1_s2&#45;&gt;sub1_s3_a -->
<g id="edge2" class="edge"><title>sub1_s2&#45;&gt;sub1_s3_a</title>
<path fill="none" stroke="black" d="M788.725,-650.251C759.415,-644.991 733.216,-637.267 724,-626 719.498,-620.496 719.554,-615.55 724,-610 725.346,-608.32 760.953,-600.275 798.337,-592.215"/>
<polygon fill="black" stroke="black" points="799.336,-595.58 808.378,-590.058 797.866,-588.736 799.336,-595.58"/>
<text text-anchor="middle" x="799.5" y="-614.3" font-family="Times,serif" font-size="14.00">应到学生人数&lt;起算人数</text>
</g>
<!-- sub1_s3_b -->
<g id="node16" class="node"><title>sub1_s3_b</title>
<path fill="bisque" stroke="black" d="M1120.25,-591C1120.25,-591 991.75,-591 991.75,-591 985.75,-591 979.75,-585 979.75,-579 979.75,-579 979.75,-567 979.75,-567 979.75,-561 985.75,-555 991.75,-555 991.75,-555 1120.25,-555 1120.25,-555 1126.25,-555 1132.25,-561 1132.25,-567 1132.25,-567 1132.25,-579 1132.25,-579 1132.25,-585 1126.25,-591 1120.25,-591"/>
<text text-anchor="middle" x="1056" y="-569.3" font-family="Times,serif" font-size="14.00">优化后人数=下限人数</text>
</g>
<!-- sub1_s2&#45;&gt;sub1_s3_b -->
<g id="edge3" class="edge"><title>sub1_s2&#45;&gt;sub1_s3_b</title>
<path fill="none" stroke="black" d="M892.361,-643.562C890.586,-632.745 890.509,-619.204 898,-610 899.314,-608.386 933.193,-600.567 969.242,-592.628"/>
<polygon fill="black" stroke="black" points="970.424,-595.952 979.442,-590.39 968.924,-589.114 970.424,-595.952"/>
<text text-anchor="middle" x="973.5" y="-614.3" font-family="Times,serif" font-size="14.00">应到学生人数=起算人数</text>
</g>
<!-- sub1_s3_c -->
<g id="node17" class="node"><title>sub1_s3_c</title>
<path fill="bisque" stroke="black" d="M1291.25,-591C1291.25,-591 1162.75,-591 1162.75,-591 1156.75,-591 1150.75,-585 1150.75,-579 1150.75,-579 1150.75,-567 1150.75,-567 1150.75,-561 1156.75,-555 1162.75,-555 1162.75,-555 1291.25,-555 1291.25,-555 1297.25,-555 1303.25,-561 1303.25,-567 1303.25,-567 1303.25,-579 1303.25,-579 1303.25,-585 1297.25,-591 1291.25,-591"/>
<text text-anchor="middle" x="1227" y="-569.3" font-family="Times,serif" font-size="14.00">优化后人数=应到人数</text>
</g>
<!-- sub1_s2&#45;&gt;sub1_s3_c -->
<g id="edge4" class="edge"><title>sub1_s2&#45;&gt;sub1_s3_c</title>
<path fill="none" stroke="black" d="M984.21,-643.94C1005.62,-638.927 1028.32,-632.904 1049,-626 1065.61,-620.454 1068.45,-615.728 1085,-610 1102.72,-603.865 1122.02,-598.277 1140.51,-593.43"/>
<polygon fill="black" stroke="black" points="1141.58,-596.77 1150.39,-590.889 1139.83,-589.99 1141.58,-596.77"/>
<text text-anchor="middle" x="1201.5" y="-614.3" font-family="Times,serif" font-size="14.00">下限人数&lt;=应到学生人数&lt;=上限人数</text>
</g>
<!-- sub1_s3_d -->
<g id="node18" class="node"><title>sub1_s3_d</title>
<path fill="bisque" stroke="black" d="M778.25,-592C778.25,-592 587.75,-592 587.75,-592 581.75,-592 575.75,-586 575.75,-580 575.75,-580 575.75,-566 575.75,-566 575.75,-560 581.75,-554 587.75,-554 587.75,-554 778.25,-554 778.25,-554 784.25,-554 790.25,-560 790.25,-566 790.25,-566 790.25,-580 790.25,-580 790.25,-586 784.25,-592 778.25,-592"/>
<text text-anchor="middle" x="683" y="-576.8" font-family="Times,serif" font-size="14.00">优化后人数=上限人数,</text>
<text text-anchor="middle" x="683" y="-561.8" font-family="Times,serif" font-size="14.00">超上限人数=应到人数&#45;上限人数</text>
</g>
<!-- sub1_s2&#45;&gt;sub1_s3_d -->
<g id="edge5" class="edge"><title>sub1_s2&#45;&gt;sub1_s3_d</title>
<path fill="none" stroke="black" d="M788.761,-656.658C698.019,-651.874 580.905,-642.565 566,-626 554.734,-613.48 560.387,-603.815 573.931,-596.413"/>
<polygon fill="black" stroke="black" points="575.688,-599.457 583.303,-592.091 572.757,-593.101 575.688,-599.457"/>
<text text-anchor="middle" x="641.5" y="-614.3" font-family="Times,serif" font-size="14.00">应到学生人数&gt;上限人数</text>
</g>
<!-- sub1_s4 -->
<g id="node19" class="node"><title>sub1_s4</title>
<path fill="bisque" stroke="black" d="M974.25,-515C974.25,-515 795.75,-515 795.75,-515 789.75,-515 783.75,-509 783.75,-503 783.75,-503 783.75,-491 783.75,-491 783.75,-485 789.75,-479 795.75,-479 795.75,-479 974.25,-479 974.25,-479 980.25,-479 986.25,-485 986.25,-491 986.25,-491 986.25,-503 986.25,-503 986.25,-509 980.25,-515 974.25,-515"/>
<text text-anchor="middle" x="885" y="-493.3" font-family="Times,serif" font-size="14.00">课时费=学生单价x优化后人数</text>
</g>
<!-- sub1_s3_a&#45;&gt;sub1_s4 -->
<g id="edge6" class="edge"><title>sub1_s3_a&#45;&gt;sub1_s4</title>
<path fill="none" stroke="black" d="M885,-554.837C885,-546.058 885,-535.163 885,-525.267"/>
<polygon fill="black" stroke="black" points="888.5,-525.07 885,-515.07 881.5,-525.07 888.5,-525.07"/>
</g>
<!-- sub1_s3_b&#45;&gt;sub1_s4 -->
<g id="edge7" class="edge"><title>sub1_s3_b&#45;&gt;sub1_s4</title>
<path fill="none" stroke="black" d="M1016.34,-554.837C991.735,-544.19 959.941,-530.431 933.798,-519.117"/>
<polygon fill="black" stroke="black" points="935.013,-515.829 924.446,-515.07 932.233,-522.254 935.013,-515.829"/>
</g>
<!-- sub1_s3_c&#45;&gt;sub1_s4 -->
<g id="edge8" class="edge"><title>sub1_s3_c&#45;&gt;sub1_s4</title>
<path fill="none" stroke="black" d="M1150.67,-555.485C1098.32,-544.157 1028.67,-529.087 973.824,-517.219"/>
<polygon fill="black" stroke="black" points="974.276,-513.736 963.762,-515.042 972.796,-520.578 974.276,-513.736"/>
</g>
<!-- sub1_s3_d&#45;&gt;sub1_s4 -->
<g id="edge9" class="edge"><title>sub1_s3_d&#45;&gt;sub1_s4</title>
<path fill="none" stroke="black" d="M732.156,-553.992C761.346,-543.299 798.462,-529.702 828.809,-518.585"/>
<polygon fill="black" stroke="black" points="830.219,-521.796 838.405,-515.069 827.811,-515.223 830.219,-521.796"/>
</g>
<!-- sub1_c1 -->
<g id="node24" class="node"><title>sub1_c1</title>
<path fill="beige" stroke="black" d="M590.189,-853.88C590.189,-853.88 513.529,-840.12 513.529,-840.12 507.623,-839.06 507.623,-836.94 513.529,-835.88 513.529,-835.88 590.189,-822.12 590.189,-822.12 596.094,-821.06 607.906,-821.06 613.811,-822.12 613.811,-822.12 690.471,-835.88 690.471,-835.88 696.377,-836.94 696.377,-839.06 690.471,-840.12 690.471,-840.12 613.811,-853.88 613.811,-853.88 607.906,-854.94 596.094,-854.94 590.189,-853.88"/>
<text text-anchor="middle" x="602" y="-834.3" font-family="Times,serif" font-size="14.00">超上限人数&gt;0?</text>
</g>
<!-- sub1_s4&#45;&gt;sub1_c1 -->
<g id="edge10" class="edge"><title>sub1_s4&#45;&gt;sub1_c1</title>
<path fill="none" stroke="black" d="M783.473,-503.244C701.781,-509.669 595.851,-523.716 566,-554 556.749,-563.385 550.687,-605.15 557,-626 559.786,-635.202 602.109,-688.83 605,-698 616.84,-735.56 612.369,-781.704 607.569,-810.234"/>
<polygon fill="black" stroke="black" points="604.093,-809.786 605.747,-820.251 610.98,-811.039 604.093,-809.786"/>
</g>
<!-- sub1_c1_y1 -->
<g id="node20" class="node"><title>sub1_c1_y1</title>
<path fill="bisque" stroke="black" d="M571,-768C571,-768 335,-768 335,-768 329,-768 323,-762 323,-756 323,-756 323,-744 323,-744 323,-738 329,-732 335,-732 335,-732 571,-732 571,-732 577,-732 583,-738 583,-744 583,-744 583,-756 583,-756 583,-762 577,-768 571,-768"/>
<text text-anchor="middle" x="453" y="-746.3" font-family="Times,serif" font-size="14.00">超上限课时费=超上限单价x超上限人数</text>
</g>
<!-- sub1_c1_y2 -->
<g id="node21" class="node"><title>sub1_c1_y2</title>
<path fill="bisque" stroke="black" d="M529,-680C529,-680 349,-680 349,-680 343,-680 337,-674 337,-668 337,-668 337,-656 337,-656 337,-650 343,-644 349,-644 349,-644 529,-644 529,-644 535,-644 541,-650 541,-656 541,-656 541,-668 541,-668 541,-674 535,-680 529,-680"/>
<text text-anchor="middle" x="439" y="-658.3" font-family="Times,serif" font-size="14.00">课时费=课时费+超上限课时费</text>
</g>
<!-- sub1_c1_y1&#45;&gt;sub1_c1_y2 -->
<g id="edge13" class="edge"><title>sub1_c1_y1&#45;&gt;sub1_c1_y2</title>
<path fill="none" stroke="black" d="M450.167,-731.597C448.238,-719.746 445.645,-703.817 443.443,-690.292"/>
<polygon fill="black" stroke="black" points="446.842,-689.392 441.781,-680.084 439.933,-690.516 446.842,-689.392"/>
</g>
<!-- sub1_s5 -->
<g id="node22" class="node"><title>sub1_s5</title>
<path fill="bisque" stroke="black" d="M525,-591C525,-591 335,-591 335,-591 329,-591 323,-585 323,-579 323,-579 323,-567 323,-567 323,-561 329,-555 335,-555 335,-555 525,-555 525,-555 531,-555 537,-561 537,-567 537,-567 537,-579 537,-579 537,-585 531,-591 525,-591"/>
<text text-anchor="middle" x="430" y="-569.3" font-family="Times,serif" font-size="14.00">课时费=课时费/应上课教师数量</text>
</g>
<!-- sub1_c1_y2&#45;&gt;sub1_s5 -->
<g id="edge14" class="edge"><title>sub1_c1_y2&#45;&gt;sub1_s5</title>
<path fill="none" stroke="black" d="M437.222,-643.812C435.965,-631.657 434.253,-615.114 432.812,-601.182"/>
<polygon fill="black" stroke="black" points="436.285,-600.739 431.774,-591.153 429.322,-601.46 436.285,-600.739"/>
</g>
<!-- sub1_s6 -->
<g id="node23" class="node"><title>sub1_s6</title>
<path fill="bisque" stroke="black" d="M500.25,-515C500.25,-515 365.75,-515 365.75,-515 359.75,-515 353.75,-509 353.75,-503 353.75,-503 353.75,-491 353.75,-491 353.75,-485 359.75,-479 365.75,-479 365.75,-479 500.25,-479 500.25,-479 506.25,-479 512.25,-485 512.25,-491 512.25,-491 512.25,-503 512.25,-503 512.25,-509 506.25,-515 500.25,-515"/>
<text text-anchor="middle" x="433" y="-493.3" font-family="Times,serif" font-size="14.00">输出这次上课的课时费</text>
</g>
<!-- sub1_s5&#45;&gt;sub1_s6 -->
<g id="edge15" class="edge"><title>sub1_s5&#45;&gt;sub1_s6</title>
<path fill="none" stroke="black" d="M430.696,-554.837C431.052,-546.058 431.493,-535.163 431.895,-525.267"/>
<polygon fill="black" stroke="black" points="435.4,-525.204 432.308,-515.07 428.406,-524.92 435.4,-525.204"/>
</g>
<!-- sub1_s6&#45;&gt;s_c1_n2 -->
<g id="edge26" class="edge"><title>sub1_s6&#45;&gt;s_c1_n2</title>
<path fill="none" stroke="black" d="M433.424,-478.61C433.688,-467.774 434.034,-453.601 434.334,-441.291"/>
<polygon fill="black" stroke="black" points="437.838,-441.166 434.583,-431.084 430.84,-440.995 437.838,-441.166"/>
</g>
<!-- sub1_c1&#45;&gt;sub1_c1_y1 -->
<g id="edge11" class="edge"><title>sub1_c1&#45;&gt;sub1_c1_y1</title>
<path fill="none" stroke="black" d="M579.37,-823.938C556.01,-810.455 519.142,-789.176 491.244,-773.073"/>
<polygon fill="black" stroke="black" points="492.94,-770.011 482.529,-768.044 489.441,-776.074 492.94,-770.011"/>
<text text-anchor="middle" x="548.5" y="-790.3" font-family="Times,serif" font-size="14.00">是</text>
</g>
<!-- sub1_c1&#45;&gt;sub1_s5 -->
<g id="edge12" class="edge"><title>sub1_c1&#45;&gt;sub1_s5</title>
<path fill="none" stroke="black" d="M602.369,-819.834C602.22,-782.804 596.651,-694.681 550,-644 546.814,-640.538 502.92,-615.285 469.133,-596.095"/>
<polygon fill="black" stroke="black" points="470.778,-593.004 460.353,-591.115 467.325,-599.093 470.778,-593.004"/>
<text text-anchor="middle" x="595.5" y="-702.3" font-family="Times,serif" font-size="14.00">否</text>
</g>
</g>
</svg>
