<?xml version="1.0" encoding="UTF-8" standalone="no"?>
<!DOCTYPE svg PUBLIC "-//W3C//DTD SVG 1.1//EN"
 "http://www.w3.org/Graphics/SVG/1.1/DTD/svg11.dtd">
<!-- Generated by graphviz version 2.30.1 (20180420.1509)
 -->
<!-- Title: %3 Pages: 1 -->
<svg width="1333pt" height="737pt"
 viewBox="0.00 0.00 1333.00 737.00" xmlns="http://www.w3.org/2000/svg" xmlns:xlink="http://www.w3.org/1999/xlink">
<g id="graph0" class="graph" transform="scale(1 1) rotate(0) translate(4 733)">
<title>%3</title>
<polygon fill="white" stroke="white" points="-4,5 -4,-733 1330,-733 1330,5 -4,5"/>
<g id="clust1" class="cluster"><title>cluster1</title>
<polygon fill="aliceblue" stroke="aliceblue" points="308,-304 308,-721 1305,-721 1305,-304 308,-304"/>
<text text-anchor="middle" x="806.5" y="-705.8" font-family="Times,serif" font-size="14.00">计算这次上课的课时费</text>
</g>
<!-- start -->
<g id="node1" class="node"><title>start</title>
<path fill="aquamarine" stroke="black" d="M163,-602C163,-602 133,-602 133,-602 127,-602 121,-596 121,-590 121,-590 121,-578 121,-578 121,-572 127,-566 133,-566 133,-566 163,-566 163,-566 169,-566 175,-572 175,-578 175,-578 175,-590 175,-590 175,-596 169,-602 163,-602"/>
<text text-anchor="middle" x="148" y="-580.3" font-family="Times,serif" font-size="14.00">开始</text>
</g>
<!-- s1 -->
<g id="node3" class="node"><title>s1</title>
<path fill="bisque" stroke="black" d="M284,-514C284,-514 12,-514 12,-514 6,-514 0,-508 0,-502 0,-502 0,-488 0,-488 0,-482 6,-476 12,-476 12,-476 284,-476 284,-476 290,-476 296,-482 296,-488 296,-488 296,-502 296,-502 296,-508 290,-514 284,-514"/>
<text text-anchor="middle" x="148" y="-498.8" font-family="Times,serif" font-size="14.00">列出该班级中该教师应上课的上课情况(按次)</text>
<text text-anchor="middle" x="148" y="-483.8" font-family="Times,serif" font-size="14.00">(教师出现在一次课的应上课教师列表中)</text>
</g>
<!-- start&#45;&gt;s1 -->
<g id="edge16" class="edge"><title>start&#45;&gt;s1</title>
<path fill="none" stroke="black" d="M148,-565.812C148,-554.011 148,-538.072 148,-524.404"/>
<polygon fill="black" stroke="black" points="151.5,-524.051 148,-514.051 144.5,-524.051 151.5,-524.051"/>
</g>
<!-- end -->
<g id="node2" class="node"><title>end</title>
<path fill="aquamarine" stroke="black" d="M465,-36C465,-36 435,-36 435,-36 429,-36 423,-30 423,-24 423,-24 423,-12 423,-12 423,-6 429,-0 435,-0 435,-0 465,-0 465,-0 471,-0 477,-6 477,-12 477,-12 477,-24 477,-24 477,-30 471,-36 465,-36"/>
<text text-anchor="middle" x="450" y="-14.3" font-family="Times,serif" font-size="14.00">结束</text>
</g>
<!-- s2 -->
<g id="node4" class="node"><title>s2</title>
<path fill="bisque" stroke="black" d="M244,-424C244,-424 52,-424 52,-424 46,-424 40,-418 40,-412 40,-412 40,-398 40,-398 40,-392 46,-386 52,-386 52,-386 244,-386 244,-386 250,-386 256,-392 256,-398 256,-398 256,-412 256,-412 256,-418 250,-424 244,-424"/>
<text text-anchor="middle" x="148" y="-408.8" font-family="Times,serif" font-size="14.00">选择需要计算课时费的上课情况</text>
<text text-anchor="middle" x="148" y="-393.8" font-family="Times,serif" font-size="14.00">生成上课情况列表(按次)</text>
</g>
<!-- s1&#45;&gt;s2 -->
<g id="edge17" class="edge"><title>s1&#45;&gt;s2</title>
<path fill="none" stroke="black" d="M148,-475.766C148,-463.849 148,-448.038 148,-434.482"/>
<polygon fill="black" stroke="black" points="151.5,-434.21 148,-424.21 144.5,-434.21 151.5,-434.21"/>
</g>
<!-- s3 -->
<g id="node5" class="node"><title>s3</title>
<path fill="bisque" stroke="black" d="M223,-348C223,-348 73,-348 73,-348 67,-348 61,-342 61,-336 61,-336 61,-324 61,-324 61,-318 67,-312 73,-312 73,-312 223,-312 223,-312 229,-312 235,-318 235,-324 235,-324 235,-336 235,-336 235,-342 229,-348 223,-348"/>
<text text-anchor="middle" x="148" y="-326.3" font-family="Times,serif" font-size="14.00">初始化该班级的课时费=0</text>
</g>
<!-- s2&#45;&gt;s3 -->
<g id="edge18" class="edge"><title>s2&#45;&gt;s3</title>
<path fill="none" stroke="black" d="M148,-385.955C148,-377.701 148,-367.738 148,-358.574"/>
<polygon fill="black" stroke="black" points="151.5,-358.335 148,-348.335 144.5,-358.335 151.5,-358.335"/>
</g>
<!-- s4 -->
<g id="node6" class="node"><title>s4</title>
<path fill="bisque" stroke="black" d="M283.25,-274C283.25,-274 12.75,-274 12.75,-274 6.75,-274 0.75,-268 0.75,-262 0.75,-262 0.75,-248 0.75,-248 0.75,-242 6.75,-236 12.75,-236 12.75,-236 283.25,-236 283.25,-236 289.25,-236 295.25,-242 295.25,-248 295.25,-248 295.25,-262 295.25,-262 295.25,-268 289.25,-274 283.25,-274"/>
<text text-anchor="middle" x="148" y="-258.8" font-family="Times,serif" font-size="14.00">读取课程信息中的学生单价,超上限学生单价,</text>
<text text-anchor="middle" x="148" y="-243.8" font-family="Times,serif" font-size="14.00">起算人数,下限人数,上限人数</text>
</g>
<!-- s3&#45;&gt;s4 -->
<g id="edge19" class="edge"><title>s3&#45;&gt;s4</title>
<path fill="none" stroke="black" d="M148,-311.7C148,-303.49 148,-293.469 148,-284.201"/>
<polygon fill="black" stroke="black" points="151.5,-284.194 148,-274.194 144.5,-284.195 151.5,-284.194"/>
</g>
<!-- c1 -->
<g id="node10" class="node"><title>c1</title>
<path fill="beige" stroke="black" d="M438.076,-196.653C438.076,-196.653 302.524,-181.347 302.524,-181.347 296.562,-180.673 296.562,-179.327 302.524,-178.653 302.524,-178.653 438.076,-163.347 438.076,-163.347 444.038,-162.673 455.962,-162.673 461.924,-163.347 461.924,-163.347 597.476,-178.653 597.476,-178.653 603.438,-179.327 603.438,-180.673 597.476,-181.347 597.476,-181.347 461.924,-196.653 461.924,-196.653 455.962,-197.327 444.038,-197.327 438.076,-196.653"/>
<text text-anchor="middle" x="450" y="-176.3" font-family="Times,serif" font-size="14.00">上课情况列表(按次)为空?</text>
</g>
<!-- s4&#45;&gt;c1 -->
<g id="edge20" class="edge"><title>s4&#45;&gt;c1</title>
<path fill="none" stroke="black" d="M222.652,-235.955C274.834,-223.341 343.525,-206.737 391.692,-195.094"/>
<polygon fill="black" stroke="black" points="392.748,-198.44 401.646,-192.688 391.104,-191.636 392.748,-198.44"/>
</g>
<!-- s_c1_y1 -->
<g id="node7" class="node"><title>s_c1_y1</title>
<path fill="bisque" stroke="black" d="M510.25,-110C510.25,-110 389.75,-110 389.75,-110 383.75,-110 377.75,-104 377.75,-98 377.75,-98 377.75,-86 377.75,-86 377.75,-80 383.75,-74 389.75,-74 389.75,-74 510.25,-74 510.25,-74 516.25,-74 522.25,-80 522.25,-86 522.25,-86 522.25,-98 522.25,-98 522.25,-104 516.25,-110 510.25,-110"/>
<text text-anchor="middle" x="450" y="-88.3" font-family="Times,serif" font-size="14.00">输出该班级的课时费</text>
</g>
<!-- s_c1_y1&#45;&gt;end -->
<g id="edge23" class="edge"><title>s_c1_y1&#45;&gt;end</title>
<path fill="none" stroke="black" d="M450,-73.937C450,-65.8072 450,-55.8761 450,-46.7047"/>
<polygon fill="black" stroke="black" points="453.5,-46.4406 450,-36.4407 446.5,-46.4407 453.5,-46.4406"/>
</g>
<!-- s_c1_n1 -->
<g id="node8" class="node"><title>s_c1_n1</title>
<path fill="bisque" stroke="black" d="M1104.25,-110C1104.25,-110 883.75,-110 883.75,-110 877.75,-110 871.75,-104 871.75,-98 871.75,-98 871.75,-86 871.75,-86 871.75,-80 877.75,-74 883.75,-74 883.75,-74 1104.25,-74 1104.25,-74 1110.25,-74 1116.25,-80 1116.25,-86 1116.25,-86 1116.25,-98 1116.25,-98 1116.25,-104 1110.25,-110 1104.25,-110"/>
<text text-anchor="middle" x="994" y="-88.3" font-family="Times,serif" font-size="14.00">从上课情况列表中取出一次上课情况</text>
</g>
<!-- sub1_s1 -->
<g id="node11" class="node"><title>sub1_s1</title>
<path fill="bisque" stroke="black" d="M1213.25,-602C1213.25,-602 992.75,-602 992.75,-602 986.75,-602 980.75,-596 980.75,-590 980.75,-590 980.75,-578 980.75,-578 980.75,-572 986.75,-566 992.75,-566 992.75,-566 1213.25,-566 1213.25,-566 1219.25,-566 1225.25,-572 1225.25,-578 1225.25,-578 1225.25,-590 1225.25,-590 1225.25,-596 1219.25,-602 1213.25,-602"/>
<text text-anchor="middle" x="1103" y="-580.3" font-family="Times,serif" font-size="14.00">读取这次上课情况中的应到学生人数</text>
</g>
<!-- s_c1_n1&#45;&gt;sub1_s1 -->
<g id="edge24" class="edge"><title>s_c1_n1&#45;&gt;sub1_s1</title>
<path fill="none" stroke="black" d="M1116.31,-102.015C1210.6,-112.452 1325,-134.322 1325,-179 1325,-496 1325,-496 1325,-496 1325,-525.017 1258.42,-548.345 1198.18,-563.512"/>
<polygon fill="black" stroke="black" points="1197.07,-560.181 1188.2,-565.968 1198.74,-566.979 1197.07,-560.181"/>
</g>
<!-- s_c1_n2 -->
<g id="node9" class="node"><title>s_c1_n2</title>
<path fill="bisque" stroke="black" d="M574.25,-273C574.25,-273 325.75,-273 325.75,-273 319.75,-273 313.75,-267 313.75,-261 313.75,-261 313.75,-249 313.75,-249 313.75,-243 319.75,-237 325.75,-237 325.75,-237 574.25,-237 574.25,-237 580.25,-237 586.25,-243 586.25,-249 586.25,-249 586.25,-261 586.25,-261 586.25,-267 580.25,-273 574.25,-273"/>
<text text-anchor="middle" x="450" y="-251.3" font-family="Times,serif" font-size="14.00">将这次上课的课时费计入该班级的课时费</text>
</g>
<!-- s_c1_n2&#45;&gt;c1 -->
<g id="edge26" class="edge"><title>s_c1_n2&#45;&gt;c1</title>
<path fill="none" stroke="black" d="M450,-236.7C450,-228.245 450,-217.869 450,-208.373"/>
<polygon fill="black" stroke="black" points="453.5,-208.176 450,-198.176 446.5,-208.176 453.5,-208.176"/>
</g>
<!-- c1&#45;&gt;s_c1_y1 -->
<g id="edge21" class="edge"><title>c1&#45;&gt;s_c1_y1</title>
<path fill="none" stroke="black" d="M450,-161.597C450,-149.746 450,-133.817 450,-120.292"/>
<polygon fill="black" stroke="black" points="453.5,-120.084 450,-110.084 446.5,-120.084 453.5,-120.084"/>
<text text-anchor="middle" x="457.5" y="-132.3" font-family="Times,serif" font-size="14.00">是</text>
</g>
<!-- c1&#45;&gt;s_c1_n1 -->
<g id="edge22" class="edge"><title>c1&#45;&gt;s_c1_n1</title>
<path fill="none" stroke="black" d="M512.935,-169.051C601.576,-155.038 764.81,-129.232 876.324,-111.603"/>
<polygon fill="black" stroke="black" points="876.945,-115.049 886.276,-110.03 875.852,-108.134 876.945,-115.049"/>
<text text-anchor="middle" x="778.5" y="-132.3" font-family="Times,serif" font-size="14.00">否</text>
</g>
<!-- sub1_s2 -->
<g id="node12" class="node"><title>sub1_s2</title>
<path fill="bisque" stroke="black" d="M986,-513C986,-513 794,-513 794,-513 788,-513 782,-507 782,-501 782,-501 782,-489 782,-489 782,-483 788,-477 794,-477 794,-477 986,-477 986,-477 992,-477 998,-483 998,-489 998,-489 998,-501 998,-501 998,-507 992,-513 986,-513"/>
<text text-anchor="middle" x="890" y="-491.3" font-family="Times,serif" font-size="14.00">读取该次上课的应上课教师数量</text>
</g>
<!-- sub1_s1&#45;&gt;sub1_s2 -->
<g id="edge1" class="edge"><title>sub1_s1&#45;&gt;sub1_s2</title>
<path fill="none" stroke="black" d="M1061.17,-565.915C1026.81,-551.879 977.981,-531.936 941.266,-516.94"/>
<polygon fill="black" stroke="black" points="942.313,-513.587 931.732,-513.046 939.666,-520.067 942.313,-513.587"/>
</g>
<!-- sub1_s3_a -->
<g id="node13" class="node"><title>sub1_s3_a</title>
<path fill="bisque" stroke="black" d="M942.25,-423C942.25,-423 813.75,-423 813.75,-423 807.75,-423 801.75,-417 801.75,-411 801.75,-411 801.75,-399 801.75,-399 801.75,-393 807.75,-387 813.75,-387 813.75,-387 942.25,-387 942.25,-387 948.25,-387 954.25,-393 954.25,-399 954.25,-399 954.25,-411 954.25,-411 954.25,-417 948.25,-423 942.25,-423"/>
<text text-anchor="middle" x="878" y="-401.3" font-family="Times,serif" font-size="14.00">优化后人数=起算人数</text>
</g>
<!-- sub1_s2&#45;&gt;sub1_s3_a -->
<g id="edge2" class="edge"><title>sub1_s2&#45;&gt;sub1_s3_a</title>
<path fill="none" stroke="black" d="M781.7,-482.607C752.389,-477.177 726.195,-469.305 717,-458 712.513,-452.483 712.554,-447.55 717,-442 718.346,-440.32 753.953,-432.275 791.337,-424.215"/>
<polygon fill="black" stroke="black" points="792.336,-427.58 801.378,-422.058 790.866,-420.736 792.336,-427.58"/>
<text text-anchor="middle" x="792.5" y="-446.3" font-family="Times,serif" font-size="14.00">应到学生人数&lt;起算人数</text>
</g>
<!-- sub1_s3_b -->
<g id="node14" class="node"><title>sub1_s3_b</title>
<path fill="bisque" stroke="black" d="M1113.25,-423C1113.25,-423 984.75,-423 984.75,-423 978.75,-423 972.75,-417 972.75,-411 972.75,-411 972.75,-399 972.75,-399 972.75,-393 978.75,-387 984.75,-387 984.75,-387 1113.25,-387 1113.25,-387 1119.25,-387 1125.25,-393 1125.25,-399 1125.25,-399 1125.25,-411 1125.25,-411 1125.25,-417 1119.25,-423 1113.25,-423"/>
<text text-anchor="middle" x="1049" y="-401.3" font-family="Times,serif" font-size="14.00">优化后人数=下限人数</text>
</g>
<!-- sub1_s2&#45;&gt;sub1_s3_b -->
<g id="edge3" class="edge"><title>sub1_s2&#45;&gt;sub1_s3_b</title>
<path fill="none" stroke="black" d="M885.344,-476.713C883.452,-465.606 883.25,-451.525 891,-442 892.314,-440.386 926.193,-432.567 962.242,-424.627"/>
<polygon fill="black" stroke="black" points="963.424,-427.951 972.441,-422.39 961.924,-421.114 963.424,-427.951"/>
<text text-anchor="middle" x="966.5" y="-446.3" font-family="Times,serif" font-size="14.00">应到学生人数=起算人数</text>
</g>
<!-- sub1_s3_c -->
<g id="node15" class="node"><title>sub1_s3_c</title>
<path fill="bisque" stroke="black" d="M1284.25,-423C1284.25,-423 1155.75,-423 1155.75,-423 1149.75,-423 1143.75,-417 1143.75,-411 1143.75,-411 1143.75,-399 1143.75,-399 1143.75,-393 1149.75,-387 1155.75,-387 1155.75,-387 1284.25,-387 1284.25,-387 1290.25,-387 1296.25,-393 1296.25,-399 1296.25,-399 1296.25,-411 1296.25,-411 1296.25,-417 1290.25,-423 1284.25,-423"/>
<text text-anchor="middle" x="1220" y="-401.3" font-family="Times,serif" font-size="14.00">优化后人数=应到人数</text>
</g>
<!-- sub1_s2&#45;&gt;sub1_s3_c -->
<g id="edge4" class="edge"><title>sub1_s2&#45;&gt;sub1_s3_c</title>
<path fill="none" stroke="black" d="M974.413,-476.946C996.631,-471.662 1020.42,-465.282 1042,-458 1058.59,-452.403 1061.45,-447.728 1078,-442 1095.72,-435.865 1115.02,-430.277 1133.51,-425.43"/>
<polygon fill="black" stroke="black" points="1134.58,-428.77 1143.39,-422.889 1132.83,-421.99 1134.58,-428.77"/>
<text text-anchor="middle" x="1194.5" y="-446.3" font-family="Times,serif" font-size="14.00">下限人数&lt;=应到学生人数&lt;=上限人数</text>
</g>
<!-- sub1_s3_d -->
<g id="node16" class="node"><title>sub1_s3_d</title>
<path fill="bisque" stroke="black" d="M771.25,-424C771.25,-424 580.75,-424 580.75,-424 574.75,-424 568.75,-418 568.75,-412 568.75,-412 568.75,-398 568.75,-398 568.75,-392 574.75,-386 580.75,-386 580.75,-386 771.25,-386 771.25,-386 777.25,-386 783.25,-392 783.25,-398 783.25,-398 783.25,-412 783.25,-412 783.25,-418 777.25,-424 771.25,-424"/>
<text text-anchor="middle" x="676" y="-408.8" font-family="Times,serif" font-size="14.00">优化后人数=上限人数,</text>
<text text-anchor="middle" x="676" y="-393.8" font-family="Times,serif" font-size="14.00">超上限人数=应到人数&#45;上限人数</text>
</g>
<!-- sub1_s2&#45;&gt;sub1_s3_d -->
<g id="edge5" class="edge"><title>sub1_s2&#45;&gt;sub1_s3_d</title>
<path fill="none" stroke="black" d="M781.752,-489.323C691.003,-484.259 573.885,-474.592 559,-458 547.752,-445.463 553.413,-435.792 566.959,-428.388"/>
<polygon fill="black" stroke="black" points="568.716,-431.432 576.331,-424.066 565.785,-425.076 568.716,-431.432"/>
<text text-anchor="middle" x="634.5" y="-446.3" font-family="Times,serif" font-size="14.00">应到学生人数&gt;上限人数</text>
</g>
<!-- sub1_s4 -->
<g id="node17" class="node"><title>sub1_s4</title>
<path fill="bisque" stroke="black" d="M967.25,-348C967.25,-348 788.75,-348 788.75,-348 782.75,-348 776.75,-342 776.75,-336 776.75,-336 776.75,-324 776.75,-324 776.75,-318 782.75,-312 788.75,-312 788.75,-312 967.25,-312 967.25,-312 973.25,-312 979.25,-318 979.25,-324 979.25,-324 979.25,-336 979.25,-336 979.25,-342 973.25,-348 967.25,-348"/>
<text text-anchor="middle" x="878" y="-326.3" font-family="Times,serif" font-size="14.00">课时费=学生单价x优化后人数</text>
</g>
<!-- sub1_s3_a&#45;&gt;sub1_s4 -->
<g id="edge6" class="edge"><title>sub1_s3_a&#45;&gt;sub1_s4</title>
<path fill="none" stroke="black" d="M878,-386.7C878,-378.245 878,-367.869 878,-358.373"/>
<polygon fill="black" stroke="black" points="881.5,-358.176 878,-348.176 874.5,-358.176 881.5,-358.176"/>
</g>
<!-- sub1_s3_b&#45;&gt;sub1_s4 -->
<g id="edge7" class="edge"><title>sub1_s3_b&#45;&gt;sub1_s4</title>
<path fill="none" stroke="black" d="M1008.91,-386.885C984.467,-376.451 953.051,-363.039 927.122,-351.97"/>
<polygon fill="black" stroke="black" points="928.412,-348.715 917.841,-348.008 925.664,-355.153 928.412,-348.715"/>
</g>
<!-- sub1_s3_c&#45;&gt;sub1_s4 -->
<g id="edge8" class="edge"><title>sub1_s3_c&#45;&gt;sub1_s4</title>
<path fill="none" stroke="black" d="M1143.67,-387.708C1091.6,-376.592 1022.41,-361.825 967.699,-350.146"/>
<polygon fill="black" stroke="black" points="968.169,-346.668 957.659,-348.003 966.708,-353.514 968.169,-346.668"/>
</g>
<!-- sub1_s3_d&#45;&gt;sub1_s4 -->
<g id="edge9" class="edge"><title>sub1_s3_d&#45;&gt;sub1_s4</title>
<path fill="none" stroke="black" d="M725.933,-385.955C754.818,-375.516 791.267,-362.344 821.238,-351.513"/>
<polygon fill="black" stroke="black" points="822.509,-354.775 830.724,-348.085 820.129,-348.192 822.509,-354.775"/>
</g>
<!-- sub1_c1 -->
<g id="node22" class="node"><title>sub1_c1</title>
<path fill="beige" stroke="black" d="M583.189,-687.88C583.189,-687.88 506.529,-674.12 506.529,-674.12 500.623,-673.06 500.623,-670.94 506.529,-669.88 506.529,-669.88 583.189,-656.12 583.189,-656.12 589.094,-655.06 600.906,-655.06 606.811,-656.12 606.811,-656.12 683.471,-669.88 683.471,-669.88 689.377,-670.94 689.377,-673.06 683.471,-674.12 683.471,-674.12 606.811,-687.88 606.811,-687.88 600.906,-688.94 589.094,-688.94 583.189,-687.88"/>
<text text-anchor="middle" x="595" y="-668.3" font-family="Times,serif" font-size="14.00">超上限人数&gt;0?</text>
</g>
<!-- sub1_s4&#45;&gt;sub1_c1 -->
<g id="edge10" class="edge"><title>sub1_s4&#45;&gt;sub1_c1</title>
<path fill="none" stroke="black" d="M776.488,-335.909C694.806,-342.068 588.881,-355.777 559,-386 550.431,-394.667 543.879,-436.947 550,-458 551.36,-462.677 595.561,-527.347 597,-532 608.635,-569.619 604.627,-615.746 600.19,-644.257"/>
<polygon fill="black" stroke="black" points="596.713,-643.824 598.499,-654.267 603.616,-644.989 596.713,-643.824"/>
</g>
<!-- sub1_c1_y1 -->
<g id="node18" class="node"><title>sub1_c1_y1</title>
<path fill="bisque" stroke="black" d="M564,-602C564,-602 328,-602 328,-602 322,-602 316,-596 316,-590 316,-590 316,-578 316,-578 316,-572 322,-566 328,-566 328,-566 564,-566 564,-566 570,-566 576,-572 576,-578 576,-578 576,-590 576,-590 576,-596 570,-602 564,-602"/>
<text text-anchor="middle" x="446" y="-580.3" font-family="Times,serif" font-size="14.00">超上限课时费=超上限单价x超上限人数</text>
</g>
<!-- sub1_c1_y2 -->
<g id="node19" class="node"><title>sub1_c1_y2</title>
<path fill="bisque" stroke="black" d="M522,-513C522,-513 342,-513 342,-513 336,-513 330,-507 330,-501 330,-501 330,-489 330,-489 330,-483 336,-477 342,-477 342,-477 522,-477 522,-477 528,-477 534,-483 534,-489 534,-489 534,-501 534,-501 534,-507 528,-513 522,-513"/>
<text text-anchor="middle" x="432" y="-491.3" font-family="Times,serif" font-size="14.00">课时费=课时费+超上限课时费</text>
</g>
<!-- sub1_c1_y1&#45;&gt;sub1_c1_y2 -->
<g id="edge13" class="edge"><title>sub1_c1_y1&#45;&gt;sub1_c1_y2</title>
<path fill="none" stroke="black" d="M443.234,-565.812C441.278,-553.657 438.616,-537.114 436.374,-523.182"/>
<polygon fill="black" stroke="black" points="439.805,-522.47 434.76,-513.153 432.893,-523.582 439.805,-522.47"/>
</g>
<!-- sub1_s5 -->
<g id="node20" class="node"><title>sub1_s5</title>
<path fill="bisque" stroke="black" d="M518,-423C518,-423 328,-423 328,-423 322,-423 316,-417 316,-411 316,-411 316,-399 316,-399 316,-393 322,-387 328,-387 328,-387 518,-387 518,-387 524,-387 530,-393 530,-399 530,-399 530,-411 530,-411 530,-417 524,-423 518,-423"/>
<text text-anchor="middle" x="423" y="-401.3" font-family="Times,serif" font-size="14.00">课时费=课时费/应上课教师数量</text>
</g>
<!-- sub1_c1_y2&#45;&gt;sub1_s5 -->
<g id="edge14" class="edge"><title>sub1_c1_y2&#45;&gt;sub1_s5</title>
<path fill="none" stroke="black" d="M430.222,-476.614C428.956,-464.24 427.231,-447.369 425.784,-433.22"/>
<polygon fill="black" stroke="black" points="429.243,-432.642 424.744,-423.05 422.279,-433.355 429.243,-432.642"/>
</g>
<!-- sub1_s6 -->
<g id="node21" class="node"><title>sub1_s6</title>
<path fill="bisque" stroke="black" d="M500.25,-348C500.25,-348 365.75,-348 365.75,-348 359.75,-348 353.75,-342 353.75,-336 353.75,-336 353.75,-324 353.75,-324 353.75,-318 359.75,-312 365.75,-312 365.75,-312 500.25,-312 500.25,-312 506.25,-312 512.25,-318 512.25,-324 512.25,-324 512.25,-336 512.25,-336 512.25,-342 506.25,-348 500.25,-348"/>
<text text-anchor="middle" x="433" y="-326.3" font-family="Times,serif" font-size="14.00">输出这次上课的课时费</text>
</g>
<!-- sub1_s5&#45;&gt;sub1_s6 -->
<g id="edge15" class="edge"><title>sub1_s5&#45;&gt;sub1_s6</title>
<path fill="none" stroke="black" d="M425.37,-386.7C426.528,-378.245 427.949,-367.869 429.25,-358.373"/>
<polygon fill="black" stroke="black" points="432.757,-358.558 430.647,-348.176 425.822,-357.608 432.757,-358.558"/>
</g>
<!-- sub1_s6&#45;&gt;s_c1_n2 -->
<g id="edge25" class="edge"><title>sub1_s6&#45;&gt;s_c1_n2</title>
<path fill="none" stroke="black" d="M437.029,-311.7C439.019,-303.154 441.466,-292.645 443.697,-283.067"/>
<polygon fill="black" stroke="black" points="447.141,-283.709 446,-273.176 440.323,-282.121 447.141,-283.709"/>
</g>
<!-- sub1_c1&#45;&gt;sub1_c1_y1 -->
<g id="edge11" class="edge"><title>sub1_c1&#45;&gt;sub1_c1_y1</title>
<path fill="none" stroke="black" d="M572.37,-657.938C549.01,-644.455 512.142,-623.176 484.244,-607.073"/>
<polygon fill="black" stroke="black" points="485.94,-604.011 475.529,-602.044 482.441,-610.074 485.94,-604.011"/>
<text text-anchor="middle" x="541.5" y="-624.3" font-family="Times,serif" font-size="14.00">是</text>
</g>
<!-- sub1_c1&#45;&gt;sub1_s5 -->
<g id="edge12" class="edge"><title>sub1_c1&#45;&gt;sub1_s5</title>
<path fill="none" stroke="black" d="M595.404,-653.963C595.35,-616.767 589.997,-527.504 543,-476 539.829,-472.525 495.932,-447.274 462.14,-428.088"/>
<polygon fill="black" stroke="black" points="463.784,-424.997 453.359,-423.11 460.332,-431.087 463.784,-424.997"/>
<text text-anchor="middle" x="588.5" y="-536.3" font-family="Times,serif" font-size="14.00">否</text>
</g>
</g>
</svg>
