<?xml version="1.0" encoding="UTF-8" standalone="no"?>
<!DOCTYPE svg PUBLIC "-//W3C//DTD SVG 1.1//EN"
 "http://www.w3.org/Graphics/SVG/1.1/DTD/svg11.dtd">
<!-- Generated by graphviz version 2.30.1 (20180420.1509)
 -->
<!-- Title: %3 Pages: 1 -->
<svg width="1374pt" height="1355pt"
 viewBox="0.00 0.00 1374.00 1355.00" xmlns="http://www.w3.org/2000/svg" xmlns:xlink="http://www.w3.org/1999/xlink">
<g id="graph0" class="graph" transform="scale(1 1) rotate(0) translate(4 1351)">
<title>%3</title>
<polygon fill="white" stroke="white" points="-4,5 -4,-1351 1371,-1351 1371,5 -4,5"/>
<g id="clust1" class="cluster"><title>cluster1</title>
<polygon fill="aliceblue" stroke="aliceblue" points="8,-140 8,-1043 438,-1043 438,-140 8,-140"/>
<text text-anchor="middle" x="223" y="-1027.8" font-family="Times,serif" font-size="14.00">计算该教师当月上课班级的课时费总和</text>
</g>
<!-- start -->
<g id="node1" class="node"><title>start</title>
<path fill="aquamarine" stroke="black" d="M145,-1347C145,-1347 115,-1347 115,-1347 109,-1347 103,-1341 103,-1335 103,-1335 103,-1323 103,-1323 103,-1317 109,-1311 115,-1311 115,-1311 145,-1311 145,-1311 151,-1311 157,-1317 157,-1323 157,-1323 157,-1335 157,-1335 157,-1341 151,-1347 145,-1347"/>
<text text-anchor="middle" x="130" y="-1325.3" font-family="Times,serif" font-size="14.00">开始</text>
</g>
<!-- s1 -->
<g id="node3" class="node"><title>s1</title>
<path fill="bisque" stroke="black" d="M169,-1273C169,-1273 91,-1273 91,-1273 85,-1273 79,-1267 79,-1261 79,-1261 79,-1249 79,-1249 79,-1243 85,-1237 91,-1237 91,-1237 169,-1237 169,-1237 175,-1237 181,-1243 181,-1249 181,-1249 181,-1261 181,-1261 181,-1267 175,-1273 169,-1273"/>
<text text-anchor="middle" x="130" y="-1251.3" font-family="Times,serif" font-size="14.00">选择一个教师</text>
</g>
<!-- start&#45;&gt;s1 -->
<g id="edge13" class="edge"><title>start&#45;&gt;s1</title>
<path fill="none" stroke="black" d="M130,-1310.94C130,-1302.81 130,-1292.88 130,-1283.7"/>
<polygon fill="black" stroke="black" points="133.5,-1283.44 130,-1273.44 126.5,-1283.44 133.5,-1283.44"/>
</g>
<!-- end -->
<g id="node2" class="node"><title>end</title>
<path fill="aquamarine" stroke="black" d="M874,-36C874,-36 844,-36 844,-36 838,-36 832,-30 832,-24 832,-24 832,-12 832,-12 832,-6 838,-0 844,-0 844,-0 874,-0 874,-0 880,-0 886,-6 886,-12 886,-12 886,-24 886,-24 886,-30 880,-36 874,-36"/>
<text text-anchor="middle" x="859" y="-14.3" font-family="Times,serif" font-size="14.00">结束</text>
</g>
<!-- s2 -->
<g id="node4" class="node"><title>s2</title>
<path fill="bisque" stroke="black" d="M169,-1199C169,-1199 91,-1199 91,-1199 85,-1199 79,-1193 79,-1187 79,-1187 79,-1175 79,-1175 79,-1169 85,-1163 91,-1163 91,-1163 169,-1163 169,-1163 175,-1163 181,-1169 181,-1175 181,-1175 181,-1187 181,-1187 181,-1193 175,-1199 169,-1199"/>
<text text-anchor="middle" x="130" y="-1177.3" font-family="Times,serif" font-size="14.00">选定一个月份</text>
</g>
<!-- s1&#45;&gt;s2 -->
<g id="edge14" class="edge"><title>s1&#45;&gt;s2</title>
<path fill="none" stroke="black" d="M130,-1236.94C130,-1228.81 130,-1218.88 130,-1209.7"/>
<polygon fill="black" stroke="black" points="133.5,-1209.44 130,-1199.44 126.5,-1209.44 133.5,-1209.44"/>
</g>
<!-- s3 -->
<g id="node5" class="node"><title>s3</title>
<path fill="bisque" stroke="black" d="M233,-1124.5C233,-1124.5 27,-1124.5 27,-1124.5 21,-1124.5 15,-1118.5 15,-1112.5 15,-1112.5 15,-1083.5 15,-1083.5 15,-1077.5 21,-1071.5 27,-1071.5 27,-1071.5 233,-1071.5 233,-1071.5 239,-1071.5 245,-1077.5 245,-1083.5 245,-1083.5 245,-1112.5 245,-1112.5 245,-1118.5 239,-1124.5 233,-1124.5"/>
<text text-anchor="middle" x="130" y="-1109.3" font-family="Times,serif" font-size="14.00">初始化实际课时费=0</text>
<text text-anchor="middle" x="130" y="-1094.3" font-family="Times,serif" font-size="14.00">基本工资扣除=0</text>
<text text-anchor="middle" x="130" y="-1079.3" font-family="Times,serif" font-size="14.00">初始化班级课次对应的课时费报表</text>
</g>
<!-- s2&#45;&gt;s3 -->
<g id="edge15" class="edge"><title>s2&#45;&gt;s3</title>
<path fill="none" stroke="black" d="M130,-1162.82C130,-1154.71 130,-1144.69 130,-1135.02"/>
<polygon fill="black" stroke="black" points="133.5,-1134.77 130,-1124.78 126.5,-1134.78 133.5,-1134.77"/>
</g>
<!-- sub1_s1 -->
<g id="node16" class="node"><title>sub1_s1</title>
<path fill="bisque" stroke="black" d="M212,-1012C212,-1012 48,-1012 48,-1012 42,-1012 36,-1006 36,-1000 36,-1000 36,-988 36,-988 36,-982 42,-976 48,-976 48,-976 212,-976 212,-976 218,-976 224,-982 224,-988 224,-988 224,-1000 224,-1000 224,-1006 218,-1012 212,-1012"/>
<text text-anchor="middle" x="130" y="-990.3" font-family="Times,serif" font-size="14.00">列出该教师上课的所有班级</text>
</g>
<!-- s3&#45;&gt;sub1_s1 -->
<g id="edge16" class="edge"><title>s3&#45;&gt;sub1_s1</title>
<path fill="none" stroke="black" d="M130,-1071.26C130,-1056.35 130,-1037.58 130,-1022.4"/>
<polygon fill="black" stroke="black" points="133.5,-1022.08 130,-1012.08 126.5,-1022.08 133.5,-1022.08"/>
</g>
<!-- s_c1_y1 -->
<g id="node6" class="node"><title>s_c1_y1</title>
<path fill="bisque" stroke="black" d="M777.25,-517C777.25,-517 556.75,-517 556.75,-517 550.75,-517 544.75,-511 544.75,-505 544.75,-505 544.75,-493 544.75,-493 544.75,-487 550.75,-481 556.75,-481 556.75,-481 777.25,-481 777.25,-481 783.25,-481 789.25,-487 789.25,-493 789.25,-493 789.25,-505 789.25,-505 789.25,-511 783.25,-517 777.25,-517"/>
<text text-anchor="middle" x="667" y="-495.3" font-family="Times,serif" font-size="14.00">读取该教师基本工资包含的上课次数</text>
</g>
<!-- s4 -->
<g id="node12" class="node"><title>s4</title>
<path fill="bisque" stroke="black" d="M905,-261C905,-261 813,-261 813,-261 807,-261 801,-255 801,-249 801,-249 801,-237 801,-237 801,-231 807,-225 813,-225 813,-225 905,-225 905,-225 911,-225 917,-231 917,-237 917,-237 917,-249 917,-249 917,-255 911,-261 905,-261"/>
<text text-anchor="middle" x="859" y="-239.3" font-family="Times,serif" font-size="14.00">输出实际课时费</text>
</g>
<!-- s_c1_y1&#45;&gt;s4 -->
<g id="edge20" class="edge"><title>s_c1_y1&#45;&gt;s4</title>
<path fill="none" stroke="black" d="M600.383,-480.935C525.434,-458.447 419.587,-414.757 464,-356 503.361,-303.927 688.58,-269.037 790.808,-253.397"/>
<polygon fill="black" stroke="black" points="791.37,-256.851 800.736,-251.898 790.325,-249.93 791.37,-256.851"/>
<text text-anchor="middle" x="589.5" y="-360.3" font-family="Times,serif" font-size="14.00">上课次数总和=基本工资包含的上课次数</text>
</g>
<!-- s_c1_y2_b -->
<g id="node9" class="node"><title>s_c1_y2_b</title>
<path fill="bisque" stroke="black" d="M830,-428C830,-428 504,-428 504,-428 498,-428 492,-422 492,-416 492,-416 492,-402 492,-402 492,-396 498,-390 504,-390 504,-390 830,-390 830,-390 836,-390 842,-396 842,-402 842,-402 842,-416 842,-416 842,-422 836,-428 830,-428"/>
<text text-anchor="middle" x="667" y="-412.8" font-family="Times,serif" font-size="14.00">基本工资扣除=</text>
<text text-anchor="middle" x="667" y="-397.8" font-family="Times,serif" font-size="14.00">(基本工资包含的上课次数&#45;上课次数总和)x指定课时费</text>
</g>
<!-- s_c1_y1&#45;&gt;s_c1_y2_b -->
<g id="edge21" class="edge"><title>s_c1_y1&#45;&gt;s_c1_y2_b</title>
<path fill="none" stroke="black" d="M667,-480.614C667,-468.56 667,-452.236 667,-438.32"/>
<polygon fill="black" stroke="black" points="670.5,-438.259 667,-428.259 663.5,-438.259 670.5,-438.259"/>
<text text-anchor="middle" x="792.5" y="-450.3" font-family="Times,serif" font-size="14.00">上课次数总和&lt;基本工资包含的上课次数</text>
</g>
<!-- s_c1_y2_c1 -->
<g id="node10" class="node"><title>s_c1_y2_c1</title>
<path fill="bisque" stroke="black" d="M1105.25,-427C1105.25,-427 872.75,-427 872.75,-427 866.75,-427 860.75,-421 860.75,-415 860.75,-415 860.75,-403 860.75,-403 860.75,-397 866.75,-391 872.75,-391 872.75,-391 1105.25,-391 1105.25,-391 1111.25,-391 1117.25,-397 1117.25,-403 1117.25,-403 1117.25,-415 1117.25,-415 1117.25,-421 1111.25,-427 1105.25,-427"/>
<text text-anchor="middle" x="989" y="-405.3" font-family="Times,serif" font-size="14.00">平均课时费=课时费总和/上课次数总和</text>
</g>
<!-- s_c1_y1&#45;&gt;s_c1_y2_c1 -->
<g id="edge22" class="edge"><title>s_c1_y1&#45;&gt;s_c1_y2_c1</title>
<path fill="none" stroke="black" d="M789.472,-493.626C832.664,-488.766 880.719,-479.46 922,-462 937.536,-455.429 952.585,-444.326 964.471,-434.062"/>
<polygon fill="black" stroke="black" points="967.059,-436.442 972.162,-427.157 962.383,-431.233 967.059,-436.442"/>
<text text-anchor="middle" x="1074.5" y="-450.3" font-family="Times,serif" font-size="14.00">上课次数总和&gt;基本工资包含的上课次数</text>
</g>
<!-- s_c1_n1 -->
<g id="node7" class="node"><title>s_c1_n1</title>
<path fill="bisque" stroke="black" d="M1153.25,-518C1153.25,-518 966.75,-518 966.75,-518 960.75,-518 954.75,-512 954.75,-506 954.75,-506 954.75,-492 954.75,-492 954.75,-486 960.75,-480 966.75,-480 966.75,-480 1153.25,-480 1153.25,-480 1159.25,-480 1165.25,-486 1165.25,-492 1165.25,-492 1165.25,-506 1165.25,-506 1165.25,-512 1159.25,-518 1153.25,-518"/>
<text text-anchor="middle" x="1060" y="-502.8" font-family="Times,serif" font-size="14.00">计算兼职教师的年限系数</text>
<text text-anchor="middle" x="1060" y="-487.8" font-family="Times,serif" font-size="14.00">(详见兼职教师年限系数流程图)</text>
</g>
<!-- s_c1_n2 -->
<g id="node8" class="node"><title>s_c1_n2</title>
<path fill="bisque" stroke="black" d="M1354.25,-427C1354.25,-427 1147.75,-427 1147.75,-427 1141.75,-427 1135.75,-421 1135.75,-415 1135.75,-415 1135.75,-403 1135.75,-403 1135.75,-397 1141.75,-391 1147.75,-391 1147.75,-391 1354.25,-391 1354.25,-391 1360.25,-391 1366.25,-397 1366.25,-403 1366.25,-403 1366.25,-415 1366.25,-415 1366.25,-421 1360.25,-427 1354.25,-427"/>
<text text-anchor="middle" x="1251" y="-405.3" font-family="Times,serif" font-size="14.00">实际课时费=课时费总和x年限系数</text>
</g>
<!-- s_c1_n1&#45;&gt;s_c1_n2 -->
<g id="edge29" class="edge"><title>s_c1_n1&#45;&gt;s_c1_n2</title>
<path fill="none" stroke="black" d="M1165.6,-486.001C1184.17,-480.63 1202.49,-472.951 1218,-462 1227.17,-455.526 1234.37,-445.614 1239.67,-436.175"/>
<polygon fill="black" stroke="black" points="1242.91,-437.534 1244.35,-427.037 1236.68,-434.347 1242.91,-437.534"/>
</g>
<!-- s_c1_n2&#45;&gt;s4 -->
<g id="edge30" class="edge"><title>s_c1_n2&#45;&gt;s4</title>
<path fill="none" stroke="black" d="M1239.08,-390.623C1221.36,-366.229 1185.64,-322.32 1144,-300 1076.04,-263.575 987.593,-250.684 927.373,-246.209"/>
<polygon fill="black" stroke="black" points="927.43,-242.705 917.214,-245.514 926.952,-249.689 927.43,-242.705"/>
</g>
<!-- s_c1_y2_b&#45;&gt;s4 -->
<g id="edge26" class="edge"><title>s_c1_y2_b&#45;&gt;s4</title>
<path fill="none" stroke="black" d="M694.491,-389.991C702.552,-384.439 711.273,-378.161 719,-372 730.659,-362.704 795.897,-302.492 833.064,-268.063"/>
<polygon fill="black" stroke="black" points="835.584,-270.499 840.54,-261.135 830.826,-265.365 835.584,-270.499"/>
</g>
<!-- s_c1_y2_c2 -->
<g id="node11" class="node"><title>s_c1_y2_c2</title>
<path fill="bisque" stroke="black" d="M1123.25,-338C1123.25,-338 820.75,-338 820.75,-338 814.75,-338 808.75,-332 808.75,-326 808.75,-326 808.75,-312 808.75,-312 808.75,-306 814.75,-300 820.75,-300 820.75,-300 1123.25,-300 1123.25,-300 1129.25,-300 1135.25,-306 1135.25,-312 1135.25,-312 1135.25,-326 1135.25,-326 1135.25,-332 1129.25,-338 1123.25,-338"/>
<text text-anchor="middle" x="972" y="-322.8" font-family="Times,serif" font-size="14.00">实际课时费=</text>
<text text-anchor="middle" x="972" y="-307.8" font-family="Times,serif" font-size="14.00">课时费总和&#45;平均课时费x基本工资包含的上课次数</text>
</g>
<!-- s_c1_y2_c1&#45;&gt;s_c1_y2_c2 -->
<g id="edge27" class="edge"><title>s_c1_y2_c1&#45;&gt;s_c1_y2_c2</title>
<path fill="none" stroke="black" d="M985.641,-390.614C983.313,-378.56 980.159,-362.236 977.471,-348.32"/>
<polygon fill="black" stroke="black" points="980.861,-347.413 975.527,-338.259 973.988,-348.741 980.861,-347.413"/>
</g>
<!-- s_c1_y2_c2&#45;&gt;s4 -->
<g id="edge28" class="edge"><title>s_c1_y2_c2&#45;&gt;s4</title>
<path fill="none" stroke="black" d="M944.357,-299.898C929.141,-289.933 910.109,-277.469 893.879,-266.841"/>
<polygon fill="black" stroke="black" points="895.476,-263.703 885.193,-261.153 891.641,-269.559 895.476,-263.703"/>
</g>
<!-- s5 -->
<g id="node13" class="node"><title>s5</title>
<path fill="bisque" stroke="black" d="M912.25,-185C912.25,-185 805.75,-185 805.75,-185 799.75,-185 793.75,-179 793.75,-173 793.75,-173 793.75,-161 793.75,-161 793.75,-155 799.75,-149 805.75,-149 805.75,-149 912.25,-149 912.25,-149 918.25,-149 924.25,-155 924.25,-161 924.25,-161 924.25,-173 924.25,-173 924.25,-179 918.25,-185 912.25,-185"/>
<text text-anchor="middle" x="859" y="-163.3" font-family="Times,serif" font-size="14.00">输出基本工资扣除</text>
</g>
<!-- s4&#45;&gt;s5 -->
<g id="edge23" class="edge"><title>s4&#45;&gt;s5</title>
<path fill="none" stroke="black" d="M859,-224.837C859,-216.058 859,-205.163 859,-195.267"/>
<polygon fill="black" stroke="black" points="862.5,-195.07 859,-185.07 855.5,-195.07 862.5,-195.07"/>
</g>
<!-- s6 -->
<g id="node14" class="node"><title>s6</title>
<path fill="bisque" stroke="black" d="M955,-110C955,-110 763,-110 763,-110 757,-110 751,-104 751,-98 751,-98 751,-86 751,-86 751,-80 757,-74 763,-74 763,-74 955,-74 955,-74 961,-74 967,-80 967,-86 967,-86 967,-98 967,-98 967,-104 961,-110 955,-110"/>
<text text-anchor="middle" x="859" y="-88.3" font-family="Times,serif" font-size="14.00">输出班级课次对应的课时费报表</text>
</g>
<!-- s5&#45;&gt;s6 -->
<g id="edge24" class="edge"><title>s5&#45;&gt;s6</title>
<path fill="none" stroke="black" d="M859,-148.7C859,-140.245 859,-129.869 859,-120.373"/>
<polygon fill="black" stroke="black" points="862.5,-120.176 859,-110.176 855.5,-120.176 862.5,-120.176"/>
</g>
<!-- s6&#45;&gt;end -->
<g id="edge25" class="edge"><title>s6&#45;&gt;end</title>
<path fill="none" stroke="black" d="M859,-73.937C859,-65.8072 859,-55.8761 859,-46.7047"/>
<polygon fill="black" stroke="black" points="862.5,-46.4406 859,-36.4407 855.5,-46.4407 862.5,-46.4406"/>
</g>
<!-- c1 -->
<g id="node15" class="node"><title>c1</title>
<path fill="beige" stroke="black" d="M655.346,-603.138C655.346,-603.138 605.355,-590.862 605.355,-590.862 599.528,-589.431 599.528,-586.569 605.355,-585.138 605.355,-585.138 655.346,-572.862 655.346,-572.862 661.173,-571.431 672.827,-571.431 678.654,-572.862 678.654,-572.862 728.645,-585.138 728.645,-585.138 734.472,-586.569 734.472,-589.431 728.645,-590.862 728.645,-590.862 678.654,-603.138 678.654,-603.138 672.827,-604.569 661.173,-604.569 655.346,-603.138"/>
<text text-anchor="middle" x="667" y="-584.3" font-family="Times,serif" font-size="14.00">全职教师?</text>
</g>
<!-- c1&#45;&gt;s_c1_y1 -->
<g id="edge18" class="edge"><title>c1&#45;&gt;s_c1_y1</title>
<path fill="none" stroke="black" d="M667,-569.812C667,-557.657 667,-541.114 667,-527.182"/>
<polygon fill="black" stroke="black" points="670.5,-527.153 667,-517.153 663.5,-527.153 670.5,-527.153"/>
<text text-anchor="middle" x="674.5" y="-540.3" font-family="Times,serif" font-size="14.00">是</text>
</g>
<!-- c1&#45;&gt;s_c1_n1 -->
<g id="edge19" class="edge"><title>c1&#45;&gt;s_c1_n1</title>
<path fill="none" stroke="black" d="M703.62,-578.893C763.557,-565.625 884.356,-538.883 968.614,-520.231"/>
<polygon fill="black" stroke="black" points="969.437,-523.633 978.444,-518.054 967.924,-516.799 969.437,-523.633"/>
<text text-anchor="middle" x="895.5" y="-540.3" font-family="Times,serif" font-size="14.00">否</text>
</g>
<!-- sub1_s2 -->
<g id="node17" class="node"><title>sub1_s2</title>
<path fill="bisque" stroke="black" d="M206.25,-938C206.25,-938 53.75,-938 53.75,-938 47.75,-938 41.75,-932 41.75,-926 41.75,-926 41.75,-912 41.75,-912 41.75,-906 47.75,-900 53.75,-900 53.75,-900 206.25,-900 206.25,-900 212.25,-900 218.25,-906 218.25,-912 218.25,-912 218.25,-926 218.25,-926 218.25,-932 212.25,-938 206.25,-938"/>
<text text-anchor="middle" x="130" y="-922.8" font-family="Times,serif" font-size="14.00">选择需要发放薪资的班级,</text>
<text text-anchor="middle" x="130" y="-907.8" font-family="Times,serif" font-size="14.00">生成班级列表</text>
</g>
<!-- sub1_s1&#45;&gt;sub1_s2 -->
<g id="edge1" class="edge"><title>sub1_s1&#45;&gt;sub1_s2</title>
<path fill="none" stroke="black" d="M130,-975.7C130,-967.49 130,-957.469 130,-948.201"/>
<polygon fill="black" stroke="black" points="133.5,-948.194 130,-938.194 126.5,-948.195 133.5,-948.194"/>
</g>
<!-- sub1_s3 -->
<g id="node18" class="node"><title>sub1_s3</title>
<path fill="bisque" stroke="black" d="M191,-862C191,-862 69,-862 69,-862 63,-862 57,-856 57,-850 57,-850 57,-836 57,-836 57,-830 63,-824 69,-824 69,-824 191,-824 191,-824 197,-824 203,-830 203,-836 203,-836 203,-850 203,-850 203,-856 197,-862 191,-862"/>
<text text-anchor="middle" x="130" y="-846.8" font-family="Times,serif" font-size="14.00">初始化课时费总和=0</text>
<text text-anchor="middle" x="130" y="-831.8" font-family="Times,serif" font-size="14.00">上课次数总和=0</text>
</g>
<!-- sub1_s2&#45;&gt;sub1_s3 -->
<g id="edge2" class="edge"><title>sub1_s2&#45;&gt;sub1_s3</title>
<path fill="none" stroke="black" d="M130,-899.708C130,-891.464 130,-881.538 130,-872.362"/>
<polygon fill="black" stroke="black" points="133.5,-872.082 130,-862.082 126.5,-872.082 133.5,-872.082"/>
</g>
<!-- sub1_c1 -->
<g id="node27" class="node"><title>sub1_c1</title>
<path fill="beige" stroke="black" d="M118.194,-783.851C118.194,-783.851 42.9017,-770.149 42.9017,-770.149 36.9987,-769.074 36.9987,-766.926 42.9017,-765.851 42.9017,-765.851 118.194,-752.149 118.194,-752.149 124.097,-751.074 135.903,-751.074 141.806,-752.149 141.806,-752.149 217.098,-765.851 217.098,-765.851 223.001,-766.926 223.001,-769.074 217.098,-770.149 217.098,-770.149 141.806,-783.851 141.806,-783.851 135.903,-784.926 124.097,-784.926 118.194,-783.851"/>
<text text-anchor="middle" x="130" y="-764.3" font-family="Times,serif" font-size="14.00">班级列表为空?</text>
</g>
<!-- sub1_s3&#45;&gt;sub1_c1 -->
<g id="edge3" class="edge"><title>sub1_s3&#45;&gt;sub1_c1</title>
<path fill="none" stroke="black" d="M130,-823.955C130,-815.701 130,-805.738 130,-796.574"/>
<polygon fill="black" stroke="black" points="133.5,-796.335 130,-786.335 126.5,-796.335 133.5,-796.335"/>
</g>
<!-- sub1_s_c1_y1 -->
<g id="node19" class="node"><title>sub1_s_c1_y1</title>
<path fill="bisque" stroke="black" d="M418,-697.5C418,-697.5 254,-697.5 254,-697.5 248,-697.5 242,-691.5 242,-685.5 242,-685.5 242,-656.5 242,-656.5 242,-650.5 248,-644.5 254,-644.5 254,-644.5 418,-644.5 418,-644.5 424,-644.5 430,-650.5 430,-656.5 430,-656.5 430,-685.5 430,-685.5 430,-691.5 424,-697.5 418,-697.5"/>
<text text-anchor="middle" x="336" y="-682.3" font-family="Times,serif" font-size="14.00">输出课时费总和,</text>
<text text-anchor="middle" x="336" y="-667.3" font-family="Times,serif" font-size="14.00">上课次数总和,</text>
<text text-anchor="middle" x="336" y="-652.3" font-family="Times,serif" font-size="14.00">班级课次对应的课时费报表</text>
</g>
<!-- sub1_s_c1_y1&#45;&gt;c1 -->
<g id="edge17" class="edge"><title>sub1_s_c1_y1&#45;&gt;c1</title>
<path fill="none" stroke="black" d="M430.408,-646.897C493.381,-631.487 573.309,-611.927 622.275,-599.945"/>
<polygon fill="black" stroke="black" points="623.355,-603.284 632.236,-597.507 621.691,-596.485 623.355,-603.284"/>
</g>
<!-- sub1_s_c1_n1 -->
<g id="node20" class="node"><title>sub1_s_c1_n1</title>
<path fill="bisque" stroke="black" d="M212,-689C212,-689 48,-689 48,-689 42,-689 36,-683 36,-677 36,-677 36,-665 36,-665 36,-659 42,-653 48,-653 48,-653 212,-653 212,-653 218,-653 224,-659 224,-665 224,-665 224,-677 224,-677 224,-683 218,-689 212,-689"/>
<text text-anchor="middle" x="130" y="-667.3" font-family="Times,serif" font-size="14.00">从班级列表中取出一个班级</text>
</g>
<!-- sub1_s_c1_n2 -->
<g id="node21" class="node"><title>sub1_s_c1_n2</title>
<path fill="bisque" stroke="black" d="M257.25,-606C257.25,-606 56.75,-606 56.75,-606 50.75,-606 44.75,-600 44.75,-594 44.75,-594 44.75,-582 44.75,-582 44.75,-576 50.75,-570 56.75,-570 56.75,-570 257.25,-570 257.25,-570 263.25,-570 269.25,-576 269.25,-582 269.25,-582 269.25,-594 269.25,-594 269.25,-600 263.25,-606 257.25,-606"/>
<text text-anchor="middle" x="157" y="-584.3" font-family="Times,serif" font-size="14.00">列出当前班级所有上课情况(按次)</text>
</g>
<!-- sub1_s_c1_n1&#45;&gt;sub1_s_c1_n2 -->
<g id="edge6" class="edge"><title>sub1_s_c1_n1&#45;&gt;sub1_s_c1_n2</title>
<path fill="none" stroke="black" d="M135.726,-652.822C139.306,-642.083 143.992,-628.025 148.054,-615.837"/>
<polygon fill="black" stroke="black" points="151.44,-616.747 151.282,-606.153 144.8,-614.533 151.44,-616.747"/>
</g>
<!-- sub1_s_c1_n3 -->
<g id="node22" class="node"><title>sub1_s_c1_n3</title>
<path fill="bisque" stroke="black" d="M281.25,-518C281.25,-518 48.75,-518 48.75,-518 42.75,-518 36.75,-512 36.75,-506 36.75,-506 36.75,-492 36.75,-492 36.75,-486 42.75,-480 48.75,-480 48.75,-480 281.25,-480 281.25,-480 287.25,-480 293.25,-486 293.25,-492 293.25,-492 293.25,-506 293.25,-506 293.25,-512 287.25,-518 281.25,-518"/>
<text text-anchor="middle" x="165" y="-502.8" font-family="Times,serif" font-size="14.00">选择需要计算课时费的上课情况(按次),</text>
<text text-anchor="middle" x="165" y="-487.8" font-family="Times,serif" font-size="14.00">生成上课情况列表</text>
</g>
<!-- sub1_s_c1_n2&#45;&gt;sub1_s_c1_n3 -->
<g id="edge7" class="edge"><title>sub1_s_c1_n2&#45;&gt;sub1_s_c1_n3</title>
<path fill="none" stroke="black" d="M158.581,-569.812C159.666,-558.011 161.131,-542.072 162.388,-528.404"/>
<polygon fill="black" stroke="black" points="165.91,-528.33 163.34,-518.051 158.939,-527.689 165.91,-528.33"/>
</g>
<!-- sub1_s_c1_n4 -->
<g id="node23" class="node"><title>sub1_s_c1_n4</title>
<path fill="bisque" stroke="black" d="M283.25,-428C283.25,-428 48.75,-428 48.75,-428 42.75,-428 36.75,-422 36.75,-416 36.75,-416 36.75,-402 36.75,-402 36.75,-396 42.75,-390 48.75,-390 48.75,-390 283.25,-390 283.25,-390 289.25,-390 295.25,-396 295.25,-402 295.25,-402 295.25,-416 295.25,-416 295.25,-422 289.25,-428 283.25,-428"/>
<text text-anchor="middle" x="166" y="-412.8" font-family="Times,serif" font-size="14.00">计算给定班级的上课情况列表的课时费</text>
<text text-anchor="middle" x="166" y="-397.8" font-family="Times,serif" font-size="14.00">(详见课时费计算流程图)</text>
</g>
<!-- sub1_s_c1_n3&#45;&gt;sub1_s_c1_n4 -->
<g id="edge8" class="edge"><title>sub1_s_c1_n3&#45;&gt;sub1_s_c1_n4</title>
<path fill="none" stroke="black" d="M165.207,-479.766C165.343,-467.849 165.522,-452.038 165.676,-438.482"/>
<polygon fill="black" stroke="black" points="169.179,-438.249 165.793,-428.21 162.18,-438.17 169.179,-438.249"/>
</g>
<!-- sub1_s_c1_n5 -->
<g id="node24" class="node"><title>sub1_s_c1_n5</title>
<path fill="bisque" stroke="black" d="M222.25,-337C222.25,-337 73.75,-337 73.75,-337 67.75,-337 61.75,-331 61.75,-325 61.75,-325 61.75,-313 61.75,-313 61.75,-307 67.75,-301 73.75,-301 73.75,-301 222.25,-301 222.25,-301 228.25,-301 234.25,-307 234.25,-313 234.25,-313 234.25,-325 234.25,-325 234.25,-331 228.25,-337 222.25,-337"/>
<text text-anchor="middle" x="148" y="-315.3" font-family="Times,serif" font-size="14.00">将课时费计入课时费总和</text>
</g>
<!-- sub1_s_c1_n4&#45;&gt;sub1_s_c1_n5 -->
<g id="edge9" class="edge"><title>sub1_s_c1_n4&#45;&gt;sub1_s_c1_n5</title>
<path fill="none" stroke="black" d="M162.27,-389.766C159.743,-377.41 156.359,-360.868 153.521,-346.993"/>
<polygon fill="black" stroke="black" points="156.914,-346.112 151.481,-337.016 150.056,-347.515 156.914,-346.112"/>
</g>
<!-- sub1_s_c1_n6 -->
<g id="node25" class="node"><title>sub1_s_c1_n6</title>
<path fill="bisque" stroke="black" d="M217,-262C217,-262 53,-262 53,-262 47,-262 41,-256 41,-250 41,-250 41,-236 41,-236 41,-230 47,-224 53,-224 53,-224 217,-224 217,-224 223,-224 229,-230 229,-236 229,-236 229,-250 229,-250 229,-256 223,-262 217,-262"/>
<text text-anchor="middle" x="135" y="-246.8" font-family="Times,serif" font-size="14.00">将上课情况列表的上课次数</text>
<text text-anchor="middle" x="135" y="-231.8" font-family="Times,serif" font-size="14.00">计入上课次数总和</text>
</g>
<!-- sub1_s_c1_n5&#45;&gt;sub1_s_c1_n6 -->
<g id="edge10" class="edge"><title>sub1_s_c1_n5&#45;&gt;sub1_s_c1_n6</title>
<path fill="none" stroke="black" d="M144.985,-300.837C143.487,-292.308 141.638,-281.783 139.94,-272.118"/>
<polygon fill="black" stroke="black" points="143.358,-271.346 138.18,-262.102 136.463,-272.557 143.358,-271.346"/>
</g>
<!-- sub1_s_c1_n7 -->
<g id="node26" class="node"><title>sub1_s_c1_n7</title>
<path fill="bisque" stroke="black" d="M235,-186C235,-186 29,-186 29,-186 23,-186 17,-180 17,-174 17,-174 17,-160 17,-160 17,-154 23,-148 29,-148 29,-148 235,-148 235,-148 241,-148 247,-154 247,-160 247,-160 247,-174 247,-174 247,-180 241,-186 235,-186"/>
<text text-anchor="middle" x="132" y="-170.8" font-family="Times,serif" font-size="14.00">将当前班级的班级课次课时费报表</text>
<text text-anchor="middle" x="132" y="-155.8" font-family="Times,serif" font-size="14.00">合并到班级课次对应的课时费报表</text>
</g>
<!-- sub1_s_c1_n6&#45;&gt;sub1_s_c1_n7 -->
<g id="edge11" class="edge"><title>sub1_s_c1_n6&#45;&gt;sub1_s_c1_n7</title>
<path fill="none" stroke="black" d="M134.258,-223.708C133.924,-215.464 133.522,-205.538 133.15,-196.362"/>
<polygon fill="black" stroke="black" points="136.635,-195.932 132.733,-186.082 129.641,-196.215 136.635,-195.932"/>
</g>
<!-- sub1_s_c1_n7&#45;&gt;sub1_c1 -->
<g id="edge12" class="edge"><title>sub1_s_c1_n7&#45;&gt;sub1_c1</title>
<path fill="none" stroke="black" d="M65.104,-186.064C39.8049,-197.3 17,-214.935 17,-242 17,-672 17,-672 17,-672 17,-710.723 56.3592,-736.829 88.6197,-751.722"/>
<polygon fill="black" stroke="black" points="87.3576,-754.991 97.921,-755.806 90.1719,-748.581 87.3576,-754.991"/>
</g>
<!-- sub1_c1&#45;&gt;sub1_s_c1_y1 -->
<g id="edge4" class="edge"><title>sub1_c1&#45;&gt;sub1_s_c1_y1</title>
<path fill="none" stroke="black" d="M156.509,-754.775C185.382,-741.46 232.625,-719.673 271.397,-701.793"/>
<polygon fill="black" stroke="black" points="272.93,-704.94 280.545,-697.574 269.998,-698.583 272.93,-704.94"/>
<text text-anchor="middle" x="247.5" y="-720.3" font-family="Times,serif" font-size="14.00">是</text>
</g>
<!-- sub1_c1&#45;&gt;sub1_s_c1_n1 -->
<g id="edge5" class="edge"><title>sub1_c1&#45;&gt;sub1_s_c1_n1</title>
<path fill="none" stroke="black" d="M130,-749.576C130,-735.648 130,-715.861 130,-699.757"/>
<polygon fill="black" stroke="black" points="133.5,-699.314 130,-689.314 126.5,-699.314 133.5,-699.314"/>
<text text-anchor="middle" x="137.5" y="-720.3" font-family="Times,serif" font-size="14.00">否</text>
</g>
</g>
</svg>
