<?xml version="1.0" encoding="UTF-8" standalone="no"?>
<!DOCTYPE svg PUBLIC "-//W3C//DTD SVG 1.1//EN"
 "http://www.w3.org/Graphics/SVG/1.1/DTD/svg11.dtd">
<!-- Generated by graphviz version 2.30.1 (20180420.1509)
 -->
<!-- Title: %3 Pages: 1 -->
<svg width="1306pt" height="1247pt"
 viewBox="0.00 0.00 1306.00 1247.00" xmlns="http://www.w3.org/2000/svg" xmlns:xlink="http://www.w3.org/1999/xlink">
<g id="graph0" class="graph" transform="scale(1 1) rotate(0) translate(4 1243)">
<title>%3</title>
<polygon fill="white" stroke="white" points="-4,5 -4,-1243 1303,-1243 1303,5 -4,5"/>
<g id="clust1" class="cluster"><title>cluster1</title>
<polygon fill="aliceblue" stroke="aliceblue" points="8,-140 8,-951 370,-951 370,-140 8,-140"/>
<text text-anchor="middle" x="189" y="-935.8" font-family="Times,serif" font-size="14.00">计算该教师当月上课班级的课时费总和</text>
</g>
<!-- start -->
<g id="node1" class="node"><title>start</title>
<path fill="aquamarine" stroke="black" d="M154,-1239C154,-1239 124,-1239 124,-1239 118,-1239 112,-1233 112,-1227 112,-1227 112,-1215 112,-1215 112,-1209 118,-1203 124,-1203 124,-1203 154,-1203 154,-1203 160,-1203 166,-1209 166,-1215 166,-1215 166,-1227 166,-1227 166,-1233 160,-1239 154,-1239"/>
<text text-anchor="middle" x="139" y="-1217.3" font-family="Times,serif" font-size="14.00">开始</text>
</g>
<!-- s1 -->
<g id="node3" class="node"><title>s1</title>
<path fill="bisque" stroke="black" d="M178,-1165C178,-1165 100,-1165 100,-1165 94,-1165 88,-1159 88,-1153 88,-1153 88,-1141 88,-1141 88,-1135 94,-1129 100,-1129 100,-1129 178,-1129 178,-1129 184,-1129 190,-1135 190,-1141 190,-1141 190,-1153 190,-1153 190,-1159 184,-1165 178,-1165"/>
<text text-anchor="middle" x="139" y="-1143.3" font-family="Times,serif" font-size="14.00">选择一个教师</text>
</g>
<!-- start&#45;&gt;s1 -->
<g id="edge12" class="edge"><title>start&#45;&gt;s1</title>
<path fill="none" stroke="black" d="M139,-1202.94C139,-1194.81 139,-1184.88 139,-1175.7"/>
<polygon fill="black" stroke="black" points="142.5,-1175.44 139,-1165.44 135.5,-1175.44 142.5,-1175.44"/>
</g>
<!-- end -->
<g id="node2" class="node"><title>end</title>
<path fill="aquamarine" stroke="black" d="M806,-36C806,-36 776,-36 776,-36 770,-36 764,-30 764,-24 764,-24 764,-12 764,-12 764,-6 770,-0 776,-0 776,-0 806,-0 806,-0 812,-0 818,-6 818,-12 818,-12 818,-24 818,-24 818,-30 812,-36 806,-36"/>
<text text-anchor="middle" x="791" y="-14.3" font-family="Times,serif" font-size="14.00">结束</text>
</g>
<!-- s2 -->
<g id="node4" class="node"><title>s2</title>
<path fill="bisque" stroke="black" d="M178,-1091C178,-1091 100,-1091 100,-1091 94,-1091 88,-1085 88,-1079 88,-1079 88,-1067 88,-1067 88,-1061 94,-1055 100,-1055 100,-1055 178,-1055 178,-1055 184,-1055 190,-1061 190,-1067 190,-1067 190,-1079 190,-1079 190,-1085 184,-1091 178,-1091"/>
<text text-anchor="middle" x="139" y="-1069.3" font-family="Times,serif" font-size="14.00">选定一个月份</text>
</g>
<!-- s1&#45;&gt;s2 -->
<g id="edge13" class="edge"><title>s1&#45;&gt;s2</title>
<path fill="none" stroke="black" d="M139,-1128.94C139,-1120.81 139,-1110.88 139,-1101.7"/>
<polygon fill="black" stroke="black" points="142.5,-1101.44 139,-1091.44 135.5,-1101.44 142.5,-1101.44"/>
</g>
<!-- s3 -->
<g id="node5" class="node"><title>s3</title>
<path fill="bisque" stroke="black" d="M200,-1017C200,-1017 78,-1017 78,-1017 72,-1017 66,-1011 66,-1005 66,-1005 66,-991 66,-991 66,-985 72,-979 78,-979 78,-979 200,-979 200,-979 206,-979 212,-985 212,-991 212,-991 212,-1005 212,-1005 212,-1011 206,-1017 200,-1017"/>
<text text-anchor="middle" x="139" y="-1001.8" font-family="Times,serif" font-size="14.00">初始化实际课时费=0</text>
<text text-anchor="middle" x="139" y="-986.8" font-family="Times,serif" font-size="14.00">基本工资扣除=0</text>
</g>
<!-- s2&#45;&gt;s3 -->
<g id="edge14" class="edge"><title>s2&#45;&gt;s3</title>
<path fill="none" stroke="black" d="M139,-1054.7C139,-1046.49 139,-1036.47 139,-1027.2"/>
<polygon fill="black" stroke="black" points="142.5,-1027.19 139,-1017.19 135.5,-1027.19 142.5,-1027.19"/>
</g>
<!-- sub1_s1 -->
<g id="node15" class="node"><title>sub1_s1</title>
<path fill="bisque" stroke="black" d="M249.25,-920C249.25,-920 28.75,-920 28.75,-920 22.75,-920 16.75,-914 16.75,-908 16.75,-908 16.75,-896 16.75,-896 16.75,-890 22.75,-884 28.75,-884 28.75,-884 249.25,-884 249.25,-884 255.25,-884 261.25,-890 261.25,-896 261.25,-896 261.25,-908 261.25,-908 261.25,-914 255.25,-920 249.25,-920"/>
<text text-anchor="middle" x="139" y="-898.3" font-family="Times,serif" font-size="14.00">列出该教师在该月应上课的所有班级</text>
</g>
<!-- s3&#45;&gt;sub1_s1 -->
<g id="edge15" class="edge"><title>s3&#45;&gt;sub1_s1</title>
<path fill="none" stroke="black" d="M139,-978.876C139,-965.091 139,-945.897 139,-930.263"/>
<polygon fill="black" stroke="black" points="142.5,-930.118 139,-920.118 135.5,-930.118 142.5,-930.118"/>
</g>
<!-- s_c1_y1 -->
<g id="node6" class="node"><title>s_c1_y1</title>
<path fill="bisque" stroke="black" d="M709.25,-441C709.25,-441 488.75,-441 488.75,-441 482.75,-441 476.75,-435 476.75,-429 476.75,-429 476.75,-417 476.75,-417 476.75,-411 482.75,-405 488.75,-405 488.75,-405 709.25,-405 709.25,-405 715.25,-405 721.25,-411 721.25,-417 721.25,-417 721.25,-429 721.25,-429 721.25,-435 715.25,-441 709.25,-441"/>
<text text-anchor="middle" x="599" y="-419.3" font-family="Times,serif" font-size="14.00">读取该教师基本工资包含的上课次数</text>
</g>
<!-- s4 -->
<g id="node12" class="node"><title>s4</title>
<path fill="bisque" stroke="black" d="M837,-185C837,-185 745,-185 745,-185 739,-185 733,-179 733,-173 733,-173 733,-161 733,-161 733,-155 739,-149 745,-149 745,-149 837,-149 837,-149 843,-149 849,-155 849,-161 849,-161 849,-173 849,-173 849,-179 843,-185 837,-185"/>
<text text-anchor="middle" x="791" y="-163.3" font-family="Times,serif" font-size="14.00">输出实际课时费</text>
</g>
<!-- s_c1_y1&#45;&gt;s4 -->
<g id="edge19" class="edge"><title>s_c1_y1&#45;&gt;s4</title>
<path fill="none" stroke="black" d="M532.383,-404.935C457.434,-382.447 351.587,-338.757 396,-280 435.361,-227.927 620.58,-193.037 722.808,-177.397"/>
<polygon fill="black" stroke="black" points="723.37,-180.851 732.736,-175.898 722.325,-173.93 723.37,-180.851"/>
<text text-anchor="middle" x="521.5" y="-284.3" font-family="Times,serif" font-size="14.00">上课次数总和=基本工资包含的上课次数</text>
</g>
<!-- s_c1_y2_b -->
<g id="node9" class="node"><title>s_c1_y2_b</title>
<path fill="bisque" stroke="black" d="M762,-352C762,-352 436,-352 436,-352 430,-352 424,-346 424,-340 424,-340 424,-326 424,-326 424,-320 430,-314 436,-314 436,-314 762,-314 762,-314 768,-314 774,-320 774,-326 774,-326 774,-340 774,-340 774,-346 768,-352 762,-352"/>
<text text-anchor="middle" x="599" y="-336.8" font-family="Times,serif" font-size="14.00">基本工资扣除=</text>
<text text-anchor="middle" x="599" y="-321.8" font-family="Times,serif" font-size="14.00">(基本工资包含的上课次数&#45;上课次数总和)x指定课时费</text>
</g>
<!-- s_c1_y1&#45;&gt;s_c1_y2_b -->
<g id="edge20" class="edge"><title>s_c1_y1&#45;&gt;s_c1_y2_b</title>
<path fill="none" stroke="black" d="M599,-404.614C599,-392.56 599,-376.236 599,-362.32"/>
<polygon fill="black" stroke="black" points="602.5,-362.259 599,-352.259 595.5,-362.259 602.5,-362.259"/>
<text text-anchor="middle" x="724.5" y="-374.3" font-family="Times,serif" font-size="14.00">上课次数总和&lt;基本工资包含的上课次数</text>
</g>
<!-- s_c1_y2_c1 -->
<g id="node10" class="node"><title>s_c1_y2_c1</title>
<path fill="bisque" stroke="black" d="M1037.25,-351C1037.25,-351 804.75,-351 804.75,-351 798.75,-351 792.75,-345 792.75,-339 792.75,-339 792.75,-327 792.75,-327 792.75,-321 798.75,-315 804.75,-315 804.75,-315 1037.25,-315 1037.25,-315 1043.25,-315 1049.25,-321 1049.25,-327 1049.25,-327 1049.25,-339 1049.25,-339 1049.25,-345 1043.25,-351 1037.25,-351"/>
<text text-anchor="middle" x="921" y="-329.3" font-family="Times,serif" font-size="14.00">平均课时费=课时费总和/上课次数总和</text>
</g>
<!-- s_c1_y1&#45;&gt;s_c1_y2_c1 -->
<g id="edge21" class="edge"><title>s_c1_y1&#45;&gt;s_c1_y2_c1</title>
<path fill="none" stroke="black" d="M721.472,-417.626C764.664,-412.766 812.719,-403.46 854,-386 869.536,-379.429 884.585,-368.326 896.471,-358.062"/>
<polygon fill="black" stroke="black" points="899.059,-360.442 904.162,-351.157 894.383,-355.233 899.059,-360.442"/>
<text text-anchor="middle" x="1006.5" y="-374.3" font-family="Times,serif" font-size="14.00">上课次数总和&gt;基本工资包含的上课次数</text>
</g>
<!-- s_c1_n1 -->
<g id="node7" class="node"><title>s_c1_n1</title>
<path fill="bisque" stroke="black" d="M1085.25,-442C1085.25,-442 898.75,-442 898.75,-442 892.75,-442 886.75,-436 886.75,-430 886.75,-430 886.75,-416 886.75,-416 886.75,-410 892.75,-404 898.75,-404 898.75,-404 1085.25,-404 1085.25,-404 1091.25,-404 1097.25,-410 1097.25,-416 1097.25,-416 1097.25,-430 1097.25,-430 1097.25,-436 1091.25,-442 1085.25,-442"/>
<text text-anchor="middle" x="992" y="-426.8" font-family="Times,serif" font-size="14.00">计算兼职教师的年限系数</text>
<text text-anchor="middle" x="992" y="-411.8" font-family="Times,serif" font-size="14.00">(详见兼职教师年限系数流程图)</text>
</g>
<!-- s_c1_n2 -->
<g id="node8" class="node"><title>s_c1_n2</title>
<path fill="bisque" stroke="black" d="M1286.25,-351C1286.25,-351 1079.75,-351 1079.75,-351 1073.75,-351 1067.75,-345 1067.75,-339 1067.75,-339 1067.75,-327 1067.75,-327 1067.75,-321 1073.75,-315 1079.75,-315 1079.75,-315 1286.25,-315 1286.25,-315 1292.25,-315 1298.25,-321 1298.25,-327 1298.25,-327 1298.25,-339 1298.25,-339 1298.25,-345 1292.25,-351 1286.25,-351"/>
<text text-anchor="middle" x="1183" y="-329.3" font-family="Times,serif" font-size="14.00">实际课时费=课时费总和x年限系数</text>
</g>
<!-- s_c1_n1&#45;&gt;s_c1_n2 -->
<g id="edge27" class="edge"><title>s_c1_n1&#45;&gt;s_c1_n2</title>
<path fill="none" stroke="black" d="M1097.6,-410.001C1116.17,-404.63 1134.49,-396.951 1150,-386 1159.17,-379.526 1166.37,-369.614 1171.67,-360.175"/>
<polygon fill="black" stroke="black" points="1174.91,-361.534 1176.35,-351.037 1168.68,-358.347 1174.91,-361.534"/>
</g>
<!-- s_c1_n2&#45;&gt;s4 -->
<g id="edge28" class="edge"><title>s_c1_n2&#45;&gt;s4</title>
<path fill="none" stroke="black" d="M1171.08,-314.623C1153.36,-290.229 1117.64,-246.32 1076,-224 1008.04,-187.575 919.593,-174.684 859.373,-170.209"/>
<polygon fill="black" stroke="black" points="859.43,-166.705 849.214,-169.514 858.952,-173.689 859.43,-166.705"/>
</g>
<!-- s_c1_y2_b&#45;&gt;s4 -->
<g id="edge24" class="edge"><title>s_c1_y2_b&#45;&gt;s4</title>
<path fill="none" stroke="black" d="M626.491,-313.991C634.552,-308.439 643.273,-302.161 651,-296 662.659,-286.704 727.897,-226.492 765.064,-192.063"/>
<polygon fill="black" stroke="black" points="767.584,-194.499 772.54,-185.135 762.826,-189.365 767.584,-194.499"/>
</g>
<!-- s_c1_y2_c2 -->
<g id="node11" class="node"><title>s_c1_y2_c2</title>
<path fill="bisque" stroke="black" d="M1055.25,-262C1055.25,-262 752.75,-262 752.75,-262 746.75,-262 740.75,-256 740.75,-250 740.75,-250 740.75,-236 740.75,-236 740.75,-230 746.75,-224 752.75,-224 752.75,-224 1055.25,-224 1055.25,-224 1061.25,-224 1067.25,-230 1067.25,-236 1067.25,-236 1067.25,-250 1067.25,-250 1067.25,-256 1061.25,-262 1055.25,-262"/>
<text text-anchor="middle" x="904" y="-246.8" font-family="Times,serif" font-size="14.00">实际课时费=</text>
<text text-anchor="middle" x="904" y="-231.8" font-family="Times,serif" font-size="14.00">课时费总和&#45;平均课时费x基本工资包含的上课次数</text>
</g>
<!-- s_c1_y2_c1&#45;&gt;s_c1_y2_c2 -->
<g id="edge25" class="edge"><title>s_c1_y2_c1&#45;&gt;s_c1_y2_c2</title>
<path fill="none" stroke="black" d="M917.641,-314.614C915.313,-302.56 912.159,-286.236 909.471,-272.32"/>
<polygon fill="black" stroke="black" points="912.861,-271.413 907.527,-262.259 905.988,-272.741 912.861,-271.413"/>
</g>
<!-- s_c1_y2_c2&#45;&gt;s4 -->
<g id="edge26" class="edge"><title>s_c1_y2_c2&#45;&gt;s4</title>
<path fill="none" stroke="black" d="M876.357,-223.898C861.141,-213.933 842.109,-201.469 825.879,-190.841"/>
<polygon fill="black" stroke="black" points="827.476,-187.703 817.193,-185.153 823.641,-193.559 827.476,-187.703"/>
</g>
<!-- s5 -->
<g id="node13" class="node"><title>s5</title>
<path fill="bisque" stroke="black" d="M844.25,-110C844.25,-110 737.75,-110 737.75,-110 731.75,-110 725.75,-104 725.75,-98 725.75,-98 725.75,-86 725.75,-86 725.75,-80 731.75,-74 737.75,-74 737.75,-74 844.25,-74 844.25,-74 850.25,-74 856.25,-80 856.25,-86 856.25,-86 856.25,-98 856.25,-98 856.25,-104 850.25,-110 844.25,-110"/>
<text text-anchor="middle" x="791" y="-88.3" font-family="Times,serif" font-size="14.00">输出基本工资扣除</text>
</g>
<!-- s4&#45;&gt;s5 -->
<g id="edge22" class="edge"><title>s4&#45;&gt;s5</title>
<path fill="none" stroke="black" d="M791,-148.7C791,-140.245 791,-129.869 791,-120.373"/>
<polygon fill="black" stroke="black" points="794.5,-120.176 791,-110.176 787.5,-120.176 794.5,-120.176"/>
</g>
<!-- s5&#45;&gt;end -->
<g id="edge23" class="edge"><title>s5&#45;&gt;end</title>
<path fill="none" stroke="black" d="M791,-73.937C791,-65.8072 791,-55.8761 791,-46.7047"/>
<polygon fill="black" stroke="black" points="794.5,-46.4406 791,-36.4407 787.5,-46.4407 794.5,-46.4406"/>
</g>
<!-- c1 -->
<g id="node14" class="node"><title>c1</title>
<path fill="beige" stroke="black" d="M587.346,-527.138C587.346,-527.138 537.355,-514.862 537.355,-514.862 531.528,-513.431 531.528,-510.569 537.355,-509.138 537.355,-509.138 587.346,-496.862 587.346,-496.862 593.173,-495.431 604.827,-495.431 610.654,-496.862 610.654,-496.862 660.645,-509.138 660.645,-509.138 666.472,-510.569 666.472,-513.431 660.645,-514.862 660.645,-514.862 610.654,-527.138 610.654,-527.138 604.827,-528.569 593.173,-528.569 587.346,-527.138"/>
<text text-anchor="middle" x="599" y="-508.3" font-family="Times,serif" font-size="14.00">全职教师?</text>
</g>
<!-- c1&#45;&gt;s_c1_y1 -->
<g id="edge17" class="edge"><title>c1&#45;&gt;s_c1_y1</title>
<path fill="none" stroke="black" d="M599,-493.812C599,-481.657 599,-465.114 599,-451.182"/>
<polygon fill="black" stroke="black" points="602.5,-451.153 599,-441.153 595.5,-451.153 602.5,-451.153"/>
<text text-anchor="middle" x="606.5" y="-464.3" font-family="Times,serif" font-size="14.00">是</text>
</g>
<!-- c1&#45;&gt;s_c1_n1 -->
<g id="edge18" class="edge"><title>c1&#45;&gt;s_c1_n1</title>
<path fill="none" stroke="black" d="M635.62,-502.893C695.557,-489.625 816.356,-462.883 900.614,-444.231"/>
<polygon fill="black" stroke="black" points="901.437,-447.633 910.444,-442.054 899.924,-440.799 901.437,-447.633"/>
<text text-anchor="middle" x="827.5" y="-464.3" font-family="Times,serif" font-size="14.00">否</text>
</g>
<!-- sub1_s2 -->
<g id="node16" class="node"><title>sub1_s2</title>
<path fill="bisque" stroke="black" d="M210.25,-846C210.25,-846 57.75,-846 57.75,-846 51.75,-846 45.75,-840 45.75,-834 45.75,-834 45.75,-820 45.75,-820 45.75,-814 51.75,-808 57.75,-808 57.75,-808 210.25,-808 210.25,-808 216.25,-808 222.25,-814 222.25,-820 222.25,-820 222.25,-834 222.25,-834 222.25,-840 216.25,-846 210.25,-846"/>
<text text-anchor="middle" x="134" y="-830.8" font-family="Times,serif" font-size="14.00">选择需要发放薪资的班级,</text>
<text text-anchor="middle" x="134" y="-815.8" font-family="Times,serif" font-size="14.00">生成班级列表</text>
</g>
<!-- sub1_s1&#45;&gt;sub1_s2 -->
<g id="edge1" class="edge"><title>sub1_s1&#45;&gt;sub1_s2</title>
<path fill="none" stroke="black" d="M137.815,-883.7C137.253,-875.49 136.566,-865.469 135.932,-856.201"/>
<polygon fill="black" stroke="black" points="139.421,-855.932 135.246,-846.194 132.438,-856.41 139.421,-855.932"/>
</g>
<!-- sub1_s3 -->
<g id="node17" class="node"><title>sub1_s3</title>
<path fill="bisque" stroke="black" d="M192,-770C192,-770 70,-770 70,-770 64,-770 58,-764 58,-758 58,-758 58,-744 58,-744 58,-738 64,-732 70,-732 70,-732 192,-732 192,-732 198,-732 204,-738 204,-744 204,-744 204,-758 204,-758 204,-764 198,-770 192,-770"/>
<text text-anchor="middle" x="131" y="-754.8" font-family="Times,serif" font-size="14.00">初始化课时费总和=0</text>
<text text-anchor="middle" x="131" y="-739.8" font-family="Times,serif" font-size="14.00">上课次数总和=0</text>
</g>
<!-- sub1_s2&#45;&gt;sub1_s3 -->
<g id="edge2" class="edge"><title>sub1_s2&#45;&gt;sub1_s3</title>
<path fill="none" stroke="black" d="M133.258,-807.708C132.924,-799.464 132.522,-789.538 132.15,-780.362"/>
<polygon fill="black" stroke="black" points="135.635,-779.932 131.733,-770.082 128.641,-780.215 135.635,-779.932"/>
</g>
<!-- sub1_c1 -->
<g id="node25" class="node"><title>sub1_c1</title>
<path fill="beige" stroke="black" d="M118.194,-691.851C118.194,-691.851 42.9017,-678.149 42.9017,-678.149 36.9987,-677.074 36.9987,-674.926 42.9017,-673.851 42.9017,-673.851 118.194,-660.149 118.194,-660.149 124.097,-659.074 135.903,-659.074 141.806,-660.149 141.806,-660.149 217.098,-673.851 217.098,-673.851 223.001,-674.926 223.001,-677.074 217.098,-678.149 217.098,-678.149 141.806,-691.851 141.806,-691.851 135.903,-692.926 124.097,-692.926 118.194,-691.851"/>
<text text-anchor="middle" x="130" y="-672.3" font-family="Times,serif" font-size="14.00">班级列表为空?</text>
</g>
<!-- sub1_s3&#45;&gt;sub1_c1 -->
<g id="edge3" class="edge"><title>sub1_s3&#45;&gt;sub1_c1</title>
<path fill="none" stroke="black" d="M130.753,-731.955C130.64,-723.701 130.503,-713.738 130.378,-704.574"/>
<polygon fill="black" stroke="black" points="133.874,-704.286 130.237,-694.335 126.875,-704.382 133.874,-704.286"/>
</g>
<!-- sub1_s_c1_y1 -->
<g id="node18" class="node"><title>sub1_s_c1_y1</title>
<path fill="bisque" stroke="black" d="M350,-606C350,-606 254,-606 254,-606 248,-606 242,-600 242,-594 242,-594 242,-580 242,-580 242,-574 248,-568 254,-568 254,-568 350,-568 350,-568 356,-568 362,-574 362,-580 362,-580 362,-594 362,-594 362,-600 356,-606 350,-606"/>
<text text-anchor="middle" x="302" y="-590.8" font-family="Times,serif" font-size="14.00">输出课时费总和,</text>
<text text-anchor="middle" x="302" y="-575.8" font-family="Times,serif" font-size="14.00">上课次数总和</text>
</g>
<!-- sub1_s_c1_y1&#45;&gt;c1 -->
<g id="edge16" class="edge"><title>sub1_s_c1_y1&#45;&gt;c1</title>
<path fill="none" stroke="black" d="M362.102,-571.227C418.991,-557.245 503.092,-536.573 554.284,-523.991"/>
<polygon fill="black" stroke="black" points="555.191,-527.372 564.066,-521.586 553.52,-520.575 555.191,-527.372"/>
</g>
<!-- sub1_s_c1_n1 -->
<g id="node19" class="node"><title>sub1_s_c1_n1</title>
<path fill="bisque" stroke="black" d="M212,-605C212,-605 48,-605 48,-605 42,-605 36,-599 36,-593 36,-593 36,-581 36,-581 36,-575 42,-569 48,-569 48,-569 212,-569 212,-569 218,-569 224,-575 224,-581 224,-581 224,-593 224,-593 224,-599 218,-605 212,-605"/>
<text text-anchor="middle" x="130" y="-583.3" font-family="Times,serif" font-size="14.00">从班级列表中取出一个班级</text>
</g>
<!-- sub1_s_c1_n2 -->
<g id="node20" class="node"><title>sub1_s_c1_n2</title>
<path fill="bisque" stroke="black" d="M257.25,-530C257.25,-530 56.75,-530 56.75,-530 50.75,-530 44.75,-524 44.75,-518 44.75,-518 44.75,-506 44.75,-506 44.75,-500 50.75,-494 56.75,-494 56.75,-494 257.25,-494 257.25,-494 263.25,-494 269.25,-500 269.25,-506 269.25,-506 269.25,-518 269.25,-518 269.25,-524 263.25,-530 257.25,-530"/>
<text text-anchor="middle" x="157" y="-508.3" font-family="Times,serif" font-size="14.00">列出当前班级所有上课情况(按次)</text>
</g>
<!-- sub1_s_c1_n1&#45;&gt;sub1_s_c1_n2 -->
<g id="edge6" class="edge"><title>sub1_s_c1_n1&#45;&gt;sub1_s_c1_n2</title>
<path fill="none" stroke="black" d="M136.399,-568.7C139.593,-560.063 143.529,-549.422 147.102,-539.762"/>
<polygon fill="black" stroke="black" points="150.461,-540.769 150.647,-530.176 143.896,-538.341 150.461,-540.769"/>
</g>
<!-- sub1_s_c1_n3 -->
<g id="node21" class="node"><title>sub1_s_c1_n3</title>
<path fill="bisque" stroke="black" d="M261,-442C261,-442 65,-442 65,-442 59,-442 53,-436 53,-430 53,-430 53,-416 53,-416 53,-410 59,-404 65,-404 65,-404 261,-404 261,-404 267,-404 273,-410 273,-416 273,-416 273,-430 273,-430 273,-436 267,-442 261,-442"/>
<text text-anchor="middle" x="163" y="-426.8" font-family="Times,serif" font-size="14.00">选择需要计算课时费的上课情况,</text>
<text text-anchor="middle" x="163" y="-411.8" font-family="Times,serif" font-size="14.00">生成上课情况列表</text>
</g>
<!-- sub1_s_c1_n2&#45;&gt;sub1_s_c1_n3 -->
<g id="edge7" class="edge"><title>sub1_s_c1_n2&#45;&gt;sub1_s_c1_n3</title>
<path fill="none" stroke="black" d="M158.185,-493.812C158.999,-482.011 160.098,-466.072 161.041,-452.404"/>
<polygon fill="black" stroke="black" points="164.559,-452.268 161.755,-442.051 157.575,-451.787 164.559,-452.268"/>
</g>
<!-- sub1_s_c1_n4 -->
<g id="node22" class="node"><title>sub1_s_c1_n4</title>
<path fill="bisque" stroke="black" d="M283.25,-352C283.25,-352 48.75,-352 48.75,-352 42.75,-352 36.75,-346 36.75,-340 36.75,-340 36.75,-326 36.75,-326 36.75,-320 42.75,-314 48.75,-314 48.75,-314 283.25,-314 283.25,-314 289.25,-314 295.25,-320 295.25,-326 295.25,-326 295.25,-340 295.25,-340 295.25,-346 289.25,-352 283.25,-352"/>
<text text-anchor="middle" x="166" y="-336.8" font-family="Times,serif" font-size="14.00">计算给定班级的上课情况列表的课时费</text>
<text text-anchor="middle" x="166" y="-321.8" font-family="Times,serif" font-size="14.00">(详见课时费计算流程图)</text>
</g>
<!-- sub1_s_c1_n3&#45;&gt;sub1_s_c1_n4 -->
<g id="edge8" class="edge"><title>sub1_s_c1_n3&#45;&gt;sub1_s_c1_n4</title>
<path fill="none" stroke="black" d="M163.622,-403.766C164.028,-391.849 164.567,-376.038 165.029,-362.482"/>
<polygon fill="black" stroke="black" points="168.536,-362.324 165.379,-352.21 161.54,-362.085 168.536,-362.324"/>
</g>
<!-- sub1_s_c1_n5 -->
<g id="node23" class="node"><title>sub1_s_c1_n5</title>
<path fill="bisque" stroke="black" d="M208.25,-261C208.25,-261 59.75,-261 59.75,-261 53.75,-261 47.75,-255 47.75,-249 47.75,-249 47.75,-237 47.75,-237 47.75,-231 53.75,-225 59.75,-225 59.75,-225 208.25,-225 208.25,-225 214.25,-225 220.25,-231 220.25,-237 220.25,-237 220.25,-249 220.25,-249 220.25,-255 214.25,-261 208.25,-261"/>
<text text-anchor="middle" x="134" y="-239.3" font-family="Times,serif" font-size="14.00">将课时费计入课时费总和</text>
</g>
<!-- sub1_s_c1_n4&#45;&gt;sub1_s_c1_n5 -->
<g id="edge9" class="edge"><title>sub1_s_c1_n4&#45;&gt;sub1_s_c1_n5</title>
<path fill="none" stroke="black" d="M159.37,-313.766C154.832,-301.289 148.743,-284.544 143.668,-270.586"/>
<polygon fill="black" stroke="black" points="146.894,-269.218 140.188,-261.016 140.316,-271.61 146.894,-269.218"/>
</g>
<!-- sub1_s_c1_n6 -->
<g id="node24" class="node"><title>sub1_s_c1_n6</title>
<path fill="bisque" stroke="black" d="M198,-186C198,-186 34,-186 34,-186 28,-186 22,-180 22,-174 22,-174 22,-160 22,-160 22,-154 28,-148 34,-148 34,-148 198,-148 198,-148 204,-148 210,-154 210,-160 210,-160 210,-174 210,-174 210,-180 204,-186 198,-186"/>
<text text-anchor="middle" x="116" y="-170.8" font-family="Times,serif" font-size="14.00">将上课情况列表的上课次数</text>
<text text-anchor="middle" x="116" y="-155.8" font-family="Times,serif" font-size="14.00">计入上课次数总和</text>
</g>
<!-- sub1_s_c1_n5&#45;&gt;sub1_s_c1_n6 -->
<g id="edge10" class="edge"><title>sub1_s_c1_n5&#45;&gt;sub1_s_c1_n6</title>
<path fill="none" stroke="black" d="M129.825,-224.837C127.751,-216.308 125.191,-205.783 122.84,-196.118"/>
<polygon fill="black" stroke="black" points="126.168,-194.992 120.403,-186.102 119.366,-196.646 126.168,-194.992"/>
</g>
<!-- sub1_s_c1_n6&#45;&gt;sub1_c1 -->
<g id="edge11" class="edge"><title>sub1_s_c1_n6&#45;&gt;sub1_c1</title>
<path fill="none" stroke="black" d="M63.0221,-186.081C39.4841,-197.787 17,-215.821 17,-242 17,-588 17,-588 17,-588 17,-624.013 53.4791,-647.188 84.9843,-660.488"/>
<polygon fill="black" stroke="black" points="83.9709,-663.852 94.5561,-664.302 86.5619,-657.349 83.9709,-663.852"/>
</g>
<!-- sub1_c1&#45;&gt;sub1_s_c1_y1 -->
<g id="edge4" class="edge"><title>sub1_c1&#45;&gt;sub1_s_c1_y1</title>
<path fill="none" stroke="black" d="M155.01,-662.349C181.638,-648.881 224.336,-627.283 256.869,-610.828"/>
<polygon fill="black" stroke="black" points="258.837,-613.755 266.18,-606.118 255.677,-607.509 258.837,-613.755"/>
<text text-anchor="middle" x="234.5" y="-628.3" font-family="Times,serif" font-size="14.00">是</text>
</g>
<!-- sub1_c1&#45;&gt;sub1_s_c1_n1 -->
<g id="edge5" class="edge"><title>sub1_c1&#45;&gt;sub1_s_c1_n1</title>
<path fill="none" stroke="black" d="M130,-657.812C130,-645.657 130,-629.114 130,-615.182"/>
<polygon fill="black" stroke="black" points="133.5,-615.153 130,-605.153 126.5,-615.153 133.5,-615.153"/>
<text text-anchor="middle" x="137.5" y="-628.3" font-family="Times,serif" font-size="14.00">否</text>
</g>
</g>
</svg>
