<?xml version="1.0" encoding="UTF-8" standalone="no"?>
<!DOCTYPE svg PUBLIC "-//W3C//DTD SVG 1.1//EN"
 "http://www.w3.org/Graphics/SVG/1.1/DTD/svg11.dtd">
<!-- Generated by graphviz version 2.30.1 (20180420.1509)
 -->
<!-- Title: %3 Pages: 1 -->
<svg width="1564pt" height="1259pt"
 viewBox="0.00 0.00 1564.00 1259.00" xmlns="http://www.w3.org/2000/svg" xmlns:xlink="http://www.w3.org/1999/xlink">
<g id="graph0" class="graph" transform="scale(1 1) rotate(0) translate(4 1255)">
<title>%3</title>
<polygon fill="white" stroke="white" points="-4,5 -4,-1255 1561,-1255 1561,5 -4,5"/>
<g id="clust1" class="cluster"><title>cluster1</title>
<polygon fill="aliceblue" stroke="aliceblue" points="769,-515 769,-947 1548,-947 1548,-515 769,-515"/>
<text text-anchor="middle" x="1158.5" y="-931.8" font-family="Times,serif" font-size="14.00">计算该次被代课需要扣除的薪资</text>
</g>
<g id="clust2" class="cluster"><title>cluster2</title>
<polygon fill="aliceblue" stroke="aliceblue" points="519,-8 519,-495 1332,-495 1332,-8 519,-8"/>
<text text-anchor="middle" x="925.5" y="-479.8" font-family="Times,serif" font-size="14.00">计算该次代课老师得到的代课费</text>
</g>
<!-- start -->
<g id="node1" class="node"><title>start</title>
<path fill="aquamarine" stroke="black" d="M635,-1251C635,-1251 605,-1251 605,-1251 599,-1251 593,-1245 593,-1239 593,-1239 593,-1227 593,-1227 593,-1221 599,-1215 605,-1215 605,-1215 635,-1215 635,-1215 641,-1215 647,-1221 647,-1227 647,-1227 647,-1239 647,-1239 647,-1245 641,-1251 635,-1251"/>
<text text-anchor="middle" x="620" y="-1229.3" font-family="Times,serif" font-size="14.00">开始</text>
</g>
<!-- s1 -->
<g id="node3" class="node"><title>s1</title>
<path fill="bisque" stroke="black" d="M659,-1177C659,-1177 581,-1177 581,-1177 575,-1177 569,-1171 569,-1165 569,-1165 569,-1153 569,-1153 569,-1147 575,-1141 581,-1141 581,-1141 659,-1141 659,-1141 665,-1141 671,-1147 671,-1153 671,-1153 671,-1165 671,-1165 671,-1171 665,-1177 659,-1177"/>
<text text-anchor="middle" x="620" y="-1155.3" font-family="Times,serif" font-size="14.00">选择一个教师</text>
</g>
<!-- start&#45;&gt;s1 -->
<g id="edge1" class="edge"><title>start&#45;&gt;s1</title>
<path fill="none" stroke="black" d="M620,-1214.94C620,-1206.81 620,-1196.88 620,-1187.7"/>
<polygon fill="black" stroke="black" points="623.5,-1187.44 620,-1177.44 616.5,-1187.44 623.5,-1187.44"/>
</g>
<!-- end -->
<g id="node2" class="node"><title>end</title>
<path fill="aquamarine" stroke="black" d="M499,-464C499,-464 469,-464 469,-464 463,-464 457,-458 457,-452 457,-452 457,-440 457,-440 457,-434 463,-428 469,-428 469,-428 499,-428 499,-428 505,-428 511,-434 511,-440 511,-440 511,-452 511,-452 511,-458 505,-464 499,-464"/>
<text text-anchor="middle" x="484" y="-442.3" font-family="Times,serif" font-size="14.00">结束</text>
</g>
<!-- s2 -->
<g id="node4" class="node"><title>s2</title>
<path fill="bisque" stroke="black" d="M659,-1103C659,-1103 581,-1103 581,-1103 575,-1103 569,-1097 569,-1091 569,-1091 569,-1079 569,-1079 569,-1073 575,-1067 581,-1067 581,-1067 659,-1067 659,-1067 665,-1067 671,-1073 671,-1079 671,-1079 671,-1091 671,-1091 671,-1097 665,-1103 659,-1103"/>
<text text-anchor="middle" x="620" y="-1081.3" font-family="Times,serif" font-size="14.00">选定一个月份</text>
</g>
<!-- s1&#45;&gt;s2 -->
<g id="edge2" class="edge"><title>s1&#45;&gt;s2</title>
<path fill="none" stroke="black" d="M620,-1140.94C620,-1132.81 620,-1122.88 620,-1113.7"/>
<polygon fill="black" stroke="black" points="623.5,-1113.44 620,-1103.44 616.5,-1113.44 623.5,-1113.44"/>
</g>
<!-- s3 -->
<g id="node5" class="node"><title>s3</title>
<path fill="bisque" stroke="black" d="M711,-1028.5C711,-1028.5 529,-1028.5 529,-1028.5 523,-1028.5 517,-1022.5 517,-1016.5 517,-1016.5 517,-987.5 517,-987.5 517,-981.5 523,-975.5 529,-975.5 529,-975.5 711,-975.5 711,-975.5 717,-975.5 723,-981.5 723,-987.5 723,-987.5 723,-1016.5 723,-1016.5 723,-1022.5 717,-1028.5 711,-1028.5"/>
<text text-anchor="middle" x="620" y="-1013.3" font-family="Times,serif" font-size="14.00">初始化该教师薪资扣除表</text>
<text text-anchor="middle" x="620" y="-998.3" font-family="Times,serif" font-size="14.00">(该教师每次被代课的薪资扣除</text>
<text text-anchor="middle" x="620" y="-983.3" font-family="Times,serif" font-size="14.00">及发给代课教师的课时费)</text>
</g>
<!-- s2&#45;&gt;s3 -->
<g id="edge3" class="edge"><title>s2&#45;&gt;s3</title>
<path fill="none" stroke="black" d="M620,-1066.82C620,-1058.71 620,-1048.69 620,-1039.02"/>
<polygon fill="black" stroke="black" points="623.5,-1038.77 620,-1028.78 616.5,-1038.78 623.5,-1038.77"/>
</g>
<!-- s4 -->
<g id="node6" class="node"><title>s4</title>
<path fill="bisque" stroke="black" d="M687.25,-917C687.25,-917 552.75,-917 552.75,-917 546.75,-917 540.75,-911 540.75,-905 540.75,-905 540.75,-891 540.75,-891 540.75,-885 546.75,-879 552.75,-879 552.75,-879 687.25,-879 687.25,-879 693.25,-879 699.25,-885 699.25,-891 699.25,-891 699.25,-905 699.25,-905 699.25,-911 693.25,-917 687.25,-917"/>
<text text-anchor="middle" x="620" y="-901.8" font-family="Times,serif" font-size="14.00">计算该教师实际课时费</text>
<text text-anchor="middle" x="620" y="-886.8" font-family="Times,serif" font-size="14.00">(详见流程图)</text>
</g>
<!-- s3&#45;&gt;s4 -->
<g id="edge4" class="edge"><title>s3&#45;&gt;s4</title>
<path fill="none" stroke="black" d="M620,-975.261C620,-960.634 620,-942.298 620,-927.272"/>
<polygon fill="black" stroke="black" points="623.5,-927.015 620,-917.015 616.5,-927.015 623.5,-927.015"/>
</g>
<!-- s5 -->
<g id="node7" class="node"><title>s5</title>
<path fill="bisque" stroke="black" d="M709,-841C709,-841 531,-841 531,-841 525,-841 519,-835 519,-829 519,-829 519,-817 519,-817 519,-811 525,-805 531,-805 531,-805 709,-805 709,-805 715,-805 721,-811 721,-817 721,-817 721,-829 721,-829 721,-835 715,-841 709,-841"/>
<text text-anchor="middle" x="620" y="-819.3" font-family="Times,serif" font-size="14.00">得到班级课次对应课时费报表</text>
</g>
<!-- s4&#45;&gt;s5 -->
<g id="edge5" class="edge"><title>s4&#45;&gt;s5</title>
<path fill="none" stroke="black" d="M620,-878.955C620,-870.701 620,-860.738 620,-851.574"/>
<polygon fill="black" stroke="black" points="623.5,-851.335 620,-841.335 616.5,-851.335 623.5,-851.335"/>
</g>
<!-- s6 -->
<g id="node8" class="node"><title>s6</title>
<path fill="bisque" stroke="black" d="M709,-752.5C709,-752.5 531,-752.5 531,-752.5 525,-752.5 519,-746.5 519,-740.5 519,-740.5 519,-711.5 519,-711.5 519,-705.5 525,-699.5 531,-699.5 531,-699.5 709,-699.5 709,-699.5 715,-699.5 721,-705.5 721,-711.5 721,-711.5 721,-740.5 721,-740.5 721,-746.5 715,-752.5 709,-752.5"/>
<text text-anchor="middle" x="620" y="-737.3" font-family="Times,serif" font-size="14.00">在班级课次对应课时费报表中</text>
<text text-anchor="middle" x="620" y="-722.3" font-family="Times,serif" font-size="14.00">查找被代课的上课记录</text>
<text text-anchor="middle" x="620" y="-707.3" font-family="Times,serif" font-size="14.00">生成被代课报表</text>
</g>
<!-- s5&#45;&gt;s6 -->
<g id="edge6" class="edge"><title>s5&#45;&gt;s6</title>
<path fill="none" stroke="black" d="M620,-804.576C620,-792.851 620,-776.974 620,-762.638"/>
<polygon fill="black" stroke="black" points="623.5,-762.552 620,-752.552 616.5,-762.552 623.5,-762.552"/>
</g>
<!-- c1 -->
<g id="node12" class="node"><title>c1</title>
<path fill="beige" stroke="black" d="M494.101,-645.45C494.101,-645.45 379.709,-630.55 379.709,-630.55 373.76,-629.775 373.76,-628.225 379.709,-627.45 379.709,-627.45 494.101,-612.55 494.101,-612.55 500.05,-611.775 511.95,-611.775 517.899,-612.55 517.899,-612.55 632.291,-627.45 632.291,-627.45 638.24,-628.225 638.24,-629.775 632.291,-630.55 632.291,-630.55 517.899,-645.45 517.899,-645.45 511.95,-646.225 500.05,-646.225 494.101,-645.45"/>
<text text-anchor="middle" x="506" y="-625.3" font-family="Times,serif" font-size="14.00">被代课报表是否为空?</text>
</g>
<!-- s6&#45;&gt;c1 -->
<g id="edge7" class="edge"><title>s6&#45;&gt;c1</title>
<path fill="none" stroke="black" d="M589.15,-699.292C571.13,-684.275 548.657,-665.548 531.619,-651.35"/>
<polygon fill="black" stroke="black" points="533.658,-648.492 523.735,-644.779 529.177,-653.87 533.658,-648.492"/>
</g>
<!-- s7 -->
<g id="node9" class="node"><title>s7</title>
<path fill="bisque" stroke="black" d="M488.25,-841C488.25,-841 11.75,-841 11.75,-841 5.75,-841 -0.25,-835 -0.25,-829 -0.25,-829 -0.25,-817 -0.25,-817 -0.25,-811 5.75,-805 11.75,-805 11.75,-805 488.25,-805 488.25,-805 494.25,-805 500.25,-811 500.25,-817 500.25,-817 500.25,-829 500.25,-829 500.25,-835 494.25,-841 488.25,-841"/>
<text text-anchor="middle" x="250" y="-819.3" font-family="Times,serif" font-size="14.00">将该次上课教师薪资扣除，代课教师代课费生成新记录，追加到薪资扣除表中</text>
</g>
<!-- s9 -->
<g id="node11" class="node"><title>s9</title>
<path fill="bisque" stroke="black" d="M488.25,-744C488.25,-744 289.75,-744 289.75,-744 283.75,-744 277.75,-738 277.75,-732 277.75,-732 277.75,-720 277.75,-720 277.75,-714 283.75,-708 289.75,-708 289.75,-708 488.25,-708 488.25,-708 494.25,-708 500.25,-714 500.25,-720 500.25,-720 500.25,-732 500.25,-732 500.25,-738 494.25,-744 488.25,-744"/>
<text text-anchor="middle" x="389" y="-722.3" font-family="Times,serif" font-size="14.00">从被代课报表中取出1次代课记录</text>
</g>
<!-- s7&#45;&gt;s9 -->
<g id="edge27" class="edge"><title>s7&#45;&gt;s9</title>
<path fill="none" stroke="black" d="M275.172,-804.796C297.706,-789.395 330.912,-766.701 355.65,-749.793"/>
<polygon fill="black" stroke="black" points="357.734,-752.608 364.015,-744.076 353.784,-746.829 357.734,-752.608"/>
</g>
<!-- s8 -->
<g id="node10" class="node"><title>s8</title>
<path fill="bisque" stroke="black" d="M554.25,-559C554.25,-559 419.75,-559 419.75,-559 413.75,-559 407.75,-553 407.75,-547 407.75,-547 407.75,-535 407.75,-535 407.75,-529 413.75,-523 419.75,-523 419.75,-523 554.25,-523 554.25,-523 560.25,-523 566.25,-529 566.25,-535 566.25,-535 566.25,-547 566.25,-547 566.25,-553 560.25,-559 554.25,-559"/>
<text text-anchor="middle" x="487" y="-537.3" font-family="Times,serif" font-size="14.00">输出该教师薪资扣除表</text>
</g>
<!-- s8&#45;&gt;end -->
<g id="edge29" class="edge"><title>s8&#45;&gt;end</title>
<path fill="none" stroke="black" d="M486.45,-522.942C486.013,-509.394 485.393,-490.18 484.886,-474.469"/>
<polygon fill="black" stroke="black" points="488.378,-474.146 484.557,-464.264 481.381,-474.372 488.378,-474.146"/>
</g>
<!-- s9&#45;&gt;c1 -->
<g id="edge28" class="edge"><title>s9&#45;&gt;c1</title>
<path fill="none" stroke="black" d="M410.188,-707.796C429.721,-691.936 458.78,-668.341 479.771,-651.297"/>
<polygon fill="black" stroke="black" points="482.106,-653.91 487.662,-644.889 477.693,-648.476 482.106,-653.91"/>
</g>
<!-- c1&#45;&gt;s8 -->
<g id="edge8" class="edge"><title>c1&#45;&gt;s8</title>
<path fill="none" stroke="black" d="M502.337,-611.418C499.69,-599.439 496.056,-582.992 492.99,-569.115"/>
<polygon fill="black" stroke="black" points="496.357,-568.129 490.782,-559.119 489.522,-569.639 496.357,-568.129"/>
<text text-anchor="middle" x="506.5" y="-581.3" font-family="Times,serif" font-size="14.00">是</text>
</g>
<!-- sub1_s1 -->
<g id="node13" class="node"><title>sub1_s1</title>
<path fill="bisque" stroke="black" d="M1030.25,-916C1030.25,-916 937.75,-916 937.75,-916 931.75,-916 925.75,-910 925.75,-904 925.75,-904 925.75,-892 925.75,-892 925.75,-886 931.75,-880 937.75,-880 937.75,-880 1030.25,-880 1030.25,-880 1036.25,-880 1042.25,-886 1042.25,-892 1042.25,-892 1042.25,-904 1042.25,-904 1042.25,-910 1036.25,-916 1030.25,-916"/>
<text text-anchor="middle" x="984" y="-894.3" font-family="Times,serif" font-size="14.00">初始薪资扣除=0</text>
</g>
<!-- c1&#45;&gt;sub1_s1 -->
<g id="edge9" class="edge"><title>c1&#45;&gt;sub1_s1</title>
<path fill="none" stroke="black" d="M571.133,-638.521C618.768,-647.341 683.002,-664.862 730,-699 753.744,-716.247 746.989,-732.512 768,-753 821.242,-804.917 895.583,-849.73 941.707,-875.03"/>
<polygon fill="black" stroke="black" points="940.082,-878.13 950.541,-879.826 943.422,-871.978 940.082,-878.13"/>
<text text-anchor="middle" x="812.5" y="-775.3" font-family="Times,serif" font-size="14.00">否</text>
</g>
<!-- sub1_c1 -->
<g id="node17" class="node"><title>sub1_c1</title>
<path fill="beige" stroke="black" d="M1121.08,-839.584C1121.08,-839.584 993.425,-824.416 993.425,-824.416 987.467,-823.708 987.467,-822.292 993.425,-821.584 993.425,-821.584 1121.08,-806.416 1121.08,-806.416 1127.04,-805.708 1138.96,-805.708 1144.92,-806.416 1144.92,-806.416 1272.58,-821.584 1272.58,-821.584 1278.53,-822.292 1278.53,-823.708 1272.58,-824.416 1272.58,-824.416 1144.92,-839.584 1144.92,-839.584 1138.96,-840.292 1127.04,-840.292 1121.08,-839.584"/>
<text text-anchor="middle" x="1133" y="-819.3" font-family="Times,serif" font-size="14.00">被代课教师是全职教师?</text>
</g>
<!-- sub1_s1&#45;&gt;sub1_c1 -->
<g id="edge10" class="edge"><title>sub1_s1&#45;&gt;sub1_c1</title>
<path fill="none" stroke="black" d="M1018.93,-879.885C1042.02,-868.575 1072.24,-853.767 1095.78,-842.236"/>
<polygon fill="black" stroke="black" points="1097.33,-845.375 1104.77,-837.833 1094.25,-839.089 1097.33,-845.375"/>
</g>
<!-- sub1_s2 -->
<g id="node14" class="node"><title>sub1_s2</title>
<path fill="bisque" stroke="black" d="M1398,-647C1398,-647 1240,-647 1240,-647 1234,-647 1228,-641 1228,-635 1228,-635 1228,-623 1228,-623 1228,-617 1234,-611 1240,-611 1240,-611 1398,-611 1398,-611 1404,-611 1410,-617 1410,-623 1410,-623 1410,-635 1410,-635 1410,-641 1404,-647 1398,-647"/>
<text text-anchor="middle" x="1319" y="-625.3" font-family="Times,serif" font-size="14.00">薪资扣除=该次课的课时费</text>
</g>
<!-- sub1_s4 -->
<g id="node16" class="node"><title>sub1_s4</title>
<path fill="bisque" stroke="black" d="M1261,-559C1261,-559 1183,-559 1183,-559 1177,-559 1171,-553 1171,-547 1171,-547 1171,-535 1171,-535 1171,-529 1177,-523 1183,-523 1183,-523 1261,-523 1261,-523 1267,-523 1273,-529 1273,-535 1273,-535 1273,-547 1273,-547 1273,-553 1267,-559 1261,-559"/>
<text text-anchor="middle" x="1222" y="-537.3" font-family="Times,serif" font-size="14.00">输出薪资扣除</text>
</g>
<!-- sub1_s2&#45;&gt;sub1_s4 -->
<g id="edge15" class="edge"><title>sub1_s2&#45;&gt;sub1_s4</title>
<path fill="none" stroke="black" d="M1299.37,-610.597C1284.81,-597.69 1264.8,-579.946 1248.77,-565.738"/>
<polygon fill="black" stroke="black" points="1251.07,-563.099 1241.27,-559.084 1246.43,-568.337 1251.07,-563.099"/>
</g>
<!-- sub1_s3 -->
<g id="node15" class="node"><title>sub1_s3</title>
<path fill="bisque" stroke="black" d="M1197.25,-647C1197.25,-647 1068.75,-647 1068.75,-647 1062.75,-647 1056.75,-641 1056.75,-635 1056.75,-635 1056.75,-623 1056.75,-623 1056.75,-617 1062.75,-611 1068.75,-611 1068.75,-611 1197.25,-611 1197.25,-611 1203.25,-611 1209.25,-617 1209.25,-623 1209.25,-623 1209.25,-635 1209.25,-635 1209.25,-641 1203.25,-647 1197.25,-647"/>
<text text-anchor="middle" x="1133" y="-625.3" font-family="Times,serif" font-size="14.00">薪资扣除=一个固定值</text>
</g>
<!-- sub1_s3&#45;&gt;sub1_s4 -->
<g id="edge16" class="edge"><title>sub1_s3&#45;&gt;sub1_s4</title>
<path fill="none" stroke="black" d="M1151.01,-610.597C1164.25,-597.807 1182.4,-580.268 1197.03,-566.126"/>
<polygon fill="black" stroke="black" points="1199.56,-568.55 1204.32,-559.084 1194.7,-563.516 1199.56,-568.55"/>
</g>
<!-- sub2_s1 -->
<g id="node19" class="node"><title>sub2_s1</title>
<path fill="bisque" stroke="black" d="M1261.25,-464C1261.25,-464 1182.75,-464 1182.75,-464 1176.75,-464 1170.75,-458 1170.75,-452 1170.75,-452 1170.75,-440 1170.75,-440 1170.75,-434 1176.75,-428 1182.75,-428 1182.75,-428 1261.25,-428 1261.25,-428 1267.25,-428 1273.25,-434 1273.25,-440 1273.25,-440 1273.25,-452 1273.25,-452 1273.25,-458 1267.25,-464 1261.25,-464"/>
<text text-anchor="middle" x="1222" y="-442.3" font-family="Times,serif" font-size="14.00">初始代课费=0</text>
</g>
<!-- sub1_s4&#45;&gt;sub2_s1 -->
<g id="edge17" class="edge"><title>sub1_s4&#45;&gt;sub2_s1</title>
<path fill="none" stroke="black" d="M1222,-522.942C1222,-509.394 1222,-490.18 1222,-474.469"/>
<polygon fill="black" stroke="black" points="1225.5,-474.264 1222,-464.264 1218.5,-474.264 1225.5,-474.264"/>
</g>
<!-- sub1_c2 -->
<g id="node18" class="node"><title>sub1_c2</title>
<path fill="beige" stroke="black" d="M1121.02,-743.393C1121.02,-743.393 789.414,-726.607 789.414,-726.607 783.422,-726.303 783.422,-725.697 789.414,-725.393 789.414,-725.393 1121.02,-708.607 1121.02,-708.607 1127.01,-708.303 1138.99,-708.303 1144.98,-708.607 1144.98,-708.607 1476.59,-725.393 1476.59,-725.393 1482.58,-725.697 1482.58,-726.303 1476.59,-726.607 1476.59,-726.607 1144.98,-743.393 1144.98,-743.393 1138.99,-743.697 1127.01,-743.697 1121.02,-743.393"/>
<text text-anchor="middle" x="1133" y="-722.3" font-family="Times,serif" font-size="14.00">该教师当月实际上课次数&lt;该教师基本薪资包括的上课次数?</text>
</g>
<!-- sub1_c1&#45;&gt;sub1_c2 -->
<g id="edge11" class="edge"><title>sub1_c1&#45;&gt;sub1_c2</title>
<path fill="none" stroke="black" d="M1133,-804.576C1133,-790.648 1133,-770.861 1133,-754.757"/>
<polygon fill="black" stroke="black" points="1136.5,-754.314 1133,-744.314 1129.5,-754.314 1136.5,-754.314"/>
<text text-anchor="middle" x="1140.5" y="-775.3" font-family="Times,serif" font-size="14.00">是</text>
</g>
<!-- sub1_c1&#45;&gt;sub1_s2 -->
<g id="edge12" class="edge"><title>sub1_c1&#45;&gt;sub1_s2</title>
<path fill="none" stroke="black" d="M1233.88,-816.92C1329.78,-809.728 1464.13,-792.69 1497,-753 1512.31,-734.517 1510.56,-718.801 1497,-699 1479.09,-672.845 1449.71,-656.602 1419.94,-646.516"/>
<polygon fill="black" stroke="black" points="1420.86,-643.137 1410.27,-643.452 1418.75,-649.81 1420.86,-643.137"/>
<text text-anchor="middle" x="1514.5" y="-722.3" font-family="Times,serif" font-size="14.00">否</text>
</g>
<!-- sub1_c2&#45;&gt;sub1_s3 -->
<g id="edge13" class="edge"><title>sub1_c2&#45;&gt;sub1_s3</title>
<path fill="none" stroke="black" d="M1133,-707.576C1133,-693.648 1133,-673.861 1133,-657.757"/>
<polygon fill="black" stroke="black" points="1136.5,-657.314 1133,-647.314 1129.5,-657.314 1136.5,-657.314"/>
<text text-anchor="middle" x="1140.5" y="-669.3" font-family="Times,serif" font-size="14.00">是</text>
</g>
<!-- sub1_c2&#45;&gt;sub1_s2 -->
<g id="edge14" class="edge"><title>sub1_c2&#45;&gt;sub1_s2</title>
<path fill="none" stroke="black" d="M1163.3,-709.525C1194.1,-693.791 1242.09,-669.282 1276.65,-651.631"/>
<polygon fill="black" stroke="black" points="1278.26,-654.74 1285.57,-647.074 1275.07,-648.506 1278.26,-654.74"/>
<text text-anchor="middle" x="1255.5" y="-669.3" font-family="Times,serif" font-size="14.00">否</text>
</g>
<!-- sub2_c1 -->
<g id="node22" class="node"><title>sub2_c1</title>
<path fill="beige" stroke="black" d="M1210.35,-387.138C1210.35,-387.138 1160.35,-374.862 1160.35,-374.862 1154.53,-373.431 1154.53,-370.569 1160.35,-369.138 1160.35,-369.138 1210.35,-356.862 1210.35,-356.862 1216.17,-355.431 1227.83,-355.431 1233.65,-356.862 1233.65,-356.862 1283.65,-369.138 1283.65,-369.138 1289.47,-370.569 1289.47,-373.431 1283.65,-374.862 1283.65,-374.862 1233.65,-387.138 1233.65,-387.138 1227.83,-388.569 1216.17,-388.569 1210.35,-387.138"/>
<text text-anchor="middle" x="1222" y="-368.3" font-family="Times,serif" font-size="14.00">全职教师?</text>
</g>
<!-- sub2_s1&#45;&gt;sub2_c1 -->
<g id="edge18" class="edge"><title>sub2_s1&#45;&gt;sub2_c1</title>
<path fill="none" stroke="black" d="M1222,-427.937C1222,-419.807 1222,-409.876 1222,-400.705"/>
<polygon fill="black" stroke="black" points="1225.5,-400.441 1222,-390.441 1218.5,-400.441 1225.5,-400.441"/>
</g>
<!-- sub2_s2 -->
<g id="node20" class="node"><title>sub2_s2</title>
<path fill="bisque" stroke="black" d="M1187.25,-126C1187.25,-126 1058.75,-126 1058.75,-126 1052.75,-126 1046.75,-120 1046.75,-114 1046.75,-114 1046.75,-102 1046.75,-102 1046.75,-96 1052.75,-90 1058.75,-90 1058.75,-90 1187.25,-90 1187.25,-90 1193.25,-90 1199.25,-96 1199.25,-102 1199.25,-102 1199.25,-114 1199.25,-114 1199.25,-120 1193.25,-126 1187.25,-126"/>
<text text-anchor="middle" x="1123" y="-104.3" font-family="Times,serif" font-size="14.00">代课费=该次的课时费</text>
</g>
<!-- sub2_s3 -->
<g id="node21" class="node"><title>sub2_s3</title>
<path fill="bisque" stroke="black" d="M922,-52C922,-52 858,-52 858,-52 852,-52 846,-46 846,-40 846,-40 846,-28 846,-28 846,-22 852,-16 858,-16 858,-16 922,-16 922,-16 928,-16 934,-22 934,-28 934,-28 934,-40 934,-40 934,-46 928,-52 922,-52"/>
<text text-anchor="middle" x="890" y="-30.3" font-family="Times,serif" font-size="14.00">输出代课费</text>
</g>
<!-- sub2_s2&#45;&gt;sub2_s3 -->
<g id="edge25" class="edge"><title>sub2_s2&#45;&gt;sub2_s3</title>
<path fill="none" stroke="black" d="M1067.78,-89.937C1030.35,-78.3704 981.122,-63.1579 943.96,-51.6742"/>
<polygon fill="black" stroke="black" points="944.891,-48.2987 934.303,-48.6902 942.824,-54.9867 944.891,-48.2987"/>
</g>
<!-- sub2_s3&#45;&gt;s7 -->
<g id="edge26" class="edge"><title>sub2_s3&#45;&gt;s7</title>
<path fill="none" stroke="black" d="M845.941,-35.3171C701.121,-36.9355 249,-46.8083 249,-107 249,-727 249,-727 249,-727 249,-749.856 249.293,-775.804 249.562,-794.8"/>
<polygon fill="black" stroke="black" points="246.063,-794.892 249.711,-804.839 253.062,-794.788 246.063,-794.892"/>
</g>
<!-- sub2_c2 -->
<g id="node23" class="node"><title>sub2_c2</title>
<path fill="beige" stroke="black" d="M1126.08,-300.584C1126.08,-300.584 998.425,-285.416 998.425,-285.416 992.467,-284.708 992.467,-283.292 998.425,-282.584 998.425,-282.584 1126.08,-267.416 1126.08,-267.416 1132.04,-266.708 1143.96,-266.708 1149.92,-267.416 1149.92,-267.416 1277.58,-282.584 1277.58,-282.584 1283.53,-283.292 1283.53,-284.708 1277.58,-285.416 1277.58,-285.416 1149.92,-300.584 1149.92,-300.584 1143.96,-301.292 1132.04,-301.292 1126.08,-300.584"/>
<text text-anchor="middle" x="1138" y="-280.3" font-family="Times,serif" font-size="14.00">代课发生在上班时间内?</text>
</g>
<!-- sub2_c1&#45;&gt;sub2_c2 -->
<g id="edge19" class="edge"><title>sub2_c1&#45;&gt;sub2_c2</title>
<path fill="none" stroke="black" d="M1208.5,-357.183C1195.43,-343.799 1175.38,-323.274 1160,-307.527"/>
<polygon fill="black" stroke="black" points="1162.37,-304.941 1152.88,-300.233 1157.36,-309.832 1162.37,-304.941"/>
<text text-anchor="middle" x="1194.5" y="-324.3" font-family="Times,serif" font-size="14.00">是</text>
</g>
<!-- sub2_c1&#45;&gt;sub2_s2 -->
<g id="edge20" class="edge"><title>sub2_c1&#45;&gt;sub2_s2</title>
<path fill="none" stroke="black" d="M1242.93,-359.049C1261.31,-347.225 1286.82,-327.258 1298,-302 1309.61,-275.773 1296.49,-195.912 1286,-178 1269.68,-150.122 1239.28,-133.505 1209.11,-123.6"/>
<polygon fill="black" stroke="black" points="1209.93,-120.191 1199.34,-120.615 1207.88,-126.885 1209.93,-120.191"/>
<text text-anchor="middle" x="1308.5" y="-236.3" font-family="Times,serif" font-size="14.00">否</text>
</g>
<!-- sub2_c3 -->
<g id="node24" class="node"><title>sub2_c3</title>
<path fill="beige" stroke="black" d="M878.015,-213.406C878.015,-213.406 538.885,-196.594 538.885,-196.594 532.892,-196.297 532.892,-195.703 538.885,-195.406 538.885,-195.406 878.015,-178.594 878.015,-178.594 884.007,-178.297 895.993,-178.297 901.985,-178.594 901.985,-178.594 1241.12,-195.406 1241.12,-195.406 1247.11,-195.703 1247.11,-196.297 1241.12,-196.594 1241.12,-196.594 901.985,-213.406 901.985,-213.406 895.993,-213.703 884.007,-213.703 878.015,-213.406"/>
<text text-anchor="middle" x="890" y="-192.3" font-family="Times,serif" font-size="14.00">该教师当月实际上课次数&lt;=该教师基本薪资包括的上课次数?</text>
</g>
<!-- sub2_c2&#45;&gt;sub2_c3 -->
<g id="edge21" class="edge"><title>sub2_c2&#45;&gt;sub2_c3</title>
<path fill="none" stroke="black" d="M1101.41,-270.31C1059.43,-255.754 990.267,-231.77 942.542,-215.22"/>
<polygon fill="black" stroke="black" points="943.594,-211.881 932.999,-211.911 941.3,-218.494 943.594,-211.881"/>
<text text-anchor="middle" x="1043.5" y="-236.3" font-family="Times,serif" font-size="14.00">是</text>
</g>
<!-- sub2_c2&#45;&gt;sub2_s2 -->
<g id="edge22" class="edge"><title>sub2_c2&#45;&gt;sub2_s2</title>
<path fill="none" stroke="black" d="M1175.98,-270.423C1221.28,-253.232 1287.86,-219.716 1262,-178 1248.15,-155.663 1224.67,-140.331 1200.92,-129.907"/>
<polygon fill="black" stroke="black" points="1202.04,-126.586 1191.46,-126.011 1199.37,-133.058 1202.04,-126.586"/>
<text text-anchor="middle" x="1274.5" y="-192.3" font-family="Times,serif" font-size="14.00">否</text>
</g>
<!-- sub2_c3&#45;&gt;sub2_s3 -->
<g id="edge23" class="edge"><title>sub2_c3&#45;&gt;sub2_s3</title>
<path fill="none" stroke="black" d="M890,-177.877C890,-150.354 890,-96.0083 890,-62.8486"/>
<polygon fill="black" stroke="black" points="893.5,-62.4847 890,-52.4847 886.5,-62.4848 893.5,-62.4847"/>
<text text-anchor="middle" x="897.5" y="-104.3" font-family="Times,serif" font-size="14.00">是</text>
</g>
<!-- sub2_c3&#45;&gt;sub2_s2 -->
<g id="edge24" class="edge"><title>sub2_c3&#45;&gt;sub2_s2</title>
<path fill="none" stroke="black" d="M930.852,-179.922C968.63,-165.978 1025.11,-145.133 1067.06,-129.646"/>
<polygon fill="black" stroke="black" points="1068.42,-132.877 1076.59,-126.131 1065.99,-126.31 1068.42,-132.877"/>
<text text-anchor="middle" x="1034.5" y="-148.3" font-family="Times,serif" font-size="14.00">否</text>
</g>
</g>
</svg>
